<svg width="62" height="40" viewBox="0 0 62 40" fill="none" xmlns="http://www.w3.org/2000/svg">
<rect x="0.0507812" y="0.173828" width="61.2" height="39.299" rx="9" fill="#143950"/>
<path d="M23.3868 28.0761C22.9736 28.244 22.5811 28.207 22.2092 27.9653C21.8373 27.7245 21.6514 27.3733 21.6514 26.9117V22.2226C21.6514 21.9289 21.734 21.6666 21.8993 21.4359C22.0646 21.2051 22.2918 21.0582 22.5811 20.9953L31.5682 18.7294L22.5811 16.4635C22.2918 16.4006 22.0646 16.2537 21.8993 16.0229C21.734 15.7922 21.6514 15.5299 21.6514 15.2362V10.5471C21.6514 10.0855 21.8373 9.7339 22.2092 9.49221C22.5811 9.25135 22.9736 9.21485 23.3868 9.38269L42.4766 17.565C42.9931 17.7958 43.2514 18.1839 43.2514 18.7294C43.2514 19.2749 42.9931 19.663 42.4766 19.8938L23.3868 28.0761Z" fill="#A3DAE3"/>
</svg>
