<svg width="285" height="170" viewBox="0 0 285 170" fill="none" xmlns="http://www.w3.org/2000/svg">
<path d="M0.568359 24.3018C0.568359 15.901 0.568359 11.7006 2.20326 8.4919C3.64136 5.66947 5.93607 3.37476 8.7585 1.93666C11.9672 0.301758 16.1676 0.301758 24.5684 0.301758H260.722C269.123 0.301758 273.323 0.301758 276.532 1.93666C279.354 3.37476 281.649 5.66947 283.087 8.4919C284.722 11.7006 284.722 15.901 284.722 24.3018V169.947H0.568359V24.3018Z" fill="#F5FBFF"/>
<path d="M118.43 56.8829L112.546 54.4484L110.898 48.2978L110.479 46.7357C110.253 45.8896 110.777 44.9818 111.688 44.7376C112.599 44.4935 113.498 44.9851 113.734 45.8637L114.257 47.8163L120.766 46.0723L120.242 44.1197C119.083 39.7915 114.505 37.286 110.014 38.4894C105.523 39.6927 102.811 44.1515 103.971 48.4797L104.389 50.0418L106.037 56.1924L102.159 61.2429L90.0274 61.5287L119.76 106.753C120.64 108.087 122.142 108.487 123.444 108.138C124.746 107.789 125.847 106.692 125.934 105.064L129.079 51.0648L118.43 56.8829ZM115.838 63.0885L118.817 64.3133L121.61 62.7626L120.42 83.8349L114.743 62.6493L115.838 63.0885ZM105.548 67.9036L107.515 65.3534L108.235 64.3933L113.911 85.5788L102.321 67.9661L105.548 67.9036Z" fill="#A3D9E1"/>
<path d="M145.559 129.638C143.528 129.254 141.887 128.248 140.634 126.62C139.382 124.992 138.849 123.145 139.037 121.077L142.422 86.5035C142.481 85.836 142.71 85.2518 143.11 84.7508C143.51 84.2498 144.036 83.8912 144.687 83.6752C145.273 83.4469 145.806 83.1406 146.286 82.7564C146.766 82.3722 147.068 81.8526 147.192 81.1975C147.303 80.608 147.274 80.0428 147.105 79.5019C146.936 78.9611 146.621 78.4773 146.159 78.0507C145.565 77.5992 145.17 76.9986 144.973 76.2489C144.775 75.4991 144.843 74.7825 145.176 74.0992L149.682 64.2654C150.052 63.3855 150.647 62.7517 151.467 62.364C152.287 61.9763 153.155 61.8691 154.072 62.0426L164.782 64.0687L165.526 60.1384L163.56 59.7667C162.447 59.556 161.585 59.0028 160.974 58.1069C160.363 57.2111 160.163 56.2064 160.374 55.0928C160.584 53.9793 161.137 53.1171 162.033 52.5063C162.929 51.8955 163.934 51.6954 165.047 51.9061L176.838 54.1366C177.952 54.3473 178.814 54.9005 179.425 55.7963C180.036 56.6921 180.236 57.6968 180.025 58.8104C179.814 59.924 179.261 60.7862 178.365 61.397C177.47 62.0078 176.465 62.2078 175.351 61.9972L173.386 61.6254L172.643 65.5557L183.353 67.5818C184.27 67.7553 185.023 68.1691 185.611 68.8232C186.2 69.4774 186.506 70.2816 186.529 71.2358L187.23 82.0547C187.29 82.8125 187.091 83.5042 186.634 84.1301C186.176 84.7559 185.589 85.1707 184.872 85.3743C184.298 85.5371 183.821 85.82 183.439 86.2227C183.058 86.6255 182.811 87.1217 182.7 87.7112C182.563 88.4318 182.629 89.0718 182.896 89.6312C183.164 90.1906 183.561 90.6899 184.089 91.1289C184.616 91.568 184.991 92.0969 185.213 92.7156C185.435 93.3344 185.452 93.9651 185.262 94.6078L175.804 127.93C175.223 129.924 174.049 131.466 172.282 132.556C170.516 133.647 168.617 134 166.586 133.616L145.559 129.638Z" fill="#A3D9E1"/>
</svg>
