<svg width="311" height="111" viewBox="0 0 311 111" fill="none" xmlns="http://www.w3.org/2000/svg">
<g opacity="0.35">
<path d="M121.256 74.3574L178.3 74.3574" stroke="#25434F" stroke-width="13.978" stroke-linecap="round"/>
<mask id="path-2-outside-1_1986_12075" maskUnits="userSpaceOnUse" x="68.3693" y="17.7258" width="71.8671" height="69.7354" fill="black">
<rect fill="white" x="68.3693" y="17.7258" width="71.8671" height="69.7354"/>
<path d="M110.413 78.1653C115.909 77.1377 120.236 75.6049 123.394 73.5667C126.552 71.5286 128.908 69.175 130.463 66.506C131.959 63.7962 132.8 60.8728 132.985 57.7358C133.121 54.6082 132.915 51.4412 132.367 48.2346L127.768 21.3295L117.501 23.2493L122.035 49.7786C122.446 52.1835 122.577 54.4598 122.429 56.6074C122.272 58.7049 121.722 60.6173 120.78 62.3446C119.779 64.0311 118.298 65.4714 116.337 66.6654C114.325 67.8687 111.671 68.7787 108.373 69.3953L105.675 69.8997C102.427 70.507 99.6859 70.6059 97.4504 70.1966C95.165 69.7967 93.2985 68.9824 91.851 67.7536C90.345 66.4841 89.171 64.8939 88.3288 62.9833C87.478 61.0225 86.8471 58.8396 86.4361 56.4347L81.9017 29.9054L71.5593 31.8392L76.1579 58.7442C76.706 61.9508 77.5867 64.9918 78.8 67.8671C79.9633 70.7518 81.7205 73.1894 84.0716 75.1799C86.3641 77.1297 89.354 78.4837 93.0412 79.2419C96.6785 80.0096 101.22 79.8842 106.666 78.866L110.413 78.1653Z"/>
</mask>
<path d="M110.413 78.1653C115.909 77.1377 120.236 75.6049 123.394 73.5667C126.552 71.5286 128.908 69.175 130.463 66.506C131.959 63.7962 132.8 60.8728 132.985 57.7358C133.121 54.6082 132.915 51.4412 132.367 48.2346L127.768 21.3295L117.501 23.2493L122.035 49.7786C122.446 52.1835 122.577 54.4598 122.429 56.6074C122.272 58.7049 121.722 60.6173 120.78 62.3446C119.779 64.0311 118.298 65.4714 116.337 66.6654C114.325 67.8687 111.671 68.7787 108.373 69.3953L105.675 69.8997C102.427 70.507 99.6859 70.6059 97.4504 70.1966C95.165 69.7967 93.2985 68.9824 91.851 67.7536C90.345 66.4841 89.171 64.8939 88.3288 62.9833C87.478 61.0225 86.8471 58.8396 86.4361 56.4347L81.9017 29.9054L71.5593 31.8392L76.1579 58.7442C76.706 61.9508 77.5867 64.9918 78.8 67.8671C79.9633 70.7518 81.7205 73.1894 84.0716 75.1799C86.3641 77.1297 89.354 78.4837 93.0412 79.2419C96.6785 80.0096 101.22 79.8842 106.666 78.866L110.413 78.1653Z" fill="#7ACAD6"/>
<path d="M123.394 73.5667L124.741 75.7053L123.394 73.5667ZM130.463 66.506L132.674 67.7178C132.665 67.7352 132.655 67.7525 132.645 67.7697L130.463 66.506ZM132.985 57.7358L135.517 57.8098C135.517 57.8233 135.516 57.8367 135.515 57.8502L132.985 57.7358ZM127.768 21.3295L127.34 18.8244C128.719 18.5664 130.03 19.4789 130.266 20.8624L127.768 21.3295ZM117.501 23.2493L115.002 23.7164C114.766 22.3328 115.693 21.0021 117.072 20.7441L117.501 23.2493ZM122.429 56.6074L124.957 56.7472C124.957 56.7521 124.957 56.757 124.956 56.7618L122.429 56.6074ZM120.78 62.3446L122.998 63.5448C122.983 63.5723 122.968 63.5996 122.952 63.6265L120.78 62.3446ZM116.337 66.6654L117.626 68.8401C117.62 68.8436 117.615 68.847 117.609 68.8504L116.337 66.6654ZM97.4504 70.1966L97.9203 67.6859C97.9267 67.687 97.9332 67.6882 97.9396 67.6893L97.4504 70.1966ZM91.851 67.7536L93.4961 65.791L93.5026 65.7965L91.851 67.7536ZM88.3288 62.9833L86.0091 64.044C86.0071 64.0396 86.0052 64.0351 86.0032 64.0307L88.3288 62.9833ZM81.9017 29.9054L81.4735 27.4003C82.8532 27.1423 84.1633 28.0547 84.3998 29.4383L81.9017 29.9054ZM71.5593 31.8392L69.0611 32.3063C68.8246 30.9227 69.7514 29.592 71.1311 29.334L71.5593 31.8392ZM78.8 67.8671L81.1355 66.843C81.1407 66.8554 81.1458 66.8677 81.1508 66.8802L78.8 67.8671ZM84.0716 75.1799L85.7206 73.2208L85.7249 73.2243L84.0716 75.1799ZM93.0412 79.2419L93.5839 76.745L93.5965 76.7477L93.0412 79.2419ZM109.985 75.6602C115.301 74.6662 119.273 73.2186 122.047 71.4281L124.741 75.7053C121.2 77.9911 116.517 79.6092 110.842 80.6705L109.985 75.6602ZM122.047 71.4281C124.936 69.5634 126.972 67.4884 128.28 65.2422L132.645 67.7697C130.844 70.8616 128.167 73.4938 124.741 75.7053L122.047 71.4281ZM128.251 65.2942C129.556 62.9293 130.292 60.3821 130.455 57.6215L135.515 57.8502C135.307 61.3635 134.361 64.663 132.674 67.7178L128.251 65.2942ZM130.453 57.6619C130.581 54.7231 130.387 51.7375 129.868 48.7017L134.865 47.7675C135.442 51.1448 135.661 54.4933 135.517 57.8098L130.453 57.6619ZM129.868 48.7017L125.27 21.7966L130.266 20.8624L134.865 47.7675L129.868 48.7017ZM128.196 23.8346L117.929 25.7544L117.072 20.7441L127.34 18.8244L128.196 23.8346ZM119.999 22.7822L124.533 49.3115L119.537 50.2457L115.002 23.7164L119.999 22.7822ZM124.533 49.3115C124.974 51.8896 125.122 54.3709 124.957 56.7472L119.9 56.4676C120.033 54.5487 119.918 52.4774 119.537 50.2457L124.533 49.3115ZM124.956 56.7618C124.774 59.1979 124.129 61.471 122.998 63.5448L118.562 61.1444C119.315 59.7636 119.77 58.2119 119.901 56.453L124.956 56.7618ZM122.952 63.6265C121.699 65.7374 119.886 67.4641 117.626 68.8401L115.047 64.4907C116.709 63.4787 117.859 62.3249 118.608 61.0627L122.952 63.6265ZM117.609 68.8504C115.249 70.2622 112.277 71.2505 108.801 71.9004L107.945 66.8901C111.064 66.3069 113.401 65.4753 115.064 64.4804L117.609 68.8504ZM108.801 71.9004L106.103 72.4049L105.247 67.3946L107.945 66.8901L108.801 71.9004ZM106.103 72.4049C102.676 73.0457 99.602 73.1874 96.9612 72.7039L97.9396 67.6893C99.7697 68.0244 102.179 67.9682 105.247 67.3946L106.103 72.4049ZM96.9805 72.7074C94.3534 72.2477 92.0508 71.2822 90.1995 69.7106L93.5026 65.7965C94.5462 66.6825 95.9765 67.3457 97.9203 67.6859L96.9805 72.7074ZM90.206 69.7162C88.3936 68.1883 86.9962 66.2836 86.0091 64.044L90.6485 61.9225C91.3457 63.5043 92.2965 64.7798 93.4961 65.791L90.206 69.7162ZM86.0032 64.0307C85.0619 61.8611 84.3786 59.4799 83.9379 56.9018L88.9343 55.9676C89.3157 58.1993 89.8942 60.1839 90.6543 61.9359L86.0032 64.0307ZM83.9379 56.9018L79.4035 30.3725L84.3998 29.4383L88.9343 55.9676L83.9379 56.9018ZM82.3298 32.4105L71.9874 34.3443L71.1311 29.334L81.4735 27.4003L82.3298 32.4105ZM74.0574 31.3721L78.6561 58.2771L73.6597 59.2113L69.0611 32.3063L74.0574 31.3721ZM78.6561 58.2771C79.1727 61.2995 80.0004 64.1529 81.1355 66.843L76.4645 68.8913C75.173 65.8306 74.2393 62.6021 73.6597 59.2113L78.6561 58.2771ZM81.1508 66.8802C82.1629 69.3898 83.6802 71.4933 85.7206 73.2208L82.4225 77.1391C79.7608 74.8856 77.7637 72.1139 76.4491 68.8541L81.1508 66.8802ZM85.7249 73.2243C87.6293 74.844 90.207 76.0506 93.5838 76.745L92.4987 81.7389C88.501 80.9168 85.0989 79.4153 82.4183 77.1355L85.7249 73.2243ZM93.5965 76.7477C96.7942 77.4225 100.975 77.3448 106.238 76.3608L107.094 81.3711C101.465 82.4236 96.5629 82.5966 92.486 81.7362L93.5965 76.7477ZM106.238 76.3608L109.985 75.6602L110.842 80.6705L107.094 81.3711L106.238 76.3608Z" fill="#7ACAD6" mask="url(#path-2-outside-1_1986_12075)"/>
<mask id="path-4-outside-2_1986_12075" maskUnits="userSpaceOnUse" x="158.617" y="17.7258" width="71.8671" height="69.7354" fill="black">
<rect fill="white" x="158.617" y="17.7258" width="71.8671" height="69.7354"/>
<path d="M188.44 78.1653C182.944 77.1377 178.617 75.6049 175.46 73.5667C172.302 71.5286 169.946 69.175 168.391 66.506C166.895 63.7962 166.054 60.8728 165.868 57.7358C165.733 54.6082 165.939 51.4412 166.487 48.2346L171.086 21.3295L181.353 23.2493L176.819 49.7786C176.408 52.1835 176.276 54.4598 176.425 56.6074C176.582 58.7049 177.132 60.6173 178.074 62.3446C179.074 64.0311 180.556 65.4714 182.517 66.6654C184.528 67.8687 187.183 68.7787 190.48 69.3953L193.178 69.8997C196.426 70.507 199.168 70.6059 201.403 70.1966C203.689 69.7967 205.555 68.9824 207.002 67.7536C208.508 66.4841 209.683 64.8939 210.525 62.9833C211.375 61.0225 212.006 58.8396 212.417 56.4347L216.952 29.9054L227.294 31.8392L222.696 58.7442C222.148 61.9508 221.267 64.9918 220.054 67.8671C218.89 70.7518 217.133 73.1894 214.782 75.1799C212.489 77.1297 209.5 78.4837 205.812 79.2419C202.175 80.0096 197.633 79.8842 192.187 78.866L188.44 78.1653Z"/>
</mask>
<path d="M188.44 78.1653C182.944 77.1377 178.617 75.6049 175.46 73.5667C172.302 71.5286 169.946 69.175 168.391 66.506C166.895 63.7962 166.054 60.8728 165.868 57.7358C165.733 54.6082 165.939 51.4412 166.487 48.2346L171.086 21.3295L181.353 23.2493L176.819 49.7786C176.408 52.1835 176.276 54.4598 176.425 56.6074C176.582 58.7049 177.132 60.6173 178.074 62.3446C179.074 64.0311 180.556 65.4714 182.517 66.6654C184.528 67.8687 187.183 68.7787 190.48 69.3953L193.178 69.8997C196.426 70.507 199.168 70.6059 201.403 70.1966C203.689 69.7967 205.555 68.9824 207.002 67.7536C208.508 66.4841 209.683 64.8939 210.525 62.9833C211.375 61.0225 212.006 58.8396 212.417 56.4347L216.952 29.9054L227.294 31.8392L222.696 58.7442C222.148 61.9508 221.267 64.9918 220.054 67.8671C218.89 70.7518 217.133 73.1894 214.782 75.1799C212.489 77.1297 209.5 78.4837 205.812 79.2419C202.175 80.0096 197.633 79.8842 192.187 78.866L188.44 78.1653Z" fill="#7ACAD6"/>
<path d="M175.46 73.5667L174.112 75.7053L175.46 73.5667ZM168.391 66.506L166.179 67.7178C166.189 67.7352 166.199 67.7525 166.209 67.7697L168.391 66.506ZM165.868 57.7358L163.336 57.8098C163.337 57.8233 163.337 57.8367 163.338 57.8502L165.868 57.7358ZM171.086 21.3295L171.514 18.8244C170.134 18.5664 168.824 19.4789 168.587 20.8624L171.086 21.3295ZM181.353 23.2493L183.851 23.7164C184.088 22.3328 183.161 21.0021 181.781 20.7441L181.353 23.2493ZM176.425 56.6074L173.896 56.7472C173.897 56.7521 173.897 56.757 173.897 56.7618L176.425 56.6074ZM178.074 62.3446L175.856 63.5448C175.871 63.5723 175.886 63.5996 175.902 63.6265L178.074 62.3446ZM182.517 66.6654L181.228 68.8401C181.233 68.8436 181.239 68.847 181.244 68.8504L182.517 66.6654ZM201.403 70.1966L200.933 67.6859C200.927 67.687 200.92 67.6882 200.914 67.6893L201.403 70.1966ZM207.002 67.7536L205.357 65.791L205.351 65.7965L207.002 67.7536ZM210.525 62.9833L212.844 64.044C212.846 64.0396 212.848 64.0351 212.85 64.0307L210.525 62.9833ZM216.952 29.9054L217.38 27.4003C216 27.1423 214.69 28.0547 214.454 29.4383L216.952 29.9054ZM227.294 31.8392L229.792 32.3063C230.029 30.9227 229.102 29.592 227.722 29.334L227.294 31.8392ZM220.054 67.8671L217.718 66.843C217.713 66.8554 217.708 66.8677 217.703 66.8802L220.054 67.8671ZM214.782 75.1799L213.133 73.2208L213.129 73.2243L214.782 75.1799ZM205.812 79.2419L205.27 76.745L205.257 76.7477L205.812 79.2419ZM188.868 75.6602C183.552 74.6662 179.581 73.2186 176.807 71.4281L174.112 75.7053C177.654 77.9911 182.336 79.6092 188.012 80.6705L188.868 75.6602ZM176.807 71.4281C173.918 69.5634 171.882 67.4884 170.573 65.2422L166.209 67.7697C168.01 70.8616 170.686 73.4938 174.112 75.7053L176.807 71.4281ZM170.603 65.2942C169.297 62.9293 168.562 60.3821 168.398 57.6215L163.338 57.8502C163.546 61.3635 164.493 64.663 166.179 67.7178L170.603 65.2942ZM168.401 57.6619C168.273 54.7231 168.466 51.7375 168.985 48.7017L163.989 47.7675C163.411 51.1448 163.192 54.4933 163.336 57.8098L168.401 57.6619ZM168.985 48.7017L173.584 21.7966L168.587 20.8624L163.989 47.7675L168.985 48.7017ZM170.657 23.8346L180.925 25.7544L181.781 20.7441L171.514 18.8244L170.657 23.8346ZM178.855 22.7822L174.32 49.3115L179.317 50.2457L183.851 23.7164L178.855 22.7822ZM174.32 49.3115C173.88 51.8896 173.732 54.3709 173.896 56.7472L178.953 56.4676C178.821 54.5487 178.935 52.4774 179.317 50.2457L174.32 49.3115ZM173.897 56.7618C174.08 59.1979 174.724 61.471 175.856 63.5448L180.292 61.1444C179.539 59.7636 179.084 58.2119 178.952 56.453L173.897 56.7618ZM175.902 63.6265C177.155 65.7374 178.967 67.4641 181.228 68.8401L183.806 64.4907C182.144 63.4787 180.994 62.3249 180.245 61.0627L175.902 63.6265ZM181.244 68.8504C183.604 70.2622 186.577 71.2505 190.052 71.9004L190.909 66.8901C187.789 66.3069 185.452 65.4753 183.789 64.4804L181.244 68.8504ZM190.052 71.9004L192.75 72.4049L193.607 67.3946L190.909 66.8901L190.052 71.9004ZM192.75 72.4049C196.178 73.0457 199.251 73.1874 201.892 72.7039L200.914 67.6893C199.084 68.0244 196.674 67.9682 193.607 67.3946L192.75 72.4049ZM201.873 72.7074C204.5 72.2477 206.803 71.2822 208.654 69.7106L205.351 65.7965C204.307 66.6825 202.877 67.3457 200.933 67.6859L201.873 72.7074ZM208.648 69.7162C210.46 68.1883 211.857 66.2836 212.844 64.044L208.205 61.9225C207.508 63.5043 206.557 64.7798 205.357 65.791L208.648 69.7162ZM212.85 64.0307C213.792 61.8611 214.475 59.4799 214.916 56.9018L209.919 55.9676C209.538 58.1993 208.959 60.1839 208.199 61.9359L212.85 64.0307ZM214.916 56.9018L219.45 30.3725L214.454 29.4383L209.919 55.9676L214.916 56.9018ZM216.524 32.4105L226.866 34.3443L227.722 29.334L217.38 27.4003L216.524 32.4105ZM224.796 31.3721L220.197 58.2771L225.194 59.2113L229.792 32.3063L224.796 31.3721ZM220.197 58.2771C219.681 61.2995 218.853 64.1529 217.718 66.843L222.389 68.8913C223.681 65.8306 224.614 62.6021 225.194 59.2113L220.197 58.2771ZM217.703 66.8802C216.691 69.3898 215.173 71.4933 213.133 73.2208L216.431 77.1391C219.093 74.8856 221.09 72.1139 222.404 68.8541L217.703 66.8802ZM213.129 73.2243C211.224 74.844 208.647 76.0506 205.27 76.745L206.355 81.7389C210.353 80.9168 213.755 79.4153 216.435 77.1355L213.129 73.2243ZM205.257 76.7477C202.059 77.4225 197.878 77.3448 192.616 76.3608L191.759 81.3711C197.388 82.4236 202.291 82.5966 206.368 81.7362L205.257 76.7477ZM192.616 76.3608L188.868 75.6602L188.012 80.6705L191.759 81.3711L192.616 76.3608Z" fill="#7ACAD6" mask="url(#path-4-outside-2_1986_12075)"/>
<mask id="path-6-outside-3_1986_12075" maskUnits="userSpaceOnUse" x="1.30859" y="23.8799" width="62" height="56" fill="black">
<rect fill="white" x="1.30859" y="23.8799" width="62" height="56"/>
<path d="M3.99371 71.5733L40.0341 35.3855H5.24665V26.6886H57.5753V31.9952L21.0189 68.183H59.7863L56.9119 76.8799H3.99371V71.5733Z"/>
</mask>
<path d="M3.99371 71.5733L40.0341 35.3855H5.24665V26.6886H57.5753V31.9952L21.0189 68.183H59.7863L56.9119 76.8799H3.99371V71.5733Z" fill="#25434F"/>
<path d="M3.99371 71.5733L2.19296 69.7799C1.71859 70.2562 1.45225 70.9011 1.45225 71.5733H3.99371ZM40.0341 35.3855L41.8349 37.1789C42.5596 36.4512 42.7751 35.3589 42.3811 34.4105C41.9872 33.4621 41.0611 32.844 40.0341 32.844V35.3855ZM5.24665 35.3855H2.70519C2.70519 36.7891 3.84304 37.927 5.24665 37.927V35.3855ZM5.24665 26.6886V24.1472C3.84304 24.1472 2.70519 25.285 2.70519 26.6886H5.24665ZM57.5753 26.6886H60.1167C60.1167 25.285 58.9789 24.1472 57.5753 24.1472V26.6886ZM57.5753 31.9952L59.3632 33.8014C59.8454 33.324 60.1167 32.6737 60.1167 31.9952H57.5753ZM21.0189 68.183L19.231 66.3769C18.4988 67.1017 18.2766 68.1968 18.6685 69.1496C19.0603 70.1025 19.9887 70.7245 21.0189 70.7245V68.183ZM59.7863 68.183L62.1994 68.9806C62.4554 68.206 62.324 67.3556 61.8462 66.6944C61.3683 66.0332 60.6021 65.6416 59.7863 65.6416V68.183ZM56.9119 76.8799V79.4213C58.0082 79.4213 58.981 78.7183 59.325 77.6774L56.9119 76.8799ZM3.99371 76.8799H1.45225C1.45225 78.2835 2.5901 79.4213 3.99371 79.4213V76.8799ZM5.79445 73.3667L41.8349 37.1789L38.2334 33.5921L2.19296 69.7799L5.79445 73.3667ZM40.0341 32.844H5.24665V37.927H40.0341V32.844ZM7.7881 35.3855V26.6886H2.70519V35.3855H7.7881ZM5.24665 29.2301H57.5753V24.1472H5.24665V29.2301ZM55.0338 26.6886V31.9952H60.1167V26.6886H55.0338ZM55.7873 30.189L19.231 66.3769L22.8069 69.9892L59.3632 33.8014L55.7873 30.189ZM21.0189 70.7245H59.7863V65.6416H21.0189V70.7245ZM57.3733 67.3855L54.4989 76.0823L59.325 77.6774L62.1994 68.9806L57.3733 67.3855ZM56.9119 74.3384H3.99371V79.4213H56.9119V74.3384ZM6.53517 76.8799V71.5733H1.45225V76.8799H6.53517Z" fill="#25434F" mask="url(#path-6-outside-3_1986_12075)"/>
<mask id="path-8-outside-4_1986_12075" maskUnits="userSpaceOnUse" x="237.848" y="23.8799" width="70" height="56" fill="black">
<rect fill="white" x="237.848" y="23.8799" width="70" height="56"/>
<path d="M250.841 38.8495V76.8799H240.744V26.6886H253.642L272.657 53.074L291.672 26.6886H304.57V76.8799H294.473V38.9232L272.657 68.183L250.841 38.8495Z"/>
</mask>
<path d="M250.841 38.8495V76.8799H240.744V26.6886H253.642L272.657 53.074L291.672 26.6886H304.57V76.8799H294.473V38.9232L272.657 68.183L250.841 38.8495Z" fill="#25434F"/>
<path d="M250.841 38.8495L252.88 37.3328C252.226 36.4536 251.083 36.0924 250.042 36.4369C249.002 36.7813 248.3 37.7537 248.3 38.8495H250.841ZM250.841 76.8799V79.4213C252.245 79.4213 253.383 78.2835 253.383 76.8799H250.841ZM240.744 76.8799H238.202C238.202 78.2835 239.34 79.4213 240.744 79.4213V76.8799ZM240.744 26.6886V24.1472C239.34 24.1472 238.202 25.285 238.202 26.6886H240.744ZM253.642 26.6886L255.704 25.2027C255.226 24.5399 254.459 24.1472 253.642 24.1472V26.6886ZM272.657 53.074L270.595 54.5599C271.073 55.2227 271.84 55.6155 272.657 55.6155C273.474 55.6155 274.241 55.2227 274.719 54.5599L272.657 53.074ZM291.672 26.6886V24.1472C290.855 24.1472 290.088 24.5399 289.61 25.2027L291.672 26.6886ZM304.57 26.6886H307.111C307.111 25.285 305.974 24.1472 304.57 24.1472V26.6886ZM304.57 76.8799V79.4213C305.974 79.4213 307.111 78.2835 307.111 76.8799H304.57ZM294.473 76.8799H291.931C291.931 78.2835 293.069 79.4213 294.473 79.4213V76.8799ZM294.473 38.9232H297.014C297.014 37.828 296.313 36.8559 295.273 36.511C294.234 36.1662 293.09 36.526 292.435 37.4041L294.473 38.9232ZM272.657 68.183L270.618 69.6997C271.097 70.344 271.852 70.724 272.655 70.7245C273.458 70.725 274.214 70.3459 274.694 69.7021L272.657 68.183ZM248.3 38.8495V76.8799H253.383V38.8495H248.3ZM250.841 74.3384H240.744V79.4213H250.841V74.3384ZM243.285 76.8799V26.6886H238.202V76.8799H243.285ZM240.744 29.2301H253.642V24.1472H240.744V29.2301ZM251.58 28.1745L270.595 54.5599L274.719 51.5882L255.704 25.2027L251.58 28.1745ZM274.719 54.5599L293.734 28.1745L289.61 25.2027L270.595 51.5882L274.719 54.5599ZM291.672 29.2301H304.57V24.1472H291.672V29.2301ZM302.029 26.6886V76.8799H307.111V26.6886H302.029ZM304.57 74.3384H294.473V79.4213H304.57V74.3384ZM297.014 76.8799V38.9232H291.931V76.8799H297.014ZM292.435 37.4041L270.619 66.6639L274.694 69.7021L296.51 40.4423L292.435 37.4041ZM274.696 66.6663L252.88 37.3328L248.802 40.3662L270.618 69.6997L274.696 66.6663Z" fill="#25434F" mask="url(#path-8-outside-4_1986_12075)"/>
</g>
</svg>
