<svg width="1440" height="443" viewBox="0 0 1440 443" fill="none" xmlns="http://www.w3.org/2000/svg">
<rect y="0.855469" width="1440" height="430" fill="#8FD2DD"/>
<path d="M1239.85 326.17L1274.99 424.974H1027.39L1069.69 304.025C1009.72 232.476 1051.41 124.444 1127.15 93.3395C1156.66 81.2162 1229.05 76.1874 1267.72 110.198C1361.38 192.583 1302.95 298.491 1239.85 326.17Z" fill="white" stroke="black" stroke-width="12" stroke-linecap="round" stroke-linejoin="round"/>
<path d="M1113.95 263.769C1119.87 271.136 1137.11 284.158 1158.73 277.314" stroke="black" stroke-width="12" stroke-linecap="round" stroke-linejoin="round"/>
<path d="M1295.06 144.462C1290.46 177.168 1252.99 260.49 1202.45 203.418" stroke="black" stroke-width="12" stroke-linejoin="round"/>
<path d="M1246.58 95.826C1246.58 161.238 1197.24 245.558 1151.08 187.3" stroke="black" stroke-width="12" stroke-linejoin="round"/>
<path d="M1185.84 84.004C1185.84 149.416 1155.92 230.951 1102.82 182.239" stroke="black" stroke-width="12" stroke-linejoin="round"/>
<path d="M1124.66 89.2805C1130.46 173.714 1074.1 221.108 1062.27 150.386" stroke="black" stroke-width="12" stroke-linejoin="round"/>
<path d="M1314.99 173.155C1305.14 176.847 1292.97 178.328 1284.23 190.516C1267.94 209.776 1265.9 245.267 1236.44 263.93" stroke="black" stroke-width="12" stroke-linejoin="round"/>
<path d="M1236.93 263.704C1212.5 277.638 1204.21 301.922 1241.52 329.12" stroke="black" stroke-width="12" stroke-linejoin="round"/>
<path d="M1238.13 325.999L1273.27 424.803H1025.67L1067.98 303.854C1008 232.305 1049.7 124.273 1125.43 93.1684C1154.95 81.0451 1227.34 76.0163 1266 110.027C1359.67 192.412 1301.23 298.32 1238.13 325.999Z" stroke="black" stroke-width="12" stroke-linecap="round" stroke-linejoin="round"/>
<ellipse cx="11.1228" cy="10.7139" rx="11.1228" ry="10.7139" transform="matrix(-1 0 0 1 1191.7 233.15)" fill="black"/>
<ellipse cx="12.8029" cy="9.34465" rx="12.8029" ry="9.34465" transform="matrix(-0.929721 -0.368264 -0.392631 0.919696 1159.91 242.576)" fill="black"/>
<ellipse cx="11.1228" cy="10.7139" rx="11.1228" ry="10.7139" transform="matrix(-1 0 0 1 1125.07 208.964)" fill="black"/>
<path fill-rule="evenodd" clip-rule="evenodd" d="M1067.59 260.594C1088.67 276.479 1119.22 275.22 1138.81 256.656C1160.1 236.475 1160.39 203.484 1139.43 182.97C1118.48 162.455 1084.23 162.184 1062.94 182.365C1047.04 197.423 1042.85 219.611 1050.45 238.429C1050.08 238.61 1049.7 238.809 1049.33 239.026L1008.66 262.982C999.363 268.455 996.613 280.522 1002.69 289.182C1008.81 297.911 1021.26 299.439 1029.61 292.485L1065.86 262.29C1066.49 261.765 1067.07 261.197 1067.59 260.594ZM1122.63 240.818C1134.85 229.242 1135.01 210.318 1122.99 198.55C1110.97 186.782 1091.33 186.627 1079.11 198.203C1066.89 209.78 1066.73 228.704 1078.75 240.472C1090.77 252.239 1110.41 252.395 1122.63 240.818Z" fill="#7ACAD6"/>
<path d="M1067.59 260.594L1063.03 256.757C1065.14 254.327 1068.76 253.917 1071.29 255.823L1067.59 260.594ZM1138.81 256.656L1142.94 260.934L1142.94 260.934L1138.81 256.656ZM1139.43 182.97L1135.16 187.247L1139.43 182.97ZM1062.94 182.365L1067.07 186.643L1067.07 186.643L1062.94 182.365ZM1050.45 238.429L1056.06 236.134C1057.23 239.046 1055.9 242.4 1053.02 243.788L1050.45 238.429ZM1049.33 239.026L1046.31 233.91L1046.31 233.91L1049.33 239.026ZM1008.66 262.982L1011.68 268.098L1008.66 262.982ZM1002.69 289.182L1007.66 285.723L1007.66 285.723L1002.69 289.182ZM1029.61 292.485L1033.45 297.025L1029.61 292.485ZM1065.86 262.29L1069.7 266.83L1069.7 266.83L1065.86 262.29ZM1122.63 240.818L1126.76 245.096L1122.63 240.818ZM1071.29 255.823C1090.12 270.016 1117.34 268.804 1134.67 252.378L1142.94 260.934C1121.09 281.636 1087.21 282.942 1063.88 265.365L1071.29 255.823ZM1134.67 252.378C1153.43 234.607 1153.78 205.486 1135.16 187.247L1143.71 178.692C1166.99 201.483 1166.78 238.343 1142.94 260.934L1134.67 252.378ZM1135.16 187.247C1116.44 168.925 1085.92 168.778 1067.07 186.643L1058.8 178.087C1082.54 155.59 1120.52 155.984 1143.71 178.692L1135.16 187.247ZM1067.07 186.643C1053.05 199.924 1049.33 219.483 1056.06 236.134L1044.85 240.723C1036.37 219.74 1041.04 194.922 1058.8 178.087L1067.07 186.643ZM1053.02 243.788C1052.79 243.895 1052.57 244.013 1052.35 244.142L1046.31 233.91C1046.83 233.606 1047.36 233.325 1047.89 233.069L1053.02 243.788ZM1052.35 244.142L1011.68 268.098L1005.64 257.866L1046.31 233.91L1052.35 244.142ZM1011.68 268.098C1005.42 271.78 1003.57 279.898 1007.66 285.723L997.712 292.64C989.652 281.147 993.302 265.13 1005.64 257.866L1011.68 268.098ZM1007.66 285.723C1011.78 291.596 1020.16 292.624 1025.77 287.946L1033.45 297.025C1022.37 306.254 1005.84 304.225 997.712 292.64L1007.66 285.723ZM1025.77 287.946L1062.02 257.751L1069.7 266.83L1033.45 297.025L1025.77 287.946ZM1062.02 257.751C1062.39 257.441 1062.73 257.109 1063.03 256.757L1072.14 264.431C1071.4 265.286 1070.59 266.089 1069.7 266.83L1062.02 257.751ZM1127.27 194.272C1141.61 208.317 1141.52 231.11 1126.76 245.096L1118.5 236.54C1128.17 227.374 1128.41 212.319 1118.71 202.827L1127.27 194.272ZM1074.98 193.925C1089.64 180.033 1113.01 180.312 1127.27 194.272L1118.71 202.827C1108.94 193.252 1093.02 193.22 1083.24 202.481L1074.98 193.925ZM1074.47 244.749C1060.13 230.705 1060.22 207.911 1074.98 193.925L1083.24 202.481C1073.57 211.648 1073.34 226.703 1083.03 236.194L1074.47 244.749ZM1126.76 245.096C1112.1 258.988 1088.73 258.71 1074.47 244.749L1083.03 236.194C1092.81 245.769 1108.73 245.801 1118.5 236.54L1126.76 245.096Z" fill="black"/>
<path d="M1235.56 401.375L1255.99 393.696L1269.79 431.533L1234.78 431.534L1235.56 401.375Z" fill="white"/>
<path d="M1259.02 401.39L1271.39 396.983L1283.56 431.46L1269.86 431.822L1259.02 401.39Z" fill="black"/>
<path d="M252.465 94.8431V100.648H273.39V109.828H252.465V123.913H241.395V92.7731C241.395 86.8331 245.355 82.8731 251.295 82.8731H273.84V92.1431H255.165C253.545 92.1431 252.465 93.2231 252.465 94.8431ZM300.64 81.9731C313.42 81.9731 322.69 91.2881 322.69 103.393C322.69 115.543 313.42 124.858 300.64 124.858C287.86 124.858 278.59 115.543 278.59 103.393C278.59 91.2881 287.86 81.9731 300.64 81.9731ZM300.64 115.768C307.255 115.768 311.62 110.323 311.62 103.393C311.62 96.5081 307.255 91.0631 300.64 91.0631C294.025 91.0631 289.66 96.5081 289.66 103.393C289.66 110.323 294.025 115.768 300.64 115.768ZM365.763 106.453C365.763 117.298 358.158 124.813 346.953 124.813C335.748 124.813 328.143 117.298 328.143 106.453V82.8731H339.213V107.353C339.213 111.628 341.958 115.543 346.953 115.543C351.948 115.543 354.693 111.628 354.693 107.353V82.8731H365.763V106.453ZM372.352 123.958V93.0431C372.352 86.3831 376.402 81.9731 382.522 81.9731C387.517 81.9731 391.882 85.3031 393.637 90.3431L401.512 112.933H401.872V82.8731H412.942V113.788C412.942 120.448 408.892 124.858 402.772 124.858C397.777 124.858 393.412 121.528 391.657 116.488L383.782 93.8981H383.422V123.958H372.352ZM419.505 82.8731H436.02C449.79 82.8731 456.855 91.0631 456.855 103.393C456.855 115.723 449.79 123.913 436.02 123.913H429.405C423.465 123.913 419.505 119.953 419.505 114.013V82.8731ZM430.575 113.698C430.575 114.373 431.025 114.823 431.7 114.823H433.41C441.285 114.823 445.785 111.403 445.785 103.393C445.785 95.3831 441.285 91.9631 433.41 91.9631H430.575V113.698ZM469.823 114.378L467.823 127.378H460.223L460.623 114.378H469.823ZM477.196 118.258C477.196 115.558 478.996 114.568 481.696 114.568H498.616C498.916 114.568 499.096 114.478 499.096 114.208C499.096 113.938 498.916 113.848 498.616 113.848H477.496V110.248H488.146V109.348H477.496V105.148H505.696V109.348H495.046V110.248H501.496C504.196 110.248 505.996 111.208 505.996 113.908C505.996 116.608 504.196 117.568 501.496 117.568H484.576C484.276 117.568 484.096 117.688 484.096 117.958C484.096 118.228 484.276 118.348 484.576 118.348H505.696V121.948H481.696C478.996 121.948 477.196 120.958 477.196 118.258ZM477.496 94.5881H505.696V104.308H482.296C479.536 104.308 477.496 102.268 477.496 99.5081V94.5881ZM484.396 98.7881V99.3581C484.396 99.8381 484.666 100.108 485.146 100.108H498.796V98.7881H484.396ZM509.297 109.948V104.248H515.357C518.837 104.248 520.157 103.288 520.157 101.848V99.9881H509.297V94.5881H527.057V100.138H529.397V94.5881H536.297V112.948H529.397V106.138H525.827C524.237 108.688 520.877 109.948 514.757 109.948H509.297ZM509.297 111.448H516.197V114.148C516.197 115.228 516.917 115.948 517.997 115.948H536.597V121.948H515.897C511.937 121.948 509.297 119.308 509.297 115.348V111.448ZM539.598 118.258C539.598 115.558 541.398 114.568 544.098 114.568H561.018C561.318 114.568 561.498 114.478 561.498 114.208C561.498 113.938 561.318 113.848 561.018 113.848H539.898V110.248H563.898C566.598 110.248 568.398 111.208 568.398 113.908C568.398 116.608 566.598 117.568 563.898 117.568H546.978C546.678 117.568 546.498 117.688 546.498 117.958C546.498 118.228 546.678 118.348 546.978 118.348H568.098V121.948H544.098C541.398 121.948 539.598 120.958 539.598 118.258ZM539.898 105.148H568.098V109.348H539.898V105.148ZM539.598 99.4481C539.598 96.1481 541.548 94.5881 545.148 94.5881H562.848C566.448 94.5881 568.398 96.1481 568.398 99.4481C568.398 102.748 566.448 104.308 562.848 104.308H545.148C541.548 104.308 539.598 102.748 539.598 99.4481ZM546.528 99.4481C546.528 99.8981 546.798 100.108 547.098 100.108H560.898C561.198 100.108 561.468 99.8981 561.468 99.4481C561.468 98.9981 561.198 98.7881 560.898 98.7881H547.098C546.798 98.7881 546.528 98.9981 546.528 99.4481ZM604.413 115.348H596.043C597.573 116.758 600.843 117.238 604.713 117.298V121.948C599.013 121.918 594.093 120.568 591.513 118.078C588.933 120.568 584.013 121.918 578.313 121.948V117.298C582.183 117.238 585.453 116.758 586.983 115.348H578.613V110.848H604.413V115.348ZM578.613 109.948V105.148C581.253 104.998 583.623 103.558 583.893 100.588H578.613V95.7881H583.923V93.6881H590.823V95.7881H596.133V100.588H590.823C591.063 103.618 593.253 104.698 596.133 104.848V109.648C592.623 109.528 589.263 108.328 587.523 106.198C585.453 108.988 582.123 109.828 578.613 109.948ZM597.513 109.648V94.5881H604.413V98.4881H607.113V104.488H604.413V109.648H597.513ZM616.864 109.048C611.764 109.048 609.214 106.258 609.214 101.818C609.214 97.3781 611.764 94.5881 616.864 94.5881H619.624C624.724 94.5881 627.274 97.3781 627.274 101.818C627.274 106.258 624.724 109.048 619.624 109.048H616.864ZM612.814 111.148V110.248H620.014V111.148C620.014 113.878 620.944 116.008 622.714 116.458C624.484 116.008 625.414 113.878 625.414 111.148V110.248H632.614V111.148C632.614 114.178 633.844 116.458 635.914 116.548V121.948C633.214 121.918 630.394 120.508 629.014 117.178C628.174 119.248 625.144 121.498 622.714 121.918C620.074 121.408 617.344 119.488 616.414 117.178C615.034 120.508 612.214 121.918 609.514 121.948V116.548C611.584 116.458 612.814 114.178 612.814 111.148ZM628.714 109.048V94.5881H635.614V98.7881H638.314V104.788H635.614V109.048H628.714ZM616.144 101.818C616.144 102.868 616.864 103.648 617.704 103.648H618.784C619.624 103.648 620.344 102.868 620.344 101.818C620.344 100.768 619.624 99.9881 618.784 99.9881H617.704C616.864 99.9881 616.144 100.768 616.144 101.818ZM641.016 113.998V102.538C641.016 97.5881 644.406 94.2881 649.746 94.2881C655.086 94.2881 658.476 97.5881 658.476 102.538V104.518H661.116V94.5881H668.016V121.948H661.116V110.518H658.476V113.998C658.476 118.948 655.086 122.248 649.746 122.248C644.406 122.248 641.016 118.948 641.016 113.998ZM649.746 116.248C650.796 116.248 651.576 115.498 651.576 114.298V102.238C651.576 101.038 650.796 100.288 649.746 100.288C648.696 100.288 647.916 101.038 647.916 102.238V114.298C647.916 115.498 648.696 116.248 649.746 116.248ZM671.617 115.948H676.117V110.908C673.207 109.588 671.317 106.798 671.317 103.168C671.317 98.0681 675.067 94.5881 680.167 94.5881H691.267C696.367 94.5881 700.117 98.0681 700.117 103.168C700.117 106.798 698.227 109.588 695.317 110.908V115.948H699.817V121.948H671.617V115.948ZM678.247 103.168C678.247 104.968 679.567 106.048 681.217 106.048H690.217C691.867 106.048 693.187 104.968 693.187 103.168C693.187 101.368 691.867 100.288 690.217 100.288H681.217C679.567 100.288 678.247 101.368 678.247 103.168ZM683.317 111.748V115.948H688.117V111.748H683.317ZM710.168 113.398H703.868L703.568 94.5881H710.468L710.168 113.398ZM703.268 118.588C703.268 116.488 704.888 114.868 706.988 114.868C709.028 114.868 710.648 116.488 710.648 118.588C710.648 120.628 709.028 122.248 706.988 122.248C704.888 122.248 703.268 120.628 703.268 118.588Z" fill="#23414D"/>
<path d="M246.237 149.975V151.554H253.927V149.975H256.532V157.235H243.653V149.975H246.237ZM246.237 155.184H253.927V153.543H246.237V155.184ZM258.685 146.919V149.032H241.664V146.919H258.685ZM251.528 139.598C251.528 141.464 253.681 143.577 257.844 144.048L256.921 146.099C253.702 145.689 251.374 144.356 250.174 142.551C248.975 144.356 246.637 145.689 243.448 146.099L242.504 144.048C246.667 143.556 248.821 141.505 248.841 139.598V138.962H251.528V139.598ZM276.875 147.596V149.688H259.813V147.596H276.875ZM274.804 151.288V157.46H272.241V153.379H261.7V151.288H274.804ZM275.009 144.007V146.099H261.884V139.414H274.825V141.464H264.489V144.007H275.009ZM294.984 146.181V148.252H287.765V149.442H292.913V154.22H282.515V155.348H293.405V157.317H279.952V152.375H290.329V151.411H279.931V149.442H285.14V148.252H277.962V146.181H294.984ZM292.831 139.311V145.197H280.075V139.311H292.831ZM282.638 141.341V143.187H290.226V141.341H282.638ZM304.623 139.044C308.909 139.044 311.39 140.172 311.411 142.223C311.39 144.294 308.909 145.422 304.623 145.422C300.316 145.422 297.814 144.294 297.814 142.223C297.814 140.172 300.316 139.044 304.623 139.044ZM304.623 140.952C301.875 140.952 300.542 141.403 300.562 142.223C300.542 143.146 301.875 143.495 304.623 143.495C307.391 143.495 308.704 143.146 308.704 142.223C308.704 141.403 307.391 140.952 304.623 140.952ZM313.133 146.304V148.375H296.112V146.304H313.133ZM311.062 149.462V154.22H300.665V155.348H311.554V157.317H298.101V152.395H308.478V151.37H298.081V149.462H311.062ZM322.259 139.619V141.833H326.074V139.619H328.699V147.76H319.655V139.619H322.259ZM322.259 145.709H326.074V143.802H322.259V145.709ZM333.908 138.778V142.408H336.43V144.52H333.908V148.273H331.283V138.778H333.908ZM333.908 148.97V154.036H324.125V155.246H334.441V157.317H321.562V152.169H331.303V151H321.521V148.97H333.908ZM352.959 138.798V152.559H350.375V148.663H346.11V146.571H350.375V144.479H346.376C345.043 147.319 342.336 149.421 338.583 150.549L337.497 148.519C341.475 147.258 343.977 145.043 344.449 142.285H338.501V140.193H347.299C347.299 140.952 347.217 141.69 347.074 142.387H350.375V138.798H352.959ZM353.452 155.02V157.112H340.675V151.185H343.341V155.02H353.452ZM370.125 138.778V146.079H372.873V148.232H370.125V157.44H367.541V138.778H370.125ZM366.269 141.567V143.659H355.297V141.567H359.522V139.065H362.147V141.567H366.269ZM360.834 144.705C363.562 144.705 365.592 146.55 365.592 149.155C365.592 151.759 363.562 153.605 360.834 153.605C358.086 153.605 356.056 151.759 356.056 149.155C356.056 146.55 358.086 144.705 360.834 144.705ZM360.834 146.817C359.522 146.837 358.558 147.719 358.558 149.155C358.558 150.611 359.522 151.472 360.834 151.452C362.147 151.472 363.09 150.611 363.09 149.155C363.09 147.719 362.147 146.837 360.834 146.817ZM389.279 138.778V149.524H386.674V146.243H383.578V144.151H386.674V142.736H383.578V140.644H386.674V138.778H389.279ZM380.542 141.198C380.522 143.7 381.793 146.263 384.788 147.33L383.291 149.401C381.342 148.652 379.999 147.227 379.23 145.443C378.399 147.34 376.974 148.847 374.882 149.626L373.426 147.576C376.543 146.448 377.876 143.864 377.897 141.198V139.455H380.542V141.198ZM380.583 150.693C380.563 152.221 381.199 153.79 382.737 154.835C384.265 153.728 384.89 152.087 384.911 150.693V150.201H387.474V150.693C387.474 152.641 388.5 154.487 391.042 155.266L389.709 157.194C387.936 156.579 386.777 155.43 386.141 153.954C385.516 155.41 384.418 156.681 382.737 157.358C381.004 156.722 379.907 155.492 379.312 154.015C378.646 155.43 377.507 156.579 375.805 157.194L374.534 155.266C376.995 154.446 378.02 152.559 378.041 150.693V150.201H380.583V150.693ZM406.423 138.778V145.709H409.171V147.842H406.423V157.481H403.798V138.778H406.423ZM401.194 140.5V142.613H395.042V150.795C397.749 150.765 399.984 150.642 402.465 150.201L402.752 152.395C399.861 152.887 397.318 152.969 394.016 152.949H392.437V140.5H401.194ZM419.487 140.295V141.71H422.973V138.798H425.578V152.375H422.973V147.801H419.487V149.38H410.627V140.295H419.487ZM413.232 142.367V147.35H416.923V142.367H413.232ZM425.967 155.02V157.112H413.15V151.083H415.795V155.02H425.967ZM419.487 145.73H422.973V143.823H419.487V145.73ZM443.953 146.366V148.458H440.323V151.513C441.861 151.462 443.399 151.359 444.855 151.206L445.06 153.113C440.979 153.749 436.734 153.769 433.227 153.769L432.919 151.636C434.406 151.646 436.026 151.646 437.698 151.595V148.458H434.15V140.439H443.85V142.51H436.754V146.366H443.953ZM448.526 138.778V157.481H445.921V138.778H448.526ZM461.63 140.583V142.654H457.857C457.898 144.489 459.251 146.376 462.225 147.125L461.077 149.134C458.923 148.591 457.426 147.422 456.585 145.935C455.755 147.576 454.258 148.878 452.074 149.483L450.843 147.412C453.817 146.643 455.211 144.674 455.252 142.654H451.5V140.583H455.252V138.696H457.898V140.583H461.63ZM465.793 138.778V142.961H468.316V145.115H465.793V149.421H463.168V138.778H465.793ZM466.019 150.221V152.272H461.282C461.753 153.646 463.589 154.979 466.839 155.41L465.917 157.399C462.912 156.999 460.8 155.799 459.723 154.2C458.657 155.789 456.555 156.958 453.591 157.358L452.648 155.369C455.929 154.969 457.744 153.677 458.226 152.272H453.448V150.221H466.019ZM477.647 139.044C481.933 139.044 484.415 140.172 484.435 142.223C484.415 144.294 481.933 145.422 477.647 145.422C473.34 145.422 470.838 144.294 470.838 142.223C470.838 140.172 473.34 139.044 477.647 139.044ZM477.647 140.952C474.899 140.952 473.566 141.403 473.586 142.223C473.566 143.146 474.899 143.495 477.647 143.495C480.416 143.495 481.728 143.146 481.728 142.223C481.728 141.403 480.416 140.952 477.647 140.952ZM486.158 146.304V148.375H469.136V146.304H486.158ZM484.086 149.462V154.22H473.689V155.348H484.579V157.317H471.125V152.395H481.502V151.37H471.105V149.462H484.086ZM502.031 140.234C502.031 142.428 504.266 144.869 508.552 145.402L507.527 147.514C504.266 147.042 501.877 145.535 500.657 143.515C499.426 145.535 497.058 147.042 493.828 147.514L492.782 145.402C497.027 144.869 499.283 142.428 499.283 140.234V139.332H502.031V140.234ZM509.147 148.929V151.062H501.887V157.44H499.303V151.062H492.125V148.929H509.147ZM521.903 150.754C521.903 152.262 522.528 153.81 524.056 154.835C525.594 153.749 526.271 152.139 526.271 150.754V150.119H528.855V150.754C528.834 152.703 529.88 154.507 532.362 155.266L531.09 157.173C529.306 156.568 528.137 155.43 527.501 153.995C526.876 155.43 525.789 156.681 524.118 157.337C522.354 156.702 521.257 155.492 520.652 154.056C519.996 155.451 518.847 156.579 517.145 157.173L515.853 155.266C518.314 154.425 519.339 152.58 519.36 150.754V150.119H521.903V150.754ZM530.742 138.798V149.339H528.117V138.798H530.742ZM520.508 139.742C523.42 139.742 525.615 141.587 525.615 144.233C525.615 146.837 523.42 148.683 520.508 148.683C517.596 148.683 515.402 146.837 515.402 144.233C515.402 141.587 517.596 139.742 520.508 139.742ZM520.508 141.936C519.011 141.936 517.945 142.797 517.965 144.233C517.945 145.648 519.011 146.509 520.508 146.509C521.964 146.509 523.031 145.648 523.031 144.233C523.031 142.797 521.964 141.936 520.508 141.936ZM548.481 147.125V149.196H543.067V153.174H550.347V155.307H533.264V153.174H540.462V149.196H535.274V140.09H548.337V142.182H537.899V147.125H548.481ZM568.476 148.786V150.877H551.393V148.786H558.632V147.432H553.526V142.305H563.78V141.157H553.485V139.126H566.405V144.192H556.13V145.422H566.753V147.432H561.237V148.786H568.476ZM566.507 151.944V157.358H563.862V153.995H553.3V151.944H566.507ZM590.583 138.778V157.44H588.123V138.778H590.583ZM586.605 139.188V156.62H584.165V148.047H581.109C580.042 150.18 578.31 152.026 575.654 153.564L574.177 151.718C577.94 149.483 579.602 146.766 579.96 143.105H575.203V140.993H582.565C582.555 142.767 582.37 144.438 581.929 145.976H584.165V139.188H586.605ZM599.812 143.002C599.812 146.427 601.371 149.873 604.529 151.206L602.991 153.297C600.858 152.333 599.381 150.478 598.541 148.17C597.689 150.683 596.162 152.713 593.885 153.749L592.306 151.575C595.567 150.201 597.146 146.632 597.167 143.002V140.213H599.812V143.002ZM608.179 138.778V157.481H605.534V138.778H608.179ZM621.161 140.336V142.428H619.643V147.617C620.392 147.555 621.12 147.483 621.817 147.391L622.001 149.319C618.269 149.955 614.003 150.016 610.886 150.016L610.599 147.924L612.629 147.904V142.428H611.091V140.336H621.161ZM625.508 138.798V144.048H628.031V146.222H625.508V152.539H622.883V138.798H625.508ZM626.185 155.02V157.112H613.409V151.226H616.013V155.02H626.185ZM615.152 147.842L617.121 147.76V142.428H615.152V147.842ZM645.032 138.778V157.44H642.53V138.778H645.032ZM641.135 139.044V156.579H638.674V147.76H637.177C636.931 151.431 635.373 153.646 633.076 153.646C630.615 153.646 629.015 151.062 629.015 146.858C629.015 142.674 630.615 140.111 633.076 140.111C635.321 140.111 636.859 142.203 637.157 145.689H638.674V139.044H641.135ZM633.076 142.572C632.03 142.572 631.415 144.007 631.435 146.858C631.415 149.729 632.03 151.144 633.076 151.124C634.142 151.144 634.778 149.729 634.778 146.858C634.778 144.007 634.142 142.572 633.076 142.572ZM668.903 147.309V149.442H651.84V147.309H668.903ZM666.955 143.925V145.997H653.912V139.27H666.852V141.382H656.516V143.925H666.955ZM660.331 150.57C664.371 150.57 666.811 151.8 666.832 153.995C666.811 156.209 664.371 157.44 660.331 157.44C656.25 157.44 653.789 156.209 653.789 153.995C653.789 151.8 656.25 150.57 660.331 150.57ZM660.331 152.559C657.747 152.559 656.434 153.051 656.455 153.995C656.434 154.979 657.747 155.451 660.331 155.451C662.853 155.451 664.186 154.979 664.207 153.995C664.186 153.051 662.853 152.559 660.331 152.559ZM687.052 148.786V150.877H669.969V148.786H677.208V147.432H672.102V142.305H682.356V141.157H672.061V139.126H684.981V144.192H674.707V145.422H685.33V147.432H679.813V148.786H687.052ZM685.083 151.944V157.358H682.438V153.995H671.876V151.944H685.083ZM697.142 141.628V143.7H688.119V141.628H691.359V139.291H693.943V141.628H697.142ZM692.671 144.541C695.05 144.541 696.752 146.386 696.773 148.97C696.752 151.575 695.05 153.42 692.671 153.42C690.292 153.42 688.549 151.575 688.549 148.97C688.549 146.386 690.292 144.541 692.671 144.541ZM692.671 146.714C691.584 146.714 690.846 147.555 690.846 148.97C690.846 150.385 691.584 151.206 692.671 151.206C693.717 151.206 694.456 150.385 694.476 148.97C694.456 147.555 693.717 146.714 692.671 146.714ZM704.279 138.778V157.44H701.797V148.458H700.28V156.64H697.839V139.147H700.28V146.366H701.797V138.778H704.279ZM723.31 149.073V151.165H716.05V157.44H713.466V151.165H706.289V149.073H723.31ZM721.792 139.762V141.813H716.358C716.614 143.638 718.675 145.474 722.51 145.935L721.567 147.986C718.286 147.545 715.938 146.14 714.82 144.212C713.671 146.14 711.344 147.545 708.093 147.986L707.129 145.935C710.903 145.474 712.984 143.638 713.282 141.813H707.827V139.762H721.792ZM730.426 143.474C730.426 146.489 731.267 149.606 733.81 151.247L732.395 153.277C730.785 152.303 729.76 150.703 729.175 148.786C728.499 150.898 727.381 152.662 725.689 153.687L724.089 151.759C726.858 150.037 727.883 146.755 727.883 143.597V140.377H730.426V143.474ZM740.619 138.778V157.44H738.117V138.778H740.619ZM736.702 139.044V156.579H734.261V147.207H731.841V145.074H734.261V139.044H736.702ZM759.67 153.113V155.266H742.587V153.113H746.402V148.54C744.956 147.678 744.084 146.355 744.084 144.705C744.084 141.69 747.038 139.68 751.098 139.68C755.138 139.68 758.112 141.69 758.132 144.705C758.122 146.314 757.271 147.627 755.876 148.499V153.113H759.67ZM751.098 141.751C748.432 141.751 746.668 142.818 746.668 144.705C746.668 146.53 748.432 147.658 751.098 147.658C753.744 147.658 755.528 146.53 755.548 144.705C755.528 142.818 753.744 141.751 751.098 141.751ZM748.986 153.113H753.231V149.483C752.564 149.616 751.847 149.688 751.098 149.688C750.35 149.688 749.642 149.626 748.986 149.483V153.113ZM763.157 155.738C762.193 155.738 761.414 154.958 761.434 154.015C761.414 153.072 762.193 152.313 763.157 152.313C764.059 152.313 764.859 153.072 764.859 154.015C764.859 154.958 764.059 155.738 763.157 155.738Z" fill="#23414D"/>
</svg>
