<svg width="1440" height="442" viewBox="0 0 1440 442" fill="none" xmlns="http://www.w3.org/2000/svg">
<rect y="0.557861" width="1440" height="430" fill="#7ACAD6" fill-opacity="0.84"/>
<path d="M1239.85 326.063L1274.99 424.867H1027.39L1069.69 303.919C1009.72 232.37 1051.41 124.337 1127.15 93.2328C1156.66 81.1096 1229.05 76.0807 1267.72 110.091C1361.38 192.476 1302.95 298.384 1239.85 326.063Z" fill="white" stroke="black" stroke-width="12" stroke-linecap="round" stroke-linejoin="round"/>
<path d="M1113.95 263.662C1119.87 271.029 1137.11 284.052 1158.73 277.208" stroke="black" stroke-width="12" stroke-linecap="round" stroke-linejoin="round"/>
<path d="M1295.06 144.356C1290.46 177.062 1252.99 260.383 1202.45 203.311" stroke="black" stroke-width="12" stroke-linejoin="round"/>
<path d="M1246.58 95.7194C1246.58 161.131 1197.24 245.451 1151.08 187.194" stroke="black" stroke-width="12" stroke-linejoin="round"/>
<path d="M1185.84 83.8973C1185.84 149.309 1155.92 230.844 1102.82 182.133" stroke="black" stroke-width="12" stroke-linejoin="round"/>
<path d="M1124.66 89.1738C1130.46 173.607 1074.1 221.001 1062.27 150.28" stroke="black" stroke-width="12" stroke-linejoin="round"/>
<path d="M1314.99 173.049C1305.14 176.741 1292.97 178.221 1284.23 190.409C1267.94 209.67 1265.9 245.16 1236.44 263.824" stroke="black" stroke-width="12" stroke-linejoin="round"/>
<path d="M1236.93 263.597C1212.5 277.531 1204.21 301.816 1241.52 329.013" stroke="black" stroke-width="12" stroke-linejoin="round"/>
<path d="M1238.13 325.892L1273.27 424.696H1025.67L1067.98 303.747C1008 232.199 1049.7 124.166 1125.43 93.0617C1154.95 80.9384 1227.34 75.9096 1266 109.92C1359.67 192.305 1301.23 298.213 1238.13 325.892Z" stroke="black" stroke-width="12" stroke-linecap="round" stroke-linejoin="round"/>
<ellipse cx="11.1228" cy="10.7139" rx="11.1228" ry="10.7139" transform="matrix(-1 0 0 1 1191.7 233.043)" fill="black"/>
<ellipse cx="12.8029" cy="9.34465" rx="12.8029" ry="9.34465" transform="matrix(-0.929721 -0.368264 -0.392631 0.919696 1159.91 242.47)" fill="black"/>
<ellipse cx="11.1228" cy="10.7139" rx="11.1228" ry="10.7139" transform="matrix(-1 0 0 1 1125.07 208.857)" fill="black"/>
<path fill-rule="evenodd" clip-rule="evenodd" d="M1067.59 260.487C1088.67 276.372 1119.22 275.113 1138.81 256.549C1160.1 236.368 1160.39 203.378 1139.43 182.863C1118.48 162.348 1084.23 162.077 1062.94 182.258C1047.04 197.316 1042.85 219.505 1050.45 238.322C1050.08 238.503 1049.7 238.702 1049.33 238.919L1008.66 262.875C999.363 268.348 996.613 280.416 1002.69 289.075C1008.81 297.804 1021.26 299.332 1029.61 292.379L1065.86 262.183C1066.49 261.658 1067.07 261.09 1067.59 260.487ZM1122.63 240.712C1134.85 229.135 1135.01 210.211 1122.99 198.443C1110.97 186.675 1091.33 186.52 1079.11 198.096C1066.89 209.673 1066.73 228.597 1078.75 240.365C1090.77 252.133 1110.41 252.288 1122.63 240.712Z" fill="#7ACAD6"/>
<path d="M1067.59 260.487L1063.03 256.65C1065.14 254.22 1068.76 253.81 1071.29 255.716L1067.59 260.487ZM1138.81 256.549L1142.94 260.827L1142.94 260.827L1138.81 256.549ZM1139.43 182.863L1135.16 187.14L1139.43 182.863ZM1062.94 182.258L1067.07 186.536L1067.07 186.536L1062.94 182.258ZM1050.45 238.322L1056.06 236.027C1057.23 238.939 1055.9 242.293 1053.02 243.681L1050.45 238.322ZM1049.33 238.919L1046.31 233.803L1046.31 233.803L1049.33 238.919ZM1008.66 262.875L1011.68 267.991L1008.66 262.875ZM1002.69 289.075L1007.66 285.617L1007.66 285.617L1002.69 289.075ZM1029.61 292.379L1033.45 296.918L1029.61 292.379ZM1065.86 262.183L1069.7 266.723L1069.7 266.723L1065.86 262.183ZM1122.63 240.712L1126.76 244.989L1122.63 240.712ZM1071.29 255.716C1090.12 269.909 1117.34 268.697 1134.67 252.272L1142.94 260.827C1121.09 281.529 1087.21 282.835 1063.88 265.258L1071.29 255.716ZM1134.67 252.272C1153.43 234.5 1153.78 205.379 1135.16 187.14L1143.71 178.585C1166.99 201.377 1166.78 238.236 1142.94 260.827L1134.67 252.272ZM1135.16 187.14C1116.44 168.818 1085.92 168.671 1067.07 186.536L1058.8 177.981C1082.54 155.484 1120.52 155.877 1143.71 178.585L1135.16 187.14ZM1067.07 186.536C1053.05 199.817 1049.33 219.376 1056.06 236.027L1044.85 240.617C1036.37 219.634 1041.04 194.815 1058.8 177.981L1067.07 186.536ZM1053.02 243.681C1052.79 243.788 1052.57 243.906 1052.35 244.035L1046.31 233.803C1046.83 233.499 1047.36 233.219 1047.89 232.962L1053.02 243.681ZM1052.35 244.035L1011.68 267.991L1005.64 257.76L1046.31 233.803L1052.35 244.035ZM1011.68 267.991C1005.42 271.673 1003.57 279.791 1007.66 285.617L997.712 292.533C989.652 281.04 993.302 265.024 1005.64 257.76L1011.68 267.991ZM1007.66 285.617C1011.78 291.489 1020.16 292.517 1025.77 287.839L1033.45 296.918C1022.37 306.147 1005.84 304.119 997.712 292.533L1007.66 285.617ZM1025.77 287.839L1062.02 257.644L1069.7 266.723L1033.45 296.918L1025.77 287.839ZM1062.02 257.644C1062.39 257.335 1062.73 257.002 1063.03 256.65L1072.14 264.324C1071.4 265.179 1070.59 265.982 1069.7 266.723L1062.02 257.644ZM1127.27 194.166C1141.61 208.21 1141.52 231.003 1126.76 244.989L1118.5 236.434C1128.17 227.267 1128.41 212.212 1118.71 202.721L1127.27 194.166ZM1074.98 193.819C1089.64 179.926 1113.01 180.205 1127.27 194.166L1118.71 202.721C1108.94 193.146 1093.02 193.114 1083.24 202.374L1074.98 193.819ZM1074.47 244.642C1060.13 230.598 1060.22 207.805 1074.98 193.819L1083.24 202.374C1073.57 211.541 1073.34 226.596 1083.03 236.087L1074.47 244.642ZM1126.76 244.989C1112.1 258.882 1088.73 258.603 1074.47 244.642L1083.03 236.087C1092.81 245.662 1108.73 245.694 1118.5 236.434L1126.76 244.989Z" fill="black"/>
<path d="M1235.56 400.268L1255.99 392.589L1269.79 430.427L1234.78 430.427L1235.56 400.268Z" fill="white"/>
<path d="M1259.15 400.026L1270.5 395.984L1282.67 430.458L1269.99 430.458L1259.15 400.026Z" fill="black"/>
<path d="M255.465 94.7364V100.541H276.39V109.721H255.465V123.806H244.395V92.6664C244.395 86.7264 248.355 82.7664 254.295 82.7664H276.84V92.0364H258.165C256.545 92.0364 255.465 93.1164 255.465 94.7364ZM303.64 81.8664C316.42 81.8664 325.69 91.1814 325.69 103.286C325.69 115.436 316.42 124.751 303.64 124.751C290.86 124.751 281.59 115.436 281.59 103.286C281.59 91.1814 290.86 81.8664 303.64 81.8664ZM303.64 115.661C310.255 115.661 314.62 110.216 314.62 103.286C314.62 96.4014 310.255 90.9564 303.64 90.9564C297.025 90.9564 292.66 96.4014 292.66 103.286C292.66 110.216 297.025 115.661 303.64 115.661ZM368.763 106.346C368.763 117.191 361.158 124.706 349.953 124.706C338.748 124.706 331.143 117.191 331.143 106.346V82.7664H342.213V107.246C342.213 111.521 344.958 115.436 349.953 115.436C354.948 115.436 357.693 111.521 357.693 107.246V82.7664H368.763V106.346ZM375.352 123.851V92.9364C375.352 86.2764 379.402 81.8664 385.522 81.8664C390.517 81.8664 394.882 85.1964 396.637 90.2364L404.512 112.826H404.872V82.7664H415.942V113.681C415.942 120.341 411.892 124.751 405.772 124.751C400.777 124.751 396.412 121.421 394.657 116.381L386.782 93.7914H386.422V123.851H375.352ZM422.505 82.7664H439.02C452.79 82.7664 459.855 90.9564 459.855 103.286C459.855 115.616 452.79 123.806 439.02 123.806H432.405C426.465 123.806 422.505 119.846 422.505 113.906V82.7664ZM433.575 113.591C433.575 114.266 434.025 114.716 434.7 114.716H436.41C444.285 114.716 448.785 111.296 448.785 103.286C448.785 95.2764 444.285 91.8564 436.41 91.8564H433.575V113.591ZM472.823 114.271L470.823 127.271H463.223L463.623 114.271H472.823ZM480.196 118.151C480.196 115.451 481.996 114.461 484.696 114.461H501.616C501.916 114.461 502.096 114.371 502.096 114.101C502.096 113.831 501.916 113.741 501.616 113.741H480.496V110.141H491.146V109.241H480.496V105.041H508.696V109.241H498.046V110.141H504.496C507.196 110.141 508.996 111.101 508.996 113.801C508.996 116.501 507.196 117.461 504.496 117.461H487.576C487.276 117.461 487.096 117.581 487.096 117.851C487.096 118.121 487.276 118.241 487.576 118.241H508.696V121.841H484.696C481.996 121.841 480.196 120.851 480.196 118.151ZM480.496 94.4814H508.696V104.201H485.296C482.536 104.201 480.496 102.161 480.496 99.4014V94.4814ZM487.396 98.6814V99.2514C487.396 99.7314 487.666 100.001 488.146 100.001H501.796V98.6814H487.396ZM512.297 109.841V104.141H518.357C521.837 104.141 523.157 103.181 523.157 101.741V99.8814H512.297V94.4814H530.057V100.031H532.397V94.4814H539.297V112.841H532.397V106.031H528.827C527.237 108.581 523.877 109.841 517.757 109.841H512.297ZM512.297 111.341H519.197V114.041C519.197 115.121 519.917 115.841 520.997 115.841H539.597V121.841H518.897C514.937 121.841 512.297 119.201 512.297 115.241V111.341ZM542.598 118.151C542.598 115.451 544.398 114.461 547.098 114.461H564.018C564.318 114.461 564.498 114.371 564.498 114.101C564.498 113.831 564.318 113.741 564.018 113.741H542.898V110.141H566.898C569.598 110.141 571.398 111.101 571.398 113.801C571.398 116.501 569.598 117.461 566.898 117.461H549.978C549.678 117.461 549.498 117.581 549.498 117.851C549.498 118.121 549.678 118.241 549.978 118.241H571.098V121.841H547.098C544.398 121.841 542.598 120.851 542.598 118.151ZM542.898 105.041H571.098V109.241H542.898V105.041ZM542.598 99.3414C542.598 96.0414 544.548 94.4814 548.148 94.4814H565.848C569.448 94.4814 571.398 96.0414 571.398 99.3414C571.398 102.641 569.448 104.201 565.848 104.201H548.148C544.548 104.201 542.598 102.641 542.598 99.3414ZM549.528 99.3414C549.528 99.7914 549.798 100.001 550.098 100.001H563.898C564.198 100.001 564.468 99.7914 564.468 99.3414C564.468 98.8914 564.198 98.6814 563.898 98.6814H550.098C549.798 98.6814 549.528 98.8914 549.528 99.3414ZM607.413 115.241H599.043C600.573 116.651 603.843 117.131 607.713 117.191V121.841C602.013 121.811 597.093 120.461 594.513 117.971C591.933 120.461 587.013 121.811 581.313 121.841V117.191C585.183 117.131 588.453 116.651 589.983 115.241H581.613V110.741H607.413V115.241ZM581.613 109.841V105.041C584.253 104.891 586.623 103.451 586.893 100.481H581.613V95.6814H586.923V93.5814H593.823V95.6814H599.133V100.481H593.823C594.063 103.511 596.253 104.591 599.133 104.741V109.541C595.623 109.421 592.263 108.221 590.523 106.091C588.453 108.881 585.123 109.721 581.613 109.841ZM600.513 109.541V94.4814H607.413V98.3814H610.113V104.381H607.413V109.541H600.513ZM619.864 108.941C614.764 108.941 612.214 106.151 612.214 101.711C612.214 97.2714 614.764 94.4814 619.864 94.4814H622.624C627.724 94.4814 630.274 97.2714 630.274 101.711C630.274 106.151 627.724 108.941 622.624 108.941H619.864ZM615.814 111.041V110.141H623.014V111.041C623.014 113.771 623.944 115.901 625.714 116.351C627.484 115.901 628.414 113.771 628.414 111.041V110.141H635.614V111.041C635.614 114.071 636.844 116.351 638.914 116.441V121.841C636.214 121.811 633.394 120.401 632.014 117.071C631.174 119.141 628.144 121.391 625.714 121.811C623.074 121.301 620.344 119.381 619.414 117.071C618.034 120.401 615.214 121.811 612.514 121.841V116.441C614.584 116.351 615.814 114.071 615.814 111.041ZM631.714 108.941V94.4814H638.614V98.6814H641.314V104.681H638.614V108.941H631.714ZM619.144 101.711C619.144 102.761 619.864 103.541 620.704 103.541H621.784C622.624 103.541 623.344 102.761 623.344 101.711C623.344 100.661 622.624 99.8814 621.784 99.8814H620.704C619.864 99.8814 619.144 100.661 619.144 101.711ZM644.016 113.891V102.431C644.016 97.4814 647.406 94.1814 652.746 94.1814C658.086 94.1814 661.476 97.4814 661.476 102.431V104.411H664.116V94.4814H671.016V121.841H664.116V110.411H661.476V113.891C661.476 118.841 658.086 122.141 652.746 122.141C647.406 122.141 644.016 118.841 644.016 113.891ZM652.746 116.141C653.796 116.141 654.576 115.391 654.576 114.191V102.131C654.576 100.931 653.796 100.181 652.746 100.181C651.696 100.181 650.916 100.931 650.916 102.131V114.191C650.916 115.391 651.696 116.141 652.746 116.141ZM674.617 115.841H679.117V110.801C676.207 109.481 674.317 106.691 674.317 103.061C674.317 97.9614 678.067 94.4814 683.167 94.4814H694.267C699.367 94.4814 703.117 97.9614 703.117 103.061C703.117 106.691 701.227 109.481 698.317 110.801V115.841H702.817V121.841H674.617V115.841ZM681.247 103.061C681.247 104.861 682.567 105.941 684.217 105.941H693.217C694.867 105.941 696.187 104.861 696.187 103.061C696.187 101.261 694.867 100.181 693.217 100.181H684.217C682.567 100.181 681.247 101.261 681.247 103.061ZM686.317 111.641V115.841H691.117V111.641H686.317ZM713.168 113.291H706.868L706.568 94.4814H713.468L713.168 113.291ZM706.268 118.481C706.268 116.381 707.888 114.761 709.988 114.761C712.028 114.761 713.648 116.381 713.648 118.481C713.648 120.521 712.028 122.141 709.988 122.141C707.888 122.141 706.268 120.521 706.268 118.481Z" fill="#23414D"/>
<path d="M246.237 149.868V151.448H253.927V149.868H256.532V157.128H243.653V149.868H246.237ZM246.237 155.077H253.927V153.437H246.237V155.077ZM258.685 146.813V148.925H241.664V146.813H258.685ZM251.528 139.491C251.528 141.358 253.681 143.47 257.844 143.942L256.921 145.992C253.702 145.582 251.374 144.249 250.174 142.445C248.975 144.249 246.637 145.582 243.448 145.992L242.504 143.942C246.667 143.449 248.821 141.399 248.841 139.491V138.856H251.528V139.491ZM276.875 147.49V149.581H259.813V147.49H276.875ZM274.804 151.181V157.354H272.241V153.273H261.7V151.181H274.804ZM275.009 143.901V145.992H261.884V139.307H274.825V141.358H264.489V143.901H275.009ZM294.984 146.074V148.146H287.765V149.335H292.913V154.114H282.515V155.241H293.405V157.21H279.952V152.268H290.329V151.304H279.931V149.335H285.14V148.146H277.962V146.074H294.984ZM292.831 139.204V145.09H280.075V139.204H292.831ZM282.638 141.235V143.08H290.226V141.235H282.638ZM304.623 138.938C308.909 138.938 311.39 140.066 311.411 142.116C311.39 144.188 308.909 145.316 304.623 145.316C300.316 145.316 297.814 144.188 297.814 142.116C297.814 140.066 300.316 138.938 304.623 138.938ZM304.623 140.845C301.875 140.845 300.542 141.296 300.562 142.116C300.542 143.039 301.875 143.388 304.623 143.388C307.391 143.388 308.704 143.039 308.704 142.116C308.704 141.296 307.391 140.845 304.623 140.845ZM313.133 146.198V148.269H296.112V146.198H313.133ZM311.062 149.356V154.114H300.665V155.241H311.554V157.21H298.101V152.288H308.478V151.263H298.081V149.356H311.062ZM322.259 139.512V141.727H326.074V139.512H328.699V147.654H319.655V139.512H322.259ZM322.259 145.603H326.074V143.696H322.259V145.603ZM333.908 138.671V142.301H336.43V144.413H333.908V148.166H331.283V138.671H333.908ZM333.908 148.864V153.929H324.125V155.139H334.441V157.21H321.562V152.063H331.303V150.894H321.521V148.864H333.908ZM352.959 138.692V152.452H350.375V148.556H346.11V146.464H350.375V144.372H346.376C345.043 147.213 342.336 149.315 338.583 150.443L337.497 148.412C341.475 147.151 343.977 144.936 344.449 142.178H338.501V140.086H347.299C347.299 140.845 347.217 141.583 347.074 142.281H350.375V138.692H352.959ZM353.452 154.913V157.005H340.675V151.078H343.341V154.913H353.452ZM370.125 138.671V145.972H372.873V148.125H370.125V157.333H367.541V138.671H370.125ZM366.269 141.46V143.552H355.297V141.46H359.522V138.958H362.147V141.46H366.269ZM360.834 144.598C363.562 144.598 365.592 146.444 365.592 149.048C365.592 151.653 363.562 153.498 360.834 153.498C358.086 153.498 356.056 151.653 356.056 149.048C356.056 146.444 358.086 144.598 360.834 144.598ZM360.834 146.71C359.522 146.731 358.558 147.613 358.558 149.048C358.558 150.504 359.522 151.365 360.834 151.345C362.147 151.365 363.09 150.504 363.09 149.048C363.09 147.613 362.147 146.731 360.834 146.71ZM389.279 138.671V149.417H386.674V146.136H383.578V144.044H386.674V142.629H383.578V140.537H386.674V138.671H389.279ZM380.542 141.091C380.522 143.593 381.793 146.156 384.788 147.223L383.291 149.294C381.342 148.546 379.999 147.12 379.23 145.336C378.399 147.233 376.974 148.74 374.882 149.52L373.426 147.469C376.543 146.341 377.876 143.757 377.897 141.091V139.348H380.542V141.091ZM380.583 150.586C380.563 152.114 381.199 153.683 382.737 154.729C384.265 153.621 384.89 151.981 384.911 150.586V150.094H387.474V150.586C387.474 152.534 388.5 154.38 391.042 155.159L389.709 157.087C387.936 156.472 386.777 155.323 386.141 153.847C385.516 155.303 384.418 156.574 382.737 157.251C381.004 156.615 379.907 155.385 379.312 153.908C378.646 155.323 377.507 156.472 375.805 157.087L374.534 155.159C376.995 154.339 378.02 152.452 378.041 150.586V150.094H380.583V150.586ZM406.423 138.671V145.603H409.171V147.736H406.423V157.374H403.798V138.671H406.423ZM401.194 140.394V142.506H395.042V150.689C397.749 150.658 399.984 150.535 402.465 150.094L402.752 152.288C399.861 152.781 397.318 152.863 394.016 152.842H392.437V140.394H401.194ZM419.487 140.189V141.604H422.973V138.692H425.578V152.268H422.973V147.695H419.487V149.274H410.627V140.189H419.487ZM413.232 142.26V147.243H416.923V142.26H413.232ZM425.967 154.913V157.005H413.15V150.976H415.795V154.913H425.967ZM419.487 145.623H422.973V143.716H419.487V145.623ZM443.953 146.259V148.351H440.323V151.406C441.861 151.355 443.399 151.253 444.855 151.099L445.06 153.006C440.979 153.642 436.734 153.662 433.227 153.662L432.919 151.53C434.406 151.54 436.026 151.54 437.698 151.489V148.351H434.15V140.332H443.85V142.404H436.754V146.259H443.953ZM448.526 138.671V157.374H445.921V138.671H448.526ZM461.63 140.476V142.547H457.857C457.898 144.383 459.251 146.269 462.225 147.018L461.077 149.028C458.923 148.484 457.426 147.315 456.585 145.828C455.755 147.469 454.258 148.771 452.074 149.376L450.843 147.305C453.817 146.536 455.211 144.567 455.252 142.547H451.5V140.476H455.252V138.589H457.898V140.476H461.63ZM465.793 138.671V142.855H468.316V145.008H465.793V149.315H463.168V138.671H465.793ZM466.019 150.115V152.165H461.282C461.753 153.539 463.589 154.872 466.839 155.303L465.917 157.292C462.912 156.892 460.8 155.693 459.723 154.093C458.657 155.682 456.555 156.851 453.591 157.251L452.648 155.262C455.929 154.862 457.744 153.57 458.226 152.165H453.448V150.115H466.019ZM477.647 138.938C481.933 138.938 484.415 140.066 484.435 142.116C484.415 144.188 481.933 145.316 477.647 145.316C473.34 145.316 470.838 144.188 470.838 142.116C470.838 140.066 473.34 138.938 477.647 138.938ZM477.647 140.845C474.899 140.845 473.566 141.296 473.586 142.116C473.566 143.039 474.899 143.388 477.647 143.388C480.416 143.388 481.728 143.039 481.728 142.116C481.728 141.296 480.416 140.845 477.647 140.845ZM486.158 146.198V148.269H469.136V146.198H486.158ZM484.086 149.356V154.114H473.689V155.241H484.579V157.21H471.125V152.288H481.502V151.263H471.105V149.356H484.086ZM502.031 140.127C502.031 142.322 504.266 144.762 508.552 145.295L507.527 147.407C504.266 146.936 501.877 145.428 500.657 143.408C499.426 145.428 497.058 146.936 493.828 147.407L492.782 145.295C497.027 144.762 499.283 142.322 499.283 140.127V139.225H502.031V140.127ZM509.147 148.823V150.955H501.887V157.333H499.303V150.955H492.125V148.823H509.147ZM521.903 150.648C521.903 152.155 522.528 153.703 524.056 154.729C525.594 153.642 526.271 152.032 526.271 150.648V150.012H528.855V150.648C528.834 152.596 529.88 154.401 532.362 155.159L531.09 157.067C529.306 156.462 528.137 155.323 527.501 153.888C526.876 155.323 525.789 156.574 524.118 157.231C522.354 156.595 521.257 155.385 520.652 153.949C519.996 155.344 518.847 156.472 517.145 157.067L515.853 155.159C518.314 154.319 519.339 152.473 519.36 150.648V150.012H521.903V150.648ZM530.742 138.692V149.233H528.117V138.692H530.742ZM520.508 139.635C523.42 139.635 525.615 141.481 525.615 144.126C525.615 146.731 523.42 148.576 520.508 148.576C517.596 148.576 515.402 146.731 515.402 144.126C515.402 141.481 517.596 139.635 520.508 139.635ZM520.508 141.829C519.011 141.829 517.945 142.691 517.965 144.126C517.945 145.541 519.011 146.403 520.508 146.403C521.964 146.403 523.031 145.541 523.031 144.126C523.031 142.691 521.964 141.829 520.508 141.829ZM548.481 147.018V149.089H543.067V153.068H550.347V155.2H533.264V153.068H540.462V149.089H535.274V139.984H548.337V142.075H537.899V147.018H548.481ZM568.476 148.679V150.771H551.393V148.679H558.632V147.325H553.526V142.198H563.78V141.05H553.485V139.02H566.405V144.085H556.13V145.316H566.753V147.325H561.237V148.679H568.476ZM566.507 151.837V157.251H563.862V153.888H553.3V151.837H566.507ZM590.583 138.671V157.333H588.123V138.671H590.583ZM586.605 139.081V156.513H584.165V147.941H581.109C580.042 150.073 578.31 151.919 575.654 153.457L574.177 151.612C577.94 149.376 579.602 146.659 579.96 142.998H575.203V140.886H582.565C582.555 142.66 582.37 144.331 581.929 145.869H584.165V139.081H586.605ZM599.812 142.896C599.812 146.321 601.371 149.766 604.529 151.099L602.991 153.191C600.858 152.227 599.381 150.371 598.541 148.064C597.689 150.576 596.162 152.606 593.885 153.642L592.306 151.468C595.567 150.094 597.146 146.526 597.167 142.896V140.107H599.812V142.896ZM608.179 138.671V157.374H605.534V138.671H608.179ZM621.161 140.23V142.322H619.643V147.51C620.392 147.448 621.12 147.377 621.817 147.284L622.001 149.212C618.269 149.848 614.003 149.909 610.886 149.909L610.599 147.818L612.629 147.797V142.322H611.091V140.23H621.161ZM625.508 138.692V143.942H628.031V146.115H625.508V152.432H622.883V138.692H625.508ZM626.185 154.913V157.005H613.409V151.119H616.013V154.913H626.185ZM615.152 147.736L617.121 147.654V142.322H615.152V147.736ZM645.032 138.671V157.333H642.53V138.671H645.032ZM641.135 138.938V156.472H638.674V147.654H637.177C636.931 151.324 635.373 153.539 633.076 153.539C630.615 153.539 629.015 150.955 629.015 146.751C629.015 142.568 630.615 140.004 633.076 140.004C635.321 140.004 636.859 142.096 637.157 145.582H638.674V138.938H641.135ZM633.076 142.465C632.03 142.465 631.415 143.901 631.435 146.751C631.415 149.622 632.03 151.037 633.076 151.017C634.142 151.037 634.778 149.622 634.778 146.751C634.778 143.901 634.142 142.465 633.076 142.465ZM668.903 147.202V149.335H651.84V147.202H668.903ZM666.955 143.819V145.89H653.912V139.163H666.852V141.276H656.516V143.819H666.955ZM660.331 150.463C664.371 150.463 666.811 151.694 666.832 153.888C666.811 156.103 664.371 157.333 660.331 157.333C656.25 157.333 653.789 156.103 653.789 153.888C653.789 151.694 656.25 150.463 660.331 150.463ZM660.331 152.452C657.747 152.452 656.434 152.945 656.455 153.888C656.434 154.872 657.747 155.344 660.331 155.344C662.853 155.344 664.186 154.872 664.207 153.888C664.186 152.945 662.853 152.452 660.331 152.452ZM687.052 148.679V150.771H669.969V148.679H677.208V147.325H672.102V142.198H682.356V141.05H672.061V139.02H684.981V144.085H674.707V145.316H685.33V147.325H679.813V148.679H687.052ZM685.083 151.837V157.251H682.438V153.888H671.876V151.837H685.083ZM697.142 141.522V143.593H688.119V141.522H691.359V139.184H693.943V141.522H697.142ZM692.671 144.434C695.05 144.434 696.752 146.28 696.773 148.864C696.752 151.468 695.05 153.314 692.671 153.314C690.292 153.314 688.549 151.468 688.549 148.864C688.549 146.28 690.292 144.434 692.671 144.434ZM692.671 146.608C691.584 146.608 690.846 147.448 690.846 148.864C690.846 150.279 691.584 151.099 692.671 151.099C693.717 151.099 694.456 150.279 694.476 148.864C694.456 147.448 693.717 146.608 692.671 146.608ZM704.279 138.671V157.333H701.797V148.351H700.28V156.533H697.839V139.04H700.28V146.259H701.797V138.671H704.279ZM723.31 148.966V151.058H716.05V157.333H713.466V151.058H706.289V148.966H723.31ZM721.792 139.656V141.706H716.358C716.614 143.531 718.675 145.367 722.51 145.828L721.567 147.879C718.286 147.438 715.938 146.033 714.82 144.106C713.671 146.033 711.344 147.438 708.093 147.879L707.129 145.828C710.903 145.367 712.984 143.531 713.282 141.706H707.827V139.656H721.792ZM730.426 143.367C730.426 146.382 731.267 149.499 733.81 151.14L732.395 153.17C730.785 152.196 729.76 150.596 729.175 148.679C728.499 150.791 727.381 152.555 725.689 153.58L724.089 151.653C726.858 149.93 727.883 146.649 727.883 143.49V140.271H730.426V143.367ZM740.619 138.671V157.333H738.117V138.671H740.619ZM736.702 138.938V156.472H734.261V147.1H731.841V144.967H734.261V138.938H736.702ZM759.67 153.006V155.159H742.587V153.006H746.402V148.433C744.956 147.572 744.084 146.249 744.084 144.598C744.084 141.583 747.038 139.573 751.098 139.573C755.138 139.573 758.112 141.583 758.132 144.598C758.122 146.208 757.271 147.52 755.876 148.392V153.006H759.67ZM751.098 141.645C748.432 141.645 746.668 142.711 746.668 144.598C746.668 146.423 748.432 147.551 751.098 147.551C753.744 147.551 755.528 146.423 755.548 144.598C755.528 142.711 753.744 141.645 751.098 141.645ZM748.986 153.006H753.231V149.376C752.564 149.51 751.847 149.581 751.098 149.581C750.35 149.581 749.642 149.52 748.986 149.376V153.006ZM763.157 155.631C762.193 155.631 761.414 154.852 761.434 153.908C761.414 152.965 762.193 152.206 763.157 152.206C764.059 152.206 764.859 152.965 764.859 153.908C764.859 154.852 764.059 155.631 763.157 155.631Z" fill="#23414D"/>
</svg>
