<svg width="1440" height="432" viewBox="0 0 1440 432" fill="none" xmlns="http://www.w3.org/2000/svg">
<rect y="0.472778" width="1440" height="430" fill="#8FD2DD"/>
<path d="M252.465 93.8431V99.6481H273.39V108.828H252.465V122.913H241.395V91.7731C241.395 85.8331 245.355 81.8731 251.295 81.8731H273.84V91.1431H255.165C253.545 91.1431 252.465 92.2231 252.465 93.8431ZM300.64 80.9731C313.42 80.9731 322.69 90.2881 322.69 102.393C322.69 114.543 313.42 123.858 300.64 123.858C287.86 123.858 278.59 114.543 278.59 102.393C278.59 90.2881 287.86 80.9731 300.64 80.9731ZM300.64 114.768C307.255 114.768 311.62 109.323 311.62 102.393C311.62 95.5081 307.255 90.0631 300.64 90.0631C294.025 90.0631 289.66 95.5081 289.66 102.393C289.66 109.323 294.025 114.768 300.64 114.768ZM365.763 105.453C365.763 116.298 358.158 123.813 346.953 123.813C335.748 123.813 328.143 116.298 328.143 105.453V81.8731H339.213V106.353C339.213 110.628 341.958 114.543 346.953 114.543C351.948 114.543 354.693 110.628 354.693 106.353V81.8731H365.763V105.453ZM372.352 122.958V92.0431C372.352 85.3831 376.402 80.9731 382.522 80.9731C387.517 80.9731 391.882 84.3031 393.637 89.3431L401.512 111.933H401.872V81.8731H412.942V112.788C412.942 119.448 408.892 123.858 402.772 123.858C397.777 123.858 393.412 120.528 391.657 115.488L383.782 92.8981H383.422V122.958H372.352ZM419.505 81.8731H436.02C449.79 81.8731 456.855 90.0631 456.855 102.393C456.855 114.723 449.79 122.913 436.02 122.913H429.405C423.465 122.913 419.505 118.953 419.505 113.013V81.8731ZM430.575 112.698C430.575 113.373 431.025 113.823 431.7 113.823H433.41C441.285 113.823 445.785 110.403 445.785 102.393C445.785 94.3831 441.285 90.9631 433.41 90.9631H430.575V112.698ZM469.823 113.378L467.823 126.378H460.223L460.623 113.378H469.823ZM477.196 117.258C477.196 114.558 478.996 113.568 481.696 113.568H498.616C498.916 113.568 499.096 113.478 499.096 113.208C499.096 112.938 498.916 112.848 498.616 112.848H477.496V109.248H488.146V108.348H477.496V104.148H505.696V108.348H495.046V109.248H501.496C504.196 109.248 505.996 110.208 505.996 112.908C505.996 115.608 504.196 116.568 501.496 116.568H484.576C484.276 116.568 484.096 116.688 484.096 116.958C484.096 117.228 484.276 117.348 484.576 117.348H505.696V120.948H481.696C478.996 120.948 477.196 119.958 477.196 117.258ZM477.496 93.5881H505.696V103.308H482.296C479.536 103.308 477.496 101.268 477.496 98.5081V93.5881ZM484.396 97.7881V98.3581C484.396 98.8381 484.666 99.1081 485.146 99.1081H498.796V97.7881H484.396ZM509.297 108.948V103.248H515.357C518.837 103.248 520.157 102.288 520.157 100.848V98.9881H509.297V93.5881H527.057V99.1381H529.397V93.5881H536.297V111.948H529.397V105.138H525.827C524.237 107.688 520.877 108.948 514.757 108.948H509.297ZM509.297 110.448H516.197V113.148C516.197 114.228 516.917 114.948 517.997 114.948H536.597V120.948H515.897C511.937 120.948 509.297 118.308 509.297 114.348V110.448ZM539.598 117.258C539.598 114.558 541.398 113.568 544.098 113.568H561.018C561.318 113.568 561.498 113.478 561.498 113.208C561.498 112.938 561.318 112.848 561.018 112.848H539.898V109.248H563.898C566.598 109.248 568.398 110.208 568.398 112.908C568.398 115.608 566.598 116.568 563.898 116.568H546.978C546.678 116.568 546.498 116.688 546.498 116.958C546.498 117.228 546.678 117.348 546.978 117.348H568.098V120.948H544.098C541.398 120.948 539.598 119.958 539.598 117.258ZM539.898 104.148H568.098V108.348H539.898V104.148ZM539.598 98.4481C539.598 95.1481 541.548 93.5881 545.148 93.5881H562.848C566.448 93.5881 568.398 95.1481 568.398 98.4481C568.398 101.748 566.448 103.308 562.848 103.308H545.148C541.548 103.308 539.598 101.748 539.598 98.4481ZM546.528 98.4481C546.528 98.8981 546.798 99.1081 547.098 99.1081H560.898C561.198 99.1081 561.468 98.8981 561.468 98.4481C561.468 97.9981 561.198 97.7881 560.898 97.7881H547.098C546.798 97.7881 546.528 97.9981 546.528 98.4481ZM604.413 114.348H596.043C597.573 115.758 600.843 116.238 604.713 116.298V120.948C599.013 120.918 594.093 119.568 591.513 117.078C588.933 119.568 584.013 120.918 578.313 120.948V116.298C582.183 116.238 585.453 115.758 586.983 114.348H578.613V109.848H604.413V114.348ZM578.613 108.948V104.148C581.253 103.998 583.623 102.558 583.893 99.5881H578.613V94.7881H583.923V92.6881H590.823V94.7881H596.133V99.5881H590.823C591.063 102.618 593.253 103.698 596.133 103.848V108.648C592.623 108.528 589.263 107.328 587.523 105.198C585.453 107.988 582.123 108.828 578.613 108.948ZM597.513 108.648V93.5881H604.413V97.4881H607.113V103.488H604.413V108.648H597.513ZM616.864 108.048C611.764 108.048 609.214 105.258 609.214 100.818C609.214 96.3781 611.764 93.5881 616.864 93.5881H619.624C624.724 93.5881 627.274 96.3781 627.274 100.818C627.274 105.258 624.724 108.048 619.624 108.048H616.864ZM612.814 110.148V109.248H620.014V110.148C620.014 112.878 620.944 115.008 622.714 115.458C624.484 115.008 625.414 112.878 625.414 110.148V109.248H632.614V110.148C632.614 113.178 633.844 115.458 635.914 115.548V120.948C633.214 120.918 630.394 119.508 629.014 116.178C628.174 118.248 625.144 120.498 622.714 120.918C620.074 120.408 617.344 118.488 616.414 116.178C615.034 119.508 612.214 120.918 609.514 120.948V115.548C611.584 115.458 612.814 113.178 612.814 110.148ZM628.714 108.048V93.5881H635.614V97.7881H638.314V103.788H635.614V108.048H628.714ZM616.144 100.818C616.144 101.868 616.864 102.648 617.704 102.648H618.784C619.624 102.648 620.344 101.868 620.344 100.818C620.344 99.7681 619.624 98.9881 618.784 98.9881H617.704C616.864 98.9881 616.144 99.7681 616.144 100.818ZM641.016 112.998V101.538C641.016 96.5881 644.406 93.2881 649.746 93.2881C655.086 93.2881 658.476 96.5881 658.476 101.538V103.518H661.116V93.5881H668.016V120.948H661.116V109.518H658.476V112.998C658.476 117.948 655.086 121.248 649.746 121.248C644.406 121.248 641.016 117.948 641.016 112.998ZM649.746 115.248C650.796 115.248 651.576 114.498 651.576 113.298V101.238C651.576 100.038 650.796 99.2881 649.746 99.2881C648.696 99.2881 647.916 100.038 647.916 101.238V113.298C647.916 114.498 648.696 115.248 649.746 115.248ZM671.617 114.948H676.117V109.908C673.207 108.588 671.317 105.798 671.317 102.168C671.317 97.0681 675.067 93.5881 680.167 93.5881H691.267C696.367 93.5881 700.117 97.0681 700.117 102.168C700.117 105.798 698.227 108.588 695.317 109.908V114.948H699.817V120.948H671.617V114.948ZM678.247 102.168C678.247 103.968 679.567 105.048 681.217 105.048H690.217C691.867 105.048 693.187 103.968 693.187 102.168C693.187 100.368 691.867 99.2881 690.217 99.2881H681.217C679.567 99.2881 678.247 100.368 678.247 102.168ZM683.317 110.748V114.948H688.117V110.748H683.317ZM710.168 112.398H703.868L703.568 93.5881H710.468L710.168 112.398ZM703.268 117.588C703.268 115.488 704.888 113.868 706.988 113.868C709.028 113.868 710.648 115.488 710.648 117.588C710.648 119.628 709.028 121.248 706.988 121.248C704.888 121.248 703.268 119.628 703.268 117.588Z" fill="#23414D"/>
<path d="M246.237 148.975V150.554H253.927V148.975H256.532V156.235H243.653V148.975H246.237ZM246.237 154.184H253.927V152.543H246.237V154.184ZM258.685 145.919V148.032H241.664V145.919H258.685ZM251.528 138.598C251.528 140.464 253.681 142.577 257.844 143.048L256.921 145.099C253.702 144.689 251.374 143.356 250.174 141.551C248.975 143.356 246.637 144.689 243.448 145.099L242.504 143.048C246.667 142.556 248.821 140.505 248.841 138.598V137.962H251.528V138.598ZM276.875 146.596V148.688H259.813V146.596H276.875ZM274.804 150.288V156.46H272.241V152.379H261.7V150.288H274.804ZM275.009 143.007V145.099H261.884V138.414H274.825V140.464H264.489V143.007H275.009ZM294.984 145.181V147.252H287.765V148.442H292.913V153.22H282.515V154.348H293.405V156.317H279.952V151.375H290.329V150.411H279.931V148.442H285.14V147.252H277.962V145.181H294.984ZM292.831 138.311V144.197H280.075V138.311H292.831ZM282.638 140.341V142.187H290.226V140.341H282.638ZM304.623 138.044C308.909 138.044 311.39 139.172 311.411 141.223C311.39 143.294 308.909 144.422 304.623 144.422C300.316 144.422 297.814 143.294 297.814 141.223C297.814 139.172 300.316 138.044 304.623 138.044ZM304.623 139.952C301.875 139.952 300.542 140.403 300.562 141.223C300.542 142.146 301.875 142.495 304.623 142.495C307.391 142.495 308.704 142.146 308.704 141.223C308.704 140.403 307.391 139.952 304.623 139.952ZM313.133 145.304V147.375H296.112V145.304H313.133ZM311.062 148.462V153.22H300.665V154.348H311.554V156.317H298.101V151.395H308.478V150.37H298.081V148.462H311.062ZM322.259 138.619V140.833H326.074V138.619H328.699V146.76H319.655V138.619H322.259ZM322.259 144.709H326.074V142.802H322.259V144.709ZM333.908 137.778V141.408H336.43V143.52H333.908V147.273H331.283V137.778H333.908ZM333.908 147.97V153.036H324.125V154.246H334.441V156.317H321.562V151.169H331.303V150H321.521V147.97H333.908ZM352.959 137.798V151.559H350.375V147.663H346.11V145.571H350.375V143.479H346.376C345.043 146.319 342.336 148.421 338.583 149.549L337.497 147.519C341.475 146.258 343.977 144.043 344.449 141.285H338.501V139.193H347.299C347.299 139.952 347.217 140.69 347.074 141.387H350.375V137.798H352.959ZM353.452 154.02V156.112H340.675V150.185H343.341V154.02H353.452ZM370.125 137.778V145.079H372.873V147.232H370.125V156.44H367.541V137.778H370.125ZM366.269 140.567V142.659H355.297V140.567H359.522V138.065H362.147V140.567H366.269ZM360.834 143.705C363.562 143.705 365.592 145.55 365.592 148.155C365.592 150.759 363.562 152.605 360.834 152.605C358.086 152.605 356.056 150.759 356.056 148.155C356.056 145.55 358.086 143.705 360.834 143.705ZM360.834 145.817C359.522 145.837 358.558 146.719 358.558 148.155C358.558 149.611 359.522 150.472 360.834 150.452C362.147 150.472 363.09 149.611 363.09 148.155C363.09 146.719 362.147 145.837 360.834 145.817ZM389.279 137.778V148.524H386.674V145.243H383.578V143.151H386.674V141.736H383.578V139.644H386.674V137.778H389.279ZM380.542 140.198C380.522 142.7 381.793 145.263 384.788 146.33L383.291 148.401C381.342 147.652 379.999 146.227 379.23 144.443C378.399 146.34 376.974 147.847 374.882 148.626L373.426 146.576C376.543 145.448 377.876 142.864 377.897 140.198V138.455H380.542V140.198ZM380.583 149.693C380.563 151.221 381.199 152.79 382.737 153.835C384.265 152.728 384.89 151.087 384.911 149.693V149.201H387.474V149.693C387.474 151.641 388.5 153.487 391.042 154.266L389.709 156.194C387.936 155.579 386.777 154.43 386.141 152.954C385.516 154.41 384.418 155.681 382.737 156.358C381.004 155.722 379.907 154.492 379.312 153.015C378.646 154.43 377.507 155.579 375.805 156.194L374.534 154.266C376.995 153.446 378.02 151.559 378.041 149.693V149.201H380.583V149.693ZM406.423 137.778V144.709H409.171V146.842H406.423V156.481H403.798V137.778H406.423ZM401.194 139.5V141.613H395.042V149.795C397.749 149.765 399.984 149.642 402.465 149.201L402.752 151.395C399.861 151.887 397.318 151.969 394.016 151.949H392.437V139.5H401.194ZM419.487 139.295V140.71H422.973V137.798H425.578V151.375H422.973V146.801H419.487V148.38H410.627V139.295H419.487ZM413.232 141.367V146.35H416.923V141.367H413.232ZM425.967 154.02V156.112H413.15V150.083H415.795V154.02H425.967ZM419.487 144.73H422.973V142.823H419.487V144.73ZM443.953 145.366V147.458H440.323V150.513C441.861 150.462 443.399 150.359 444.855 150.206L445.06 152.113C440.979 152.749 436.734 152.769 433.227 152.769L432.919 150.636C434.406 150.646 436.026 150.646 437.698 150.595V147.458H434.15V139.439H443.85V141.51H436.754V145.366H443.953ZM448.526 137.778V156.481H445.921V137.778H448.526ZM461.63 139.583V141.654H457.857C457.898 143.489 459.251 145.376 462.225 146.125L461.077 148.134C458.923 147.591 457.426 146.422 456.585 144.935C455.755 146.576 454.258 147.878 452.074 148.483L450.843 146.412C453.817 145.643 455.211 143.674 455.252 141.654H451.5V139.583H455.252V137.696H457.898V139.583H461.63ZM465.793 137.778V141.961H468.316V144.115H465.793V148.421H463.168V137.778H465.793ZM466.019 149.221V151.272H461.282C461.753 152.646 463.589 153.979 466.839 154.41L465.917 156.399C462.912 155.999 460.8 154.799 459.723 153.2C458.657 154.789 456.555 155.958 453.591 156.358L452.648 154.369C455.929 153.969 457.744 152.677 458.226 151.272H453.448V149.221H466.019ZM477.647 138.044C481.933 138.044 484.415 139.172 484.435 141.223C484.415 143.294 481.933 144.422 477.647 144.422C473.34 144.422 470.838 143.294 470.838 141.223C470.838 139.172 473.34 138.044 477.647 138.044ZM477.647 139.952C474.899 139.952 473.566 140.403 473.586 141.223C473.566 142.146 474.899 142.495 477.647 142.495C480.416 142.495 481.728 142.146 481.728 141.223C481.728 140.403 480.416 139.952 477.647 139.952ZM486.158 145.304V147.375H469.136V145.304H486.158ZM484.086 148.462V153.22H473.689V154.348H484.579V156.317H471.125V151.395H481.502V150.37H471.105V148.462H484.086ZM502.031 139.234C502.031 141.428 504.266 143.869 508.552 144.402L507.527 146.514C504.266 146.042 501.877 144.535 500.657 142.515C499.426 144.535 497.058 146.042 493.828 146.514L492.782 144.402C497.027 143.869 499.283 141.428 499.283 139.234V138.332H502.031V139.234ZM509.147 147.929V150.062H501.887V156.44H499.303V150.062H492.125V147.929H509.147ZM521.903 149.754C521.903 151.262 522.528 152.81 524.056 153.835C525.594 152.749 526.271 151.139 526.271 149.754V149.119H528.855V149.754C528.834 151.703 529.88 153.507 532.362 154.266L531.09 156.173C529.306 155.568 528.137 154.43 527.501 152.995C526.876 154.43 525.789 155.681 524.118 156.337C522.354 155.702 521.257 154.492 520.652 153.056C519.996 154.451 518.847 155.579 517.145 156.173L515.853 154.266C518.314 153.425 519.339 151.58 519.36 149.754V149.119H521.903V149.754ZM530.742 137.798V148.339H528.117V137.798H530.742ZM520.508 138.742C523.42 138.742 525.615 140.587 525.615 143.233C525.615 145.837 523.42 147.683 520.508 147.683C517.596 147.683 515.402 145.837 515.402 143.233C515.402 140.587 517.596 138.742 520.508 138.742ZM520.508 140.936C519.011 140.936 517.945 141.797 517.965 143.233C517.945 144.648 519.011 145.509 520.508 145.509C521.964 145.509 523.031 144.648 523.031 143.233C523.031 141.797 521.964 140.936 520.508 140.936ZM548.481 146.125V148.196H543.067V152.174H550.347V154.307H533.264V152.174H540.462V148.196H535.274V139.09H548.337V141.182H537.899V146.125H548.481ZM568.476 147.786V149.877H551.393V147.786H558.632V146.432H553.526V141.305H563.78V140.157H553.485V138.126H566.405V143.192H556.13V144.422H566.753V146.432H561.237V147.786H568.476ZM566.507 150.944V156.358H563.862V152.995H553.3V150.944H566.507ZM590.583 137.778V156.44H588.123V137.778H590.583ZM586.605 138.188V155.62H584.165V147.047H581.109C580.042 149.18 578.31 151.026 575.654 152.564L574.177 150.718C577.94 148.483 579.602 145.766 579.96 142.105H575.203V139.993H582.565C582.555 141.767 582.37 143.438 581.929 144.976H584.165V138.188H586.605ZM599.812 142.002C599.812 145.427 601.371 148.873 604.529 150.206L602.991 152.297C600.858 151.333 599.381 149.478 598.541 147.17C597.689 149.683 596.162 151.713 593.885 152.749L592.306 150.575C595.567 149.201 597.146 145.632 597.167 142.002V139.213H599.812V142.002ZM608.179 137.778V156.481H605.534V137.778H608.179ZM621.161 139.336V141.428H619.643V146.617C620.392 146.555 621.12 146.483 621.817 146.391L622.001 148.319C618.269 148.955 614.003 149.016 610.886 149.016L610.599 146.924L612.629 146.904V141.428H611.091V139.336H621.161ZM625.508 137.798V143.048H628.031V145.222H625.508V151.539H622.883V137.798H625.508ZM626.185 154.02V156.112H613.409V150.226H616.013V154.02H626.185ZM615.152 146.842L617.121 146.76V141.428H615.152V146.842ZM645.032 137.778V156.44H642.53V137.778H645.032ZM641.135 138.044V155.579H638.674V146.76H637.177C636.931 150.431 635.373 152.646 633.076 152.646C630.615 152.646 629.015 150.062 629.015 145.858C629.015 141.674 630.615 139.111 633.076 139.111C635.321 139.111 636.859 141.203 637.157 144.689H638.674V138.044H641.135ZM633.076 141.572C632.03 141.572 631.415 143.007 631.435 145.858C631.415 148.729 632.03 150.144 633.076 150.124C634.142 150.144 634.778 148.729 634.778 145.858C634.778 143.007 634.142 141.572 633.076 141.572ZM668.903 146.309V148.442H651.84V146.309H668.903ZM666.955 142.925V144.997H653.912V138.27H666.852V140.382H656.516V142.925H666.955ZM660.331 149.57C664.371 149.57 666.811 150.8 666.832 152.995C666.811 155.209 664.371 156.44 660.331 156.44C656.25 156.44 653.789 155.209 653.789 152.995C653.789 150.8 656.25 149.57 660.331 149.57ZM660.331 151.559C657.747 151.559 656.434 152.051 656.455 152.995C656.434 153.979 657.747 154.451 660.331 154.451C662.853 154.451 664.186 153.979 664.207 152.995C664.186 152.051 662.853 151.559 660.331 151.559ZM687.052 147.786V149.877H669.969V147.786H677.208V146.432H672.102V141.305H682.356V140.157H672.061V138.126H684.981V143.192H674.707V144.422H685.33V146.432H679.813V147.786H687.052ZM685.083 150.944V156.358H682.438V152.995H671.876V150.944H685.083ZM697.142 140.628V142.7H688.119V140.628H691.359V138.291H693.943V140.628H697.142ZM692.671 143.541C695.05 143.541 696.752 145.386 696.773 147.97C696.752 150.575 695.05 152.42 692.671 152.42C690.292 152.42 688.549 150.575 688.549 147.97C688.549 145.386 690.292 143.541 692.671 143.541ZM692.671 145.714C691.584 145.714 690.846 146.555 690.846 147.97C690.846 149.385 691.584 150.206 692.671 150.206C693.717 150.206 694.456 149.385 694.476 147.97C694.456 146.555 693.717 145.714 692.671 145.714ZM704.279 137.778V156.44H701.797V147.458H700.28V155.64H697.839V138.147H700.28V145.366H701.797V137.778H704.279ZM723.31 148.073V150.165H716.05V156.44H713.466V150.165H706.289V148.073H723.31ZM721.792 138.762V140.813H716.358C716.614 142.638 718.675 144.474 722.51 144.935L721.567 146.986C718.286 146.545 715.938 145.14 714.82 143.212C713.671 145.14 711.344 146.545 708.093 146.986L707.129 144.935C710.903 144.474 712.984 142.638 713.282 140.813H707.827V138.762H721.792ZM730.426 142.474C730.426 145.489 731.267 148.606 733.81 150.247L732.395 152.277C730.785 151.303 729.76 149.703 729.175 147.786C728.499 149.898 727.381 151.662 725.689 152.687L724.089 150.759C726.858 149.037 727.883 145.755 727.883 142.597V139.377H730.426V142.474ZM740.619 137.778V156.44H738.117V137.778H740.619ZM736.702 138.044V155.579H734.261V146.207H731.841V144.074H734.261V138.044H736.702ZM759.67 152.113V154.266H742.587V152.113H746.402V147.54C744.956 146.678 744.084 145.355 744.084 143.705C744.084 140.69 747.038 138.68 751.098 138.68C755.138 138.68 758.112 140.69 758.132 143.705C758.122 145.314 757.271 146.627 755.876 147.499V152.113H759.67ZM751.098 140.751C748.432 140.751 746.668 141.818 746.668 143.705C746.668 145.53 748.432 146.658 751.098 146.658C753.744 146.658 755.528 145.53 755.548 143.705C755.528 141.818 753.744 140.751 751.098 140.751ZM748.986 152.113H753.231V148.483C752.564 148.616 751.847 148.688 751.098 148.688C750.35 148.688 749.642 148.626 748.986 148.483V152.113ZM763.157 154.738C762.193 154.738 761.414 153.958 761.434 153.015C761.414 152.072 762.193 151.313 763.157 151.313C764.059 151.313 764.859 152.072 764.859 153.015C764.859 153.958 764.059 154.738 763.157 154.738Z" fill="#23414D"/>
<g clip-path="url(#clip0_2039_647)">
<path d="M1241.43 331.658L1276.57 431.038H1028.97L1071.27 309.388C1011.3 237.418 1053 128.758 1128.73 97.4776C1158.25 85.2876 1230.64 80.2276 1269.3 114.438C1362.96 197.298 1304.53 303.828 1241.43 331.668V331.658Z" fill="white"/>
<path d="M1131.01 102.968C1094.99 117.758 1066.77 151.038 1054.84 189.378C1042.95 227.608 1047.41 270.298 1075.87 304.248L1066.67 311.958C1035.16 274.368 1030.48 227.258 1043.38 185.808C1056.24 144.478 1086.74 108.178 1126.45 91.8677L1131.01 102.968ZM1265.34 118.788C1247.44 103.038 1221.23 95.9877 1195.25 94.5477C1169.3 93.1077 1144.76 97.3277 1131.01 102.978L1126.45 91.8777C1142.22 85.3977 1168.63 81.0477 1195.92 82.5577C1223.19 84.0677 1252.5 91.5077 1273.27 109.778L1265.34 118.788ZM1076.94 310.088L1034.64 431.038L1019.45 430.938L1065.61 306.128L1076.94 310.088ZM1239.02 324.758C1268.87 311.658 1298.03 279.728 1308.36 241.228C1318.55 203.228 1310.48 158.488 1265.34 118.788L1273.27 109.778C1321.79 152.458 1331.34 201.868 1319.95 244.338C1308.7 286.298 1277.09 321.168 1243.84 335.748L1239.02 324.758ZM1270.92 431.068L1235.78 332.268L1247.09 328.248L1285.97 430.798L1270.92 431.078V431.068ZM1071.27 308.108L1075.87 304.258C1077.23 305.878 1077.63 308.098 1076.94 310.098L1071.28 308.118L1071.27 308.108ZM1241.43 330.248L1235.78 332.258C1234.73 329.288 1236.14 326.018 1239.02 324.748L1241.43 330.238V330.248Z" fill="black"/>
<path d="M1120.21 264.088C1125.31 270.428 1140.19 281.468 1158.5 275.668L1162.12 287.108C1137.21 294.998 1117.6 279.988 1110.85 271.598L1120.2 264.078L1120.21 264.088ZM1158.5 275.678C1161.66 274.678 1165.03 276.428 1166.03 279.588C1167.03 282.748 1165.28 286.118 1162.12 287.118L1158.5 275.678ZM1110.85 271.608C1108.77 269.028 1109.19 265.248 1111.77 263.168C1114.35 261.088 1118.13 261.508 1120.21 264.088L1110.86 271.608H1110.85Z" fill="black"/>
<path d="M1302.58 149.378C1301.34 158.188 1297.96 170.048 1292.85 181.948C1287.74 193.838 1280.72 206.188 1271.99 215.738C1263.3 225.238 1252.31 232.608 1239.34 232.958C1226.23 233.318 1212.85 226.498 1199.54 211.478L1208.52 203.518C1220.48 217.028 1230.73 221.188 1239 220.958C1247.41 220.728 1255.55 215.908 1263.12 207.628C1270.65 199.398 1277.02 188.338 1281.81 177.198C1286.6 166.058 1289.62 155.238 1290.68 147.698L1302.56 149.368L1302.58 149.378Z" fill="black"/>
<path d="M1254.16 99.9077C1254.16 133.778 1241.47 172.628 1222.35 195.838C1212.79 207.438 1200.91 215.968 1187.45 216.858C1173.69 217.768 1160.23 210.598 1147.96 195.118L1157.37 187.668C1168.18 201.308 1178.19 205.448 1186.66 204.888C1195.43 204.308 1204.54 198.588 1213.09 188.218C1230.18 167.478 1242.16 131.458 1242.16 99.9177H1254.16V99.9077Z" fill="black"/>
<path d="M1193.43 88.0876C1193.43 121.388 1185.86 159.398 1170.91 183.198C1163.42 195.118 1153.48 204.398 1140.82 206.638C1128 208.908 1114.36 203.608 1100.35 190.748L1108.46 181.908C1120.99 193.408 1131.01 196.188 1138.73 194.818C1146.62 193.418 1154.11 187.368 1160.74 176.818C1174.03 155.668 1181.42 120.208 1181.42 88.0976H1193.42L1193.43 88.0876Z" fill="black"/>
<path d="M1132.22 94.3276C1135.19 136.978 1122.4 171.588 1105.7 186.638C1097.22 194.288 1086.31 197.828 1076.28 191.788C1067.11 186.268 1060.96 173.858 1057.93 155.988L1069.77 154.038C1072.65 171.048 1077.99 178.958 1082.53 181.688C1086.21 183.898 1091.25 183.628 1097.61 177.898C1110.6 166.188 1123.08 135.778 1120.25 95.1376L1132.22 94.3276Z" fill="black"/>
<path d="M1290.4 198.478C1286.84 202.688 1283.93 207.948 1281.06 214.108C1279.63 217.178 1278.26 220.378 1276.82 223.738C1275.39 227.068 1273.91 230.548 1272.32 234.028C1265.94 247.968 1257.46 262.808 1241.24 273.088L1234.82 262.948C1248.06 254.558 1255.33 242.328 1261.41 229.038C1262.93 225.718 1264.35 222.378 1265.79 219.018C1267.22 215.678 1268.67 212.308 1270.18 209.048C1273.2 202.558 1276.65 196.158 1281.24 190.728L1290.4 198.478ZM1318.67 182.858C1307.34 187.108 1298.04 187.848 1290.69 198.098L1280.94 191.108C1291.07 176.978 1306.1 174.758 1314.46 171.628L1318.67 182.868V182.858ZM1285.82 194.598L1290.7 198.098C1290.61 198.228 1290.51 198.358 1290.4 198.478L1285.82 194.598Z" fill="black"/>
<path d="M1241.49 272.998C1230.06 279.518 1223.99 287.558 1223.65 295.768C1223.31 303.988 1228.59 315.198 1246.63 328.358L1239.56 338.058C1220.3 324.018 1211.07 309.488 1211.66 295.278C1212.25 281.058 1222.53 269.998 1235.54 262.578L1241.48 272.998H1241.49Z" fill="black"/>
<path d="M1182.16 258.658C1188.3 258.658 1193.28 253.863 1193.28 247.948C1193.28 242.033 1188.3 237.238 1182.16 237.238C1176.02 237.238 1171.04 242.033 1171.04 247.948C1171.04 253.863 1176.02 258.658 1182.16 258.658Z" fill="black"/>
<path d="M1157.96 254.88C1159.72 250.029 1155.75 244.146 1149.09 241.739C1142.44 239.332 1135.63 241.313 1133.87 246.164C1132.12 251.014 1136.09 256.898 1142.74 259.305C1149.39 261.712 1156.21 259.731 1157.96 254.88Z" fill="black"/>
<path d="M1115.53 234.468C1121.67 234.468 1126.65 229.673 1126.65 223.758C1126.65 217.843 1121.67 213.048 1115.53 213.048C1109.39 213.048 1104.41 217.843 1104.41 223.758C1104.41 229.673 1109.39 234.468 1115.53 234.468Z" fill="black"/>
<path fill-rule="evenodd" clip-rule="evenodd" d="M1124.21 244.898C1136.43 233.318 1136.59 214.398 1124.57 202.628C1112.55 190.858 1092.91 190.708 1080.69 202.278C1068.47 213.858 1068.31 232.778 1080.33 244.548C1092.35 256.318 1111.99 256.468 1124.21 244.898ZM1069.17 264.678C1090.25 280.558 1120.8 279.308 1140.39 260.738C1161.69 240.558 1161.97 207.568 1141.02 187.048C1120.07 166.538 1085.82 166.258 1064.52 186.448C1048.63 201.508 1044.44 223.698 1052.04 242.508C1051.66 242.688 1051.29 242.888 1050.92 243.108L1010.24 267.068C1000.95 272.538 998.2 284.608 1004.27 293.268C1010.39 301.998 1022.85 303.528 1031.2 296.568L1067.45 266.368C1068.08 265.848 1068.66 265.278 1069.18 264.668L1069.17 264.678Z" fill="#7ACAD6"/>
<path d="M1128.35 249.178C1113.69 263.068 1090.32 262.788 1076.06 248.828L1084.62 240.268C1094.4 249.838 1110.32 249.878 1120.09 240.618L1128.36 249.178H1128.35ZM1076.05 248.828C1061.71 234.788 1061.8 211.988 1076.56 198.008L1084.83 206.568C1075.16 215.738 1074.92 230.788 1084.62 240.278L1076.06 248.838L1076.05 248.828ZM1076.56 198.008C1091.22 184.118 1114.59 184.398 1128.85 198.358L1120.29 206.918C1110.51 197.348 1094.59 197.308 1084.82 206.568L1076.55 198.008H1076.56ZM1128.85 198.358C1143.19 212.398 1143.1 235.198 1128.34 249.178L1120.07 240.618C1129.74 231.448 1129.98 216.398 1120.28 206.908L1128.84 198.348L1128.85 198.358ZM1063.6 261.838C1063.97 261.528 1064.31 261.198 1064.61 260.848L1073.72 268.518C1072.98 269.368 1072.16 270.178 1071.28 270.918L1063.6 261.838ZM1027.35 292.028L1063.6 261.828L1071.28 270.908L1035.03 301.108L1027.35 292.028ZM1009.24 289.808C1013.36 295.678 1021.74 296.708 1027.35 292.028L1035.03 301.108C1023.95 310.338 1007.42 308.308 999.29 296.728L1009.24 289.808ZM1013.26 272.178C1007.01 275.858 1005.16 283.978 1009.24 289.808L999.29 296.728C991.23 285.238 994.88 269.218 1007.21 261.958L1013.25 272.188L1013.26 272.178ZM1053.94 248.228L1013.26 272.188L1007.22 261.958L1047.9 237.998L1053.94 248.228ZM1054.6 247.868C1054.38 247.978 1054.16 248.088 1053.94 248.218L1047.9 237.988C1048.42 237.688 1048.94 237.408 1049.48 237.148L1054.61 247.868H1054.6ZM1068.65 190.728C1054.63 204.008 1050.92 223.568 1057.64 240.218L1046.43 244.808C1037.96 223.828 1042.62 199.008 1060.39 182.168L1068.66 190.728H1068.65ZM1136.74 191.328C1118.03 173.008 1087.51 172.858 1068.65 190.728L1060.38 182.168C1084.12 159.668 1122.1 160.068 1145.29 182.768L1136.73 191.328H1136.74ZM1136.26 256.458C1155.01 238.688 1155.37 209.568 1136.74 191.328L1145.3 182.768C1168.58 205.558 1168.37 242.418 1144.53 265.008L1136.26 256.448V256.458ZM1072.87 259.908C1091.7 274.098 1118.92 272.888 1136.25 256.468L1144.52 265.028C1122.67 285.728 1088.79 287.038 1065.46 269.458L1072.87 259.918V259.908ZM1052.03 242.508L1057.64 240.218C1058.82 243.128 1057.48 246.488 1054.6 247.868L1052.04 242.508H1052.03ZM1069.17 264.678L1064.62 260.838C1066.72 258.408 1070.35 257.998 1072.88 259.908L1069.18 264.678H1069.17Z" fill="black"/>
</g>
<defs>
<clipPath id="clip0_2039_647">
<rect width="329.28" height="348.81" fill="white" transform="translate(995 82.2576)"/>
</clipPath>
</defs>
</svg>
