<svg width="714" height="149" viewBox="0 0 714 149" fill="none" xmlns="http://www.w3.org/2000/svg">
<rect x="1.19336" y="1.70898" width="711" height="145.978" rx="23" stroke="#CFECF0" stroke-width="2" stroke-dasharray="8 16"/>
<path d="M235.107 84.6765C234.791 83.0417 233.438 82.1276 231.82 82.1276C229.623 82.1276 227.988 83.8151 227.988 86.8913C227.988 89.985 229.641 91.655 231.82 91.655C233.42 91.655 234.773 90.7585 235.107 89.1413L237.059 89.1589C236.654 91.6725 234.598 93.4304 231.803 93.4304C228.48 93.4304 226.072 90.9518 226.072 86.8913C226.072 82.8132 228.498 80.3522 231.803 80.3522C234.492 80.3522 236.619 81.9343 237.059 84.6765H235.107ZM240.873 80.528V93.2546H238.992V80.528H240.873ZM243.158 93.2546V83.7097H245.039V93.2546H243.158ZM244.107 82.2331C243.457 82.2331 242.912 81.7409 242.912 81.1257C242.912 80.5104 243.457 80.0182 244.107 80.0182C244.74 80.0182 245.285 80.5104 245.285 81.1257C245.285 81.7409 244.74 82.2331 244.107 82.2331ZM251.367 93.4479C248.59 93.4479 246.902 91.3913 246.902 88.5261C246.902 85.6081 248.643 83.5866 251.332 83.5866C253.512 83.5866 255.094 84.8698 255.287 86.8034H253.459C253.266 85.9069 252.545 85.1511 251.367 85.1511C249.82 85.1511 248.783 86.4343 248.783 88.4733C248.783 90.5651 249.803 91.8483 251.367 91.8483C252.422 91.8483 253.23 91.2682 253.459 90.2311H255.287C255.076 92.0768 253.617 93.4479 251.367 93.4479ZM257.062 93.2546V80.528H258.943V87.735H259.102L262.881 83.7097H265.131L261.281 87.8054L265.395 93.2546H263.092L259.857 88.9655L258.943 89.862V93.2546H257.062ZM275.467 83.7097V85.2038H273.516V90.4421C273.516 91.5143 274.061 91.7077 274.658 91.7253C274.922 91.7253 275.344 91.6901 275.607 91.6725V93.3073C275.344 93.3425 274.939 93.3776 274.43 93.3776C272.953 93.3776 271.635 92.569 271.652 90.8288V85.2038H270.246V83.7097H271.652V81.4245H273.516V83.7097H275.467ZM281.232 93.4479C278.525 93.4479 276.768 91.4792 276.768 88.5261C276.768 85.5554 278.525 83.5866 281.232 83.5866C283.922 83.5866 285.68 85.5554 285.68 88.5261C285.68 91.4792 283.922 93.4479 281.232 93.4479ZM281.232 91.8835C282.955 91.8835 283.781 90.3542 283.781 88.5261C283.781 86.6979 282.955 85.1335 281.232 85.1335C279.475 85.1335 278.648 86.6979 278.648 88.5261C278.648 90.3542 279.475 91.8835 281.232 91.8835ZM297.984 89.2819V83.7097H299.848V93.2546H298.02V91.6022H297.914C297.475 92.6218 296.49 93.3776 295.066 93.3776C293.221 93.3776 291.92 92.1472 291.92 89.7741V83.7097H293.801V89.5456C293.801 90.8464 294.592 91.6725 295.734 91.6725C296.771 91.6725 297.984 90.9167 297.984 89.2819ZM302.133 96.8405V83.7097H303.961V85.2565H304.119C304.453 84.6589 305.104 83.5866 306.861 83.5866C309.164 83.5866 310.869 85.3972 310.869 88.5085C310.869 91.5847 309.199 93.4479 306.879 93.4479C305.139 93.4479 304.453 92.3932 304.119 91.7604H304.014V96.8405H302.133ZM303.979 88.4733C303.979 90.4772 304.857 91.8483 306.457 91.8483C308.109 91.8483 308.971 90.3893 308.971 88.4733C308.971 86.5925 308.127 85.1862 306.457 85.1862C304.84 85.1862 303.979 86.487 303.979 88.4733ZM314.613 80.528V93.2546H312.732V80.528H314.613ZM320.941 93.4479C318.234 93.4479 316.477 91.4792 316.477 88.5261C316.477 85.5554 318.234 83.5866 320.941 83.5866C323.631 83.5866 325.389 85.5554 325.389 88.5261C325.389 91.4792 323.631 93.4479 320.941 93.4479ZM320.941 91.8835C322.664 91.8835 323.49 90.3542 323.49 88.5261C323.49 86.6979 322.664 85.1335 320.941 85.1335C319.184 85.1335 318.357 86.6979 318.357 88.5261C318.357 90.3542 319.184 91.8835 320.941 91.8835ZM326.795 90.5651C326.795 88.3854 328.641 87.8229 330.363 87.6999C330.996 87.6559 332.429 87.5768 332.877 87.5593L332.859 86.8034C332.859 85.7311 332.209 85.0983 330.926 85.0983C329.818 85.0983 329.15 85.6081 328.957 86.3112H327.094C327.27 84.7292 328.746 83.5866 330.996 83.5866C332.508 83.5866 334.74 84.1491 334.74 86.9089V93.2546H332.912V91.9538H332.842C332.473 92.6745 331.594 93.4655 330.012 93.4655C328.201 93.4655 326.795 92.4284 326.795 90.5651ZM328.623 90.5827C328.623 91.4968 329.379 91.9714 330.434 91.9714C331.963 91.9714 332.877 90.9518 332.877 89.8093V88.9304L330.627 89.0886C329.396 89.1765 328.623 89.6335 328.623 90.5827ZM340.576 93.4479C338.273 93.4479 336.586 91.5847 336.586 88.5085C336.586 85.3972 338.291 83.5866 340.594 83.5866C342.369 83.5866 343.02 84.6589 343.354 85.2565H343.441V80.528H345.322V93.2546H343.494V91.7604H343.354C343.002 92.3932 342.316 93.4479 340.576 93.4479ZM340.998 91.8483C342.598 91.8483 343.494 90.4772 343.494 88.4733C343.494 86.487 342.615 85.1862 340.998 85.1862C339.328 85.1862 338.502 86.5925 338.502 88.4733C338.502 90.3893 339.363 91.8483 340.998 91.8483ZM356.203 93.4479C353.496 93.4479 351.738 91.4792 351.738 88.5261C351.738 85.5554 353.496 83.5866 356.203 83.5866C358.893 83.5866 360.65 85.5554 360.65 88.5261C360.65 91.4792 358.893 93.4479 356.203 93.4479ZM356.203 91.8835C357.926 91.8835 358.752 90.3542 358.752 88.5261C358.752 86.6979 357.926 85.1335 356.203 85.1335C354.445 85.1335 353.619 86.6979 353.619 88.5261C353.619 90.3542 354.445 91.8835 356.203 91.8835ZM362.496 93.2546V83.7097H364.307V85.2214H364.412C364.764 84.2018 365.713 83.569 366.838 83.569C367.066 83.569 367.436 83.5866 367.629 83.6042V85.3972C367.471 85.362 367.031 85.2917 366.645 85.2917C365.344 85.2917 364.377 86.1882 364.377 87.4362V93.2546H362.496ZM376.998 93.4479C374.695 93.4479 373.008 91.5847 373.008 88.5085C373.008 85.3972 374.713 83.5866 377.016 83.5866C378.791 83.5866 379.441 84.6589 379.775 85.2565H379.863V80.528H381.744V93.2546H379.916V91.7604H379.775C379.424 92.3932 378.738 93.4479 376.998 93.4479ZM377.42 91.8483C379.02 91.8483 379.916 90.4772 379.916 88.4733C379.916 86.487 379.037 85.1862 377.42 85.1862C375.75 85.1862 374.924 86.5925 374.924 88.4733C374.924 90.3893 375.785 91.8483 377.42 91.8483ZM384.188 93.2546V83.7097H385.998V85.2214H386.104C386.455 84.2018 387.404 83.569 388.529 83.569C388.758 83.569 389.127 83.5866 389.32 83.6042V85.3972C389.162 85.362 388.723 85.2917 388.336 85.2917C387.035 85.2917 386.068 86.1882 386.068 87.4362V93.2546H384.188ZM390.182 90.5651C390.182 88.3854 392.027 87.8229 393.75 87.6999C394.383 87.6559 395.815 87.5768 396.264 87.5593L396.246 86.8034C396.246 85.7311 395.596 85.0983 394.312 85.0983C393.205 85.0983 392.537 85.6081 392.344 86.3112H390.48C390.656 84.7292 392.133 83.5866 394.383 83.5866C395.895 83.5866 398.127 84.1491 398.127 86.9089V93.2546H396.299V91.9538H396.229C395.859 92.6745 394.98 93.4655 393.398 93.4655C391.588 93.4655 390.182 92.4284 390.182 90.5651ZM392.01 90.5827C392.01 91.4968 392.766 91.9714 393.82 91.9714C395.35 91.9714 396.264 90.9518 396.264 89.8093V88.9304L394.014 89.0886C392.783 89.1765 392.01 89.6335 392.01 90.5827ZM404.402 97.0339C401.994 97.0339 400.412 95.9616 400.236 94.1862H402.152C402.328 95.0827 403.172 95.5222 404.42 95.5222C405.914 95.5222 406.863 94.8893 406.863 93.3952V91.5143H406.74C406.406 92.1296 405.721 93.114 403.963 93.114C401.713 93.114 399.973 91.4265 399.973 88.3854C399.973 85.3444 401.678 83.5866 403.98 83.5866C405.756 83.5866 406.406 84.6589 406.758 85.2565H406.881V83.7097H408.709V93.4655C408.709 95.9089 406.863 97.0339 404.402 97.0339ZM404.385 91.5671C405.984 91.5671 406.881 90.3893 406.881 88.4206C406.881 86.487 406.002 85.1862 404.385 85.1862C402.715 85.1862 401.889 86.5925 401.889 88.4206C401.889 90.2839 402.75 91.5671 404.385 91.5671ZM414.949 90.5651C414.949 88.3854 416.795 87.8229 418.518 87.6999C419.15 87.6559 420.583 87.5768 421.031 87.5593L421.014 86.8034C421.014 85.7311 420.363 85.0983 419.08 85.0983C417.973 85.0983 417.305 85.6081 417.111 86.3112H415.248C415.424 84.7292 416.9 83.5866 419.15 83.5866C420.662 83.5866 422.895 84.1491 422.895 86.9089V93.2546H421.066V91.9538H420.996C420.627 92.6745 419.748 93.4655 418.166 93.4655C416.355 93.4655 414.949 92.4284 414.949 90.5651ZM416.777 90.5827C416.777 91.4968 417.533 91.9714 418.588 91.9714C420.117 91.9714 421.031 90.9518 421.031 89.8093V88.9304L418.781 89.0886C417.551 89.1765 416.777 89.6335 416.777 90.5827ZM427.043 87.5944V93.2546H425.162V83.7097H426.973V85.2741H427.078C427.535 84.2546 428.467 83.5866 429.891 83.5866C431.859 83.5866 433.143 84.8171 433.143 87.1901V93.2546H431.279V87.4186C431.279 86.03 430.523 85.2038 429.258 85.2038C427.975 85.2038 427.043 86.0651 427.043 87.5944ZM438.996 93.4479C436.693 93.4479 435.006 91.5847 435.006 88.5085C435.006 85.3972 436.711 83.5866 439.014 83.5866C440.789 83.5866 441.439 84.6589 441.773 85.2565H441.861V80.528H443.742V93.2546H441.914V91.7604H441.773C441.422 92.3932 440.736 93.4479 438.996 93.4479ZM439.418 91.8483C441.018 91.8483 441.914 90.4772 441.914 88.4733C441.914 86.487 441.035 85.1862 439.418 85.1862C437.748 85.1862 436.922 86.5925 436.922 88.4733C436.922 90.3893 437.783 91.8483 439.418 91.8483ZM454.148 93.4479C451.846 93.4479 450.158 91.5847 450.158 88.5085C450.158 85.3972 451.863 83.5866 454.166 83.5866C455.941 83.5866 456.592 84.6589 456.926 85.2565H457.014V80.528H458.895V93.2546H457.066V91.7604H456.926C456.574 92.3932 455.889 93.4479 454.148 93.4479ZM454.57 91.8483C456.17 91.8483 457.066 90.4772 457.066 88.4733C457.066 86.487 456.188 85.1862 454.57 85.1862C452.9 85.1862 452.074 86.5925 452.074 88.4733C452.074 90.3893 452.936 91.8483 454.57 91.8483ZM461.338 93.2546V83.7097H463.148V85.2214H463.254C463.605 84.2018 464.555 83.569 465.68 83.569C465.908 83.569 466.277 83.5866 466.471 83.6042V85.3972C466.312 85.362 465.873 85.2917 465.486 85.2917C464.186 85.2917 463.219 86.1882 463.219 87.4362V93.2546H461.338ZM471.604 93.4479C468.896 93.4479 467.139 91.4792 467.139 88.5261C467.139 85.5554 468.896 83.5866 471.604 83.5866C474.293 83.5866 476.051 85.5554 476.051 88.5261C476.051 91.4792 474.293 93.4479 471.604 93.4479ZM471.604 91.8835C473.326 91.8835 474.152 90.3542 474.152 88.5261C474.152 86.6979 473.326 85.1335 471.604 85.1335C469.846 85.1335 469.02 86.6979 469.02 88.5261C469.02 90.3542 469.846 91.8835 471.604 91.8835ZM477.896 96.8405V83.7097H479.725V85.2565H479.883C480.217 84.6589 480.867 83.5866 482.625 83.5866C484.928 83.5866 486.633 85.3972 486.633 88.5085C486.633 91.5847 484.963 93.4479 482.643 93.4479C480.902 93.4479 480.217 92.3932 479.883 91.7604H479.777V96.8405H477.896ZM479.742 88.4733C479.742 90.4772 480.621 91.8483 482.221 91.8483C483.873 91.8483 484.734 90.3893 484.734 88.4733C484.734 86.5925 483.891 85.1862 482.221 85.1862C480.604 85.1862 479.742 86.487 479.742 88.4733Z" fill="#A2A0A0"/>
<path d="M286.717 101.712H288.113V108.224C288.113 110.002 286.996 111.03 285.308 111.03C283.746 111.03 282.578 110.154 282.578 108.592H283.962C283.975 109.367 284.546 109.837 285.346 109.837C286.222 109.837 286.717 109.278 286.717 108.224V101.712ZM289.979 110.903V101.712H293.255C295.388 101.712 296.441 102.994 296.441 104.695C296.441 106.383 295.388 107.678 293.255 107.678H291.376V110.903H289.979ZM291.376 106.485H293.115C294.474 106.485 295.032 105.723 295.032 104.695C295.032 103.654 294.474 102.905 293.115 102.905H291.376V106.485ZM304.122 104.619C303.779 103.527 302.954 102.867 301.735 102.867C300.187 102.867 298.993 104.086 298.993 106.307C298.993 108.529 300.174 109.748 301.799 109.748C303.265 109.748 304.236 108.821 304.262 107.348H302.002V106.193H305.62V107.234C305.62 109.557 304.021 111.03 301.786 111.03C299.298 111.03 297.609 109.214 297.609 106.307C297.609 103.375 299.349 101.585 301.723 101.585C303.716 101.585 305.239 102.829 305.557 104.619H304.122ZM308.756 110.027L307.74 113.531H306.661L307.334 110.027H308.756ZM313.732 110.903V101.712H317.008C319.141 101.712 320.194 102.994 320.194 104.695C320.194 106.383 319.141 107.678 317.008 107.678H315.129V110.903H313.732ZM315.129 106.485H316.868C318.227 106.485 318.785 105.723 318.785 104.695C318.785 103.654 318.227 102.905 316.868 102.905H315.129V106.485ZM329.081 101.712V110.903H327.799L323.14 104.187H323.063V110.903H321.667V101.712H322.962L327.621 108.44H327.71V101.712H329.081ZM337.168 104.619C336.825 103.527 336 102.867 334.781 102.867C333.232 102.867 332.039 104.086 332.039 106.307C332.039 108.529 333.22 109.748 334.845 109.748C336.311 109.748 337.282 108.821 337.308 107.348H335.048V106.193H338.666V107.234C338.666 109.557 337.066 111.03 334.832 111.03C332.344 111.03 330.655 109.214 330.655 106.307C330.655 103.375 332.395 101.585 334.769 101.585C336.762 101.585 338.285 102.829 338.603 104.619H337.168ZM343.617 107.399C343.63 105.012 344.303 103.019 345.496 101.318H346.74C345.864 102.575 345.026 105.139 345.026 107.399C345.026 109.672 345.864 112.223 346.74 113.493H345.496C344.303 111.792 343.63 109.798 343.617 107.399ZM351.463 101.712V110.903H350.054V103.108H350.003L347.807 104.543V103.21L350.092 101.712H351.463ZM356.998 111.03C354.865 111.03 353.621 109.316 353.621 106.307C353.621 103.324 354.891 101.585 356.998 101.585C359.105 101.585 360.375 103.324 360.375 106.307C360.375 109.316 359.118 111.03 356.998 111.03ZM356.998 109.824C358.242 109.824 358.979 108.605 358.979 106.307C358.979 104.022 358.229 102.765 356.998 102.765C355.767 102.765 355.018 104.022 355.018 106.307C355.018 108.605 355.754 109.824 356.998 109.824ZM361.949 101.712H363.65L366.558 108.834H366.672L369.579 101.712H371.28V110.903H369.947V104.263H369.858L367.167 110.89H366.062L363.358 104.251H363.282V110.903H361.949V101.712ZM373.159 110.903V101.712H376.523C378.479 101.712 379.431 102.765 379.431 104.124C379.431 105.266 378.732 105.85 377.882 106.066V106.155C378.796 106.206 379.786 107.006 379.786 108.427C379.786 109.837 378.821 110.903 376.676 110.903H373.159ZM376.549 109.71C377.869 109.71 378.402 109.126 378.402 108.364C378.402 107.488 377.704 106.777 376.6 106.777H374.556V109.71H376.549ZM376.409 105.685C377.336 105.685 378.06 105.114 378.06 104.238C378.06 103.476 377.539 102.905 376.435 102.905H374.556V105.685H376.409ZM384.344 110.903V104.009H385.651V105.139H385.728C386.02 104.365 386.692 103.921 387.606 103.921C388.521 103.921 389.168 104.378 389.46 105.139H389.536C389.866 104.39 390.603 103.921 391.605 103.921C392.85 103.921 393.738 104.708 393.738 106.282V110.903H392.38V106.409C392.38 105.482 391.796 105.089 391.085 105.089C390.209 105.089 389.714 105.685 389.714 106.51V110.903H388.368V106.333C388.368 105.584 387.848 105.089 387.111 105.089C386.35 105.089 385.702 105.723 385.702 106.65V110.903H384.344ZM395.059 108.961C395.059 107.386 396.392 106.98 397.636 106.891C398.093 106.86 399.127 106.802 399.451 106.79L399.438 106.244C399.438 105.469 398.969 105.012 398.042 105.012C397.242 105.012 396.76 105.381 396.62 105.888H395.274C395.401 104.746 396.468 103.921 398.093 103.921C399.185 103.921 400.797 104.327 400.797 106.32V110.903H399.477V109.964H399.426C399.159 110.484 398.524 111.055 397.382 111.055C396.074 111.055 395.059 110.306 395.059 108.961ZM396.379 108.973C396.379 109.633 396.925 109.976 397.687 109.976C398.791 109.976 399.451 109.24 399.451 108.415V107.78L397.826 107.894C396.938 107.958 396.379 108.288 396.379 108.973ZM403.514 104.009L405.024 106.688L406.548 104.009H408.033L405.888 107.45L408.046 110.903H406.573L405.024 108.326L403.488 110.903H402.003L404.136 107.45L402.016 104.009H403.514ZM411.981 107.399C411.969 109.798 411.296 111.792 410.103 113.493H408.858C409.734 112.223 410.572 109.672 410.572 107.399C410.572 105.139 409.734 102.575 408.858 101.318H410.103C411.296 103.019 411.969 105.012 411.981 107.399Z" fill="#A2A0A0"/>
<path d="M368.98 64.6246V43.316C368.98 41.6417 367.427 40.2719 365.53 40.2719H341.378C339.48 40.2719 337.928 41.6417 337.928 43.316V64.6246C337.928 66.2988 339.48 67.6687 341.378 67.6687H365.53C367.427 67.6687 368.98 66.2988 368.98 64.6246ZM347.416 56.2534L351.729 60.8347L357.767 53.9703L365.53 63.1025H341.378L347.416 56.2534Z" fill="#8ED1DB"/>
<circle cx="367.568" cy="60.8952" r="7.88958" fill="white"/>
<circle cx="367.568" cy="60.8952" r="6.13525" fill="#8ED1DB"/>
<path d="M366.365 64.2613V61.9896H364.105V60.0884H366.365V57.8291H368.266V60.0884H370.525V61.9896H368.266V64.2613H366.365Z" fill="white"/>
</svg>
