<svg width="713" height="149" viewBox="0 0 713 149" fill="none" xmlns="http://www.w3.org/2000/svg">
<rect x="1" y="1.36951" width="711" height="145.978" rx="23" stroke="#CFECF0" stroke-width="2" stroke-dasharray="8 16"/>
<path d="M220.818 82.7802C220.502 81.1454 219.148 80.2313 217.531 80.2313C215.334 80.2313 213.699 81.9188 213.699 84.995C213.699 88.0888 215.352 89.7587 217.531 89.7587C219.131 89.7587 220.484 88.8622 220.818 87.245L222.77 87.2626C222.365 89.7763 220.309 91.5341 217.514 91.5341C214.191 91.5341 211.783 89.0555 211.783 84.995C211.783 80.9169 214.209 78.4559 217.514 78.4559C220.203 78.4559 222.33 80.038 222.77 82.7802H220.818ZM226.584 78.6317V91.3583H224.703V78.6317H226.584ZM228.869 91.3583V81.8134H230.75V91.3583H228.869ZM229.818 80.3368C229.168 80.3368 228.623 79.8446 228.623 79.2294C228.623 78.6141 229.168 78.122 229.818 78.122C230.451 78.122 230.996 78.6141 230.996 79.2294C230.996 79.8446 230.451 80.3368 229.818 80.3368ZM237.078 91.5516C234.301 91.5516 232.613 89.495 232.613 86.6298C232.613 83.7118 234.354 81.6903 237.043 81.6903C239.223 81.6903 240.805 82.9735 240.998 84.9071H239.17C238.977 84.0106 238.256 83.2548 237.078 83.2548C235.531 83.2548 234.494 84.538 234.494 86.577C234.494 88.6688 235.514 89.952 237.078 89.952C238.133 89.952 238.941 89.372 239.17 88.3348H240.998C240.787 90.1805 239.328 91.5516 237.078 91.5516ZM242.773 91.3583V78.6317H244.654V85.8388H244.812L248.592 81.8134H250.842L246.992 85.9091L251.105 91.3583H248.803L245.568 87.0692L244.654 87.9657V91.3583H242.773ZM261.178 81.8134V83.3075H259.227V88.5458C259.227 89.618 259.771 89.8114 260.369 89.829C260.633 89.829 261.055 89.7938 261.318 89.7763V91.411C261.055 91.4462 260.65 91.4813 260.141 91.4813C258.664 91.4813 257.346 90.6727 257.363 88.9325V83.3075H255.957V81.8134H257.363V79.5282H259.227V81.8134H261.178ZM266.943 91.5516C264.236 91.5516 262.479 89.5829 262.479 86.6298C262.479 83.6591 264.236 81.6903 266.943 81.6903C269.633 81.6903 271.391 83.6591 271.391 86.6298C271.391 89.5829 269.633 91.5516 266.943 91.5516ZM266.943 89.9872C268.666 89.9872 269.492 88.4579 269.492 86.6298C269.492 84.8016 268.666 83.2372 266.943 83.2372C265.186 83.2372 264.359 84.8016 264.359 86.6298C264.359 88.4579 265.186 89.9872 266.943 89.9872ZM283.695 87.3856V81.8134H285.559V91.3583H283.73V89.7059H283.625C283.186 90.7255 282.201 91.4813 280.777 91.4813C278.932 91.4813 277.631 90.2509 277.631 87.8778V81.8134H279.512V87.6493C279.512 88.9501 280.303 89.7763 281.445 89.7763C282.482 89.7763 283.695 89.0204 283.695 87.3856ZM287.844 94.9442V81.8134H289.672V83.3602H289.83C290.164 82.7626 290.814 81.6903 292.572 81.6903C294.875 81.6903 296.58 83.5009 296.58 86.6122C296.58 89.6884 294.91 91.5516 292.59 91.5516C290.85 91.5516 290.164 90.497 289.83 89.8641H289.725V94.9442H287.844ZM289.689 86.577C289.689 88.5809 290.568 89.952 292.168 89.952C293.82 89.952 294.682 88.493 294.682 86.577C294.682 84.6962 293.838 83.2899 292.168 83.2899C290.551 83.2899 289.689 84.5907 289.689 86.577ZM300.324 78.6317V91.3583H298.443V78.6317H300.324ZM306.652 91.5516C303.945 91.5516 302.188 89.5829 302.188 86.6298C302.188 83.6591 303.945 81.6903 306.652 81.6903C309.342 81.6903 311.1 83.6591 311.1 86.6298C311.1 89.5829 309.342 91.5516 306.652 91.5516ZM306.652 89.9872C308.375 89.9872 309.201 88.4579 309.201 86.6298C309.201 84.8016 308.375 83.2372 306.652 83.2372C304.895 83.2372 304.068 84.8016 304.068 86.6298C304.068 88.4579 304.895 89.9872 306.652 89.9872ZM312.506 88.6688C312.506 86.4891 314.352 85.9266 316.074 85.8036C316.707 85.7597 318.14 85.6805 318.588 85.663L318.57 84.9071C318.57 83.8348 317.92 83.202 316.637 83.202C315.529 83.202 314.861 83.7118 314.668 84.4149H312.805C312.98 82.8329 314.457 81.6903 316.707 81.6903C318.219 81.6903 320.451 82.2528 320.451 85.0126V91.3583H318.623V90.0575H318.553C318.184 90.7782 317.305 91.5692 315.723 91.5692C313.912 91.5692 312.506 90.5321 312.506 88.6688ZM314.334 88.6864C314.334 89.6005 315.09 90.0751 316.145 90.0751C317.674 90.0751 318.588 89.0555 318.588 87.913V87.0341L316.338 87.1923C315.107 87.2802 314.334 87.7372 314.334 88.6864ZM326.287 91.5516C323.984 91.5516 322.297 89.6884 322.297 86.6122C322.297 83.5009 324.002 81.6903 326.305 81.6903C328.08 81.6903 328.73 82.7626 329.064 83.3602H329.152V78.6317H331.033V91.3583H329.205V89.8641H329.064C328.713 90.497 328.027 91.5516 326.287 91.5516ZM326.709 89.952C328.309 89.952 329.205 88.5809 329.205 86.577C329.205 84.5907 328.326 83.2899 326.709 83.2899C325.039 83.2899 324.213 84.6962 324.213 86.577C324.213 88.493 325.074 89.952 326.709 89.952ZM341.914 91.5516C339.207 91.5516 337.449 89.5829 337.449 86.6298C337.449 83.6591 339.207 81.6903 341.914 81.6903C344.604 81.6903 346.361 83.6591 346.361 86.6298C346.361 89.5829 344.604 91.5516 341.914 91.5516ZM341.914 89.9872C343.637 89.9872 344.463 88.4579 344.463 86.6298C344.463 84.8016 343.637 83.2372 341.914 83.2372C340.156 83.2372 339.33 84.8016 339.33 86.6298C339.33 88.4579 340.156 89.9872 341.914 89.9872ZM348.207 91.3583V81.8134H350.018V83.3251H350.123C350.475 82.3055 351.424 81.6727 352.549 81.6727C352.777 81.6727 353.146 81.6903 353.34 81.7079V83.5009C353.182 83.4657 352.742 83.3954 352.355 83.3954C351.055 83.3954 350.088 84.2919 350.088 85.5399V91.3583H348.207ZM362.709 91.5516C360.406 91.5516 358.719 89.6884 358.719 86.6122C358.719 83.5009 360.424 81.6903 362.727 81.6903C364.502 81.6903 365.152 82.7626 365.486 83.3602H365.574V78.6317H367.455V91.3583H365.627V89.8641H365.486C365.135 90.497 364.449 91.5516 362.709 91.5516ZM363.131 89.952C364.73 89.952 365.627 88.5809 365.627 86.577C365.627 84.5907 364.748 83.2899 363.131 83.2899C361.461 83.2899 360.635 84.6962 360.635 86.577C360.635 88.493 361.496 89.952 363.131 89.952ZM369.898 91.3583V81.8134H371.709V83.3251H371.814C372.166 82.3055 373.115 81.6727 374.24 81.6727C374.469 81.6727 374.838 81.6903 375.031 81.7079V83.5009C374.873 83.4657 374.434 83.3954 374.047 83.3954C372.746 83.3954 371.779 84.2919 371.779 85.5399V91.3583H369.898ZM375.893 88.6688C375.893 86.4891 377.738 85.9266 379.461 85.8036C380.094 85.7597 381.526 85.6805 381.975 85.663L381.957 84.9071C381.957 83.8348 381.307 83.202 380.023 83.202C378.916 83.202 378.248 83.7118 378.055 84.4149H376.191C376.367 82.8329 377.844 81.6903 380.094 81.6903C381.605 81.6903 383.838 82.2528 383.838 85.0126V91.3583H382.01V90.0575H381.939C381.57 90.7782 380.691 91.5692 379.109 91.5692C377.299 91.5692 375.893 90.5321 375.893 88.6688ZM377.721 88.6864C377.721 89.6005 378.477 90.0751 379.531 90.0751C381.061 90.0751 381.975 89.0555 381.975 87.913V87.0341L379.725 87.1923C378.494 87.2802 377.721 87.7372 377.721 88.6864ZM390.113 95.1376C387.705 95.1376 386.123 94.0653 385.947 92.2899H387.863C388.039 93.1864 388.883 93.6259 390.131 93.6259C391.625 93.6259 392.574 92.993 392.574 91.4989V89.618H392.451C392.117 90.2333 391.432 91.2177 389.674 91.2177C387.424 91.2177 385.684 89.5302 385.684 86.4891C385.684 83.4481 387.389 81.6903 389.691 81.6903C391.467 81.6903 392.117 82.7626 392.469 83.3602H392.592V81.8134H394.42V91.5692C394.42 94.0126 392.574 95.1376 390.113 95.1376ZM390.096 89.6708C391.695 89.6708 392.592 88.493 392.592 86.5243C392.592 84.5907 391.713 83.2899 390.096 83.2899C388.426 83.2899 387.6 84.6962 387.6 86.5243C387.6 88.3876 388.461 89.6708 390.096 89.6708ZM400.66 88.6688C400.66 86.4891 402.506 85.9266 404.229 85.8036C404.861 85.7597 406.294 85.6805 406.742 85.663L406.725 84.9071C406.725 83.8348 406.074 83.202 404.791 83.202C403.684 83.202 403.016 83.7118 402.822 84.4149H400.959C401.135 82.8329 402.611 81.6903 404.861 81.6903C406.373 81.6903 408.605 82.2528 408.605 85.0126V91.3583H406.777V90.0575H406.707C406.338 90.7782 405.459 91.5692 403.877 91.5692C402.066 91.5692 400.66 90.5321 400.66 88.6688ZM402.488 88.6864C402.488 89.6005 403.244 90.0751 404.299 90.0751C405.828 90.0751 406.742 89.0555 406.742 87.913V87.0341L404.492 87.1923C403.262 87.2802 402.488 87.7372 402.488 88.6864ZM412.754 85.6981V91.3583H410.873V81.8134H412.684V83.3778H412.789C413.246 82.3583 414.178 81.6903 415.602 81.6903C417.57 81.6903 418.854 82.9208 418.854 85.2938V91.3583H416.99V85.5223C416.99 84.1337 416.234 83.3075 414.969 83.3075C413.686 83.3075 412.754 84.1688 412.754 85.6981ZM424.707 91.5516C422.404 91.5516 420.717 89.6884 420.717 86.6122C420.717 83.5009 422.422 81.6903 424.725 81.6903C426.5 81.6903 427.15 82.7626 427.484 83.3602H427.572V78.6317H429.453V91.3583H427.625V89.8641H427.484C427.133 90.497 426.447 91.5516 424.707 91.5516ZM425.129 89.952C426.729 89.952 427.625 88.5809 427.625 86.577C427.625 84.5907 426.746 83.2899 425.129 83.2899C423.459 83.2899 422.633 84.6962 422.633 86.577C422.633 88.493 423.494 89.952 425.129 89.952ZM439.859 91.5516C437.557 91.5516 435.869 89.6884 435.869 86.6122C435.869 83.5009 437.574 81.6903 439.877 81.6903C441.652 81.6903 442.303 82.7626 442.637 83.3602H442.725V78.6317H444.605V91.3583H442.777V89.8641H442.637C442.285 90.497 441.6 91.5516 439.859 91.5516ZM440.281 89.952C441.881 89.952 442.777 88.5809 442.777 86.577C442.777 84.5907 441.898 83.2899 440.281 83.2899C438.611 83.2899 437.785 84.6962 437.785 86.577C437.785 88.493 438.646 89.952 440.281 89.952ZM447.049 91.3583V81.8134H448.859V83.3251H448.965C449.316 82.3055 450.266 81.6727 451.391 81.6727C451.619 81.6727 451.988 81.6903 452.182 81.7079V83.5009C452.023 83.4657 451.584 83.3954 451.197 83.3954C449.896 83.3954 448.93 84.2919 448.93 85.5399V91.3583H447.049ZM457.314 91.5516C454.607 91.5516 452.85 89.5829 452.85 86.6298C452.85 83.6591 454.607 81.6903 457.314 81.6903C460.004 81.6903 461.762 83.6591 461.762 86.6298C461.762 89.5829 460.004 91.5516 457.314 91.5516ZM457.314 89.9872C459.037 89.9872 459.863 88.4579 459.863 86.6298C459.863 84.8016 459.037 83.2372 457.314 83.2372C455.557 83.2372 454.73 84.8016 454.73 86.6298C454.73 88.4579 455.557 89.9872 457.314 89.9872ZM463.607 94.9442V81.8134H465.436V83.3602H465.594C465.928 82.7626 466.578 81.6903 468.336 81.6903C470.639 81.6903 472.344 83.5009 472.344 86.6122C472.344 89.6884 470.674 91.5516 468.354 91.5516C466.613 91.5516 465.928 90.497 465.594 89.8641H465.488V94.9442H463.607ZM465.453 86.577C465.453 88.5809 466.332 89.952 467.932 89.952C469.584 89.952 470.445 88.493 470.445 86.577C470.445 84.6962 469.602 83.2899 467.932 83.2899C466.314 83.2899 465.453 84.5907 465.453 86.577Z" fill="#A2A0A0"/>
<path d="M281.409 99.1669H282.806V105.68C282.806 107.457 281.688 108.485 280 108.485C278.438 108.485 277.271 107.609 277.271 106.048H278.654C278.667 106.822 279.238 107.292 280.038 107.292C280.914 107.292 281.409 106.733 281.409 105.68V99.1669ZM284.672 108.358V99.1669H287.947C290.08 99.1669 291.134 100.449 291.134 102.15C291.134 103.839 290.08 105.134 287.947 105.134H286.068V108.358H284.672ZM286.068 103.94H287.808C289.166 103.94 289.725 103.179 289.725 102.15C289.725 101.109 289.166 100.36 287.808 100.36H286.068V103.94ZM298.814 102.074C298.472 100.982 297.646 100.322 296.428 100.322C294.879 100.322 293.686 101.541 293.686 103.763C293.686 105.984 294.866 107.203 296.491 107.203C297.958 107.203 298.929 106.276 298.954 104.804H296.694V103.648H300.312V104.689C300.312 107.013 298.713 108.485 296.479 108.485C293.99 108.485 292.302 106.67 292.302 103.763C292.302 100.83 294.041 99.0399 296.415 99.0399C298.408 99.0399 299.932 100.284 300.249 102.074H298.814ZM303.448 107.482L302.433 110.986H301.354L302.026 107.482H303.448ZM308.425 108.358V99.1669H311.7C313.833 99.1669 314.887 100.449 314.887 102.15C314.887 103.839 313.833 105.134 311.7 105.134H309.821V108.358H308.425ZM309.821 103.94H311.561C312.919 103.94 313.478 103.179 313.478 102.15C313.478 101.109 312.919 100.36 311.561 100.36H309.821V103.94ZM323.773 99.1669V108.358H322.491L317.832 101.642H317.756V108.358H316.359V99.1669H317.654L322.313 105.895H322.402V99.1669H323.773ZM331.86 102.074C331.518 100.982 330.692 100.322 329.474 100.322C327.925 100.322 326.731 101.541 326.731 103.763C326.731 105.984 327.912 107.203 329.537 107.203C331.003 107.203 331.975 106.276 332 104.804H329.74V103.648H333.358V104.689C333.358 107.013 331.759 108.485 329.524 108.485C327.036 108.485 325.348 106.67 325.348 103.763C325.348 100.83 327.087 99.0399 329.461 99.0399C331.454 99.0399 332.978 100.284 333.295 102.074H331.86ZM338.31 104.854C338.322 102.468 338.995 100.474 340.188 98.7733H341.433C340.557 100.03 339.719 102.595 339.719 104.854C339.719 107.127 340.557 109.679 341.433 110.948H340.188C338.995 109.247 338.322 107.254 338.31 104.854ZM346.155 99.1669V108.358H344.746V100.563H344.695L342.499 101.998V100.665L344.784 99.1669H346.155ZM351.69 108.485C349.558 108.485 348.313 106.771 348.313 103.763C348.313 100.779 349.583 99.0399 351.69 99.0399C353.798 99.0399 355.067 100.779 355.067 103.763C355.067 106.771 353.811 108.485 351.69 108.485ZM351.69 107.279C352.935 107.279 353.671 106.06 353.671 103.763C353.671 101.477 352.922 100.221 351.69 100.221C350.459 100.221 349.71 101.477 349.71 103.763C349.71 106.06 350.446 107.279 351.69 107.279ZM356.642 99.1669H358.343L361.25 106.289H361.364L364.271 99.1669H365.973V108.358H364.64V101.719H364.551L361.859 108.346H360.755L358.051 101.706H357.975V108.358H356.642V99.1669ZM367.852 108.358V99.1669H371.216C373.171 99.1669 374.123 100.221 374.123 101.579C374.123 102.722 373.425 103.306 372.574 103.521V103.61C373.488 103.661 374.479 104.461 374.479 105.883C374.479 107.292 373.514 108.358 371.368 108.358H367.852ZM371.241 107.165C372.562 107.165 373.095 106.581 373.095 105.819C373.095 104.943 372.396 104.232 371.292 104.232H369.248V107.165H371.241ZM371.102 103.141C372.028 103.141 372.752 102.569 372.752 101.693C372.752 100.932 372.231 100.36 371.127 100.36H369.248V103.141H371.102ZM379.036 108.358V101.465H380.344V102.595H380.42C380.712 101.82 381.385 101.376 382.299 101.376C383.213 101.376 383.86 101.833 384.152 102.595H384.229C384.559 101.846 385.295 101.376 386.298 101.376C387.542 101.376 388.431 102.163 388.431 103.737V108.358H387.072V103.864C387.072 102.937 386.488 102.544 385.777 102.544C384.901 102.544 384.406 103.141 384.406 103.966V108.358H383.061V103.788C383.061 103.039 382.54 102.544 381.804 102.544C381.042 102.544 380.395 103.179 380.395 104.105V108.358H379.036ZM389.751 106.416C389.751 104.842 391.084 104.435 392.328 104.347C392.785 104.315 393.82 104.258 394.144 104.245L394.131 103.699C394.131 102.925 393.661 102.468 392.734 102.468C391.935 102.468 391.452 102.836 391.312 103.344H389.967C390.094 102.201 391.16 101.376 392.785 101.376C393.877 101.376 395.489 101.782 395.489 103.775V108.358H394.169V107.419H394.118C393.852 107.939 393.217 108.511 392.074 108.511C390.767 108.511 389.751 107.762 389.751 106.416ZM391.071 106.429C391.071 107.089 391.617 107.432 392.379 107.432C393.483 107.432 394.144 106.695 394.144 105.87V105.235L392.519 105.349C391.63 105.413 391.071 105.743 391.071 106.429ZM398.206 101.465L399.717 104.143L401.24 101.465H402.726L400.58 104.905L402.738 108.358H401.266L399.717 105.781L398.181 108.358H396.695L398.828 104.905L396.708 101.465H398.206ZM406.674 104.854C406.661 107.254 405.988 109.247 404.795 110.948H403.551C404.427 109.679 405.265 107.127 405.265 104.854C405.265 102.595 404.427 100.03 403.551 98.7733H404.795C405.988 100.474 406.661 102.468 406.674 104.854Z" fill="#A2A0A0"/>
<path d="M345.26 34.4676H333.832C332.26 34.4676 330.989 35.8978 330.989 37.6458L330.975 63.0717C330.975 64.8197 332.246 66.2499 333.818 66.2499H350.975C352.546 66.2499 353.832 64.8197 353.832 63.0717V44.0023L345.26 34.4676ZM350.975 63.0717H333.832V37.6458H343.832V45.5914H350.975V63.0717ZM336.689 55.142L338.703 57.3827L340.975 54.8719V61.4826H343.832V54.8719L346.103 57.3986L348.118 55.142L342.418 48.7697L336.689 55.142Z" fill="#7ACAD6"/>
</svg>
