<svg width="62" height="40" viewBox="0 0 62 40" fill="none" xmlns="http://www.w3.org/2000/svg">
<rect x="0.202148" y="0.173828" width="61.2492" height="39.2972" rx="9" fill="#143950"/>
<path d="M40.8159 28.4484V12.089C40.8159 10.8036 39.5537 9.75195 38.0109 9.75195H18.3754C16.8326 9.75195 15.5703 10.8036 15.5703 12.089V28.4484C15.5703 29.7338 16.8326 30.7854 18.3754 30.7854H38.0109C39.5537 30.7854 40.8159 29.7338 40.8159 28.4484ZM23.2843 22.0215L26.7906 25.5388L31.6995 20.2687L38.0109 27.2799H18.3754L23.2843 22.0215Z" fill="#8ED1DB"/>
<circle cx="39.6682" cy="25.2785" r="6.41425" fill="#143950"/>
<circle cx="39.6677" cy="25.279" r="4.98797" fill="#8ED1DB"/>
<path d="M38.6981 28.3335V26.2891H36.6648V24.5779H38.6981V22.5446H40.4093V24.5779H42.4426V26.2891H40.4093V28.3335H38.6981Z" fill="#143950"/>
</svg>
