<svg width="1440" height="494" viewBox="0 0 1440 494" fill="none" xmlns="http://www.w3.org/2000/svg">
<rect y="0.685547" width="1440" height="478.078" fill="#7ACAD6" fill-opacity="0.84"/>
<path d="M1228.99 372.059L1269.17 486.126H986.05L1034.42 346.493C965.847 263.892 1013.52 139.171 1100.12 103.262C1133.87 89.2656 1216.64 83.46 1260.86 122.725C1367.96 217.836 1301.14 340.104 1228.99 372.059Z" fill="white" stroke="black" stroke-width="9.25762" stroke-linecap="round" stroke-linejoin="round"/>
<path d="M1169.32 292.517C1176 302.882 1185.8 324.294 1171.52 327.024C1157.23 329.754 1164.1 305.157 1169.32 292.517Z" fill="black" fill-opacity="0.2" stroke="black" stroke-width="23.144" stroke-linecap="round" stroke-linejoin="round"/>
<path d="M1072.29 271.988C1073.27 284.186 1071.75 307.576 1057.79 303.552C1043.83 299.528 1061.64 280.833 1072.29 271.988Z" fill="#D9D9D9" stroke="black" stroke-width="23.144" stroke-linecap="round" stroke-linejoin="round"/>
<path d="M1293.53 163.29C1288.27 201.048 1245.96 295.406 1188.18 229.518" stroke="black" stroke-width="13.8864" stroke-linecap="round" stroke-linejoin="round"/>
<path d="M1238.64 105.305C1238.64 180.821 1182.23 278.166 1129.45 210.91" stroke="black" stroke-width="13.8864" stroke-linejoin="round"/>
<path d="M1169.2 91.6572C1169.2 167.174 1134.99 261.304 1074.27 205.067" stroke="black" stroke-width="13.8864" stroke-linejoin="round"/>
<path d="M1099.03 106.959C1105.6 202.15 1040.53 250.916 1027.14 171.184" stroke="black" stroke-width="13.8864" stroke-linecap="round" stroke-linejoin="round"/>
<path d="M1313.94 196.063C1301.52 199.731 1291.7 200.547 1281.7 214.617C1263.07 236.854 1260.74 277.827 1227.06 299.373" stroke="black" stroke-width="13.8864" stroke-linejoin="round"/>
<path d="M1227.06 299.193C1203.4 314.86 1193.76 342.726 1229.88 373.307" stroke="black" stroke-width="13.8864" stroke-linejoin="round"/>
<ellipse cx="12.7183" cy="12.369" rx="12.7183" ry="12.369" transform="matrix(-1 0 0 1 1176.54 254.472)" fill="black"/>
<ellipse cx="14.6587" cy="10.7723" rx="14.6587" ry="10.7723" transform="matrix(-0.928501 -0.371329 -0.38945 0.921048 1139.53 274.732)" fill="black"/>
<ellipse cx="12.7183" cy="12.369" rx="12.7183" ry="12.369" transform="matrix(-1 0 0 1 1103.92 235.346)" fill="black"/>
<path d="M1138.19 326.642C1131.42 318.137 1111.7 303.103 1086.99 311.004" stroke="black" stroke-width="13.8864" stroke-linecap="round" stroke-linejoin="round"/>
<path d="M1227.98 372.064L1268.16 486.131H985.046L1033.42 346.498C964.843 263.897 1012.52 139.176 1099.11 103.267C1132.87 89.2705 1215.64 83.4649 1259.85 122.729C1366.95 217.841 1300.13 340.109 1227.98 372.064Z" stroke="black" stroke-width="13.8864" stroke-linecap="round" stroke-linejoin="round"/>
<path d="M258.616 150.715V152.766H251.582V155.78H248.998V152.766H241.533V150.715H258.616ZM256.729 157.38V159.472H243.543V154.304H246.127V157.38H256.729ZM246.312 141.732V143.681H253.797V141.732H256.401V149.402H243.728V141.732H246.312ZM246.312 147.331H253.797V145.629H246.312V147.331ZM275.31 141.138V150.592H272.705V141.138H275.31ZM275.33 151.392V156.457H265.404V157.605H275.843V159.677H262.841V154.509H272.726V153.422H262.8V151.392H275.33ZM266.86 142.983C266.84 145.239 268.193 147.413 271.249 148.295L269.978 150.305C267.834 149.679 266.358 148.387 265.527 146.736C264.666 148.541 263.138 149.977 260.913 150.633L259.621 148.582C262.738 147.659 264.133 145.301 264.133 142.983V141.548H266.86V142.983ZM294.874 148.541V150.612H287.655V151.802H292.803V156.58H282.405V157.708H293.295V159.677H279.842V154.734H290.219V153.771H279.821V151.802H285.03V150.612H277.853V148.541H294.874ZM292.721 141.671V147.557H279.965V141.671H292.721ZM282.528 143.701V145.547H290.116V143.701H282.528ZM304.513 141.404C308.799 141.404 311.28 142.532 311.301 144.583C311.28 146.654 308.799 147.782 304.513 147.782C300.206 147.782 297.704 146.654 297.704 144.583C297.704 142.532 300.206 141.404 304.513 141.404ZM304.513 143.312C301.765 143.312 300.432 143.763 300.452 144.583C300.432 145.506 301.765 145.854 304.513 145.854C307.281 145.854 308.594 145.506 308.594 144.583C308.594 143.763 307.281 143.312 304.513 143.312ZM313.023 148.664V150.735H296.002V148.664H313.023ZM310.952 151.822V156.58H300.555V157.708H311.444V159.677H297.991V154.755H308.368V153.729H297.971V151.822H310.952ZM330.106 148.726V150.817H326.477V153.873C328.015 153.822 329.553 153.719 331.009 153.565L331.214 155.473C327.133 156.108 322.888 156.129 319.381 156.129L319.073 153.996C320.56 154.006 322.18 154.006 323.852 153.955V150.817H320.304V142.799H330.004V144.87H322.908V148.726H330.106ZM334.68 141.138V159.841H332.075V141.138H334.68ZM347.784 142.942V145.014H344.011C344.052 146.849 345.405 148.736 348.379 149.484L347.23 151.494C345.077 150.951 343.58 149.782 342.739 148.295C341.909 149.936 340.412 151.238 338.228 151.843L336.997 149.771C339.971 149.002 341.365 147.034 341.406 145.014H337.653V142.942H341.406V141.056H344.052V142.942H347.784ZM351.947 141.138V145.321H354.47V147.475H351.947V151.781H349.322V141.138H351.947ZM352.173 152.581V154.632H347.436C347.907 156.006 349.743 157.339 352.993 157.77L352.07 159.759C349.066 159.359 346.954 158.159 345.877 156.56C344.811 158.149 342.708 159.318 339.745 159.718L338.802 157.729C342.083 157.329 343.898 156.037 344.38 154.632H339.602V152.581H352.173ZM370.979 141.138V159.8H368.333V141.138H370.979ZM365.38 143.086C365.38 148.746 363.391 153.442 356.726 156.601L355.352 154.509C360.171 152.232 362.293 149.279 362.714 145.137H356.356V143.086H365.38ZM384.37 141.917C387.221 141.896 389.292 143.517 389.292 145.875C389.292 148.213 387.221 149.854 384.37 149.833C381.52 149.854 379.448 148.213 379.469 145.875C379.448 143.517 381.52 141.896 384.37 141.917ZM384.37 144.009C382.976 144.009 381.991 144.686 381.991 145.875C381.991 147.044 382.976 147.721 384.37 147.7C385.806 147.721 386.811 147.044 386.811 145.875C386.811 144.686 385.806 144.009 384.37 144.009ZM394.009 141.158V159.8H391.425V141.158H394.009ZM378.32 150.981C381.622 150.981 386.318 150.899 390.297 150.305L390.461 152.232C388.923 152.54 387.344 152.735 385.785 152.848V159.246H383.181V153.012C381.54 153.083 379.992 153.094 378.648 153.114L378.32 150.981ZM405.432 143.988V146.06H396.408V143.988H399.648V141.65H402.232V143.988H405.432ZM400.961 146.9C403.34 146.9 405.042 148.746 405.062 151.33C405.042 153.935 403.34 155.78 400.961 155.78C398.582 155.78 396.839 153.935 396.839 151.33C396.839 148.746 398.582 146.9 400.961 146.9ZM400.961 149.074C399.874 149.074 399.136 149.915 399.136 151.33C399.136 152.745 399.874 153.565 400.961 153.565C402.007 153.565 402.745 152.745 402.766 151.33C402.745 149.915 402.007 149.074 400.961 149.074ZM412.568 141.138V159.8H410.087V150.817H408.569V159H406.129V141.507H408.569V148.726H410.087V141.138H412.568ZM436.439 148.541V150.612H429.221V151.802H434.368V156.58H423.971V157.708H434.86V159.677H421.407V154.734H431.784V153.771H421.387V151.802H426.596V150.612H419.418V148.541H436.439ZM434.286 141.671V147.557H421.53V141.671H434.286ZM424.094 143.701V145.547H431.682V143.701H424.094ZM453.297 141.158V154.796H450.692V148.705H447.35V146.552H450.692V141.158H453.297ZM447.514 142.532C447.514 147.536 444.335 151.228 438.88 152.93L437.813 150.858C441.679 149.648 444.171 147.423 444.663 144.665H438.777V142.532H447.514ZM453.769 157.38V159.472H440.992V153.422H443.658V157.38H453.769ZM461.767 142.389C464.72 142.368 466.935 144.296 466.935 146.962C466.935 149.648 464.72 151.556 461.767 151.556C458.813 151.556 456.578 149.648 456.578 146.962C456.578 144.296 458.813 142.368 461.767 142.389ZM461.767 144.645C460.29 144.645 459.162 145.506 459.183 146.962C459.162 148.438 460.29 149.279 461.767 149.279C463.243 149.279 464.371 148.438 464.392 146.962C464.371 145.506 463.264 144.645 461.767 144.645ZM471.405 141.138V159.841H468.801V141.138H471.405ZM455.799 153.894C459.121 153.914 463.735 153.853 467.734 153.299L467.939 155.186C463.797 155.985 459.367 156.026 456.106 156.026L455.799 153.894ZM494.436 141.138V152.212H491.831V147.803H488.919V145.69H491.831V141.138H494.436ZM488.058 152.622C492.036 152.643 494.477 153.955 494.497 156.231C494.477 158.487 492.036 159.82 488.058 159.82C484.079 159.82 481.639 158.487 481.639 156.231C481.639 153.955 484.079 152.643 488.058 152.622ZM488.058 154.632C485.576 154.632 484.243 155.145 484.243 156.231C484.243 157.298 485.576 157.831 488.058 157.831C490.539 157.831 491.893 157.298 491.893 156.231C491.893 155.145 490.539 154.632 488.058 154.632ZM489.473 142.266V144.357H485.761C485.822 146.531 487.135 148.726 490.047 149.689L488.755 151.74C486.694 151.074 485.279 149.72 484.469 148.028C483.638 149.936 482.151 151.474 479.937 152.232L478.583 150.161C481.649 149.136 483.023 146.695 483.095 144.357H479.342V142.266H489.473ZM513.938 155.493V157.626H496.855V155.493H504.054V152.048H498.66V142.327H501.285V145.219H509.427V142.327H512.031V152.048H506.658V155.493H513.938ZM501.285 149.956H509.427V147.311H501.285V149.956ZM532.067 149.505V151.453H514.984V149.505H532.067ZM530.017 152.376V156.785H519.558V157.852H530.57V159.636H516.953V155.124H527.433V154.181H516.933V152.376H530.017ZM529.996 141.466V145.854H519.722V146.859H530.324V148.623H517.117V144.193H527.371V143.25H517.076V141.466H529.996ZM554.175 141.138V159.8H551.714V141.138H554.175ZM550.196 141.548V158.979H547.756V150.407H544.7C543.634 152.54 541.901 154.386 539.245 155.924L537.769 154.078C541.532 151.843 543.193 149.125 543.552 145.465H538.794V143.353H546.156C546.146 145.126 545.961 146.798 545.521 148.336H547.756V141.548H550.196ZM563.403 145.362C563.403 148.787 564.962 152.232 568.12 153.565L566.582 155.657C564.449 154.693 562.973 152.837 562.132 150.53C561.281 153.042 559.753 155.073 557.477 156.108L555.897 153.935C559.158 152.561 560.737 148.992 560.758 145.362V142.573H563.403V145.362ZM571.771 141.138V159.841H569.125V141.138H571.771ZM584.752 142.696V144.788H583.234V149.977C583.983 149.915 584.711 149.843 585.408 149.751L585.593 151.679C581.86 152.314 577.595 152.376 574.478 152.376L574.19 150.284L576.221 150.264V144.788H574.683V142.696H584.752ZM589.1 141.158V146.408H591.622V148.582H589.1V154.898H586.475V141.158H589.1ZM589.776 157.38V159.472H577V153.586H579.604V157.38H589.776ZM578.743 150.202L580.712 150.12V144.788H578.743V150.202ZM608.623 141.138V159.8H606.121V141.138H608.623ZM604.727 141.404V158.938H602.266V150.12H600.769C600.522 153.791 598.964 156.006 596.667 156.006C594.206 156.006 592.606 153.422 592.606 149.218C592.606 145.034 594.206 142.471 596.667 142.471C598.913 142.471 600.451 144.562 600.748 148.049H602.266V141.404H604.727ZM596.667 144.932C595.621 144.932 595.006 146.367 595.026 149.218C595.006 152.089 595.621 153.504 596.667 153.483C597.733 153.504 598.369 152.089 598.369 149.218C598.369 146.367 597.733 144.932 596.667 144.932ZM632.494 149.669V151.802H615.432V149.669H632.494ZM630.546 146.285V148.356H617.503V141.63H630.443V143.742H620.107V146.285H630.546ZM623.922 152.93C627.962 152.93 630.402 154.16 630.423 156.354C630.402 158.569 627.962 159.8 623.922 159.8C619.841 159.8 617.38 158.569 617.38 156.354C617.38 154.16 619.841 152.93 623.922 152.93ZM623.922 154.919C621.338 154.919 620.025 155.411 620.046 156.354C620.025 157.339 621.338 157.811 623.922 157.811C626.444 157.811 627.777 157.339 627.798 156.354C627.777 155.411 626.444 154.919 623.922 154.919ZM650.644 151.146V153.237H633.561V151.146H640.8V149.792H635.693V144.665H645.947V143.517H635.652V141.486H648.572V146.552H638.298V147.782H648.921V149.792H643.404V151.146H650.644ZM648.675 154.304V159.718H646.029V156.354H635.468V154.304H648.675ZM660.733 143.988V146.06H651.71V143.988H654.95V141.65H657.534V143.988H660.733ZM656.263 146.9C658.642 146.9 660.344 148.746 660.364 151.33C660.344 153.935 658.642 155.78 656.263 155.78C653.884 155.78 652.141 153.935 652.141 151.33C652.141 148.746 653.884 146.9 656.263 146.9ZM656.263 149.074C655.176 149.074 654.438 149.915 654.438 151.33C654.438 152.745 655.176 153.565 656.263 153.565C657.309 153.565 658.047 152.745 658.067 151.33C658.047 149.915 657.309 149.074 656.263 149.074ZM667.87 141.138V159.8H665.389V150.817H663.871V159H661.431V141.507H663.871V148.726H665.389V141.138H667.87ZM686.901 151.433V153.524H679.642V159.8H677.058V153.524H669.88V151.433H686.901ZM685.384 142.122V144.173H679.949C680.206 145.998 682.267 147.833 686.102 148.295L685.158 150.346C681.877 149.905 679.529 148.5 678.411 146.572C677.263 148.5 674.935 149.905 671.685 150.346L670.721 148.295C674.494 147.833 676.576 145.998 676.873 144.173H671.418V142.122H685.384ZM694.018 145.834C694.018 148.849 694.858 151.966 697.401 153.606L695.986 155.637C694.376 154.663 693.351 153.063 692.767 151.146C692.09 153.258 690.972 155.021 689.28 156.047L687.681 154.119C690.449 152.396 691.475 149.115 691.475 145.957V142.737H694.018V145.834ZM704.21 141.138V159.8H701.708V141.138H704.21ZM700.293 141.404V158.938H697.853V149.566H695.433V147.434H697.853V141.404H700.293ZM723.262 155.473V157.626H706.179V155.473H709.993V150.899C708.547 150.038 707.676 148.715 707.676 147.064C707.676 144.05 710.629 142.04 714.689 142.04C718.729 142.04 721.703 144.05 721.724 147.064C721.713 148.674 720.862 149.987 719.468 150.858V155.473H723.262ZM714.689 144.111C712.023 144.111 710.26 145.178 710.26 147.064C710.26 148.89 712.023 150.018 714.689 150.018C717.335 150.018 719.119 148.89 719.14 147.064C719.119 145.178 717.335 144.111 714.689 144.111ZM712.577 155.473H716.822V151.843C716.156 151.976 715.438 152.048 714.689 152.048C713.941 152.048 713.233 151.986 712.577 151.843V155.473ZM726.748 158.098C725.784 158.098 725.005 157.318 725.025 156.375C725.005 155.432 725.784 154.673 726.748 154.673C727.65 154.673 728.45 155.432 728.45 156.375C728.45 157.318 727.65 158.098 726.748 158.098Z" fill="#23414D"/>
<path d="M252.355 113.925C252.355 115.545 253.435 116.625 255.055 116.625H275.53V125.895H251.185C245.245 125.895 241.285 121.935 241.285 115.995V84.855H252.355V113.925ZM298.289 83.955C311.069 83.955 320.339 93.27 320.339 105.375C320.339 117.525 311.069 126.84 298.289 126.84C285.509 126.84 276.239 117.525 276.239 105.375C276.239 93.27 285.509 83.955 298.289 83.955ZM298.289 117.75C304.904 117.75 309.269 112.305 309.269 105.375C309.269 98.49 304.904 93.045 298.289 93.045C291.674 93.045 287.309 98.49 287.309 105.375C287.309 112.305 291.674 117.75 298.289 117.75ZM324.847 125.895V116.625H345.412C347.842 116.625 349.462 115.275 349.462 113.25C349.462 111.225 347.842 109.875 345.412 109.875H336.817C329.122 109.875 323.992 104.79 323.992 97.185C323.992 89.76 329.122 84.855 336.817 84.855H357.832V94.125H339.112C336.682 94.125 335.062 95.475 335.062 97.5C335.062 99.525 336.682 100.875 339.112 100.875H346.402C354.907 100.875 360.532 105.96 360.532 113.565C360.532 120.99 354.907 125.895 346.402 125.895H324.847ZM386.719 125.895H375.649V94.125H362.599V84.855H399.769V94.125H386.719V125.895ZM412.484 115.905L410.234 130.53H401.684L402.134 115.905H412.484ZM424.517 120.24C424.517 117.54 426.317 116.55 429.017 116.55H445.937C446.237 116.55 446.417 116.46 446.417 116.19C446.417 115.92 446.237 115.83 445.937 115.83H424.817V112.23H435.467V111.33H424.817V107.13H453.017V111.33H442.367V112.23H448.817C451.517 112.23 453.317 113.19 453.317 115.89C453.317 118.59 451.517 119.55 448.817 119.55H431.897C431.597 119.55 431.417 119.67 431.417 119.94C431.417 120.21 431.597 120.33 431.897 120.33H453.017V123.93H429.017C426.317 123.93 424.517 122.94 424.517 120.24ZM424.817 96.57H453.017V106.29H429.617C426.857 106.29 424.817 104.25 424.817 101.49V96.57ZM431.717 100.77V101.34C431.717 101.82 431.987 102.09 432.467 102.09H446.117V100.77H431.717ZM456.619 111.93V106.23H462.679C466.159 106.23 467.479 105.27 467.479 103.83V101.97H456.619V96.57H474.379V102.12H476.719V96.57H483.619V114.93H476.719V108.12H473.149C471.559 110.67 468.199 111.93 462.079 111.93H456.619ZM456.619 113.43H463.519V116.13C463.519 117.21 464.239 117.93 465.319 117.93H483.919V123.93H463.219C459.259 123.93 456.619 121.29 456.619 117.33V113.43ZM486.92 120.24C486.92 117.54 488.72 116.55 491.42 116.55H508.34C508.64 116.55 508.82 116.46 508.82 116.19C508.82 115.92 508.64 115.83 508.34 115.83H487.22V112.23H511.22C513.92 112.23 515.72 113.19 515.72 115.89C515.72 118.59 513.92 119.55 511.22 119.55H494.3C494 119.55 493.82 119.67 493.82 119.94C493.82 120.21 494 120.33 494.3 120.33H515.42V123.93H491.42C488.72 123.93 486.92 122.94 486.92 120.24ZM487.22 107.13H515.42V111.33H487.22V107.13ZM486.92 101.43C486.92 98.13 488.87 96.57 492.47 96.57H510.17C513.77 96.57 515.72 98.13 515.72 101.43C515.72 104.73 513.77 106.29 510.17 106.29H492.47C488.87 106.29 486.92 104.73 486.92 101.43ZM493.85 101.43C493.85 101.88 494.12 102.09 494.42 102.09H508.22C508.52 102.09 508.79 101.88 508.79 101.43C508.79 100.98 508.52 100.77 508.22 100.77H494.42C494.12 100.77 493.85 100.98 493.85 101.43ZM532.985 109.23C527.885 109.23 525.335 106.8 525.335 102.9C525.335 99 527.885 96.57 532.985 96.57H536.345C541.445 96.57 543.995 99 543.995 102.9C543.995 106.8 541.445 109.23 536.345 109.23H532.985ZM525.335 119.73C525.335 117.03 527.135 115.53 529.835 115.53H531.635C531.995 115.53 532.235 115.44 532.235 115.08C532.235 114.72 531.995 114.63 531.635 114.63H525.935V110.43H534.635C537.335 110.43 539.135 111.93 539.135 114.63C539.135 117.33 537.335 118.83 534.635 118.83H532.835C532.475 118.83 532.235 118.92 532.235 119.28C532.235 119.64 532.475 119.73 532.835 119.73H539.135V123.93H529.835C527.135 123.93 525.335 122.43 525.335 119.73ZM540.035 119.73C540.035 117.33 541.685 115.53 544.385 115.53H549.185C551.885 115.53 553.535 117.33 553.535 119.73C553.535 122.13 551.885 123.93 549.185 123.93H544.385C541.685 123.93 540.035 122.13 540.035 119.73ZM546.035 109.23V96.57H552.935V109.23H546.035ZM539.765 114.93V111.03H543.335V109.98H550.235V111.03H553.835V114.93H539.765ZM532.265 102.9C532.265 103.86 532.985 104.58 533.825 104.58H535.505C536.345 104.58 537.065 103.86 537.065 102.9C537.065 101.94 536.345 101.22 535.505 101.22H533.825C532.985 101.22 532.265 101.94 532.265 102.9ZM545.435 119.73C545.435 120.18 545.735 120.48 546.185 120.48H547.385C547.835 120.48 548.135 120.18 548.135 119.73C548.135 119.28 547.835 118.98 547.385 118.98H546.185C545.735 118.98 545.435 119.28 545.435 119.73ZM557.136 115.98V104.52C557.136 99.57 560.526 96.27 565.866 96.27C571.206 96.27 574.596 99.57 574.596 104.52V106.5H577.236V96.57H584.136V123.93H577.236V112.5H574.596V115.98C574.596 120.93 571.206 124.23 565.866 124.23C560.526 124.23 557.136 120.93 557.136 115.98ZM565.866 118.23C566.916 118.23 567.696 117.48 567.696 116.28V104.22C567.696 103.02 566.916 102.27 565.866 102.27C564.816 102.27 564.036 103.02 564.036 104.22V116.28C564.036 117.48 564.816 118.23 565.866 118.23ZM594.637 123.93C590.677 123.93 588.037 121.29 588.037 117.33V96.57H594.817V105.84H599.017V96.57H605.797V106.5H608.437V96.57H615.337V123.93H608.437V112.5H605.797V123.93H594.637ZM599.017 118.23V111.48H594.817V116.43C594.817 117.51 595.537 118.23 596.617 118.23H599.017ZM618.938 107.25C618.938 104.55 620.738 102.27 623.438 102.27H628.898C629.258 102.27 629.498 102.03 629.498 101.67C629.498 101.31 629.258 101.07 628.898 101.07H619.538V96.57H631.898C633.278 96.57 634.448 97.17 635.258 98.13H639.638V96.57H646.538V112.53H639.638V110.13H636.398V112.23H623.438C620.738 112.23 618.938 109.95 618.938 107.25ZM633.038 118.8C634.508 118.05 635.888 116.46 635.888 114.03V113.73H642.788V114.03C642.788 117.06 645.068 118.74 646.838 118.83V123.93C644.138 123.9 640.418 122.28 639.038 119.76C637.568 122.01 635.678 123.42 633.038 123.9C630.398 123.42 628.508 122.01 627.038 119.76C625.658 122.28 621.938 123.9 619.238 123.93V118.83C621.008 118.74 623.288 117.06 623.288 114.03V113.73H630.188V114.03C630.188 116.46 631.568 118.05 633.038 118.8ZM625.838 107.1C625.838 107.46 626.078 107.73 626.438 107.73H635.408V105.03H639.638V103.23H636.128C635.558 105.12 633.998 106.47 631.898 106.47H626.438C626.078 106.47 625.838 106.74 625.838 107.1ZM650.74 115.98V104.52C650.74 99.57 654.13 96.27 659.47 96.27C664.81 96.27 668.2 99.57 668.2 104.52V106.5H670.84V96.57H677.74V123.93H670.84V112.5H668.2V115.98C668.2 120.93 664.81 124.23 659.47 124.23C654.13 124.23 650.74 120.93 650.74 115.98ZM659.47 118.23C660.52 118.23 661.3 117.48 661.3 116.28V104.22C661.3 103.02 660.52 102.27 659.47 102.27C658.42 102.27 657.64 103.02 657.64 104.22V116.28C657.64 117.48 658.42 118.23 659.47 118.23ZM681.341 117.93H685.841V112.89C682.931 111.57 681.041 108.78 681.041 105.15C681.041 100.05 684.791 96.57 689.891 96.57H700.991C706.091 96.57 709.841 100.05 709.841 105.15C709.841 108.78 707.951 111.57 705.041 112.89V117.93H709.541V123.93H681.341V117.93ZM687.971 105.15C687.971 106.95 689.291 108.03 690.941 108.03H699.941C701.591 108.03 702.911 106.95 702.911 105.15C702.911 103.35 701.591 102.27 699.941 102.27H690.941C689.291 102.27 687.971 103.35 687.971 105.15ZM693.041 113.73V117.93H697.841V113.73H693.041ZM719.892 115.38H713.592L713.292 96.57H720.192L719.892 115.38ZM712.992 120.57C712.992 118.47 714.612 116.85 716.712 116.85C718.752 116.85 720.372 118.47 720.372 120.57C720.372 122.61 718.752 124.23 716.712 124.23C714.612 124.23 712.992 122.61 712.992 120.57Z" fill="#23414D"/>
</svg>
