<svg width="1440" height="431" viewBox="0 0 1440 431" fill="none" xmlns="http://www.w3.org/2000/svg">
<rect y="0.749023" width="1440" height="430" fill="#8ED1DB"/>
<path d="M258.616 149.715V151.766H251.582V154.78H248.998V151.766H241.533V149.715H258.616ZM256.729 156.38V158.472H243.543V153.304H246.127V156.38H256.729ZM246.312 140.732V142.681H253.797V140.732H256.401V148.402H243.728V140.732H246.312ZM246.312 146.331H253.797V144.629H246.312V146.331ZM275.31 140.138V149.592H272.705V140.138H275.31ZM275.33 150.392V155.457H265.404V156.605H275.843V158.677H262.841V153.509H272.726V152.422H262.8V150.392H275.33ZM266.86 141.983C266.84 144.239 268.193 146.413 271.249 147.295L269.978 149.305C267.834 148.679 266.358 147.387 265.527 145.736C264.666 147.541 263.138 148.977 260.913 149.633L259.621 147.582C262.738 146.659 264.133 144.301 264.133 141.983V140.548H266.86V141.983ZM294.874 147.541V149.612H287.655V150.802H292.803V155.58H282.405V156.708H293.295V158.677H279.842V153.734H290.219V152.771H279.821V150.802H285.03V149.612H277.853V147.541H294.874ZM292.721 140.671V146.557H279.965V140.671H292.721ZM282.528 142.701V144.547H290.116V142.701H282.528ZM304.513 140.404C308.799 140.404 311.28 141.532 311.301 143.583C311.28 145.654 308.799 146.782 304.513 146.782C300.206 146.782 297.704 145.654 297.704 143.583C297.704 141.532 300.206 140.404 304.513 140.404ZM304.513 142.312C301.765 142.312 300.432 142.763 300.452 143.583C300.432 144.506 301.765 144.854 304.513 144.854C307.281 144.854 308.594 144.506 308.594 143.583C308.594 142.763 307.281 142.312 304.513 142.312ZM313.023 147.664V149.735H296.002V147.664H313.023ZM310.952 150.822V155.58H300.555V156.708H311.444V158.677H297.991V153.755H308.368V152.729H297.971V150.822H310.952ZM330.106 147.726V149.817H326.477V152.873C328.015 152.822 329.553 152.719 331.009 152.565L331.214 154.473C327.133 155.108 322.888 155.129 319.381 155.129L319.073 152.996C320.56 153.006 322.18 153.006 323.852 152.955V149.817H320.304V141.799H330.004V143.87H322.908V147.726H330.106ZM334.68 140.138V158.841H332.075V140.138H334.68ZM347.784 141.942V144.014H344.011C344.052 145.849 345.405 147.736 348.379 148.484L347.23 150.494C345.077 149.951 343.58 148.782 342.739 147.295C341.909 148.936 340.412 150.238 338.228 150.843L336.997 148.771C339.971 148.002 341.365 146.034 341.406 144.014H337.653V141.942H341.406V140.056H344.052V141.942H347.784ZM351.947 140.138V144.321H354.47V146.475H351.947V150.781H349.322V140.138H351.947ZM352.173 151.581V153.632H347.436C347.907 155.006 349.743 156.339 352.993 156.77L352.07 158.759C349.066 158.359 346.954 157.159 345.877 155.56C344.811 157.149 342.708 158.318 339.745 158.718L338.802 156.729C342.083 156.329 343.898 155.037 344.38 153.632H339.602V151.581H352.173ZM370.979 140.138V158.8H368.333V140.138H370.979ZM365.38 142.086C365.38 147.746 363.391 152.442 356.726 155.601L355.352 153.509C360.171 151.232 362.293 148.279 362.714 144.137H356.356V142.086H365.38ZM384.37 140.917C387.221 140.896 389.292 142.517 389.292 144.875C389.292 147.213 387.221 148.854 384.37 148.833C381.52 148.854 379.448 147.213 379.469 144.875C379.448 142.517 381.52 140.896 384.37 140.917ZM384.37 143.009C382.976 143.009 381.991 143.686 381.991 144.875C381.991 146.044 382.976 146.721 384.37 146.7C385.806 146.721 386.811 146.044 386.811 144.875C386.811 143.686 385.806 143.009 384.37 143.009ZM394.009 140.158V158.8H391.425V140.158H394.009ZM378.32 149.981C381.622 149.981 386.318 149.899 390.297 149.305L390.461 151.232C388.923 151.54 387.344 151.735 385.785 151.848V158.246H383.181V152.012C381.54 152.083 379.992 152.094 378.648 152.114L378.32 149.981ZM405.432 142.988V145.06H396.408V142.988H399.648V140.65H402.232V142.988H405.432ZM400.961 145.9C403.34 145.9 405.042 147.746 405.062 150.33C405.042 152.935 403.34 154.78 400.961 154.78C398.582 154.78 396.839 152.935 396.839 150.33C396.839 147.746 398.582 145.9 400.961 145.9ZM400.961 148.074C399.874 148.074 399.136 148.915 399.136 150.33C399.136 151.745 399.874 152.565 400.961 152.565C402.007 152.565 402.745 151.745 402.766 150.33C402.745 148.915 402.007 148.074 400.961 148.074ZM412.568 140.138V158.8H410.087V149.817H408.569V158H406.129V140.507H408.569V147.726H410.087V140.138H412.568ZM436.439 147.541V149.612H429.221V150.802H434.368V155.58H423.971V156.708H434.86V158.677H421.407V153.734H431.784V152.771H421.387V150.802H426.596V149.612H419.418V147.541H436.439ZM434.286 140.671V146.557H421.53V140.671H434.286ZM424.094 142.701V144.547H431.682V142.701H424.094ZM453.297 140.158V153.796H450.692V147.705H447.35V145.552H450.692V140.158H453.297ZM447.514 141.532C447.514 146.536 444.335 150.228 438.88 151.93L437.813 149.858C441.679 148.648 444.171 146.423 444.663 143.665H438.777V141.532H447.514ZM453.769 156.38V158.472H440.992V152.422H443.658V156.38H453.769ZM461.767 141.389C464.72 141.368 466.935 143.296 466.935 145.962C466.935 148.648 464.72 150.556 461.767 150.556C458.813 150.556 456.578 148.648 456.578 145.962C456.578 143.296 458.813 141.368 461.767 141.389ZM461.767 143.645C460.29 143.645 459.162 144.506 459.183 145.962C459.162 147.438 460.29 148.279 461.767 148.279C463.243 148.279 464.371 147.438 464.392 145.962C464.371 144.506 463.264 143.645 461.767 143.645ZM471.405 140.138V158.841H468.801V140.138H471.405ZM455.799 152.894C459.121 152.914 463.735 152.853 467.734 152.299L467.939 154.186C463.797 154.985 459.367 155.026 456.106 155.026L455.799 152.894ZM494.436 140.138V151.212H491.831V146.803H488.919V144.69H491.831V140.138H494.436ZM488.058 151.622C492.036 151.643 494.477 152.955 494.497 155.231C494.477 157.487 492.036 158.82 488.058 158.82C484.079 158.82 481.639 157.487 481.639 155.231C481.639 152.955 484.079 151.643 488.058 151.622ZM488.058 153.632C485.576 153.632 484.243 154.145 484.243 155.231C484.243 156.298 485.576 156.831 488.058 156.831C490.539 156.831 491.893 156.298 491.893 155.231C491.893 154.145 490.539 153.632 488.058 153.632ZM489.473 141.266V143.357H485.761C485.822 145.531 487.135 147.726 490.047 148.689L488.755 150.74C486.694 150.074 485.279 148.72 484.469 147.028C483.638 148.936 482.151 150.474 479.937 151.232L478.583 149.161C481.649 148.136 483.023 145.695 483.095 143.357H479.342V141.266H489.473ZM513.938 154.493V156.626H496.855V154.493H504.054V151.048H498.66V141.327H501.285V144.219H509.427V141.327H512.031V151.048H506.658V154.493H513.938ZM501.285 148.956H509.427V146.311H501.285V148.956ZM532.067 148.505V150.453H514.984V148.505H532.067ZM530.017 151.376V155.785H519.558V156.852H530.57V158.636H516.953V154.124H527.433V153.181H516.933V151.376H530.017ZM529.996 140.466V144.854H519.722V145.859H530.324V147.623H517.117V143.193H527.371V142.25H517.076V140.466H529.996ZM554.175 140.138V158.8H551.714V140.138H554.175ZM550.196 140.548V157.979H547.756V149.407H544.7C543.634 151.54 541.901 153.386 539.245 154.924L537.769 153.078C541.532 150.843 543.193 148.125 543.552 144.465H538.794V142.353H546.156C546.146 144.126 545.961 145.798 545.521 147.336H547.756V140.548H550.196ZM563.403 144.362C563.403 147.787 564.962 151.232 568.12 152.565L566.582 154.657C564.449 153.693 562.973 151.837 562.132 149.53C561.281 152.042 559.753 154.073 557.477 155.108L555.897 152.935C559.158 151.561 560.737 147.992 560.758 144.362V141.573H563.403V144.362ZM571.771 140.138V158.841H569.125V140.138H571.771ZM584.752 141.696V143.788H583.234V148.977C583.983 148.915 584.711 148.843 585.408 148.751L585.593 150.679C581.86 151.314 577.595 151.376 574.478 151.376L574.19 149.284L576.221 149.264V143.788H574.683V141.696H584.752ZM589.1 140.158V145.408H591.622V147.582H589.1V153.898H586.475V140.158H589.1ZM589.776 156.38V158.472H577V152.586H579.604V156.38H589.776ZM578.743 149.202L580.712 149.12V143.788H578.743V149.202ZM608.623 140.138V158.8H606.121V140.138H608.623ZM604.727 140.404V157.938H602.266V149.12H600.769C600.522 152.791 598.964 155.006 596.667 155.006C594.206 155.006 592.606 152.422 592.606 148.218C592.606 144.034 594.206 141.471 596.667 141.471C598.913 141.471 600.451 143.562 600.748 147.049H602.266V140.404H604.727ZM596.667 143.932C595.621 143.932 595.006 145.367 595.026 148.218C595.006 151.089 595.621 152.504 596.667 152.483C597.733 152.504 598.369 151.089 598.369 148.218C598.369 145.367 597.733 143.932 596.667 143.932ZM632.494 148.669V150.802H615.432V148.669H632.494ZM630.546 145.285V147.356H617.503V140.63H630.443V142.742H620.107V145.285H630.546ZM623.922 151.93C627.962 151.93 630.402 153.16 630.423 155.354C630.402 157.569 627.962 158.8 623.922 158.8C619.841 158.8 617.38 157.569 617.38 155.354C617.38 153.16 619.841 151.93 623.922 151.93ZM623.922 153.919C621.338 153.919 620.025 154.411 620.046 155.354C620.025 156.339 621.338 156.811 623.922 156.811C626.444 156.811 627.777 156.339 627.798 155.354C627.777 154.411 626.444 153.919 623.922 153.919ZM650.644 150.146V152.237H633.561V150.146H640.8V148.792H635.693V143.665H645.947V142.517H635.652V140.486H648.572V145.552H638.298V146.782H648.921V148.792H643.404V150.146H650.644ZM648.675 153.304V158.718H646.029V155.354H635.468V153.304H648.675ZM660.733 142.988V145.06H651.71V142.988H654.95V140.65H657.534V142.988H660.733ZM656.263 145.9C658.642 145.9 660.344 147.746 660.364 150.33C660.344 152.935 658.642 154.78 656.263 154.78C653.884 154.78 652.141 152.935 652.141 150.33C652.141 147.746 653.884 145.9 656.263 145.9ZM656.263 148.074C655.176 148.074 654.438 148.915 654.438 150.33C654.438 151.745 655.176 152.565 656.263 152.565C657.309 152.565 658.047 151.745 658.067 150.33C658.047 148.915 657.309 148.074 656.263 148.074ZM667.87 140.138V158.8H665.389V149.817H663.871V158H661.431V140.507H663.871V147.726H665.389V140.138H667.87ZM686.901 150.433V152.524H679.642V158.8H677.058V152.524H669.88V150.433H686.901ZM685.384 141.122V143.173H679.949C680.206 144.998 682.267 146.833 686.102 147.295L685.158 149.346C681.877 148.905 679.529 147.5 678.411 145.572C677.263 147.5 674.935 148.905 671.685 149.346L670.721 147.295C674.494 146.833 676.576 144.998 676.873 143.173H671.418V141.122H685.384ZM694.018 144.834C694.018 147.849 694.858 150.966 697.401 152.606L695.986 154.637C694.376 153.663 693.351 152.063 692.767 150.146C692.09 152.258 690.972 154.021 689.28 155.047L687.681 153.119C690.449 151.396 691.475 148.115 691.475 144.957V141.737H694.018V144.834ZM704.21 140.138V158.8H701.708V140.138H704.21ZM700.293 140.404V157.938H697.853V148.566H695.433V146.434H697.853V140.404H700.293ZM723.262 154.473V156.626H706.179V154.473H709.993V149.899C708.547 149.038 707.676 147.715 707.676 146.064C707.676 143.05 710.629 141.04 714.689 141.04C718.729 141.04 721.703 143.05 721.724 146.064C721.713 147.674 720.862 148.987 719.468 149.858V154.473H723.262ZM714.689 143.111C712.023 143.111 710.26 144.178 710.26 146.064C710.26 147.89 712.023 149.018 714.689 149.018C717.335 149.018 719.119 147.89 719.14 146.064C719.119 144.178 717.335 143.111 714.689 143.111ZM712.577 154.473H716.822V150.843C716.156 150.976 715.438 151.048 714.689 151.048C713.941 151.048 713.233 150.986 712.577 150.843V154.473ZM726.748 157.098C725.784 157.098 725.005 156.318 725.025 155.375C725.005 154.432 725.784 153.673 726.748 153.673C727.65 153.673 728.45 154.432 728.45 155.375C728.45 156.318 727.65 157.098 726.748 157.098Z" fill="#23414D"/>
<path d="M252.355 112.925C252.355 114.545 253.435 115.625 255.055 115.625H275.53V124.895H251.185C245.245 124.895 241.285 120.935 241.285 114.995V83.855H252.355V112.925ZM298.289 82.955C311.069 82.955 320.339 92.27 320.339 104.375C320.339 116.525 311.069 125.84 298.289 125.84C285.509 125.84 276.239 116.525 276.239 104.375C276.239 92.27 285.509 82.955 298.289 82.955ZM298.289 116.75C304.904 116.75 309.269 111.305 309.269 104.375C309.269 97.49 304.904 92.045 298.289 92.045C291.674 92.045 287.309 97.49 287.309 104.375C287.309 111.305 291.674 116.75 298.289 116.75ZM324.847 124.895V115.625H345.412C347.842 115.625 349.462 114.275 349.462 112.25C349.462 110.225 347.842 108.875 345.412 108.875H336.817C329.122 108.875 323.992 103.79 323.992 96.185C323.992 88.76 329.122 83.855 336.817 83.855H357.832V93.125H339.112C336.682 93.125 335.062 94.475 335.062 96.5C335.062 98.525 336.682 99.875 339.112 99.875H346.402C354.907 99.875 360.532 104.96 360.532 112.565C360.532 119.99 354.907 124.895 346.402 124.895H324.847ZM386.719 124.895H375.649V93.125H362.599V83.855H399.769V93.125H386.719V124.895ZM412.484 114.905L410.234 129.53H401.684L402.134 114.905H412.484ZM424.517 119.24C424.517 116.54 426.317 115.55 429.017 115.55H445.937C446.237 115.55 446.417 115.46 446.417 115.19C446.417 114.92 446.237 114.83 445.937 114.83H424.817V111.23H435.467V110.33H424.817V106.13H453.017V110.33H442.367V111.23H448.817C451.517 111.23 453.317 112.19 453.317 114.89C453.317 117.59 451.517 118.55 448.817 118.55H431.897C431.597 118.55 431.417 118.67 431.417 118.94C431.417 119.21 431.597 119.33 431.897 119.33H453.017V122.93H429.017C426.317 122.93 424.517 121.94 424.517 119.24ZM424.817 95.57H453.017V105.29H429.617C426.857 105.29 424.817 103.25 424.817 100.49V95.57ZM431.717 99.77V100.34C431.717 100.82 431.987 101.09 432.467 101.09H446.117V99.77H431.717ZM456.619 110.93V105.23H462.679C466.159 105.23 467.479 104.27 467.479 102.83V100.97H456.619V95.57H474.379V101.12H476.719V95.57H483.619V113.93H476.719V107.12H473.149C471.559 109.67 468.199 110.93 462.079 110.93H456.619ZM456.619 112.43H463.519V115.13C463.519 116.21 464.239 116.93 465.319 116.93H483.919V122.93H463.219C459.259 122.93 456.619 120.29 456.619 116.33V112.43ZM486.92 119.24C486.92 116.54 488.72 115.55 491.42 115.55H508.34C508.64 115.55 508.82 115.46 508.82 115.19C508.82 114.92 508.64 114.83 508.34 114.83H487.22V111.23H511.22C513.92 111.23 515.72 112.19 515.72 114.89C515.72 117.59 513.92 118.55 511.22 118.55H494.3C494 118.55 493.82 118.67 493.82 118.94C493.82 119.21 494 119.33 494.3 119.33H515.42V122.93H491.42C488.72 122.93 486.92 121.94 486.92 119.24ZM487.22 106.13H515.42V110.33H487.22V106.13ZM486.92 100.43C486.92 97.13 488.87 95.57 492.47 95.57H510.17C513.77 95.57 515.72 97.13 515.72 100.43C515.72 103.73 513.77 105.29 510.17 105.29H492.47C488.87 105.29 486.92 103.73 486.92 100.43ZM493.85 100.43C493.85 100.88 494.12 101.09 494.42 101.09H508.22C508.52 101.09 508.79 100.88 508.79 100.43C508.79 99.98 508.52 99.77 508.22 99.77H494.42C494.12 99.77 493.85 99.98 493.85 100.43ZM532.985 108.23C527.885 108.23 525.335 105.8 525.335 101.9C525.335 98 527.885 95.57 532.985 95.57H536.345C541.445 95.57 543.995 98 543.995 101.9C543.995 105.8 541.445 108.23 536.345 108.23H532.985ZM525.335 118.73C525.335 116.03 527.135 114.53 529.835 114.53H531.635C531.995 114.53 532.235 114.44 532.235 114.08C532.235 113.72 531.995 113.63 531.635 113.63H525.935V109.43H534.635C537.335 109.43 539.135 110.93 539.135 113.63C539.135 116.33 537.335 117.83 534.635 117.83H532.835C532.475 117.83 532.235 117.92 532.235 118.28C532.235 118.64 532.475 118.73 532.835 118.73H539.135V122.93H529.835C527.135 122.93 525.335 121.43 525.335 118.73ZM540.035 118.73C540.035 116.33 541.685 114.53 544.385 114.53H549.185C551.885 114.53 553.535 116.33 553.535 118.73C553.535 121.13 551.885 122.93 549.185 122.93H544.385C541.685 122.93 540.035 121.13 540.035 118.73ZM546.035 108.23V95.57H552.935V108.23H546.035ZM539.765 113.93V110.03H543.335V108.98H550.235V110.03H553.835V113.93H539.765ZM532.265 101.9C532.265 102.86 532.985 103.58 533.825 103.58H535.505C536.345 103.58 537.065 102.86 537.065 101.9C537.065 100.94 536.345 100.22 535.505 100.22H533.825C532.985 100.22 532.265 100.94 532.265 101.9ZM545.435 118.73C545.435 119.18 545.735 119.48 546.185 119.48H547.385C547.835 119.48 548.135 119.18 548.135 118.73C548.135 118.28 547.835 117.98 547.385 117.98H546.185C545.735 117.98 545.435 118.28 545.435 118.73ZM557.136 114.98V103.52C557.136 98.57 560.526 95.27 565.866 95.27C571.206 95.27 574.596 98.57 574.596 103.52V105.5H577.236V95.57H584.136V122.93H577.236V111.5H574.596V114.98C574.596 119.93 571.206 123.23 565.866 123.23C560.526 123.23 557.136 119.93 557.136 114.98ZM565.866 117.23C566.916 117.23 567.696 116.48 567.696 115.28V103.22C567.696 102.02 566.916 101.27 565.866 101.27C564.816 101.27 564.036 102.02 564.036 103.22V115.28C564.036 116.48 564.816 117.23 565.866 117.23ZM594.637 122.93C590.677 122.93 588.037 120.29 588.037 116.33V95.57H594.817V104.84H599.017V95.57H605.797V105.5H608.437V95.57H615.337V122.93H608.437V111.5H605.797V122.93H594.637ZM599.017 117.23V110.48H594.817V115.43C594.817 116.51 595.537 117.23 596.617 117.23H599.017ZM618.938 106.25C618.938 103.55 620.738 101.27 623.438 101.27H628.898C629.258 101.27 629.498 101.03 629.498 100.67C629.498 100.31 629.258 100.07 628.898 100.07H619.538V95.57H631.898C633.278 95.57 634.448 96.17 635.258 97.13H639.638V95.57H646.538V111.53H639.638V109.13H636.398V111.23H623.438C620.738 111.23 618.938 108.95 618.938 106.25ZM633.038 117.8C634.508 117.05 635.888 115.46 635.888 113.03V112.73H642.788V113.03C642.788 116.06 645.068 117.74 646.838 117.83V122.93C644.138 122.9 640.418 121.28 639.038 118.76C637.568 121.01 635.678 122.42 633.038 122.9C630.398 122.42 628.508 121.01 627.038 118.76C625.658 121.28 621.938 122.9 619.238 122.93V117.83C621.008 117.74 623.288 116.06 623.288 113.03V112.73H630.188V113.03C630.188 115.46 631.568 117.05 633.038 117.8ZM625.838 106.1C625.838 106.46 626.078 106.73 626.438 106.73H635.408V104.03H639.638V102.23H636.128C635.558 104.12 633.998 105.47 631.898 105.47H626.438C626.078 105.47 625.838 105.74 625.838 106.1ZM650.74 114.98V103.52C650.74 98.57 654.13 95.27 659.47 95.27C664.81 95.27 668.2 98.57 668.2 103.52V105.5H670.84V95.57H677.74V122.93H670.84V111.5H668.2V114.98C668.2 119.93 664.81 123.23 659.47 123.23C654.13 123.23 650.74 119.93 650.74 114.98ZM659.47 117.23C660.52 117.23 661.3 116.48 661.3 115.28V103.22C661.3 102.02 660.52 101.27 659.47 101.27C658.42 101.27 657.64 102.02 657.64 103.22V115.28C657.64 116.48 658.42 117.23 659.47 117.23ZM681.341 116.93H685.841V111.89C682.931 110.57 681.041 107.78 681.041 104.15C681.041 99.05 684.791 95.57 689.891 95.57H700.991C706.091 95.57 709.841 99.05 709.841 104.15C709.841 107.78 707.951 110.57 705.041 111.89V116.93H709.541V122.93H681.341V116.93ZM687.971 104.15C687.971 105.95 689.291 107.03 690.941 107.03H699.941C701.591 107.03 702.911 105.95 702.911 104.15C702.911 102.35 701.591 101.27 699.941 101.27H690.941C689.291 101.27 687.971 102.35 687.971 104.15ZM693.041 112.73V116.93H697.841V112.73H693.041ZM719.892 114.38H713.592L713.292 95.57H720.192L719.892 114.38ZM712.992 119.57C712.992 117.47 714.612 115.85 716.712 115.85C718.752 115.85 720.372 117.47 720.372 119.57C720.372 121.61 718.752 123.23 716.712 123.23C714.612 123.23 712.992 121.61 712.992 119.57Z" fill="#23414D"/>
<mask id="mask0_2031_725" style="mask-type:alpha" maskUnits="userSpaceOnUse" x="999" y="67" width="325" height="364">
<rect x="999.093" y="67.4287" width="324.117" height="363.32" fill="#D9D9D9"/>
</mask>
<g mask="url(#mask0_2031_725)">
<path d="M1233.06 335.903L1269.21 438.516H1014.52L1058.03 312.904C996.344 238.597 1039.23 126.4 1117.13 94.0958C1147.5 81.5051 1221.96 76.2824 1261.73 111.604C1358.08 197.165 1297.97 307.156 1233.06 335.903Z" fill="white" stroke="black" stroke-width="9.25762" stroke-linecap="round" stroke-linejoin="round"/>
<path d="M1179.38 264.348C1185.4 273.672 1194.21 292.934 1181.36 295.39C1168.51 297.846 1174.69 275.719 1179.38 264.348Z" fill="black" fill-opacity="0.2" stroke="black" stroke-width="16" stroke-linecap="round" stroke-linejoin="round"/>
<path d="M1291.13 148.098C1286.4 182.064 1248.33 266.948 1196.35 207.675" stroke="black" stroke-width="13.8864" stroke-linecap="round" stroke-linejoin="round"/>
<path d="M1241.75 95.9336C1241.75 163.867 1191 251.438 1143.52 190.934" stroke="black" stroke-width="13.8864" stroke-linejoin="round"/>
<path d="M1179.28 83.6572C1179.28 151.591 1148.5 236.269 1093.88 185.68" stroke="black" stroke-width="13.8864" stroke-linejoin="round"/>
<path d="M1116.15 97.4219C1122.06 183.055 1063.53 226.924 1051.48 155.198" stroke="black" stroke-width="13.8864" stroke-linecap="round" stroke-linejoin="round"/>
<path d="M1309.48 177.58C1298.31 180.88 1289.47 181.613 1280.48 194.271C1263.72 214.274 1261.62 251.133 1231.33 270.516" stroke="black" stroke-width="13.8864" stroke-linejoin="round"/>
<path d="M1231.33 270.354C1210.04 284.447 1201.37 309.515 1233.86 337.025" stroke="black" stroke-width="13.8864" stroke-linejoin="round"/>
<ellipse cx="11.4413" cy="11.127" rx="11.4413" ry="11.127" transform="matrix(-1 0 0 1 1185.88 230.123)" fill="black"/>
<ellipse cx="13.1868" cy="9.69068" rx="13.1868" ry="9.69068" transform="matrix(-0.928501 -0.371329 -0.38945 0.921048 1152.59 248.35)" fill="black"/>
<ellipse cx="11.4413" cy="11.127" rx="11.4413" ry="11.127" transform="matrix(-1 0 0 1 1120.55 212.917)" fill="black"/>
<path d="M1151.38 295.046C1145.29 287.396 1127.55 273.871 1105.32 280.979" stroke="black" stroke-width="13.8864" stroke-linecap="round" stroke-linejoin="round"/>
<path d="M1232.16 335.908L1268.3 438.521H1013.61L1057.13 312.909C995.44 238.602 1038.33 126.405 1116.23 94.1007C1146.59 81.51 1221.05 76.2873 1260.83 111.609C1357.17 197.17 1297.06 307.161 1232.16 335.908Z" stroke="black" stroke-width="13.8864" stroke-linecap="round" stroke-linejoin="round"/>
<path d="M1092.1 245.88C1092.98 256.853 1091.61 277.895 1079.05 274.275C1066.49 270.655 1082.52 253.837 1092.1 245.88Z" fill="#D9D9D9" stroke="black" stroke-width="16" stroke-linecap="round" stroke-linejoin="round"/>
</g>
</svg>
