<svg width="1440" height="478" viewBox="0 0 1440 478" fill="none" xmlns="http://www.w3.org/2000/svg">
<rect y="0.623047" width="1440" height="477.141" fill="#F5FBFF"/>
<g filter="url(#filter0_d_1846_1328)">
<path d="M436.781 241.241L520.482 241.241" stroke="#25434F" stroke-width="20.5101" stroke-linecap="round"/>
</g>
<g filter="url(#filter1_d_1846_1328)">
<mask id="path-3-outside-1_1846_1328" maskUnits="userSpaceOnUse" x="359.163" y="162.194" width="104.031" height="101.507" fill="black">
<rect fill="white" x="359.163" y="162.194" width="104.031" height="101.507"/>
<path d="M420.26 250.504C428.312 248.932 434.658 246.63 439.298 243.598C443.938 240.566 447.409 237.078 449.709 233.135C451.924 229.133 453.183 224.824 453.485 220.207C453.713 215.606 453.442 210.949 452.671 206.239L446.199 166.715L431.156 169.651L437.537 208.623C438.116 212.156 438.286 215.503 438.048 218.663C437.798 221.75 436.976 224.569 435.58 227.12C434.1 229.612 431.919 231.746 429.037 233.524C426.082 235.316 422.189 236.683 417.358 237.626L413.405 238.398C408.647 239.327 404.634 239.502 401.367 238.925C398.027 238.361 395.303 237.184 393.197 235.392C391.005 233.541 389.303 231.215 388.088 228.414C386.862 225.539 385.96 222.335 385.382 218.803L379 179.83L363.848 182.788L370.319 222.312C371.091 227.023 372.35 231.486 374.098 235.702C375.773 239.932 378.321 243.499 381.742 246.401C385.078 249.244 389.44 251.202 394.829 252.277C400.144 253.367 406.791 253.133 414.77 251.575L420.26 250.504Z"/>
</mask>
<path d="M420.26 250.504C428.312 248.932 434.658 246.63 439.298 243.598C443.938 240.566 447.409 237.078 449.709 233.135C451.924 229.133 453.183 224.824 453.485 220.207C453.713 215.606 453.442 210.949 452.671 206.239L446.199 166.715L431.156 169.651L437.537 208.623C438.116 212.156 438.286 215.503 438.048 218.663C437.798 221.75 436.976 224.569 435.58 227.12C434.1 229.612 431.919 231.746 429.037 233.524C426.082 235.316 422.189 236.683 417.358 237.626L413.405 238.398C408.647 239.327 404.634 239.502 401.367 238.925C398.027 238.361 395.303 237.184 393.197 235.392C391.005 233.541 389.303 231.215 388.088 228.414C386.862 225.539 385.96 222.335 385.382 218.803L379 179.83L363.848 182.788L370.319 222.312C371.091 227.023 372.35 231.486 374.098 235.702C375.773 239.932 378.321 243.499 381.742 246.401C385.078 249.244 389.44 251.202 394.829 252.277C400.144 253.367 406.791 253.133 414.77 251.575L420.26 250.504Z" fill="#7ACAD6"/>
<path d="M439.298 243.598L441.249 246.729L439.298 243.598ZM449.709 233.135L452.934 234.893C452.92 234.919 452.905 234.945 452.891 234.97L449.709 233.135ZM453.485 220.207L457.189 220.289C457.188 220.308 457.187 220.328 457.186 220.348L453.485 220.207ZM446.199 166.715L445.596 163.034C447.618 162.64 449.526 163.968 449.859 166L446.199 166.715ZM431.156 169.651L427.496 170.365C427.163 168.332 428.532 166.365 430.553 165.97L431.156 169.651ZM438.048 218.663L441.747 218.841C441.746 218.848 441.746 218.855 441.745 218.863L438.048 218.663ZM435.58 227.12L438.815 228.861C438.793 228.902 438.77 228.942 438.746 228.982L435.58 227.12ZM429.037 233.524L430.903 236.709C430.895 236.714 430.887 236.719 430.878 236.724L429.037 233.524ZM401.367 238.925L402.079 235.226C402.088 235.228 402.098 235.23 402.107 235.231L401.367 238.925ZM393.197 235.392L395.623 232.488L395.632 232.496L393.197 235.392ZM388.088 228.414L384.684 230C384.681 229.993 384.678 229.987 384.675 229.98L388.088 228.414ZM379 179.83L378.398 176.15C380.419 175.756 382.328 177.083 382.66 179.116L379 179.83ZM363.848 182.788L360.188 183.502C359.855 181.47 361.224 179.502 363.245 179.108L363.848 182.788ZM374.098 235.702L377.526 234.17C377.533 234.188 377.54 234.206 377.548 234.225L374.098 235.702ZM381.742 246.401L384.174 243.501L384.18 243.506L381.742 246.401ZM394.829 252.277L395.646 248.599C395.653 248.6 395.659 248.601 395.665 248.603L394.829 252.277ZM419.657 246.824C427.446 245.304 433.271 243.131 437.347 240.467L441.249 246.729C436.045 250.13 429.178 252.561 420.862 254.184L419.657 246.824ZM437.347 240.467C441.593 237.693 444.592 234.618 446.528 231.3L452.891 234.97C450.226 239.538 446.284 243.438 441.249 246.729L437.347 240.467ZM446.484 231.377C448.417 227.884 449.518 224.129 449.783 220.067L457.186 220.348C456.848 225.518 455.431 230.382 452.934 234.893L446.484 231.377ZM449.78 220.126C449.995 215.802 449.741 211.413 449.01 206.953L456.331 205.525C457.143 210.486 457.432 215.409 457.189 220.289L449.78 220.126ZM449.01 206.953L442.539 167.429L449.859 166L456.331 205.525L449.01 206.953ZM446.801 170.395L431.759 173.331L430.553 165.97L445.596 163.034L446.801 170.395ZM434.816 168.936L441.197 207.909L433.877 209.337L427.496 170.365L434.816 168.936ZM441.197 207.909C441.817 211.696 442.01 215.344 441.747 218.841L434.35 218.485C434.562 215.661 434.414 212.616 433.877 209.337L441.197 207.909ZM441.745 218.863C441.455 222.448 440.49 225.798 438.815 228.861L432.346 225.379C433.461 223.34 434.142 221.052 434.351 218.464L441.745 218.863ZM438.746 228.982C436.893 232.1 434.224 234.66 430.903 236.709L427.171 230.339C429.613 228.833 431.307 227.123 432.415 225.258L438.746 228.982ZM430.878 236.724C427.412 238.826 423.053 240.313 417.961 241.306L416.755 233.946C421.326 233.054 424.753 231.806 427.196 230.324L430.878 236.724ZM417.961 241.306L414.008 242.078L412.803 234.718L416.755 233.946L417.961 241.306ZM414.008 242.078C408.986 243.058 404.487 243.3 400.627 242.618L402.107 235.231C404.782 235.704 408.308 235.595 412.803 234.718L414.008 242.078ZM400.655 242.623C396.816 241.975 393.455 240.58 390.761 238.289L395.632 232.496C397.151 233.787 399.238 234.747 402.079 235.226L400.655 242.623ZM390.771 238.297C388.133 236.069 386.107 233.283 384.684 230L391.493 226.829C392.498 229.148 393.877 231.013 395.623 232.488L390.771 238.297ZM384.675 229.98C383.319 226.799 382.342 223.304 381.722 219.517L389.042 218.088C389.578 221.367 390.406 224.279 391.502 226.848L384.675 229.98ZM381.722 219.517L375.34 180.545L382.66 179.116L389.042 218.088L381.722 219.517ZM379.603 183.51L364.45 186.468L363.245 179.108L378.398 176.15L379.603 183.51ZM367.508 182.073L373.979 221.598L366.659 223.026L360.188 183.502L367.508 182.073ZM373.979 221.598C374.706 226.038 375.89 230.226 377.526 234.17L370.671 237.234C368.81 232.746 367.475 228.008 366.659 223.026L373.979 221.598ZM377.548 234.225C379.005 237.905 381.205 240.982 384.174 243.501L379.31 249.3C375.437 246.015 372.541 241.96 370.649 237.179L377.548 234.225ZM384.18 243.506C386.951 245.868 390.712 247.614 395.646 248.599L394.011 255.956C388.169 254.791 383.205 252.619 379.304 249.295L384.18 243.506ZM395.665 248.603C400.338 249.56 406.457 249.4 414.167 247.895L415.372 255.256C407.125 256.865 399.95 257.173 393.992 255.952L395.665 248.603ZM414.167 247.895L419.657 246.824L420.862 254.184L415.372 255.256L414.167 247.895Z" fill="#7ACAD6" mask="url(#path-3-outside-1_1846_1328)"/>
</g>
<g filter="url(#filter2_d_1846_1328)">
<mask id="path-5-outside-2_1846_1328" maskUnits="userSpaceOnUse" x="493.034" y="162.194" width="104.031" height="101.507" fill="black">
<rect fill="white" x="493.034" y="162.194" width="104.031" height="101.507"/>
<path d="M535.969 250.504C527.916 248.932 521.57 246.63 516.93 243.598C512.29 240.566 508.819 237.078 506.519 233.135C504.304 229.133 503.045 224.824 502.744 220.207C502.515 215.606 502.786 210.949 503.558 206.239L510.029 166.715L525.072 169.651L518.691 208.623C518.112 212.156 517.942 215.503 518.18 218.663C518.43 221.75 519.253 224.569 520.648 227.12C522.128 229.612 524.31 231.746 527.191 233.524C530.146 235.316 534.039 236.683 538.87 237.626L542.823 238.398C547.581 239.327 551.594 239.502 554.861 238.925C558.202 238.361 560.925 237.184 563.031 235.392C565.223 233.541 566.926 231.215 568.14 228.414C569.366 225.539 570.268 222.335 570.847 218.803L577.228 179.83L592.381 182.788L585.909 222.312C585.138 227.023 583.878 231.486 582.13 235.702C580.455 239.932 577.907 243.499 574.486 246.401C571.15 249.244 566.788 251.202 561.4 252.277C556.085 253.367 549.438 253.133 541.459 251.575L535.969 250.504Z"/>
</mask>
<path d="M535.969 250.504C527.916 248.932 521.57 246.63 516.93 243.598C512.29 240.566 508.819 237.078 506.519 233.135C504.304 229.133 503.045 224.824 502.744 220.207C502.515 215.606 502.786 210.949 503.558 206.239L510.029 166.715L525.072 169.651L518.691 208.623C518.112 212.156 517.942 215.503 518.18 218.663C518.43 221.75 519.253 224.569 520.648 227.12C522.128 229.612 524.31 231.746 527.191 233.524C530.146 235.316 534.039 236.683 538.87 237.626L542.823 238.398C547.581 239.327 551.594 239.502 554.861 238.925C558.202 238.361 560.925 237.184 563.031 235.392C565.223 233.541 566.926 231.215 568.14 228.414C569.366 225.539 570.268 222.335 570.847 218.803L577.228 179.83L592.381 182.788L585.909 222.312C585.138 227.023 583.878 231.486 582.13 235.702C580.455 239.932 577.907 243.499 574.486 246.401C571.15 249.244 566.788 251.202 561.4 252.277C556.085 253.367 549.438 253.133 541.459 251.575L535.969 250.504Z" fill="#7ACAD6"/>
<path d="M516.93 243.598L514.979 246.729L516.93 243.598ZM506.519 233.135L503.294 234.893C503.308 234.919 503.323 234.945 503.338 234.97L506.519 233.135ZM502.744 220.207L499.039 220.289C499.04 220.308 499.041 220.328 499.042 220.348L502.744 220.207ZM510.029 166.715L510.632 163.034C508.611 162.64 506.702 163.968 506.369 166L510.029 166.715ZM525.072 169.651L528.732 170.365C529.065 168.332 527.696 166.365 525.675 165.97L525.072 169.651ZM518.18 218.663L514.482 218.841C514.482 218.848 514.483 218.855 514.483 218.863L518.18 218.663ZM520.648 227.12L517.414 228.861C517.436 228.902 517.459 228.942 517.482 228.982L520.648 227.12ZM527.191 233.524L525.325 236.709C525.333 236.714 525.342 236.719 525.35 236.724L527.191 233.524ZM554.861 238.925L554.15 235.226C554.14 235.228 554.131 235.23 554.121 235.231L554.861 238.925ZM563.031 235.392L560.605 232.488L560.596 232.496L563.031 235.392ZM568.14 228.414L571.544 230C571.547 229.993 571.55 229.987 571.553 229.98L568.14 228.414ZM577.228 179.83L577.83 176.15C575.809 175.756 573.901 177.083 573.568 179.116L577.228 179.83ZM592.381 182.788L596.041 183.502C596.373 181.47 595.004 179.502 592.983 179.108L592.381 182.788ZM582.13 235.702L578.703 234.17C578.695 234.188 578.688 234.206 578.681 234.225L582.13 235.702ZM574.486 246.401L572.054 243.501L572.048 243.506L574.486 246.401ZM561.4 252.277L560.582 248.599C560.576 248.6 560.569 248.601 560.563 248.603L561.4 252.277ZM536.571 246.824C528.782 245.304 522.957 243.131 518.881 240.467L514.979 246.729C520.183 250.13 527.051 252.561 535.366 254.184L536.571 246.824ZM518.881 240.467C514.635 237.693 511.636 234.618 509.7 231.3L503.338 234.97C506.003 239.538 509.944 243.438 514.979 246.729L518.881 240.467ZM509.744 231.377C507.811 227.884 506.71 224.129 506.445 220.067L499.042 220.348C499.38 225.518 500.797 230.382 503.294 234.893L509.744 231.377ZM506.448 220.126C506.234 215.802 506.488 211.413 507.218 206.953L499.898 205.525C499.085 210.486 498.797 215.409 499.039 220.289L506.448 220.126ZM507.218 206.953L513.689 167.429L506.369 166L499.898 205.525L507.218 206.953ZM509.427 170.395L524.47 173.331L525.675 165.97L510.632 163.034L509.427 170.395ZM521.412 168.936L515.031 207.909L522.351 209.337L528.732 170.365L521.412 168.936ZM515.031 207.909C514.411 211.696 514.218 215.344 514.482 218.841L521.879 218.485C521.666 215.661 521.814 212.616 522.351 209.337L515.031 207.909ZM514.483 218.863C514.773 222.448 515.738 225.798 517.414 228.861L523.882 225.379C522.767 223.34 522.087 221.052 521.877 218.464L514.483 218.863ZM517.482 228.982C519.335 232.1 522.004 234.66 525.325 236.709L529.057 230.339C526.615 228.833 524.922 227.123 523.814 225.258L517.482 228.982ZM525.35 236.724C528.817 238.826 533.176 240.313 538.268 241.306L539.473 233.946C534.902 233.054 531.475 231.806 529.032 230.324L525.35 236.724ZM538.268 241.306L542.221 242.078L543.426 234.718L539.473 233.946L538.268 241.306ZM542.221 242.078C547.242 243.058 551.741 243.3 555.601 242.618L554.121 235.231C551.446 235.704 547.92 235.595 543.426 234.718L542.221 242.078ZM555.573 242.623C559.413 241.975 562.773 240.58 565.467 238.289L560.596 232.496C559.077 233.787 556.991 234.747 554.15 235.226L555.573 242.623ZM565.457 238.297C568.095 236.069 570.121 233.283 571.544 230L564.735 226.829C563.73 229.148 562.351 231.013 560.605 232.488L565.457 238.297ZM571.553 229.98C572.909 226.799 573.887 223.304 574.507 219.517L567.187 218.088C566.65 221.367 565.822 224.279 564.727 226.848L571.553 229.98ZM574.507 219.517L580.888 180.545L573.568 179.116L567.187 218.088L574.507 219.517ZM576.625 183.51L591.778 186.468L592.983 179.108L577.83 176.15L576.625 183.51ZM588.72 182.073L582.249 221.598L589.569 223.026L596.041 183.502L588.72 182.073ZM582.249 221.598C581.522 226.038 580.338 230.226 578.703 234.17L585.557 237.234C587.418 232.746 588.753 228.008 589.569 223.026L582.249 221.598ZM578.681 234.225C577.224 237.905 575.023 240.982 572.054 243.501L576.918 249.3C580.791 246.015 583.687 241.96 585.58 237.179L578.681 234.225ZM572.048 243.506C569.277 245.868 565.516 247.614 560.582 248.599L562.218 255.956C568.059 254.791 573.023 252.619 576.924 249.295L572.048 243.506ZM560.563 248.603C555.891 249.56 549.772 249.4 542.061 247.895L540.856 255.256C549.103 256.865 556.279 257.173 562.236 255.952L560.563 248.603ZM542.061 247.895L536.571 246.824L535.366 254.184L540.856 255.256L542.061 247.895Z" fill="#7ACAD6" mask="url(#path-5-outside-2_1846_1328)"/>
</g>
<g filter="url(#filter3_d_1846_1328)">
<mask id="path-7-outside-3_1846_1328" maskUnits="userSpaceOnUse" x="260.309" y="170.476" width="91" height="82" fill="black">
<rect fill="white" x="260.309" y="170.476" width="91" height="82"/>
<path d="M264.717 240.69L317.599 187.591H266.555V174.83H343.338V182.616L289.698 235.715H346.582L342.364 248.476H264.717V240.69Z"/>
</mask>
<path d="M264.717 240.69L317.599 187.591H266.555V174.83H343.338V182.616L289.698 235.715H346.582L342.364 248.476H264.717V240.69Z" fill="#25434F"/>
<path d="M264.717 240.69L262.074 238.058C261.378 238.757 260.988 239.703 260.988 240.69H264.717ZM317.599 187.591L320.241 190.222C321.305 189.155 321.621 187.552 321.043 186.16C320.465 184.769 319.106 183.862 317.599 183.862V187.591ZM266.555 187.591H262.826C262.826 189.65 264.496 191.32 266.555 191.32V187.591ZM266.555 174.83V171.101C264.496 171.101 262.826 172.77 262.826 174.83H266.555ZM343.338 174.83H347.067C347.067 172.77 345.397 171.101 343.338 171.101V174.83ZM343.338 182.616L345.961 185.266C346.669 184.566 347.067 183.612 347.067 182.616H343.338ZM289.698 235.715L287.074 233.065C286 234.128 285.674 235.735 286.249 237.133C286.824 238.532 288.186 239.444 289.698 239.444V235.715ZM346.582 235.715L350.123 236.885C350.498 235.749 350.305 234.501 349.604 233.531C348.903 232.561 347.779 231.986 346.582 231.986V235.715ZM342.364 248.476V252.205C343.973 252.205 345.4 251.174 345.905 249.646L342.364 248.476ZM264.717 248.476H260.988C260.988 250.536 262.657 252.205 264.717 252.205V248.476ZM267.359 243.321L320.241 190.222L314.957 184.959L262.074 238.058L267.359 243.321ZM317.599 183.862H266.555V191.32H317.599V183.862ZM270.284 187.591V174.83H262.826V187.591H270.284ZM266.555 178.559H343.338V171.101H266.555V178.559ZM339.608 174.83V182.616H347.067V174.83H339.608ZM340.714 179.966L287.074 233.065L292.321 238.365L345.961 185.266L340.714 179.966ZM289.698 239.444H346.582V231.986H289.698V239.444ZM343.041 234.545L338.823 247.306L345.905 249.646L350.123 236.885L343.041 234.545ZM342.364 244.747H264.717V252.205H342.364V244.747ZM268.446 248.476V240.69H260.988V248.476H268.446Z" fill="#25434F" mask="url(#path-7-outside-3_1846_1328)"/>
</g>
<g filter="url(#filter4_d_1846_1328)">
<mask id="path-9-outside-4_1846_1328" maskUnits="userSpaceOnUse" x="607.451" y="170.476" width="103" height="82" fill="black">
<rect fill="white" x="607.451" y="170.476" width="103" height="82"/>
<path d="M626.918 192.674V248.476H612.103V174.83H631.028L658.929 213.545L686.83 174.83H705.756V248.476H690.94V192.782L658.929 235.715L626.918 192.674Z"/>
</mask>
<path d="M626.918 192.674V248.476H612.103V174.83H631.028L658.929 213.545L686.83 174.83H705.756V248.476H690.94V192.782L658.929 235.715L626.918 192.674Z" fill="#25434F"/>
<path d="M626.918 192.674L629.911 190.448C628.951 189.158 627.273 188.628 625.746 189.134C624.22 189.639 623.189 191.066 623.189 192.674H626.918ZM626.918 248.476V252.205C628.978 252.205 630.647 250.536 630.647 248.476H626.918ZM612.103 248.476H608.373C608.373 250.536 610.043 252.205 612.103 252.205V248.476ZM612.103 174.83V171.101C610.043 171.101 608.373 172.77 608.373 174.83H612.103ZM631.028 174.83L634.053 172.65C633.352 171.677 632.227 171.101 631.028 171.101V174.83ZM658.929 213.545L655.904 215.726C656.605 216.698 657.73 217.275 658.929 217.275C660.128 217.275 661.254 216.698 661.954 215.726L658.929 213.545ZM686.83 174.83V171.101C685.631 171.101 684.506 171.677 683.805 172.65L686.83 174.83ZM705.756 174.83H709.485C709.485 172.77 707.815 171.101 705.756 171.101V174.83ZM705.756 248.476V252.205C707.815 252.205 709.485 250.536 709.485 248.476H705.756ZM690.94 248.476H687.211C687.211 250.536 688.88 252.205 690.94 252.205V248.476ZM690.94 192.782H694.669C694.669 191.175 693.639 189.748 692.114 189.242C690.589 188.736 688.911 189.264 687.95 190.553L690.94 192.782ZM658.929 235.715L655.937 237.94C656.64 238.886 657.749 239.443 658.927 239.444C660.105 239.445 661.214 238.889 661.919 237.944L658.929 235.715ZM623.189 192.674V248.476H630.647V192.674H623.189ZM626.918 244.747H612.103V252.205H626.918V244.747ZM615.832 248.476V174.83H608.373V248.476H615.832ZM612.103 178.559H631.028V171.101H612.103V178.559ZM628.002 177.01L655.904 215.726L661.954 211.365L634.053 172.65L628.002 177.01ZM661.954 215.726L689.856 177.01L683.805 172.65L655.904 211.365L661.954 215.726ZM686.83 178.559H705.756V171.101H686.83V178.559ZM702.026 174.83V248.476H709.485V174.83H702.026ZM705.756 244.747H690.94V252.205H705.756V244.747ZM694.669 248.476V192.782H687.211V248.476H694.669ZM687.95 190.553L655.939 233.486L661.919 237.944L693.929 195.011L687.95 190.553ZM661.921 233.49L629.911 190.448L623.926 194.899L655.937 237.94L661.921 233.49Z" fill="#25434F" mask="url(#path-9-outside-4_1846_1328)"/>
</g>
<g filter="url(#filter5_d_1846_1328)">
<path d="M785.512 194.244C777.862 194.244 774.037 190.599 774.037 184.749C774.037 178.899 777.862 175.254 785.512 175.254H790.552C798.202 175.254 802.027 178.899 802.027 184.749C802.027 190.599 798.202 194.244 790.552 194.244H785.512ZM774.037 209.994C774.037 205.944 776.737 203.694 780.787 203.694H783.487C784.027 203.694 784.387 203.559 784.387 203.019C784.387 202.479 784.027 202.344 783.487 202.344H774.937V196.044H787.987C792.037 196.044 794.737 198.294 794.737 202.344C794.737 206.394 792.037 208.644 787.987 208.644H785.287C784.747 208.644 784.387 208.779 784.387 209.319C784.387 209.859 784.747 209.994 785.287 209.994H794.737V216.294H780.787C776.737 216.294 774.037 214.044 774.037 209.994ZM796.087 209.994C796.087 206.394 798.562 203.694 802.612 203.694H809.812C813.862 203.694 816.337 206.394 816.337 209.994C816.337 213.594 813.862 216.294 809.812 216.294H802.612C798.562 216.294 796.087 213.594 796.087 209.994ZM805.087 194.244V175.254H815.437V194.244H805.087ZM795.682 202.794V196.944H801.037V195.369H811.387V196.944H816.787V202.794H795.682ZM784.432 184.749C784.432 186.189 785.512 187.269 786.772 187.269H789.292C790.552 187.269 791.632 186.189 791.632 184.749C791.632 183.309 790.552 182.229 789.292 182.229H786.772C785.512 182.229 784.432 183.309 784.432 184.749ZM804.187 209.994C804.187 210.669 804.637 211.119 805.312 211.119H807.112C807.787 211.119 808.237 210.669 808.237 209.994C808.237 209.319 807.787 208.869 807.112 208.869H805.312C804.637 208.869 804.187 209.319 804.187 209.994ZM821.739 204.369V187.179C821.739 179.754 826.824 174.804 834.834 174.804C842.844 174.804 847.929 179.754 847.929 187.179V190.149H851.889V175.254H862.239V216.294H851.889V199.149H847.929V204.369C847.929 211.794 842.844 216.744 834.834 216.744C826.824 216.744 821.739 211.794 821.739 204.369ZM834.834 207.744C836.409 207.744 837.579 206.619 837.579 204.819V186.729C837.579 184.929 836.409 183.804 834.834 183.804C833.259 183.804 832.089 184.929 832.089 186.729V204.819C832.089 206.619 833.259 207.744 834.834 207.744ZM877.991 216.294C872.051 216.294 868.091 212.334 868.091 206.394V175.254H878.261V189.159H884.561V175.254H894.731V190.149H898.691V175.254H909.041V216.294H898.691V199.149H894.731V216.294H877.991ZM884.561 207.744V197.619H878.261V205.044C878.261 206.664 879.341 207.744 880.961 207.744H884.561ZM914.442 191.274C914.442 187.224 917.142 183.804 921.192 183.804H929.382C929.922 183.804 930.282 183.444 930.282 182.904C930.282 182.364 929.922 182.004 929.382 182.004H915.342V175.254H933.882C935.952 175.254 937.707 176.154 938.922 177.594H945.492V175.254H955.842V199.194H945.492V195.594H940.632V198.744H921.192C917.142 198.744 914.442 195.324 914.442 191.274ZM935.592 208.599C937.797 207.474 939.867 205.089 939.867 201.444V200.994H950.217V201.444C950.217 205.989 953.637 208.509 956.292 208.644V216.294C952.242 216.249 946.662 213.819 944.592 210.039C942.387 213.414 939.552 215.529 935.592 216.249C931.632 215.529 928.797 213.414 926.592 210.039C924.522 213.819 918.942 216.249 914.892 216.294V208.644C917.547 208.509 920.967 205.989 920.967 201.444V200.994H931.317V201.444C931.317 205.089 933.387 207.474 935.592 208.599ZM924.792 191.049C924.792 191.589 925.152 191.994 925.692 191.994H939.147V187.944H945.492V185.244H940.227C939.372 188.079 937.032 190.104 933.882 190.104H925.692C925.152 190.104 924.792 190.509 924.792 191.049ZM975.194 207.294H990.494V175.254H1000.84V190.149H1004.89V199.149H1000.84V216.294H972.044C966.104 216.294 962.144 212.334 962.144 206.394V175.254H987.434V184.254H972.494V204.594C972.494 206.214 973.574 207.294 975.194 207.294ZM1008.95 175.254H1035.14V177.774H1039.1V175.254H1049.45V202.794H1039.1V195.774H1035.14V198.294H1016.6C1011.56 198.294 1008.95 195.684 1008.95 190.644V175.254ZM1008.95 200.544H1019.3V204.594C1019.3 206.214 1020.38 207.294 1022 207.294H1049.9V216.294H1018.85C1012.91 216.294 1008.95 212.334 1008.95 206.394V200.544ZM1019.3 188.844C1019.3 189.564 1019.93 190.194 1020.65 190.194H1024.79V183.354H1019.3V188.844ZM1035.14 185.424V188.124H1039.1V185.424H1035.14ZM1064.57 188.079H1053.5C1053.5 180.204 1058.81 175.254 1065.42 175.254H1075.23C1081.85 175.254 1087.16 180.159 1087.16 187.584C1087.16 195.189 1081.85 200.274 1075.23 200.274H1074.78V203.604H1063.71V197.304C1063.71 193.119 1066.46 191.274 1070.19 191.274H1072.04C1074.47 191.274 1076.09 190.014 1076.09 188.079C1076.09 185.964 1074.47 184.524 1072.04 184.524H1068.62C1066.19 184.524 1064.57 185.964 1064.57 188.079ZM1064.16 211.254C1064.16 208.104 1066.59 205.674 1069.74 205.674C1072.8 205.674 1075.23 208.104 1075.23 211.254C1075.23 214.314 1072.8 216.744 1069.74 216.744C1066.59 216.744 1064.16 214.314 1064.16 211.254ZM774.037 240.254H816.337V249.254H801.937C804.457 252.269 810.307 253.844 816.337 253.844V262.844C807.787 262.799 798.922 260.324 795.187 256.139C791.452 260.324 782.587 262.799 774.037 262.844V253.844C780.067 253.844 785.872 252.269 788.437 249.254H774.037V240.254ZM774.037 273.194V264.644H816.337V273.194H800.362V281.294H790.012V273.194H774.037ZM819.489 264.869V255.779H844.239V264.869H819.489ZM847.382 257.084H889.682V263.834H873.707V265.814H889.682V281.294H854.582C850.442 281.294 847.382 278.234 847.382 274.094V265.814H863.357V263.834H847.382V257.084ZM846.932 247.994C846.932 243.044 849.857 240.254 855.257 240.254H881.807C887.207 240.254 890.132 243.044 890.132 247.994C890.132 252.944 887.207 255.734 881.807 255.734H855.257C849.857 255.734 846.932 252.944 846.932 247.994ZM857.327 247.994C857.327 248.669 857.732 248.984 858.182 248.984H878.882C879.332 248.984 879.737 248.669 879.737 247.994C879.737 247.319 879.332 247.004 878.882 247.004H858.182C857.732 247.004 857.327 247.319 857.327 247.994ZM857.732 272.564V273.419C857.732 274.139 858.137 274.544 858.857 274.544H879.332V272.564H857.732ZM905.455 269.369V264.329C905.455 256.904 910.36 251.954 918.37 251.954C926.38 251.954 931.285 256.904 931.285 264.329V269.369C931.285 276.794 926.38 281.744 918.37 281.744C910.36 281.744 905.455 276.794 905.455 269.369ZM933.805 281.294V240.254H944.155V256.049H948.205V265.049H944.155V281.294H933.805ZM905.005 242.054H913.195V238.904H923.545V242.054H931.735V251.054H905.005V242.054ZM918.37 273.644C919.72 273.644 920.935 272.744 920.935 271.169V262.529C920.935 260.954 919.72 260.054 918.37 260.054C917.02 260.054 915.805 260.954 915.805 262.529V271.169C915.805 272.744 917.02 273.644 918.37 273.644ZM951.806 281.294V271.394C954.686 270.674 956.396 267.749 956.396 261.809V240.254H966.296V261.809C966.296 267.749 968.006 270.674 970.886 271.394V281.294C966.971 280.709 963.281 278.144 961.346 274.004C959.411 278.144 955.721 280.709 951.806 281.294ZM967.961 262.124V253.574H972.416V240.254H981.866V281.294H972.416V262.124H967.961ZM993.206 281.294H983.756V240.254H993.206V281.294ZM998.158 272.294H1004.91V264.734C1000.54 262.754 997.708 258.569 997.708 253.124C997.708 245.474 1003.33 240.254 1010.98 240.254H1027.63C1035.28 240.254 1040.91 245.474 1040.91 253.124C1040.91 258.569 1038.07 262.754 1033.71 264.734V272.294H1040.46V281.294H998.158V272.294ZM1008.1 253.124C1008.1 255.824 1010.08 257.444 1012.56 257.444H1026.06C1028.53 257.444 1030.51 255.824 1030.51 253.124C1030.51 250.424 1028.53 248.804 1026.06 248.804H1012.56C1010.08 248.804 1008.1 250.424 1008.1 253.124ZM1015.71 265.994V272.294H1022.91V265.994H1015.71Z" fill="#23414D"/>
</g>
<defs>
<filter id="filter0_d_1846_1328" x="418.426" y="230.886" width="120.411" height="36.7098" filterUnits="userSpaceOnUse" color-interpolation-filters="sRGB">
<feFlood flood-opacity="0" result="BackgroundImageFix"/>
<feColorMatrix in="SourceAlpha" type="matrix" values="0 0 0 0 0 0 0 0 0 0 0 0 0 0 0 0 0 0 127 0" result="hardAlpha"/>
<feOffset dy="8"/>
<feGaussianBlur stdDeviation="4.05"/>
<feComposite in2="hardAlpha" operator="out"/>
<feColorMatrix type="matrix" values="0 0 0 0 0 0 0 0 0 0 0 0 0 0 0 0 0 0 0.25 0"/>
<feBlend mode="normal" in2="BackgroundImageFix" result="effect1_dropShadow_1846_1328"/>
<feBlend mode="normal" in="SourceGraphic" in2="effect1_dropShadow_1846_1328" result="shape"/>
</filter>
<filter id="filter1_d_1846_1328" x="352.038" y="162.865" width="113.334" height="109.934" filterUnits="userSpaceOnUse" color-interpolation-filters="sRGB">
<feFlood flood-opacity="0" result="BackgroundImageFix"/>
<feColorMatrix in="SourceAlpha" type="matrix" values="0 0 0 0 0 0 0 0 0 0 0 0 0 0 0 0 0 0 127 0" result="hardAlpha"/>
<feOffset dy="8"/>
<feGaussianBlur stdDeviation="4.05"/>
<feComposite in2="hardAlpha" operator="out"/>
<feColorMatrix type="matrix" values="0 0 0 0 0 0 0 0 0 0 0 0 0 0 0 0 0 0 0.25 0"/>
<feBlend mode="normal" in2="BackgroundImageFix" result="effect1_dropShadow_1846_1328"/>
<feBlend mode="normal" in="SourceGraphic" in2="effect1_dropShadow_1846_1328" result="shape"/>
</filter>
<filter id="filter2_d_1846_1328" x="490.856" y="162.865" width="113.334" height="109.934" filterUnits="userSpaceOnUse" color-interpolation-filters="sRGB">
<feFlood flood-opacity="0" result="BackgroundImageFix"/>
<feColorMatrix in="SourceAlpha" type="matrix" values="0 0 0 0 0 0 0 0 0 0 0 0 0 0 0 0 0 0 127 0" result="hardAlpha"/>
<feOffset dy="8"/>
<feGaussianBlur stdDeviation="4.05"/>
<feComposite in2="hardAlpha" operator="out"/>
<feColorMatrix type="matrix" values="0 0 0 0 0 0 0 0 0 0 0 0 0 0 0 0 0 0 0.25 0"/>
<feBlend mode="normal" in2="BackgroundImageFix" result="effect1_dropShadow_1846_1328"/>
<feBlend mode="normal" in="SourceGraphic" in2="effect1_dropShadow_1846_1328" result="shape"/>
</filter>
<filter id="filter3_d_1846_1328" x="252.888" y="171.001" width="105.523" height="97.3045" filterUnits="userSpaceOnUse" color-interpolation-filters="sRGB">
<feFlood flood-opacity="0" result="BackgroundImageFix"/>
<feColorMatrix in="SourceAlpha" type="matrix" values="0 0 0 0 0 0 0 0 0 0 0 0 0 0 0 0 0 0 127 0" result="hardAlpha"/>
<feOffset dy="8"/>
<feGaussianBlur stdDeviation="4.05"/>
<feComposite in2="hardAlpha" operator="out"/>
<feColorMatrix type="matrix" values="0 0 0 0 0 0 0 0 0 0 0 0 0 0 0 0 0 0 0.25 0"/>
<feBlend mode="normal" in2="BackgroundImageFix" result="effect1_dropShadow_1846_1328"/>
<feBlend mode="normal" in="SourceGraphic" in2="effect1_dropShadow_1846_1328" result="shape"/>
</filter>
<filter id="filter4_d_1846_1328" x="600.273" y="171.001" width="117.311" height="97.3045" filterUnits="userSpaceOnUse" color-interpolation-filters="sRGB">
<feFlood flood-opacity="0" result="BackgroundImageFix"/>
<feColorMatrix in="SourceAlpha" type="matrix" values="0 0 0 0 0 0 0 0 0 0 0 0 0 0 0 0 0 0 127 0" result="hardAlpha"/>
<feOffset dy="8"/>
<feGaussianBlur stdDeviation="4.05"/>
<feComposite in2="hardAlpha" operator="out"/>
<feColorMatrix type="matrix" values="0 0 0 0 0 0 0 0 0 0 0 0 0 0 0 0 0 0 0.25 0"/>
<feBlend mode="normal" in2="BackgroundImageFix" result="effect1_dropShadow_1846_1328"/>
<feBlend mode="normal" in="SourceGraphic" in2="effect1_dropShadow_1846_1328" result="shape"/>
</filter>
<filter id="filter5_d_1846_1328" x="770.037" y="174.804" width="321.121" height="114.94" filterUnits="userSpaceOnUse" color-interpolation-filters="sRGB">
<feFlood flood-opacity="0" result="BackgroundImageFix"/>
<feColorMatrix in="SourceAlpha" type="matrix" values="0 0 0 0 0 0 0 0 0 0 0 0 0 0 0 0 0 0 127 0" result="hardAlpha"/>
<feOffset dy="4"/>
<feGaussianBlur stdDeviation="2"/>
<feComposite in2="hardAlpha" operator="out"/>
<feColorMatrix type="matrix" values="0 0 0 0 0 0 0 0 0 0 0 0 0 0 0 0 0 0 0.25 0"/>
<feBlend mode="normal" in2="BackgroundImageFix" result="effect1_dropShadow_1846_1328"/>
<feBlend mode="normal" in="SourceGraphic" in2="effect1_dropShadow_1846_1328" result="shape"/>
</filter>
</defs>
</svg>
