<svg width="16" height="16" viewBox="0 0 16 16" fill="none" xmlns="http://www.w3.org/2000/svg">
<path d="M7.97507 0.861938C3.92618 0.861938 0.640137 4.14799 0.640137 8.19687C0.640137 12.2457 3.92618 15.5318 7.97507 15.5318C12.0239 15.5318 15.31 12.2457 15.31 8.19687C15.31 4.14799 12.0239 0.861938 7.97507 0.861938ZM7.97507 3.79591C9.39071 3.79591 10.5423 4.94749 10.5423 6.36313C10.5423 7.77878 9.39071 8.93036 7.97507 8.93036C6.55942 8.93036 5.40784 7.77878 5.40784 6.36313C5.40784 4.94749 6.55942 3.79591 7.97507 3.79591ZM7.97507 14.0648C6.48607 14.0648 4.72569 13.4633 3.47142 11.9524C4.71102 10.9841 6.27336 10.3973 7.97507 10.3973C9.67677 10.3973 11.2391 10.9841 12.4787 11.9524C11.2244 13.4633 9.46406 14.0648 7.97507 14.0648Z" fill="#25434F"/>
</svg>
