<svg width="14" height="15" viewBox="0 0 14 15" fill="none" xmlns="http://www.w3.org/2000/svg">
<path d="M4.75027 10.5517C4.61258 10.3889 4.54373 10.2042 4.54373 9.99739C4.54373 9.79111 4.61258 9.61912 4.75027 9.48143L6.13967 8.09203H0.75103C0.538238 8.09203 0.359994 8.01993 0.216297 7.87573C0.072099 7.73203 0 7.55379 0 7.341C0 7.12821 0.072099 6.94971 0.216297 6.80551C0.359994 6.66182 0.538238 6.58997 0.75103 6.58997H6.13967L4.75027 5.20056C4.60006 5.05036 4.52496 4.87211 4.52496 4.66583C4.52496 4.45904 4.60006 4.28055 4.75027 4.13034C4.88795 3.98014 5.06019 3.90503 5.26697 3.90503C5.47326 3.90503 5.64524 3.97388 5.78293 4.11157L8.48664 6.81528C8.56174 6.89038 8.61507 6.97174 8.64661 7.05936C8.67765 7.14698 8.69317 7.24086 8.69317 7.341C8.69317 7.44114 8.67765 7.53501 8.64661 7.62263C8.61507 7.71025 8.56174 7.79162 8.48664 7.86672L5.78293 10.5704C5.63273 10.7206 5.45749 10.7895 5.25721 10.777C5.05694 10.7644 4.88795 10.6893 4.75027 10.5517ZM7.5103 14.1003C7.29751 14.1003 7.11927 14.0282 6.97557 13.884C6.83137 13.7403 6.75927 13.562 6.75927 13.3492C6.75927 13.1364 6.83137 12.9582 6.97557 12.8145C7.11927 12.6703 7.29751 12.5982 7.5103 12.5982H12.0165V2.08379H7.5103C7.29751 2.08379 7.11927 2.01169 6.97557 1.86749C6.83137 1.72379 6.75927 1.54555 6.75927 1.33276C6.75927 1.11996 6.83137 0.941469 6.97557 0.797272C7.11927 0.653575 7.29751 0.581726 7.5103 0.581726H12.0165C12.4296 0.581726 12.7833 0.728678 13.0777 1.02258C13.3716 1.31698 13.5185 1.67072 13.5185 2.08379V12.5982C13.5185 13.0113 13.3716 13.365 13.0777 13.6594C12.7833 13.9533 12.4296 14.1003 12.0165 14.1003H7.5103Z" fill="#25434F"/>
</svg>
