<svg width="11" height="15" viewBox="0 0 11 15" fill="none" xmlns="http://www.w3.org/2000/svg">
<path d="M5.38225 0.581726C4.82625 0.581726 4.375 1.03297 4.375 1.58898V2.05588C2.63796 2.50362 1.35325 4.07675 1.35325 5.95373V9.31123H9.41125V5.95373C9.41125 4.07675 8.12655 2.50362 6.3895 2.05588V1.58898C6.3895 1.03297 5.93826 0.581726 5.38225 0.581726ZM0.0102539 10.6542V11.9972H4.22024C4.102 12.2013 4.03958 12.4329 4.03925 12.6687C4.03925 13.0249 4.18075 13.3665 4.43261 13.6184C4.68447 13.8702 5.02607 14.0117 5.38225 14.0117C5.73844 14.0117 6.08004 13.8702 6.3319 13.6184C6.58376 13.3665 6.72525 13.0249 6.72525 12.6687C6.72453 12.4328 6.66165 12.2012 6.54295 11.9972H10.7543V10.6542H0.0102539Z" fill="#25434F"/>
</svg>
