<svg width="30" height="37" viewBox="0 0 30 37" fill="none" xmlns="http://www.w3.org/2000/svg">
<path d="M15.0148 0.864746C13.529 0.864746 12.3232 2.07056 12.3232 3.55631V4.80395C7.6815 6.00041 4.24854 10.2041 4.24854 15.2197V24.1916H25.781V15.2197C25.781 10.2041 22.348 6.00041 17.7063 4.80395V3.55631C17.7063 2.07056 16.5005 0.864746 15.0148 0.864746ZM0.65979 27.7803V31.3691H11.9097C11.5937 31.9144 11.4269 32.5332 11.426 33.1635C11.426 34.1152 11.8041 35.0281 12.4771 35.7011C13.1502 36.3741 14.063 36.7522 15.0148 36.7522C15.9666 36.7522 16.8794 36.3741 17.5524 35.7011C18.2254 35.0281 18.6035 34.1152 18.6035 33.1635C18.6016 32.5329 18.4336 31.914 18.1164 31.3691H29.3698V27.7803H0.65979Z" fill="#143950"/>
</svg>
