<svg width="30" height="37" viewBox="0 0 30 37" fill="none" xmlns="http://www.w3.org/2000/svg">
<path d="M15.0148 0.541504C13.529 0.541504 12.3232 1.74732 12.3232 3.23306V4.48071C7.6815 5.67717 4.24854 9.88086 4.24854 14.8965V23.8683H25.781V14.8965C25.781 9.88086 22.348 5.67717 17.7063 4.48071V3.23306C17.7063 1.74732 16.5005 0.541504 15.0148 0.541504ZM0.65979 27.4571V31.0458H11.9097C11.5937 31.5911 11.4269 32.21 11.426 32.8402C11.426 33.792 11.8041 34.7048 12.4771 35.3778C13.1502 36.0509 14.063 36.429 15.0148 36.429C15.9666 36.429 16.8794 36.0509 17.5524 35.3778C18.2254 34.7048 18.6035 33.792 18.6035 32.8402C18.6016 32.2097 18.4336 31.5908 18.1164 31.0458H29.3698V27.4571H0.65979Z" fill="#A2A0A0"/>
</svg>
