<svg width="41" height="40" viewBox="0 0 41 40" fill="none" xmlns="http://www.w3.org/2000/svg">
<path d="M20.4298 0.541504C9.60139 0.541504 0.81311 9.32979 0.81311 20.1582C0.81311 30.9866 9.60139 39.7749 20.4298 39.7749C31.2582 39.7749 40.0465 30.9866 40.0465 20.1582C40.0465 9.32979 31.2582 0.541504 20.4298 0.541504ZM20.4298 8.38818C24.2158 8.38818 27.2957 11.468 27.2957 15.254C27.2957 19.0401 24.2158 22.1199 20.4298 22.1199C16.6438 22.1199 13.564 19.0401 13.564 15.254C13.564 11.468 16.6438 8.38818 20.4298 8.38818ZM20.4298 35.8516C16.4476 35.8516 11.7396 34.243 8.38516 30.202C11.7004 27.6126 15.8787 26.0432 20.4298 26.0432C24.9809 26.0432 29.1592 27.6126 32.4745 30.202C29.12 34.243 24.412 35.8516 20.4298 35.8516Z" fill="#A2A0A0"/>
</svg>
