<svg width="41" height="41" viewBox="0 0 41 41" fill="none" xmlns="http://www.w3.org/2000/svg">
<path d="M20.4298 0.864746C9.60139 0.864746 0.81311 9.65303 0.81311 20.4814C0.81311 31.3099 9.60139 40.0981 20.4298 40.0981C31.2582 40.0981 40.0465 31.3099 40.0465 20.4814C40.0465 9.65303 31.2582 0.864746 20.4298 0.864746ZM20.4298 8.71143C24.2158 8.71143 27.2957 11.7912 27.2957 15.5773C27.2957 19.3633 24.2158 22.4431 20.4298 22.4431C16.6438 22.4431 13.564 19.3633 13.564 15.5773C13.564 11.7912 16.6438 8.71143 20.4298 8.71143ZM20.4298 36.1748C16.4476 36.1748 11.7396 34.5662 8.38516 30.5252C11.7004 27.9358 15.8787 26.3665 20.4298 26.3665C24.9809 26.3665 29.1592 27.9358 32.4745 30.5252C29.12 34.5662 24.412 36.1748 20.4298 36.1748Z" fill="#143950"/>
</svg>
