<svg width="58" height="58" viewBox="0 0 58 58" fill="none" xmlns="http://www.w3.org/2000/svg">
<g opacity="0.85">
<circle cx="29.1027" cy="28.6027" r="28.6027" fill="#8FD2DD"/>
<path d="M18.5244 18.0243C18.0962 18.0243 17.737 17.8792 17.4469 17.5891C17.1578 17.2999 17.0132 16.9413 17.0132 16.5131C17.0132 16.085 17.1578 15.7258 17.4469 15.4357C17.737 15.1465 18.0962 15.002 18.5244 15.002H39.6807C40.1089 15.002 40.4675 15.1465 40.7567 15.4357C41.0468 15.7258 41.1919 16.085 41.1919 16.5131C41.1919 16.9413 41.0468 17.2999 40.7567 17.5891C40.4675 17.8792 40.1089 18.0243 39.6807 18.0243H18.5244ZM29.1025 42.203C28.6744 42.203 28.3157 42.0579 28.0266 41.7678C27.7364 41.4786 27.5914 41.12 27.5914 40.6918V26.7891L24.6824 29.6981C24.4053 29.9751 24.0653 30.1136 23.6623 30.1136C23.2593 30.1136 22.9067 29.9625 22.6045 29.6603C22.3275 29.3832 22.1889 29.0306 22.1889 28.6025C22.1889 28.1743 22.3275 27.8217 22.6045 27.5447L28.0447 22.1044C28.1958 21.9533 28.3595 21.8465 28.5359 21.7841C28.7122 21.7206 28.901 21.6889 29.1025 21.6889C29.304 21.6889 29.4929 21.7206 29.6692 21.7841C29.8455 21.8465 30.0092 21.9533 30.1604 22.1044L35.6383 27.5824C35.9154 27.8595 36.0539 28.1995 36.0539 28.6025C36.0539 29.0055 35.9028 29.3581 35.6006 29.6603C35.3235 29.9373 34.9709 30.0759 34.5427 30.0759C34.1146 30.0759 33.762 29.9373 33.4849 29.6603L30.6137 26.7891V40.6918C30.6137 41.12 30.4691 41.4786 30.18 41.7678C29.8899 42.0579 29.5307 42.203 29.1025 42.203Z" fill="#143950"/>
</g>
</svg>
