<svg width="18" height="19" viewBox="0 0 18 19" fill="none" xmlns="http://www.w3.org/2000/svg">
<path d="M16.2999 17.8527L10.6999 12.2527C10.1999 12.6527 9.6249 12.9694 8.9749 13.2027C8.3249 13.4361 7.63324 13.5527 6.8999 13.5527C5.08324 13.5527 3.5459 12.9237 2.2879 11.6657C1.02924 10.4071 0.399902 8.8694 0.399902 7.05273C0.399902 5.23607 1.02924 3.6984 2.2879 2.43973C3.5459 1.18173 5.08324 0.552734 6.8999 0.552734C8.71657 0.552734 10.2542 1.18173 11.5129 2.43973C12.7709 3.6984 13.3999 5.23607 13.3999 7.05273C13.3999 7.78607 13.2832 8.47773 13.0499 9.12773C12.8166 9.77773 12.4999 10.3527 12.0999 10.8527L17.7249 16.4777C17.9082 16.6611 17.9999 16.8861 17.9999 17.1527C17.9999 17.4194 17.8999 17.6527 17.6999 17.8527C17.5166 18.0361 17.2832 18.1277 16.9999 18.1277C16.7166 18.1277 16.4832 18.0361 16.2999 17.8527ZM6.8999 11.5527C8.1499 11.5527 9.21257 11.1154 10.0879 10.2407C10.9626 9.3654 11.3999 8.30273 11.3999 7.05273C11.3999 5.80273 10.9626 4.74007 10.0879 3.86473C9.21257 2.99007 8.1499 2.55273 6.8999 2.55273C5.6499 2.55273 4.58724 2.99007 3.7119 3.86473C2.83724 4.74007 2.3999 5.80273 2.3999 7.05273C2.3999 8.30273 2.83724 9.3654 3.7119 10.2407C4.58724 11.1154 5.6499 11.5527 6.8999 11.5527Z" fill="#8ED1DB"/>
</svg>
