<svg width="158" height="57" viewBox="0 0 158 57" fill="none" xmlns="http://www.w3.org/2000/svg">
<path d="M0 10.0205C0 4.77375 4.25329 0.520447 9.5 0.520447H147.687C152.934 0.520447 157.187 4.77374 157.187 10.0204V47.1799C157.187 52.4266 152.934 56.6799 147.687 56.6799H9.50001C4.2533 56.6799 0 52.4266 0 47.1799V10.0205Z" fill="#193946" fill-opacity="0.95"/>
<path d="M72.1035 38.4525V46.465H77.7035V47.44H71.041V38.4525H72.1035ZM79.018 42.915C79.018 42.215 79.1305 41.5775 79.3555 41.0025C79.568 40.44 79.868 39.9525 80.2555 39.54C80.6305 39.14 81.068 38.815 81.5805 38.59C82.0805 38.3775 82.6305 38.265 83.218 38.265C83.793 38.265 84.343 38.3775 84.8555 38.59C85.3555 38.815 85.8055 39.14 86.193 39.54C86.568 39.9525 86.8805 40.44 87.1055 41.0025C87.318 41.5775 87.4305 42.215 87.4305 42.915C87.4305 43.615 87.318 44.2525 87.1055 44.815C86.8805 45.39 86.568 45.8775 86.193 46.2775C85.8055 46.69 85.3555 47.0025 84.8555 47.2275C84.343 47.44 83.793 47.5525 83.218 47.5525C82.6305 47.5525 82.0805 47.44 81.5805 47.2275C81.068 47.0025 80.6305 46.69 80.2555 46.2775C79.868 45.8775 79.568 45.39 79.3555 44.815C79.1305 44.2525 79.018 43.615 79.018 42.915ZM80.068 42.915C80.068 43.4775 80.143 43.9775 80.3055 44.4275C80.4555 44.8775 80.6805 45.265 80.968 45.5775C81.243 45.9025 81.568 46.1525 81.968 46.315C82.343 46.49 82.768 46.5775 83.218 46.5775C83.668 46.5775 84.0805 46.49 84.4805 46.315C84.8555 46.1525 85.193 45.9025 85.4805 45.5775C85.7555 45.265 85.9805 44.8775 86.143 44.4275C86.293 43.9775 86.3805 43.4775 86.3805 42.915C86.3805 42.365 86.293 41.8525 86.143 41.39C85.9805 40.94 85.7555 40.565 85.4805 40.24C85.193 39.9275 84.8555 39.6775 84.4805 39.5025C84.0805 39.3275 83.668 39.24 83.218 39.24C82.768 39.24 82.343 39.3275 81.968 39.5025C81.568 39.6775 81.243 39.9275 80.968 40.24C80.6805 40.565 80.4555 40.94 80.3055 41.39C80.143 41.8525 80.068 42.365 80.068 42.915ZM92.2746 39.24C92.0496 39.24 91.8121 39.2525 91.5496 39.2775C91.2746 39.3025 91.0121 39.365 90.7871 39.465C90.5371 39.565 90.3371 39.715 90.1871 39.915C90.0246 40.1275 89.9496 40.4025 89.9621 40.7525C89.9621 41.0775 90.0746 41.3275 90.2871 41.515C90.4871 41.715 90.7371 41.865 91.0246 41.965C91.2996 42.09 91.5746 42.165 91.8621 42.215C92.1371 42.2775 92.3621 42.3275 92.5371 42.3525C93.4246 42.515 94.1121 42.7025 94.6121 42.9275C95.0996 43.165 95.4621 43.415 95.6996 43.665C95.9246 43.9275 96.0746 44.19 96.1246 44.44C96.1621 44.7025 96.1871 44.94 96.1871 45.14C96.1871 45.565 96.0746 45.9275 95.8746 46.2275C95.6496 46.54 95.3746 46.79 95.0371 46.9775C94.6871 47.1775 94.2871 47.3275 93.8496 47.4275C93.3996 47.515 92.9371 47.565 92.4746 47.565C91.9496 47.565 91.4621 47.5025 90.9996 47.3775C90.5246 47.24 90.0996 47.04 89.7496 46.765C89.3871 46.5025 89.0996 46.165 88.8871 45.74C88.6621 45.3275 88.5496 44.84 88.5496 44.265L89.5496 44.09C89.5746 44.565 89.6871 44.965 89.8621 45.2775C90.0246 45.6025 90.2496 45.865 90.5246 46.0525C90.7871 46.2525 91.0996 46.4025 91.4621 46.4775C91.8121 46.565 92.1871 46.6025 92.5996 46.6025C92.9246 46.6025 93.2371 46.5775 93.5496 46.515C93.8496 46.465 94.1121 46.39 94.3496 46.265C94.5746 46.1525 94.7621 46.0025 94.9121 45.8025C95.0496 45.6275 95.1246 45.4025 95.1246 45.1275C95.1246 44.8775 95.0621 44.665 94.9496 44.465C94.8246 44.29 94.6496 44.115 94.4121 43.965C94.1621 43.8275 93.8496 43.7025 93.4746 43.5775C93.0871 43.4775 92.6371 43.3775 92.1121 43.2775C91.7621 43.2275 91.4121 43.14 91.0371 43.015C90.6621 42.915 90.3121 42.765 89.9996 42.565C89.6746 42.3775 89.4121 42.14 89.2121 41.84C88.9996 41.5525 88.8871 41.2025 88.8871 40.7775C88.8746 40.415 88.9246 40.1025 89.0246 39.8275C89.1246 39.565 89.2621 39.34 89.4496 39.14C89.6246 38.965 89.8246 38.815 90.0621 38.69C90.2871 38.59 90.5246 38.5025 90.7871 38.4275C91.0371 38.365 91.2871 38.315 91.5496 38.29C91.7996 38.2775 92.0496 38.265 92.2746 38.265C93.1121 38.265 93.8371 38.4275 94.4621 38.7275C95.0621 39.0525 95.5996 39.59 96.0496 40.34L95.1871 40.8775C94.8371 40.34 94.4371 39.9275 93.9871 39.6525C93.5246 39.3775 92.9496 39.24 92.2746 39.24ZM97.3146 39.3025V38.3275H104.765V39.3025H101.565V47.44H100.502V39.3025H97.3146ZM109.427 42.3275H119.352V43.315H109.427V42.3275ZM117.552 44.94H110.152V43.9525H118.615V46.74H111.24V47.5525H118.74V48.54H110.177V45.7525H117.552V44.94ZM117.24 41.7025C117.327 41.3525 117.377 41.015 117.402 40.6775C117.415 40.3525 117.427 39.99 117.427 39.615V39.065H110.34V38.0775H118.49V39.1525C118.49 39.615 118.477 40.065 118.465 40.49C118.44 40.9275 118.365 41.3775 118.265 41.8275L117.24 41.7025ZM124.457 44.2775C125.02 43.9775 125.47 43.6275 125.82 43.215C126.157 42.815 126.42 42.365 126.62 41.865C126.807 41.365 126.945 40.8275 127.032 40.2275C127.107 39.6525 127.182 39.015 127.232 38.34L128.245 38.415C128.22 39.04 128.17 39.6775 128.095 40.3025C127.995 40.94 127.845 41.5525 127.62 42.1275C127.995 42.49 128.407 42.7775 128.87 43.0025C129.32 43.24 129.795 43.44 130.295 43.6025L129.92 44.5025C129.407 44.3525 128.932 44.165 128.495 43.915C128.045 43.69 127.607 43.39 127.182 43.04C126.932 43.49 126.62 43.89 126.245 44.24C125.87 44.59 125.42 44.89 124.895 45.115L124.457 44.2775ZM120.682 47.09H130.607V48.0775H120.682V47.09ZM124.645 38.415C124.62 38.99 124.582 39.5275 124.532 40.0025C124.47 40.49 124.382 40.9525 124.257 41.4025C124.357 41.5025 124.47 41.59 124.607 41.69C124.732 41.79 124.87 41.89 125.02 41.9775C125.157 42.0775 125.295 42.1775 125.445 42.2525C125.57 42.3525 125.695 42.4275 125.807 42.4775L125.27 43.29C125.082 43.215 124.857 43.0775 124.607 42.9025C124.332 42.7275 124.095 42.5525 123.882 42.365C123.632 42.84 123.32 43.265 122.932 43.6275C122.532 44.0025 122.032 44.34 121.407 44.6275L120.932 43.815C121.495 43.515 121.945 43.1775 122.282 42.8025C122.607 42.4525 122.87 42.0525 123.057 41.6025C123.232 41.165 123.37 40.6775 123.445 40.1275C123.507 39.6025 123.557 39.0025 123.607 38.34L124.645 38.415ZM141.262 37.9025V48.4525H140.199V37.9025H141.262ZM138.137 39.84C138.124 40.69 137.974 41.515 137.687 42.3025C137.387 43.1025 136.987 43.8275 136.499 44.49C135.999 45.165 135.424 45.7525 134.774 46.2525C134.112 46.765 133.424 47.1525 132.712 47.44L132.237 46.6275C132.924 46.3275 133.562 45.9275 134.162 45.4525C134.749 44.9775 135.262 44.4525 135.699 43.8525C136.124 43.265 136.462 42.6275 136.712 41.94C136.949 41.265 137.074 40.565 137.074 39.84V39.315H132.337V38.3275H138.137V39.84Z" fill="white"/>
<path d="M18.0623 42.3372L13.3691 55.5672H46.4392L40.7892 39.372C48.7991 29.7916 43.2303 15.326 33.1151 11.161C29.1727 9.5377 19.5043 8.86433 14.3398 13.4184C1.82983 24.4498 9.6347 38.6309 18.0623 42.3372Z" fill="white" stroke="#25434F" stroke-linecap="round" stroke-linejoin="round"/>
<path d="M25.0321 33.1109C24.2512 34.313 23.1064 36.7965 24.7753 37.1131C26.4441 37.4298 25.6418 34.5769 25.0321 33.1109Z" fill="black" fill-opacity="0.2" stroke="#25434F" stroke-width="2.5" stroke-linecap="round" stroke-linejoin="round"/>
<path d="M36.3653 30.7303C36.2506 32.1451 36.4289 34.858 38.0595 34.3913C39.6901 33.9246 37.6094 31.7562 36.3653 30.7303Z" fill="#D9D9D9" stroke="#25434F" stroke-width="2.5" stroke-linecap="round" stroke-linejoin="round"/>
<path d="M10.5229 18.1232C11.1371 22.5025 16.0794 33.4465 22.8293 25.8045" stroke="#25434F" stroke-width="1.5" stroke-linecap="round" stroke-linejoin="round"/>
<path d="M16.9341 11.3976C16.9341 20.1563 23.524 31.4468 29.6888 23.6461" stroke="#25434F" stroke-width="1.5" stroke-linejoin="round"/>
<path d="M25.0464 9.81488C25.0464 18.5736 29.0427 29.4912 36.1348 22.9686" stroke="#25434F" stroke-width="1.5" stroke-linejoin="round"/>
<path d="M33.2423 11.5907C32.4746 22.6314 40.0753 28.2874 41.6396 19.0398" stroke="#25434F" stroke-width="1.5" stroke-linecap="round" stroke-linejoin="round"/>
<path d="M8.13965 21.9247C9.5901 22.3501 10.7375 22.4447 11.9049 24.0767C14.081 26.6557 14.3537 31.4079 18.2878 33.907" stroke="#25434F" stroke-width="1.5" stroke-linejoin="round"/>
<path d="M18.2873 33.8857C21.0509 35.7029 22.1773 38.9349 17.958 42.4817" stroke="#25434F" stroke-width="1.5" stroke-linejoin="round"/>
<path d="M26.9102 30.1329C26.9102 30.779 26.3653 31.3175 25.6746 31.3175C24.9839 31.3175 24.439 30.779 24.439 30.1329C24.439 29.4868 24.9839 28.9483 25.6746 28.9483C26.3653 28.9483 26.9102 29.4868 26.9102 30.1329Z" fill="#25434F" stroke="#25434F" stroke-width="0.5" stroke-linejoin="round"/>
<path d="M31.9481 31.0284C32.0446 31.255 32.0139 31.53 31.8451 31.8035C31.6764 32.0769 31.3777 32.3313 30.9827 32.4882C30.5877 32.645 30.19 32.6671 29.871 32.5874C29.5518 32.5077 29.3296 32.3331 29.2331 32.1065C29.1366 31.8799 29.1673 31.6049 29.3361 31.3313C29.5048 31.058 29.8035 30.8035 30.1985 30.6467C30.5935 30.4898 30.9912 30.4677 31.3102 30.5474C31.6294 30.6272 31.8516 30.8018 31.9481 31.0284Z" fill="#25434F" stroke="#25434F" stroke-width="0.5" stroke-linejoin="round"/>
<path d="M35.3921 27.9158C35.3921 28.5619 34.8472 29.1004 34.1565 29.1004C33.4658 29.1004 32.9209 28.5619 32.9209 27.9158C32.9209 27.2697 33.4658 26.7312 34.1565 26.7312C34.8472 26.7312 35.3921 27.2697 35.3921 27.9158Z" fill="#25434F" stroke="#25434F" stroke-width="0.5" stroke-linejoin="round"/>
<path d="M28.668 37.07C29.4588 36.0836 31.7621 34.3398 34.6486 35.2562" stroke="#25434F" stroke-width="1.5" stroke-linecap="round" stroke-linejoin="round"/>
<path d="M18.1795 42.3373L13.4863 55.5673H46.5564L40.9064 39.3721C48.9162 29.7917 43.3475 15.3261 33.2323 11.1611C29.2899 9.53782 19.6215 8.86446 14.457 13.4185C1.94701 24.4499 9.75189 38.631 18.1795 42.3373Z" stroke="#25434F" stroke-width="1.5" stroke-linecap="round" stroke-linejoin="round"/>
</svg>
