<svg width="352" height="126" viewBox="0 0 352 126" fill="none" xmlns="http://www.w3.org/2000/svg">
<path d="M0.613281 19.23C0.613281 8.73657 9.11987 0.22998 19.6133 0.22998H332.523C343.016 0.22998 351.523 8.73657 351.523 19.23V106.58C351.523 117.074 343.016 125.58 332.523 125.58H19.6133C9.11987 125.58 0.613281 117.074 0.613281 106.58V19.23Z" fill="#193946" fill-opacity="0.95"/>
<path d="M142.564 108.736H140.014V86.8665H156.004V89.2065H142.564V96.4365H156.004V98.7765H142.564V108.736ZM159.159 97.8765C159.159 96.1965 159.429 94.6665 159.969 93.2865C160.479 91.9365 161.199 90.7665 162.129 89.7765C163.029 88.8165 164.079 88.0365 165.309 87.4965C166.509 86.9865 167.829 86.7165 169.239 86.7165C170.619 86.7165 171.939 86.9865 173.169 87.4965C174.369 88.0365 175.449 88.8165 176.379 89.7765C177.279 90.7665 178.029 91.9365 178.569 93.2865C179.079 94.6665 179.349 96.1965 179.349 97.8765C179.349 99.5565 179.079 101.086 178.569 102.436C178.029 103.816 177.279 104.986 176.379 105.946C175.449 106.936 174.369 107.686 173.169 108.226C171.939 108.736 170.619 109.006 169.239 109.006C167.829 109.006 166.509 108.736 165.309 108.226C164.079 107.686 163.029 106.936 162.129 105.946C161.199 104.986 160.479 103.816 159.969 102.436C159.429 101.086 159.159 99.5565 159.159 97.8765ZM161.679 97.8765C161.679 99.2265 161.859 100.426 162.249 101.506C162.609 102.586 163.149 103.516 163.839 104.266C164.499 105.046 165.279 105.646 166.239 106.036C167.139 106.456 168.159 106.666 169.239 106.666C170.319 106.666 171.309 106.456 172.269 106.036C173.169 105.646 173.979 105.046 174.669 104.266C175.329 103.516 175.869 102.586 176.259 101.506C176.619 100.426 176.829 99.2265 176.829 97.8765C176.829 96.5565 176.619 95.3265 176.259 94.2165C175.869 93.1365 175.329 92.2365 174.669 91.4565C173.979 90.7065 173.169 90.1065 172.269 89.6865C171.309 89.2665 170.319 89.0565 169.239 89.0565C168.159 89.0565 167.139 89.2665 166.239 89.6865C165.279 90.1065 164.499 90.7065 163.839 91.4565C163.149 92.2365 162.609 93.1365 162.249 94.2165C161.859 95.3265 161.679 96.5565 161.679 97.8765ZM185.455 87.0165V99.4665C185.455 100.846 185.605 102.016 185.965 102.916C186.295 103.876 186.745 104.596 187.315 105.136C187.855 105.706 188.515 106.096 189.265 106.306C189.985 106.546 190.765 106.666 191.575 106.666C192.475 106.666 193.315 106.546 194.095 106.276C194.845 106.036 195.505 105.616 196.045 105.016C196.585 104.476 197.005 103.726 197.305 102.796C197.605 101.896 197.755 100.786 197.755 99.4665V87.0165H200.275V99.7365C200.275 101.626 200.005 103.156 199.465 104.356C198.925 105.556 198.235 106.516 197.395 107.176C196.555 107.896 195.595 108.346 194.575 108.646C193.525 108.886 192.505 109.036 191.545 109.036C190.255 109.036 189.085 108.856 188.035 108.526C186.955 108.166 186.055 107.596 185.335 106.816C184.555 106.066 183.985 105.076 183.565 103.816C183.145 102.616 182.935 101.116 182.935 99.3165V87.0165H185.455ZM207.046 108.766H204.496V87.0165H206.656L218.896 104.236V87.0165H221.446V108.766H219.226L207.046 91.5465V108.766ZM231.11 106.366C233.06 106.366 234.68 106.186 235.97 105.766C237.23 105.376 238.25 104.806 239.03 104.056C239.78 103.336 240.32 102.466 240.62 101.386C240.92 100.336 241.07 99.1365 241.07 97.8165C241.07 96.4965 240.92 95.3265 240.62 94.2465C240.32 93.1965 239.78 92.2965 239.03 91.5465C238.25 90.8265 237.23 90.2565 235.97 89.8365C234.68 89.4465 233.06 89.2365 231.11 89.2365H228.14V106.366H231.11ZM225.59 86.8665H231.29C233.63 86.8665 235.61 87.1365 237.23 87.6765C238.79 88.2465 240.05 89.0265 241.01 89.9865C241.94 90.9765 242.6 92.1165 243.02 93.4365C243.41 94.7865 243.62 96.2565 243.62 97.8165C243.62 99.4065 243.41 100.846 243.02 102.166C242.6 103.516 241.94 104.656 241.01 105.616C240.05 106.606 238.79 107.386 237.23 107.926C235.61 108.466 233.63 108.736 231.29 108.736H225.59V86.8665ZM255.022 96.4665H278.842V98.8365H255.022V96.4665ZM274.522 102.736H256.762V100.366H277.072V107.056H259.372V109.006H277.372V111.376H256.822V104.686H274.522V102.736ZM273.772 94.9665C273.982 94.1265 274.102 93.3165 274.162 92.5065C274.192 91.7265 274.222 90.8565 274.222 89.9565V88.6365H257.212V86.2665H276.772V88.8465C276.772 89.9565 276.742 91.0365 276.712 92.0565C276.652 93.1065 276.472 94.1865 276.232 95.2665L273.772 94.9665ZM291.093 101.146C292.443 100.426 293.523 99.5865 294.363 98.5965C295.173 97.6365 295.803 96.5565 296.283 95.3565C296.733 94.1565 297.063 92.8665 297.273 91.4265C297.453 90.0465 297.633 88.5165 297.753 86.8965L300.183 87.0765C300.123 88.5765 300.003 90.1065 299.823 91.6065C299.583 93.1365 299.223 94.6065 298.683 95.9865C299.583 96.8565 300.573 97.5465 301.683 98.0865C302.763 98.6565 303.903 99.1365 305.103 99.5265L304.203 101.686C302.973 101.326 301.833 100.876 300.783 100.276C299.703 99.7365 298.653 99.0165 297.633 98.1765C297.033 99.2565 296.283 100.216 295.383 101.056C294.483 101.896 293.403 102.616 292.143 103.156L291.093 101.146ZM282.033 107.896H305.853V110.266H282.033V107.896ZM291.543 87.0765C291.483 88.4565 291.393 89.7465 291.273 90.8865C291.123 92.0565 290.913 93.1665 290.613 94.2465C290.853 94.4865 291.123 94.6965 291.453 94.9365C291.753 95.1765 292.083 95.4165 292.443 95.6265C292.773 95.8665 293.103 96.1065 293.463 96.2865C293.763 96.5265 294.063 96.7065 294.333 96.8265L293.043 98.7765C292.593 98.5965 292.053 98.2665 291.453 97.8465C290.793 97.4265 290.223 97.0065 289.713 96.5565C289.113 97.6965 288.363 98.7165 287.433 99.5865C286.473 100.486 285.273 101.296 283.773 101.986L282.633 100.036C283.983 99.3165 285.063 98.5065 285.873 97.6065C286.653 96.7665 287.283 95.8065 287.733 94.7265C288.153 93.6765 288.483 92.5065 288.663 91.1865C288.813 89.9265 288.933 88.4865 289.053 86.8965L291.543 87.0765ZM331.425 85.8465V111.166H328.875V85.8465H331.425ZM323.925 90.4965C323.895 92.5365 323.535 94.5165 322.845 96.4065C322.125 98.3265 321.165 100.066 319.995 101.656C318.795 103.276 317.415 104.686 315.855 105.886C314.265 107.116 312.615 108.046 310.905 108.736L309.765 106.786C311.415 106.066 312.945 105.106 314.385 103.966C315.795 102.826 317.025 101.566 318.075 100.126C319.095 98.7165 319.905 97.1865 320.505 95.5365C321.075 93.9165 321.375 92.2365 321.375 90.4965V89.2365H310.005V86.8665H323.925V90.4965Z" fill="white"/>
<path d="M44.2701 93.6892L33.7196 123.356H108.062L95.3609 87.0402C113.367 65.5574 100.849 33.1203 78.1094 23.781C69.2466 20.1409 47.5118 18.631 35.9019 28.8429C7.779 53.5792 25.3246 85.3784 44.2701 93.6892Z" fill="white" stroke="black" stroke-width="3" stroke-linecap="round" stroke-linejoin="round"/>
<path d="M82.0723 74.9533C80.2945 77.1652 75.1166 81.0753 68.6277 79.0204" stroke="black" stroke-width="3" stroke-linecap="round" stroke-linejoin="round"/>
<path d="M27.6953 39.1306C29.0759 48.9506 40.3259 73.9683 55.4999 56.8321" stroke="black" stroke-width="3" stroke-linejoin="round"/>
<path d="M42.25 24.5267C42.25 44.1668 57.0644 69.4842 70.923 51.9922" stroke="black" stroke-width="3" stroke-linejoin="round"/>
<path d="M60.4863 20.9778C60.4863 40.618 69.4702 65.0992 85.4135 50.4733" stroke="black" stroke-width="3" stroke-linejoin="round"/>
<path d="M78.8579 22.5623C77.1153 47.9138 94.0378 62.1439 97.5885 40.9096" stroke="black" stroke-width="3" stroke-linejoin="round"/>
<path d="M21.7109 47.7452C24.667 48.8538 28.3198 49.2983 30.944 52.9578C35.836 58.7409 36.4491 69.3971 45.2931 75.0008" stroke="black" stroke-width="3" stroke-linejoin="round"/>
<path d="M45.2931 74.9534C51.5056 79.028 54.0377 86.2754 44.5527 94.2287" stroke="black" stroke-width="3" stroke-linejoin="round"/>
<path d="M44.7858 93.6377L34.2353 123.304H108.578L95.8765 86.9887C113.883 65.5058 101.364 33.0688 78.625 23.7295C69.7622 20.0894 48.0274 18.5795 36.4175 28.7913C8.29462 53.5277 25.8402 85.3269 44.7858 93.6377Z" stroke="black" stroke-width="3" stroke-linecap="round" stroke-linejoin="round"/>
<ellipse cx="62.0662" cy="68.9754" rx="3.33967" ry="3.2169" fill="black"/>
<ellipse cx="3.84412" cy="2.80577" rx="3.84412" ry="2.80577" transform="matrix(0.929721 -0.368264 0.392631 0.919696 68.2734 68.5898)" fill="black"/>
<ellipse cx="82.074" cy="61.7155" rx="3.33967" ry="3.2169" fill="black"/>
<path fill-rule="evenodd" clip-rule="evenodd" d="M95.9926 73.9991C89.6639 78.7687 80.491 78.3908 74.6086 72.8169C68.2139 66.7575 68.1295 56.8519 74.4202 50.6922C80.7109 44.5326 90.9946 44.4513 97.3893 50.5108C102.161 55.0318 103.419 61.694 101.137 67.3439C101.251 67.3984 101.363 67.4582 101.473 67.5233L114.162 74.9957C116.696 76.4883 117.446 79.7792 115.79 82.1408L115.166 83.0301C113.497 85.4106 110.099 85.8275 107.823 83.931L96.5118 74.5085C96.3226 74.3509 96.1493 74.1803 95.9926 73.9991ZM79.4652 68.0615C75.797 64.5857 75.7486 58.9036 79.3571 55.3703C82.9656 51.8369 88.8646 51.7903 92.5328 55.2662C96.2009 58.742 96.2493 64.4241 92.6408 67.9574C89.0323 71.4908 83.1334 71.5374 79.4652 68.0615Z" fill="#7ACAD6"/>
<path d="M95.9926 73.9991L97.1311 73.0398C96.6057 72.4324 95.6988 72.3298 95.0664 72.8064L95.9926 73.9991ZM74.6086 72.8169L73.5754 73.8864L74.6086 72.8169ZM74.4202 50.6922L73.3507 49.6228L74.4202 50.6922ZM97.3893 50.5108L96.3561 51.5802L96.3561 51.5802L97.3893 50.5108ZM101.137 67.3439L99.7359 66.7702C99.4418 67.4984 99.7752 68.3368 100.497 68.6838L101.137 67.3439ZM101.473 67.5233L100.718 68.8023L100.718 68.8023L101.473 67.5233ZM114.162 74.9957L114.916 73.7168L114.162 74.9957ZM115.79 82.1408L117.033 83.0054L117.033 83.0053L115.79 82.1408ZM115.166 83.0301L113.923 82.1655L113.923 82.1655L115.166 83.0301ZM107.823 83.931L106.863 85.0659L107.823 83.931ZM96.5118 74.5085L97.4714 73.3737L97.4714 73.3737L96.5118 74.5085ZM79.3571 55.3703L78.2876 54.3009L79.3571 55.3703ZM79.4652 68.0615L78.432 69.131L78.432 69.131L79.4652 68.0615ZM92.6408 67.9574L93.7104 69.0268L92.6408 67.9574ZM95.0664 72.8064C89.299 77.153 80.96 76.7868 75.6418 71.7475L73.5754 73.8864C80.0219 79.9949 90.0287 80.3845 96.9188 75.1918L95.0664 72.8064ZM75.6418 71.7475C69.8828 66.2905 69.7803 57.3522 75.4898 51.7616L73.3507 49.6228C66.4788 56.3516 66.5449 67.2245 73.5754 73.8864L75.6418 71.7475ZM75.4898 51.7616C81.2206 46.1502 90.5723 46.0997 96.3561 51.5802L98.4225 49.4413C91.4168 42.8029 80.2013 42.9149 73.3507 49.6228L75.4898 51.7616ZM96.3561 51.5802C100.659 55.657 101.799 61.6618 99.7359 66.7702L102.539 67.9176C105.039 61.7262 103.663 54.4067 98.4225 49.4413L96.3561 51.5802ZM100.497 68.6838C100.571 68.7197 100.645 68.7591 100.718 68.8023L102.228 66.2444C102.08 66.1573 101.93 66.0772 101.778 66.004L100.497 68.6838ZM100.718 68.8023L113.407 76.2747L114.916 73.7168L102.228 66.2444L100.718 68.8023ZM113.407 76.2747C115.181 77.3195 115.706 79.6231 114.546 81.2762L117.033 83.0053C119.186 79.9353 118.211 75.6571 114.916 73.7168L113.407 76.2747ZM114.546 81.2762L113.923 82.1655L116.41 83.8946L117.033 83.0054L114.546 81.2762ZM113.923 82.1655C112.754 83.8319 110.376 84.1237 108.782 82.7962L106.863 85.0659C109.823 87.5313 114.239 86.9894 116.41 83.8946L113.923 82.1655ZM108.782 82.7962L97.4714 73.3737L95.5522 75.6434L106.863 85.0659L108.782 82.7962ZM97.4714 73.3737C97.3469 73.2699 97.2335 73.1582 97.1311 73.0398L94.8541 74.9584C95.0652 75.2024 95.2982 75.4318 95.5522 75.6434L97.4714 73.3737ZM78.2876 54.3009C74.0979 58.4033 74.128 65.0527 78.432 69.131L80.4984 66.9921C77.466 64.1187 77.3994 59.4039 80.4267 56.4397L78.2876 54.3009ZM93.5659 54.1967C89.2868 50.1419 82.456 50.2193 78.2876 54.3009L80.4267 56.4397C83.4753 53.4545 88.4423 53.4387 91.4996 56.3356L93.5659 54.1967ZM93.7104 69.0268C97.9001 64.9244 97.8699 58.275 93.5659 54.1967L91.4996 56.3356C94.532 59.209 94.5986 63.9238 91.5713 66.888L93.7104 69.0268ZM78.432 69.131C82.7112 73.1858 89.542 73.1084 93.7104 69.0268L91.5713 66.888C88.5227 69.8732 83.5556 69.889 80.4984 66.9921L78.432 69.131Z" fill="black"/>
<path d="M147.17 67.4035H139.214V66.3765H148.275V70.3415H140.345V72.2915H148.483V73.3185H144.31V75.4895H148.925V76.5165H138.603V75.4895H143.205V73.3185H139.24V69.3145H147.17V67.4035ZM150.048 75.4895H160.37V76.5165H150.048V75.4895ZM157.848 73.8125C157.926 73.4225 158.004 72.9935 158.082 72.5255L158.238 71.1085C158.277 70.6275 158.316 70.1465 158.342 69.6525C158.355 69.1845 158.368 68.7295 158.368 68.2875V67.4555H150.997V66.4285H159.473V67.8065C159.473 68.8595 159.434 69.8865 159.356 70.8875C159.278 71.9015 159.135 72.9285 158.927 73.9425L157.848 73.8125ZM171.191 65.9345V74.0465H170.086V65.9345H171.191ZM171.451 75.9705V76.9975H162.728V73.1625H163.833V75.9705H171.451ZM161.714 69.1585C161.714 68.7035 161.792 68.2875 161.961 67.8975C162.117 67.5205 162.338 67.1955 162.624 66.9095C162.897 66.6495 163.222 66.4285 163.612 66.2725C163.976 66.1295 164.379 66.0515 164.808 66.0515C165.224 66.0515 165.627 66.1295 166.017 66.2725C166.394 66.4285 166.732 66.6495 167.018 66.9095C167.291 67.1955 167.512 67.5205 167.681 67.8975C167.837 68.2875 167.928 68.7035 167.928 69.1585C167.928 69.6265 167.837 70.0425 167.681 70.4195C167.512 70.8095 167.291 71.1345 167.018 71.3945C166.732 71.6805 166.394 71.8885 166.017 72.0315C165.627 72.1875 165.224 72.2655 164.808 72.2655C164.379 72.2655 163.976 72.1875 163.612 72.0315C163.222 71.8885 162.897 71.6805 162.624 71.3945C162.338 71.1345 162.117 70.8095 161.961 70.4195C161.792 70.0425 161.714 69.6265 161.714 69.1585ZM162.793 69.1585C162.793 69.4965 162.845 69.7825 162.962 70.0295C163.066 70.2895 163.209 70.5105 163.391 70.6925C163.573 70.8745 163.781 71.0175 164.028 71.1085C164.262 71.2125 164.522 71.2515 164.808 71.2515C165.081 71.2515 165.341 71.2125 165.601 71.1085C165.835 71.0175 166.056 70.8745 166.251 70.6925C166.433 70.5105 166.576 70.2895 166.693 70.0295C166.797 69.7825 166.849 69.4965 166.849 69.1585C166.849 68.8465 166.797 68.5475 166.693 68.2875C166.576 68.0275 166.433 67.8065 166.251 67.6245C166.056 67.4425 165.835 67.3125 165.601 67.2085C165.341 67.1175 165.081 67.0655 164.808 67.0655C164.522 67.0655 164.262 67.1175 164.028 67.2085C163.781 67.3125 163.573 67.4425 163.391 67.6245C163.209 67.8065 163.066 68.0275 162.962 68.2875C162.845 68.5475 162.793 68.8465 162.793 69.1585ZM182.705 69.2235C182.64 69.5875 182.523 69.8995 182.354 70.1725C182.172 70.4585 181.938 70.6925 181.678 70.8745C181.405 71.0825 181.093 71.2255 180.755 71.3165C180.391 71.4205 180.014 71.4725 179.611 71.4725C179.169 71.4725 178.753 71.4205 178.389 71.2905C177.999 71.1735 177.674 70.9915 177.401 70.7575C177.115 70.5235 176.907 70.2375 176.751 69.8995C176.595 69.5745 176.517 69.1975 176.517 68.7555C176.517 68.3395 176.595 67.9495 176.751 67.6115C176.907 67.2865 177.115 67.0005 177.401 66.7665C177.674 66.5325 177.999 66.3635 178.389 66.2335C178.753 66.1165 179.169 66.0515 179.611 66.0515C180.417 66.0515 181.106 66.2465 181.665 66.6105C182.211 67.0005 182.549 67.5205 182.692 68.1965H184.889V65.9345H185.994V71.4465H184.889V69.2235H182.705ZM178.519 72.1615V73.5655H180.638V72.1615H181.73V76.9975H177.427V72.1615H178.519ZM177.596 68.7555C177.596 69.0675 177.648 69.3275 177.778 69.5355C177.895 69.7565 178.051 69.9385 178.246 70.0685C178.428 70.2115 178.649 70.3155 178.896 70.3675C179.13 70.4325 179.364 70.4585 179.611 70.4585C179.845 70.4585 180.092 70.4325 180.352 70.3675C180.586 70.3155 180.807 70.2115 181.015 70.0685C181.197 69.9385 181.353 69.7565 181.483 69.5355C181.6 69.3275 181.665 69.0675 181.665 68.7555C181.665 68.4565 181.6 68.1965 181.483 67.9755C181.353 67.7675 181.197 67.5855 181.015 67.4425C180.807 67.3125 180.586 67.2215 180.352 67.1565C180.092 67.1045 179.845 67.0655 179.611 67.0655C179.364 67.0655 179.13 67.1045 178.896 67.1565C178.649 67.2215 178.428 67.3125 178.246 67.4425C178.051 67.5855 177.895 67.7675 177.778 67.9755C177.648 68.1965 177.596 68.4565 177.596 68.7555ZM185.292 72.2395C185.266 73.1495 185.149 73.9165 184.928 74.5405C185.058 74.7225 185.214 74.8915 185.396 75.0475C185.578 75.2165 185.773 75.3725 185.981 75.5155C186.176 75.6585 186.371 75.8015 186.579 75.9315C186.774 76.0485 186.956 76.1655 187.138 76.2695L186.579 77.1145C186.423 77.0365 186.254 76.9325 186.072 76.8285C185.877 76.6985 185.695 76.5815 185.513 76.4515C185.318 76.3085 185.136 76.1655 184.967 76.0095C184.785 75.8535 184.616 75.6845 184.46 75.5155C184.226 75.8795 183.94 76.1915 183.615 76.4515C183.277 76.7115 182.9 76.9325 182.484 77.1145L181.977 76.2565C182.315 76.1135 182.627 75.9315 182.913 75.7105C183.173 75.4895 183.407 75.2165 183.602 74.8785C183.784 74.5535 183.94 74.1635 184.057 73.7085C184.161 73.2665 184.213 72.7465 184.226 72.1485L185.292 72.2395ZM180.638 74.5925H178.519V75.9965H180.638V74.5925ZM197.44 65.9345V76.9065H196.335V65.9345H197.44ZM187.833 70.9915C187.833 70.2635 187.898 69.5875 188.041 68.9895C188.171 68.4045 188.379 67.8975 188.665 67.4815C188.938 67.0655 189.276 66.7535 189.692 66.5195C190.095 66.2985 190.576 66.1815 191.122 66.1815C191.668 66.1815 192.136 66.2985 192.552 66.5195C192.955 66.7535 193.293 67.0655 193.579 67.4815C193.852 67.8975 194.06 68.4045 194.203 68.9895C194.333 69.5875 194.411 70.2635 194.411 70.9915C194.411 71.7455 194.333 72.4085 194.203 72.9935C194.06 73.5915 193.852 74.0855 193.579 74.5015C193.293 74.9175 192.955 75.2425 192.552 75.4505C192.136 75.6715 191.668 75.7885 191.122 75.7885C190.576 75.7885 190.095 75.6715 189.692 75.4505C189.276 75.2425 188.938 74.9175 188.665 74.5015C188.379 74.0855 188.171 73.5915 188.041 72.9935C187.898 72.4085 187.833 71.7455 187.833 70.9915ZM188.938 70.9915C188.938 72.1745 189.12 73.0975 189.484 73.7475C189.848 74.4235 190.394 74.7485 191.122 74.7485C191.85 74.7485 192.396 74.4235 192.76 73.7475C193.124 73.0975 193.306 72.1745 193.306 70.9915C193.306 69.8215 193.124 68.8985 192.76 68.2225C192.396 67.5595 191.85 67.2215 191.122 67.2215C190.394 67.2215 189.848 67.5595 189.484 68.2225C189.12 68.8985 188.938 69.8215 188.938 70.9915ZM203.936 66.4415V70.1335H207.888V66.4415H208.993V75.6195H202.831V66.4415H203.936ZM211.853 65.9345V70.4715H213.387V71.4985H211.853V76.9065H210.748V65.9345H211.853ZM207.888 71.1605H203.936V74.5925H207.888V71.1605ZM222.557 67.4035H214.601V66.3765H223.662V70.3415H215.732V72.2915H223.87V73.3185H219.697V75.4895H224.312V76.5165H213.99V75.4895H218.592V73.3185H214.627V69.3145H222.557V67.4035ZM233.031 67.1435C232.953 67.4685 232.875 67.7805 232.797 68.0665C232.706 68.3785 232.602 68.6645 232.485 68.9505C232.654 69.2105 232.862 69.4445 233.122 69.6785C233.356 69.9255 233.616 70.1465 233.889 70.3545C234.149 70.5625 234.409 70.7575 234.682 70.9265C234.942 71.1085 235.176 71.2645 235.384 71.3815L234.838 72.2395C234.643 72.1485 234.422 72.0185 234.188 71.8625C233.928 71.7065 233.681 71.5375 233.421 71.3295C233.161 71.1345 232.901 70.9135 232.654 70.6795C232.394 70.4585 232.173 70.2245 231.965 69.9645C231.653 70.4585 231.289 70.9135 230.86 71.3165C230.418 71.7325 229.911 72.0965 229.313 72.4215L228.806 71.6025C229.638 71.1085 230.314 70.4975 230.834 69.7435C231.328 69.0155 231.692 68.1445 231.913 67.1435H228.988V66.1165H235.319V67.1435H233.031ZM230.028 74.0595V73.0325H238.101V76.9975H236.996V74.0595H230.028ZM238.101 65.9345V68.6515H239.635V69.6785H238.101V72.3565H236.996V65.9345H238.101ZM245.724 77.1275C245.139 77.1275 244.593 77.0885 244.099 77.0105C243.579 76.9325 243.137 76.8025 242.773 76.6465C242.383 76.4645 242.084 76.2565 241.876 75.9965C241.642 75.7235 241.538 75.4115 241.538 75.0345C241.538 74.6705 241.642 74.3455 241.876 74.0725C242.084 73.8125 242.383 73.6045 242.773 73.4355C243.137 73.2795 243.579 73.1495 244.099 73.0715C244.593 72.9935 245.139 72.9545 245.724 72.9545C246.296 72.9545 246.842 72.9935 247.362 73.0715C247.856 73.1495 248.298 73.2795 248.688 73.4355C249.052 73.6045 249.351 73.8125 249.585 74.0725C249.793 74.3455 249.91 74.6705 249.91 75.0345C249.91 75.4115 249.793 75.7235 249.585 75.9965C249.351 76.2565 249.052 76.4645 248.688 76.6465C248.298 76.8025 247.856 76.9325 247.362 77.0105C246.842 77.0885 246.296 77.1275 245.724 77.1275ZM240.121 71.4985C240.55 71.2125 240.953 70.8745 241.33 70.5105C241.694 70.1465 242.032 69.7435 242.331 69.3015C242.617 68.8595 242.851 68.3785 243.059 67.8455C243.241 67.3255 243.384 66.7665 243.462 66.1425L244.515 66.3765C244.437 66.8185 244.346 67.2345 244.242 67.6245C244.112 68.0275 243.982 68.4045 243.826 68.7685C243.982 69.0285 244.177 69.2885 244.424 69.5355C244.658 69.7955 244.905 70.0295 245.191 70.2505C245.451 70.4845 245.737 70.6925 246.023 70.8745C246.309 71.0695 246.569 71.2255 246.816 71.3555L246.27 72.2135C246.036 72.1095 245.802 71.9795 245.542 71.8105C245.282 71.6545 245.009 71.4595 244.749 71.2385C244.476 71.0305 244.216 70.8095 243.969 70.5495C243.709 70.3155 243.475 70.0555 243.28 69.7955C242.942 70.3155 242.565 70.7835 242.123 71.1995C241.668 71.6155 241.174 71.9925 240.628 72.3175L240.121 71.4985ZM245.724 73.9425C245.412 73.9425 245.087 73.9555 244.749 73.9815C244.398 74.0075 244.073 74.0595 243.774 74.1375C243.462 74.2155 243.215 74.3325 243.02 74.4625C242.812 74.6185 242.721 74.8005 242.721 75.0345C242.721 75.2685 242.812 75.4635 243.02 75.6065C243.215 75.7365 243.462 75.8535 243.774 75.9315C244.073 76.0095 244.398 76.0615 244.749 76.0875C245.087 76.1135 245.412 76.1265 245.724 76.1265C246.01 76.1265 246.335 76.1135 246.699 76.0875C247.037 76.0615 247.362 76.0095 247.674 75.9315C247.973 75.8535 248.22 75.7365 248.428 75.6065C248.623 75.4635 248.727 75.2685 248.727 75.0345C248.727 74.8005 248.623 74.6185 248.428 74.4625C248.22 74.3325 247.973 74.2155 247.674 74.1375C247.362 74.0595 247.037 74.0075 246.699 73.9815C246.335 73.9555 246.01 73.9425 245.724 73.9425ZM245.932 69.3145V68.2875H248.831V65.9345H249.936V72.3565H248.831V69.3145H245.932ZM263.244 73.3835H256.276V72.3565H264.349V75.1905H257.381V75.9705H264.479V76.9975H256.276V74.1635H263.244V73.3835ZM255.561 69.8735C255.561 69.5615 255.626 69.2755 255.782 69.0155C255.912 68.7815 256.12 68.5735 256.38 68.3915C256.64 68.2355 256.952 68.1055 257.316 68.0145C257.68 67.9365 258.083 67.8975 258.525 67.8975C258.967 67.8975 259.383 67.9365 259.76 68.0145C260.124 68.1055 260.436 68.2355 260.709 68.3915C260.969 68.5735 261.164 68.7815 261.32 69.0155C261.45 69.2755 261.528 69.5615 261.528 69.8735C261.528 70.2115 261.45 70.4975 261.32 70.7315C261.164 70.9915 260.969 71.1995 260.709 71.3555C260.436 71.5375 260.124 71.6545 259.76 71.7325C259.383 71.8235 258.967 71.8625 258.525 71.8625C258.083 71.8625 257.68 71.8235 257.316 71.7325C256.952 71.6545 256.64 71.5375 256.38 71.3555C256.12 71.1995 255.912 70.9915 255.782 70.7315C255.626 70.4975 255.561 70.2115 255.561 69.8735ZM264.349 65.9345V68.1315H265.883V69.1585H264.349V71.7065H263.244V65.9345H264.349ZM255.236 66.5065H257.966V65.4665H259.071V66.5065H261.827V67.5335H255.236V66.5065ZM256.64 69.8735C256.64 70.0555 256.692 70.2115 256.796 70.3415C256.9 70.4715 257.043 70.5755 257.225 70.6535C257.394 70.7315 257.589 70.7965 257.823 70.8225C258.044 70.8745 258.278 70.8875 258.525 70.8875C258.759 70.8875 259.006 70.8745 259.24 70.8225C259.474 70.7965 259.682 70.7315 259.864 70.6535C260.033 70.5755 260.176 70.4715 260.293 70.3415C260.397 70.2115 260.449 70.0555 260.449 69.8735C260.449 69.6915 260.397 69.5355 260.293 69.4055C260.176 69.2885 260.033 69.1845 259.864 69.1065C259.682 69.0285 259.474 68.9765 259.24 68.9245C259.006 68.8985 258.759 68.8725 258.525 68.8725C258.278 68.8725 258.044 68.8985 257.823 68.9245C257.589 68.9765 257.394 69.0285 257.225 69.1065C257.043 69.1845 256.9 69.2885 256.796 69.4055C256.692 69.5355 256.64 69.6915 256.64 69.8735ZM274.447 73.5785H269.845V72.5515H280.167V73.5785H275.552V76.9845H274.447V73.5785ZM276.163 66.3245C276.059 66.7015 275.955 67.0525 275.825 67.3775C275.695 67.7155 275.539 68.0275 275.37 68.3135C275.916 68.9635 276.54 69.4835 277.242 69.8605C277.931 70.2505 278.685 70.5625 279.504 70.7835L279.166 71.7325C278.347 71.5505 277.554 71.2385 276.787 70.8225C276.007 70.4195 275.331 69.8865 274.733 69.2365C274.239 69.8345 273.654 70.3415 273.004 70.7445C272.341 71.1605 271.6 71.5115 270.794 71.7715L270.482 70.8225C271.08 70.5885 271.626 70.3415 272.12 70.0555C272.588 69.7955 273.017 69.4705 273.407 69.0935C273.771 68.7295 274.109 68.2875 274.395 67.7805C274.681 67.2865 274.928 66.7015 275.136 66.0125L276.163 66.3245ZM284.869 69.1585C284.869 68.7035 284.947 68.2875 285.116 67.8975C285.272 67.5205 285.493 67.1955 285.779 66.9095C286.052 66.6495 286.377 66.4285 286.767 66.2725C287.131 66.1295 287.534 66.0515 287.963 66.0515C288.379 66.0515 288.782 66.1295 289.172 66.2725C289.549 66.4285 289.887 66.6495 290.173 66.9095C290.446 67.1955 290.667 67.5205 290.836 67.8975C290.992 68.2875 291.083 68.7035 291.083 69.1585C291.083 69.6265 290.992 70.0425 290.836 70.4195C290.667 70.8095 290.446 71.1345 290.173 71.3945C289.887 71.6805 289.549 71.8885 289.172 72.0315C288.782 72.1875 288.379 72.2655 287.963 72.2655C287.534 72.2655 287.131 72.1875 286.767 72.0315C286.377 71.8885 286.052 71.6805 285.779 71.3945C285.493 71.1345 285.272 70.8095 285.116 70.4195C284.947 70.0425 284.869 69.6265 284.869 69.1585ZM285.948 69.1585C285.948 69.4965 286 69.7825 286.117 70.0295C286.221 70.2895 286.364 70.5105 286.546 70.6925C286.728 70.8745 286.936 71.0175 287.183 71.1085C287.417 71.2125 287.677 71.2515 287.963 71.2515C288.236 71.2515 288.496 71.2125 288.756 71.1085C288.99 71.0175 289.211 70.8745 289.406 70.6925C289.588 70.5105 289.731 70.2895 289.848 70.0295C289.952 69.7825 290.004 69.4965 290.004 69.1585C290.004 68.8465 289.952 68.5475 289.848 68.2875C289.731 68.0275 289.588 67.8065 289.406 67.6245C289.211 67.4425 288.99 67.3125 288.756 67.2085C288.496 67.1175 288.236 67.0655 287.963 67.0655C287.677 67.0655 287.417 67.1175 287.183 67.2085C286.936 67.3125 286.728 67.4425 286.546 67.6245C286.364 67.8065 286.221 68.0275 286.117 68.2875C286 68.5475 285.948 68.8465 285.948 69.1585ZM288.912 76.5165C289.77 76.2695 290.42 75.8405 290.862 75.2295C291.278 74.6185 291.551 73.8125 291.668 72.8115L292.747 73.0455C292.695 73.3835 292.643 73.7085 292.565 73.9945C292.487 74.2935 292.396 74.5665 292.292 74.8265C292.656 75.1385 293.046 75.3985 293.475 75.6065C293.891 75.8145 294.359 75.9835 294.853 76.1395L294.463 77.0625C293.943 76.9195 293.462 76.7375 293.033 76.5295C292.591 76.2955 292.175 76.0355 291.785 75.7365C291.187 76.5815 290.342 77.1535 289.224 77.4395L288.912 76.5165ZM294.346 65.9345V72.4865H293.241V65.9345H294.346ZM285.337 76.0355C287.014 75.6195 287.898 74.5535 287.976 72.7985L289.003 73.0195C288.977 73.2275 288.964 73.4095 288.938 73.5785C288.912 73.7605 288.873 73.9425 288.834 74.0985C288.938 74.2025 289.055 74.2935 289.185 74.3845C289.315 74.4885 289.445 74.5795 289.588 74.6575C289.718 74.7615 289.861 74.8395 289.991 74.9045C290.121 74.9825 290.225 75.0475 290.329 75.0995L289.77 75.9185C289.588 75.8405 289.38 75.7235 289.146 75.5805C288.899 75.4245 288.665 75.2685 288.444 75.0865C288.158 75.5545 287.794 75.9445 287.339 76.2565C286.871 76.5555 286.299 76.7895 285.649 76.9715L285.337 76.0355ZM296.093 71.6415H306.415V72.6685H296.093V71.6415ZM305.778 75.9705V76.9975H296.847V73.4225H297.952V75.9705H305.778ZM305.583 69.6915V70.7185H296.847V66.2465H297.952V69.6915H305.583Z" fill="white"/>
</svg>
