<svg width="517" height="160" viewBox="0 0 517 160" fill="none" xmlns="http://www.w3.org/2000/svg">
<g filter="url(#filter0_d_1986_9973)">
<path d="M4.46289 19.3281C4.46289 8.83472 12.9695 0.328125 23.4629 0.328125H494C504.493 0.328125 513 8.83471 513 19.3281V132.715C513 143.208 504.493 151.715 494 151.715H23.4629C12.9695 151.715 4.46289 143.208 4.46289 132.715V19.3281Z" fill="#193946" fill-opacity="0.95"/>
<path d="M288.888 103.551V125.986H304.568V128.716H285.913V103.551H288.888ZM308.248 116.046C308.248 114.086 308.563 112.301 309.193 110.691C309.788 109.116 310.628 107.751 311.713 106.596C312.763 105.476 313.988 104.566 315.423 103.936C316.823 103.341 318.363 103.026 320.008 103.026C321.618 103.026 323.158 103.341 324.593 103.936C325.993 104.566 327.253 105.476 328.338 106.596C329.388 107.751 330.263 109.116 330.893 110.691C331.488 112.301 331.803 114.086 331.803 116.046C331.803 118.006 331.488 119.791 330.893 121.366C330.263 122.976 329.388 124.341 328.338 125.461C327.253 126.616 325.993 127.491 324.593 128.121C323.158 128.716 321.618 129.031 320.008 129.031C318.363 129.031 316.823 128.716 315.423 128.121C313.988 127.491 312.763 126.616 311.713 125.461C310.628 124.341 309.788 122.976 309.193 121.366C308.563 119.791 308.248 118.006 308.248 116.046ZM311.188 116.046C311.188 117.621 311.398 119.021 311.853 120.281C312.273 121.541 312.903 122.626 313.708 123.501C314.478 124.411 315.388 125.111 316.508 125.566C317.558 126.056 318.748 126.301 320.008 126.301C321.268 126.301 322.423 126.056 323.543 125.566C324.593 125.111 325.538 124.411 326.343 123.501C327.113 122.626 327.743 121.541 328.198 120.281C328.618 119.021 328.863 117.621 328.863 116.046C328.863 114.506 328.618 113.071 328.198 111.776C327.743 110.516 327.113 109.466 326.343 108.556C325.538 107.681 324.593 106.981 323.543 106.491C322.423 106.001 321.268 105.756 320.008 105.756C318.748 105.756 317.558 106.001 316.508 106.491C315.388 106.981 314.478 107.681 313.708 108.556C312.903 109.466 312.273 110.516 311.853 111.776C311.398 113.071 311.188 114.506 311.188 116.046ZM345.367 105.756C344.737 105.756 344.072 105.791 343.337 105.861C342.567 105.931 341.832 106.106 341.202 106.386C340.502 106.666 339.942 107.086 339.522 107.646C339.067 108.241 338.857 109.011 338.892 109.991C338.892 110.901 339.207 111.601 339.802 112.126C340.362 112.686 341.062 113.106 341.867 113.386C342.637 113.736 343.407 113.946 344.212 114.086C344.982 114.261 345.612 114.401 346.102 114.471C348.587 114.926 350.512 115.451 351.912 116.081C353.277 116.746 354.292 117.446 354.957 118.146C355.587 118.881 356.007 119.616 356.147 120.316C356.252 121.051 356.322 121.716 356.322 122.276C356.322 123.466 356.007 124.481 355.447 125.321C354.817 126.196 354.047 126.896 353.102 127.421C352.122 127.981 351.002 128.401 349.777 128.681C348.517 128.926 347.222 129.066 345.927 129.066C344.457 129.066 343.092 128.891 341.797 128.541C340.467 128.156 339.277 127.596 338.297 126.826C337.282 126.091 336.477 125.146 335.882 123.956C335.252 122.801 334.937 121.436 334.937 119.826L337.737 119.336C337.807 120.666 338.122 121.786 338.612 122.661C339.067 123.571 339.697 124.306 340.467 124.831C341.202 125.391 342.077 125.811 343.092 126.021C344.072 126.266 345.122 126.371 346.277 126.371C347.187 126.371 348.062 126.301 348.937 126.126C349.777 125.986 350.512 125.776 351.177 125.426C351.807 125.111 352.332 124.691 352.752 124.131C353.137 123.641 353.347 123.011 353.347 122.241C353.347 121.541 353.172 120.946 352.857 120.386C352.507 119.896 352.017 119.406 351.352 118.986C350.652 118.601 349.777 118.251 348.727 117.901C347.642 117.621 346.382 117.341 344.912 117.061C343.932 116.921 342.952 116.676 341.902 116.326C340.852 116.046 339.872 115.626 338.997 115.066C338.087 114.541 337.352 113.876 336.792 113.036C336.197 112.231 335.882 111.251 335.882 110.061C335.847 109.046 335.987 108.171 336.267 107.401C336.547 106.666 336.932 106.036 337.457 105.476C337.947 104.986 338.507 104.566 339.172 104.216C339.802 103.936 340.467 103.691 341.202 103.481C341.902 103.306 342.602 103.166 343.337 103.096C344.037 103.061 344.737 103.026 345.367 103.026C347.712 103.026 349.742 103.481 351.492 104.321C353.172 105.231 354.677 106.736 355.937 108.836L353.522 110.341C352.542 108.836 351.422 107.681 350.162 106.911C348.867 106.141 347.257 105.756 345.367 105.756ZM359.479 105.931V103.201H380.339V105.931H371.379V128.716H368.404V105.931H359.479ZM393.394 114.401H421.184V117.166H393.394V114.401ZM416.144 121.716H395.424V118.951H419.119V126.756H398.469V129.031H419.469V131.796H395.494V123.991H416.144V121.716ZM415.269 112.651C415.514 111.671 415.654 110.726 415.724 109.781C415.759 108.871 415.794 107.856 415.794 106.806V105.266H395.949V102.501H418.769V105.511C418.769 106.806 418.734 108.066 418.699 109.256C418.629 110.481 418.419 111.741 418.139 113.001L415.269 112.651ZM435.478 119.861C437.053 119.021 438.313 118.041 439.293 116.886C440.238 115.766 440.973 114.506 441.533 113.106C442.058 111.706 442.443 110.201 442.688 108.521C442.898 106.911 443.108 105.126 443.248 103.236L446.083 103.446C446.013 105.196 445.873 106.981 445.663 108.731C445.383 110.516 444.963 112.231 444.333 113.841C445.383 114.856 446.538 115.661 447.833 116.291C449.093 116.956 450.423 117.516 451.823 117.971L450.773 120.491C449.338 120.071 448.008 119.546 446.783 118.846C445.523 118.216 444.298 117.376 443.108 116.396C442.408 117.656 441.533 118.776 440.483 119.756C439.433 120.736 438.173 121.576 436.703 122.206L435.478 119.861ZM424.908 127.736H452.698V130.501H424.908V127.736ZM436.003 103.446C435.933 105.056 435.828 106.561 435.688 107.891C435.513 109.256 435.268 110.551 434.918 111.811C435.198 112.091 435.513 112.336 435.898 112.616C436.248 112.896 436.633 113.176 437.053 113.421C437.438 113.701 437.823 113.981 438.243 114.191C438.593 114.471 438.943 114.681 439.258 114.821L437.753 117.096C437.228 116.886 436.598 116.501 435.898 116.011C435.128 115.521 434.463 115.031 433.868 114.506C433.168 115.836 432.293 117.026 431.208 118.041C430.088 119.091 428.688 120.036 426.938 120.841L425.608 118.566C427.183 117.726 428.443 116.781 429.388 115.731C430.298 114.751 431.033 113.631 431.558 112.371C432.048 111.146 432.433 109.781 432.643 108.241C432.818 106.771 432.958 105.091 433.098 103.236L436.003 103.446ZM482.531 102.011V131.551H479.556V102.011H482.531ZM473.781 107.436C473.746 109.816 473.326 112.126 472.521 114.331C471.681 116.571 470.561 118.601 469.196 120.456C467.796 122.346 466.186 123.991 464.366 125.391C462.511 126.826 460.586 127.911 458.591 128.716L457.261 126.441C459.186 125.601 460.971 124.481 462.651 123.151C464.296 121.821 465.731 120.351 466.956 118.671C468.146 117.026 469.091 115.241 469.791 113.316C470.456 111.426 470.806 109.466 470.806 107.436V105.966H457.541V103.201H473.781V107.436Z" fill="white"/>
<path d="M98.4575 113.855L86.1116 148.904H173.105L158.242 105.999C179.313 80.618 164.664 42.2948 138.055 31.2608C127.684 26.9602 102.251 25.1763 88.6652 37.2412C55.7567 66.4662 76.288 104.036 98.4575 113.855Z" fill="white" stroke="#25434F" stroke-width="2.64503" stroke-linecap="round" stroke-linejoin="round"/>
<path d="M116.792 89.4141C114.738 92.5988 111.727 99.1781 116.117 100.017C120.507 100.856 118.396 93.2979 116.792 89.4141Z" fill="black" fill-opacity="0.2" stroke="#25434F" stroke-width="6.61258" stroke-linecap="round" stroke-linejoin="round"/>
<path d="M146.605 83.106C146.304 86.8541 146.773 94.0413 151.062 92.8048C155.352 91.5683 149.878 85.8237 146.605 83.106Z" fill="#D9D9D9" stroke="#25434F" stroke-width="6.61258" stroke-linecap="round" stroke-linejoin="round"/>
<path d="M78.625 49.7061C80.2405 61.3081 93.2417 90.3017 110.998 70.0559" stroke="#25434F" stroke-width="3.96755" stroke-linecap="round" stroke-linejoin="round"/>
<path d="M95.4902 31.8897C95.4902 55.0937 112.826 85.0052 129.043 64.3391" stroke="#25434F" stroke-width="3.96755" stroke-linejoin="round"/>
<path d="M116.828 27.6956C116.828 50.8996 127.341 79.8232 145.997 62.5434" stroke="#25434F" stroke-width="3.96755" stroke-linejoin="round"/>
<path d="M138.39 32.3971C136.37 61.6467 156.365 76.631 160.48 52.1316" stroke="#25434F" stroke-width="3.96755" stroke-linecap="round" stroke-linejoin="round"/>
<path d="M72.3555 59.7766C76.171 60.9035 79.1894 61.1541 82.2601 65.4777C87.9846 72.3102 88.702 84.9001 99.0511 91.5207" stroke="#25434F" stroke-width="3.96755" stroke-linejoin="round"/>
<path d="M99.0509 91.4658C106.321 96.2798 109.284 104.842 98.1846 114.239" stroke="#25434F" stroke-width="3.96755" stroke-linejoin="round"/>
<path d="M121.729 81.5246C121.729 83.2412 120.293 84.664 118.482 84.664C116.672 84.664 115.235 83.2412 115.235 81.5246C115.235 79.808 116.672 78.3853 118.482 78.3853C120.293 78.3853 121.729 79.808 121.729 81.5246Z" fill="#25434F" stroke="#25434F" stroke-width="1.32252" stroke-linejoin="round"/>
<path d="M134.983 83.8988C135.237 84.5006 135.156 85.2296 134.712 85.9535C134.269 86.677 133.484 87.3504 132.446 87.7654C131.408 88.1804 130.363 88.2389 129.525 88.028C128.686 87.817 128.101 87.3545 127.846 86.7527C127.592 86.1509 127.673 85.4219 128.117 84.698C128.56 83.9745 129.345 83.3011 130.383 82.8861C131.421 82.4711 132.466 82.4126 133.304 82.6235C134.143 82.8345 134.728 83.297 134.983 83.8988Z" fill="#25434F" stroke="#25434F" stroke-width="1.32252" stroke-linejoin="round"/>
<path d="M144.042 75.6483C144.042 77.3649 142.606 78.7877 140.796 78.7877C138.985 78.7877 137.549 77.3649 137.549 75.6483C137.549 73.9317 138.985 72.5089 140.796 72.5089C142.606 72.5089 144.042 73.9317 144.042 75.6483Z" fill="#25434F" stroke="#25434F" stroke-width="1.32252" stroke-linejoin="round"/>
<path d="M126.357 99.9004C128.438 97.2871 134.497 92.6675 142.09 95.0953" stroke="#25434F" stroke-width="3.96755" stroke-linecap="round" stroke-linejoin="round"/>
<path d="M98.7661 113.857L86.4202 148.906H173.414L158.551 106.001C179.622 80.6199 164.973 42.2968 138.364 31.2628C127.993 26.9622 102.559 25.1783 88.9738 37.2432C56.0653 66.4682 76.5966 104.038 98.7661 113.857Z" stroke="#25434F" stroke-width="3.96755" stroke-linecap="round" stroke-linejoin="round"/>
</g>
<defs>
<filter id="filter0_d_1986_9973" x="0.462891" y="0.328125" width="516.537" height="159.387" filterUnits="userSpaceOnUse" color-interpolation-filters="sRGB">
<feFlood flood-opacity="0" result="BackgroundImageFix"/>
<feColorMatrix in="SourceAlpha" type="matrix" values="0 0 0 0 0 0 0 0 0 0 0 0 0 0 0 0 0 0 127 0" result="hardAlpha"/>
<feOffset dy="4"/>
<feGaussianBlur stdDeviation="2"/>
<feComposite in2="hardAlpha" operator="out"/>
<feColorMatrix type="matrix" values="0 0 0 0 0 0 0 0 0 0 0 0 0 0 0 0 0 0 0.25 0"/>
<feBlend mode="normal" in2="BackgroundImageFix" result="effect1_dropShadow_1986_9973"/>
<feBlend mode="normal" in="SourceGraphic" in2="effect1_dropShadow_1986_9973" result="shape"/>
</filter>
</defs>
</svg>
