<svg width="352" height="126" viewBox="0 0 352 126" fill="none" xmlns="http://www.w3.org/2000/svg">
<path d="M0.425781 19.2283C0.425781 8.73493 8.93237 0.228333 19.4258 0.228333H332.335C342.828 0.228333 351.335 8.73492 351.335 19.2283V106.6C351.335 117.094 342.828 125.6 332.335 125.6H19.4258C8.93237 125.6 0.425781 117.094 0.425781 106.6V19.2283Z" fill="#193946" fill-opacity="0.95"/>
<path d="M161.716 84.9048V104.135H175.156V106.475H159.166V84.9048H161.716ZM178.311 95.6148C178.311 93.9348 178.581 92.4048 179.121 91.0248C179.631 89.6748 180.351 88.5048 181.281 87.5148C182.181 86.5548 183.231 85.7748 184.461 85.2348C185.661 84.7248 186.981 84.4548 188.391 84.4548C189.771 84.4548 191.091 84.7248 192.321 85.2348C193.521 85.7748 194.601 86.5548 195.531 87.5148C196.431 88.5048 197.181 89.6748 197.721 91.0248C198.231 92.4048 198.501 93.9348 198.501 95.6148C198.501 97.2948 198.231 98.8248 197.721 100.175C197.181 101.555 196.431 102.725 195.531 103.685C194.601 104.675 193.521 105.425 192.321 105.965C191.091 106.475 189.771 106.745 188.391 106.745C186.981 106.745 185.661 106.475 184.461 105.965C183.231 105.425 182.181 104.675 181.281 103.685C180.351 102.725 179.631 101.555 179.121 100.175C178.581 98.8248 178.311 97.2948 178.311 95.6148ZM180.831 95.6148C180.831 96.9648 181.011 98.1648 181.401 99.2448C181.761 100.325 182.301 101.255 182.991 102.005C183.651 102.785 184.431 103.385 185.391 103.775C186.291 104.195 187.311 104.405 188.391 104.405C189.471 104.405 190.461 104.195 191.421 103.775C192.321 103.385 193.131 102.785 193.821 102.005C194.481 101.255 195.021 100.325 195.411 99.2448C195.771 98.1648 195.981 96.9648 195.981 95.6148C195.981 94.2948 195.771 93.0648 195.411 91.9548C195.021 90.8748 194.481 89.9748 193.821 89.1948C193.131 88.4448 192.321 87.8448 191.421 87.4248C190.461 87.0048 189.471 86.7948 188.391 86.7948C187.311 86.7948 186.291 87.0048 185.391 87.4248C184.431 87.8448 183.651 88.4448 182.991 89.1948C182.301 89.9748 181.761 90.8748 181.401 91.9548C181.011 93.0648 180.831 94.2948 180.831 95.6148ZM210.127 86.7948C209.587 86.7948 209.017 86.8248 208.387 86.8848C207.727 86.9448 207.097 87.0948 206.557 87.3348C205.957 87.5748 205.477 87.9348 205.117 88.4148C204.727 88.9248 204.547 89.5848 204.577 90.4248C204.577 91.2048 204.847 91.8048 205.357 92.2548C205.837 92.7348 206.437 93.0948 207.127 93.3348C207.787 93.6348 208.447 93.8148 209.137 93.9348C209.797 94.0848 210.337 94.2048 210.757 94.2648C212.887 94.6548 214.537 95.1048 215.737 95.6448C216.907 96.2148 217.777 96.8148 218.347 97.4148C218.887 98.0448 219.247 98.6748 219.367 99.2748C219.457 99.9048 219.517 100.475 219.517 100.955C219.517 101.975 219.247 102.845 218.767 103.565C218.227 104.315 217.567 104.915 216.757 105.365C215.917 105.845 214.957 106.205 213.907 106.445C212.827 106.655 211.717 106.775 210.607 106.775C209.347 106.775 208.177 106.625 207.067 106.325C205.927 105.995 204.907 105.515 204.067 104.855C203.197 104.225 202.507 103.415 201.997 102.395C201.457 101.405 201.187 100.235 201.187 98.8548L203.587 98.4348C203.647 99.5748 203.917 100.535 204.337 101.285C204.727 102.065 205.267 102.695 205.927 103.145C206.557 103.625 207.307 103.985 208.177 104.165C209.017 104.375 209.917 104.465 210.907 104.465C211.687 104.465 212.437 104.405 213.187 104.255C213.907 104.135 214.537 103.955 215.107 103.655C215.647 103.385 216.097 103.025 216.457 102.545C216.787 102.125 216.967 101.585 216.967 100.925C216.967 100.325 216.817 99.8148 216.547 99.3348C216.247 98.9148 215.827 98.4948 215.257 98.1348C214.657 97.8048 213.907 97.5048 213.007 97.2048C212.077 96.9648 210.997 96.7248 209.737 96.4848C208.897 96.3648 208.057 96.1548 207.157 95.8548C206.257 95.6148 205.417 95.2548 204.667 94.7748C203.887 94.3248 203.257 93.7548 202.777 93.0348C202.267 92.3448 201.997 91.5048 201.997 90.4848C201.967 89.6148 202.087 88.8648 202.327 88.2048C202.567 87.5748 202.897 87.0348 203.347 86.5548C203.767 86.1348 204.247 85.7748 204.817 85.4748C205.357 85.2348 205.927 85.0248 206.557 84.8448C207.157 84.6948 207.757 84.5748 208.387 84.5148C208.987 84.4848 209.587 84.4548 210.127 84.4548C212.137 84.4548 213.877 84.8448 215.377 85.5648C216.817 86.3448 218.107 87.6348 219.187 89.4348L217.117 90.7248C216.277 89.4348 215.317 88.4448 214.237 87.7848C213.127 87.1248 211.747 86.7948 210.127 86.7948ZM222.223 86.9448V84.6048H240.103V86.9448H232.423V106.475H229.873V86.9448H222.223ZM251.293 94.2048H275.113V96.5748H251.293V94.2048ZM270.793 100.475H253.033V98.1048H273.343V104.795H255.643V106.745H273.643V109.115H253.093V102.425H270.793V100.475ZM270.043 92.7048C270.253 91.8648 270.373 91.0548 270.433 90.2448C270.463 89.4648 270.493 88.5948 270.493 87.6948V86.3748H253.483V84.0048H273.043V86.5848C273.043 87.6948 273.013 88.7748 272.983 89.7948C272.923 90.8448 272.743 91.9248 272.503 93.0048L270.043 92.7048ZM287.365 98.8848C288.715 98.1648 289.795 97.3248 290.635 96.3348C291.445 95.3748 292.075 94.2948 292.555 93.0948C293.005 91.8948 293.335 90.6048 293.545 89.1648C293.725 87.7848 293.905 86.2548 294.025 84.6348L296.455 84.8148C296.395 86.3148 296.275 87.8448 296.095 89.3448C295.855 90.8748 295.495 92.3448 294.955 93.7248C295.855 94.5948 296.845 95.2848 297.955 95.8248C299.035 96.3948 300.175 96.8748 301.375 97.2648L300.475 99.4248C299.245 99.0648 298.105 98.6148 297.055 98.0148C295.975 97.4748 294.925 96.7548 293.905 95.9148C293.305 96.9948 292.555 97.9548 291.655 98.7948C290.755 99.6348 289.675 100.355 288.415 100.895L287.365 98.8848ZM278.305 105.635H302.125V108.005H278.305V105.635ZM287.815 84.8148C287.755 86.1948 287.665 87.4848 287.545 88.6248C287.395 89.7948 287.185 90.9048 286.885 91.9848C287.125 92.2248 287.395 92.4348 287.725 92.6748C288.025 92.9148 288.355 93.1548 288.715 93.3648C289.045 93.6048 289.375 93.8448 289.735 94.0248C290.035 94.2648 290.335 94.4448 290.605 94.5648L289.315 96.5148C288.865 96.3348 288.325 96.0048 287.725 95.5848C287.065 95.1648 286.495 94.7448 285.985 94.2948C285.385 95.4348 284.635 96.4548 283.705 97.3248C282.745 98.2248 281.545 99.0348 280.045 99.7248L278.905 97.7748C280.255 97.0548 281.335 96.2448 282.145 95.3448C282.925 94.5048 283.555 93.5448 284.005 92.4648C284.425 91.4148 284.755 90.2448 284.935 88.9248C285.085 87.6648 285.205 86.2248 285.325 84.6348L287.815 84.8148ZM327.697 83.5848V108.905H325.147V83.5848H327.697ZM320.197 88.2348C320.167 90.2748 319.807 92.2548 319.117 94.1448C318.397 96.0648 317.437 97.8048 316.267 99.3948C315.067 101.015 313.687 102.425 312.127 103.625C310.537 104.855 308.887 105.785 307.177 106.475L306.037 104.525C307.687 103.805 309.217 102.845 310.657 101.705C312.067 100.565 313.297 99.3048 314.347 97.8648C315.367 96.4548 316.177 94.9248 316.777 93.2748C317.347 91.6548 317.647 89.9748 317.647 88.2348V86.9748H306.277V84.6048H320.197V88.2348Z" fill="white"/>
<path d="M40.7467 93.5814L30.2694 123.116H104.096L91.4828 86.9618C109.364 65.5741 96.9326 33.2807 74.3511 23.9827C65.5498 20.3588 43.9658 18.8556 32.4365 29.0222C4.50883 53.649 21.9327 85.3074 40.7467 93.5814Z" fill="white" stroke="black" stroke-width="2" stroke-linecap="round" stroke-linejoin="round"/>
<path d="M56.3071 72.9843C54.5636 75.668 52.0081 81.2121 55.7336 81.9189C59.4592 82.6258 57.6682 76.257 56.3071 72.9843Z" fill="black" fill-opacity="0.2" stroke="black" stroke-width="5" stroke-linecap="round" stroke-linejoin="round"/>
<path d="M81.6068 67.6699C81.3508 70.8283 81.7489 76.8846 85.3891 75.8427C89.0293 74.8007 84.3843 69.96 81.6068 67.6699Z" fill="#D9D9D9" stroke="black" stroke-width="5" stroke-linecap="round" stroke-linejoin="round"/>
<path d="M23.916 39.5253C25.287 49.3019 36.3204 73.7336 51.3891 56.6733" stroke="black" stroke-width="3" stroke-linecap="round" stroke-linejoin="round"/>
<path d="M38.2285 24.5109C38.2285 44.064 52.9401 69.2693 66.7025 51.8547" stroke="black" stroke-width="3" stroke-linejoin="round"/>
<path d="M56.3379 20.9775C56.3379 40.5307 65.2594 64.9035 81.092 50.3424" stroke="black" stroke-width="3" stroke-linejoin="round"/>
<path d="M74.6349 24.942C72.9211 49.5895 89.8892 62.2163 93.3814 41.5716" stroke="black" stroke-width="3" stroke-linecap="round" stroke-linejoin="round"/>
<path d="M18.5957 48.0118C21.8337 48.9615 24.3953 49.1727 27.0013 52.816C31.8593 58.5735 32.4681 69.1825 41.2508 74.7614" stroke="black" stroke-width="3" stroke-linejoin="round"/>
<path d="M41.2489 74.7142C47.4183 78.7707 49.9328 85.986 40.5137 93.9041" stroke="black" stroke-width="3" stroke-linejoin="round"/>
<ellipse cx="57.7403" cy="66.3362" rx="3.31649" ry="3.20265" fill="black"/>
<ellipse cx="3.81875" cy="2.79226" rx="3.81875" ry="2.79226" transform="matrix(0.929402 -0.369069 0.391792 0.920054 64.0723 68.379)" fill="black"/>
<ellipse cx="76.6759" cy="61.3867" rx="3.31649" ry="3.20265" fill="black"/>
<path d="M64.4238 81.8228C66.1893 79.6206 71.3312 75.7279 77.7751 77.7737" stroke="black" stroke-width="3" stroke-linecap="round" stroke-linejoin="round"/>
<path d="M41.0084 93.5816L30.5311 123.117H104.358L91.7446 86.962C109.626 65.5744 97.1943 33.2809 74.6128 23.983C65.8116 20.359 44.2276 18.8558 32.6982 29.0224C4.77055 53.6493 22.1944 85.3076 41.0084 93.5816Z" stroke="black" stroke-width="3" stroke-linecap="round" stroke-linejoin="round"/>
</svg>
