<svg width="165" height="62" viewBox="0 0 165 62" fill="none" xmlns="http://www.w3.org/2000/svg">
<g filter="url(#filter0_d_2192_514)">
<path d="M2.1665 10.1066C2.1665 4.85993 6.4198 0.606628 11.6665 0.606628H152.731C157.977 0.606628 162.231 4.85992 162.231 10.1066V48.284C162.231 53.5307 157.977 57.784 152.731 57.784H11.6665C6.4198 57.784 2.1665 53.5307 2.1665 48.284V10.1066Z" fill="#193946" fill-opacity="0.95"/>
<path d="M66.7324 49.208H65.6699V40.0955H72.3324V41.0705H66.7324V44.083H72.3324V45.058H66.7324V49.208ZM73.6469 44.683C73.6469 43.983 73.7594 43.3455 73.9844 42.7705C74.1969 42.208 74.4969 41.7205 74.8844 41.308C75.2594 40.908 75.6969 40.583 76.2094 40.358C76.7094 40.1455 77.2594 40.033 77.8469 40.033C78.4219 40.033 78.9719 40.1455 79.4844 40.358C79.9844 40.583 80.4344 40.908 80.8219 41.308C81.1969 41.7205 81.5094 42.208 81.7344 42.7705C81.9469 43.3455 82.0594 43.983 82.0594 44.683C82.0594 45.383 81.9469 46.0205 81.7344 46.583C81.5094 47.158 81.1969 47.6455 80.8219 48.0455C80.4344 48.458 79.9844 48.7705 79.4844 48.9955C78.9719 49.208 78.4219 49.3205 77.8469 49.3205C77.2594 49.3205 76.7094 49.208 76.2094 48.9955C75.6969 48.7705 75.2594 48.458 74.8844 48.0455C74.4969 47.6455 74.1969 47.158 73.9844 46.583C73.7594 46.0205 73.6469 45.383 73.6469 44.683ZM74.6969 44.683C74.6969 45.2455 74.7719 45.7455 74.9344 46.1955C75.0844 46.6455 75.3094 47.033 75.5969 47.3455C75.8719 47.6705 76.1969 47.9205 76.5969 48.083C76.9719 48.258 77.3969 48.3455 77.8469 48.3455C78.2969 48.3455 78.7094 48.258 79.1094 48.083C79.4844 47.9205 79.8219 47.6705 80.1094 47.3455C80.3844 47.033 80.6094 46.6455 80.7719 46.1955C80.9219 45.7455 81.0094 45.2455 81.0094 44.683C81.0094 44.133 80.9219 43.6205 80.7719 43.158C80.6094 42.708 80.3844 42.333 80.1094 42.008C79.8219 41.6955 79.4844 41.4455 79.1094 41.2705C78.7094 41.0955 78.2969 41.008 77.8469 41.008C77.3969 41.008 76.9719 41.0955 76.5969 41.2705C76.1969 41.4455 75.8719 41.6955 75.5969 42.008C75.3094 42.333 75.0844 42.708 74.9344 43.158C74.7719 43.6205 74.6969 44.133 74.6969 44.683ZM84.6035 40.158V45.3455C84.6035 45.9205 84.666 46.408 84.816 46.783C84.9535 47.183 85.141 47.483 85.3785 47.708C85.6035 47.9455 85.8785 48.108 86.191 48.1955C86.491 48.2955 86.816 48.3455 87.1535 48.3455C87.5285 48.3455 87.8785 48.2955 88.2035 48.183C88.516 48.083 88.791 47.908 89.016 47.658C89.241 47.433 89.416 47.1205 89.541 46.733C89.666 46.358 89.7285 45.8955 89.7285 45.3455V40.158H90.7785V45.458C90.7785 46.2455 90.666 46.883 90.441 47.383C90.216 47.883 89.9285 48.283 89.5785 48.558C89.2285 48.858 88.8285 49.0455 88.4035 49.1705C87.966 49.2705 87.541 49.333 87.141 49.333C86.6035 49.333 86.116 49.258 85.6785 49.1205C85.2285 48.9705 84.8535 48.733 84.5535 48.408C84.2285 48.0955 83.991 47.683 83.816 47.158C83.641 46.658 83.5535 46.033 83.5535 45.283V40.158H84.6035ZM93.6001 49.2205H92.5376V40.158H93.4376L98.5376 47.333V40.158H99.6001V49.2205H98.6751L93.6001 42.0455V49.2205ZM103.627 48.2205C104.439 48.2205 105.114 48.1455 105.652 47.9705C106.177 47.808 106.602 47.5705 106.927 47.258C107.239 46.958 107.464 46.5955 107.589 46.1455C107.714 45.708 107.777 45.208 107.777 44.658C107.777 44.108 107.714 43.6205 107.589 43.1705C107.464 42.733 107.239 42.358 106.927 42.0455C106.602 41.7455 106.177 41.508 105.652 41.333C105.114 41.1705 104.439 41.083 103.627 41.083H102.389V48.2205H103.627ZM101.327 40.0955H103.702C104.677 40.0955 105.502 40.208 106.177 40.433C106.827 40.6705 107.352 40.9955 107.752 41.3955C108.139 41.808 108.414 42.283 108.589 42.833C108.752 43.3955 108.839 44.008 108.839 44.658C108.839 45.3205 108.752 45.9205 108.589 46.4705C108.414 47.033 108.139 47.508 107.752 47.908C107.352 48.3205 106.827 48.6455 106.177 48.8705C105.502 49.0955 104.677 49.208 103.702 49.208H101.327V40.0955ZM113.59 44.0955H123.515V45.083H113.59V44.0955ZM121.715 46.708H114.315V45.7205H122.777V48.508H115.402V49.3205H122.902V50.308H114.34V47.5205H121.715V46.708ZM121.402 43.4705C121.49 43.1205 121.54 42.783 121.565 42.4455C121.577 42.1205 121.59 41.758 121.59 41.383V40.833H114.502V39.8455H122.652V40.9205C122.652 41.383 122.64 41.833 122.627 42.258C122.602 42.6955 122.527 43.1455 122.427 43.5955L121.402 43.4705ZM128.62 46.0455C129.182 45.7455 129.632 45.3955 129.982 44.983C130.32 44.583 130.582 44.133 130.782 43.633C130.97 43.133 131.107 42.5955 131.195 41.9955C131.27 41.4205 131.345 40.783 131.395 40.108L132.407 40.183C132.382 40.808 132.332 41.4455 132.257 42.0705C132.157 42.708 132.007 43.3205 131.782 43.8955C132.157 44.258 132.57 44.5455 133.032 44.7705C133.482 45.008 133.957 45.208 134.457 45.3705L134.082 46.2705C133.57 46.1205 133.095 45.933 132.657 45.683C132.207 45.458 131.77 45.158 131.345 44.808C131.095 45.258 130.782 45.658 130.407 46.008C130.032 46.358 129.582 46.658 129.057 46.883L128.62 46.0455ZM124.845 48.858H134.77V49.8455H124.845V48.858ZM128.807 40.183C128.782 40.758 128.745 41.2955 128.695 41.7705C128.632 42.258 128.545 42.7205 128.42 43.1705C128.52 43.2705 128.632 43.358 128.77 43.458C128.895 43.558 129.032 43.658 129.182 43.7455C129.32 43.8455 129.457 43.9455 129.607 44.0205C129.732 44.1205 129.857 44.1955 129.97 44.2455L129.432 45.058C129.245 44.983 129.02 44.8455 128.77 44.6705C128.495 44.4955 128.257 44.3205 128.045 44.133C127.795 44.608 127.482 45.033 127.095 45.3955C126.695 45.7705 126.195 46.108 125.57 46.3955L125.095 45.583C125.657 45.283 126.107 44.9455 126.445 44.5705C126.77 44.2205 127.032 43.8205 127.22 43.3705C127.395 42.933 127.532 42.4455 127.607 41.8955C127.67 41.3705 127.72 40.7705 127.77 40.108L128.807 40.183ZM145.425 39.6705V50.2205H144.362V39.6705H145.425ZM142.3 41.608C142.287 42.458 142.137 43.283 141.85 44.0705C141.55 44.8705 141.15 45.5955 140.662 46.258C140.162 46.933 139.587 47.5205 138.937 48.0205C138.275 48.533 137.587 48.9205 136.875 49.208L136.4 48.3955C137.087 48.0955 137.725 47.6955 138.325 47.2205C138.912 46.7455 139.425 46.2205 139.862 45.6205C140.287 45.033 140.625 44.3955 140.875 43.708C141.112 43.033 141.237 42.333 141.237 41.608V41.083H136.5V40.0955H142.3V41.608Z" fill="white"/>
<path d="M22.0805 43.237L17.268 56.7691H51.1787L45.3851 40.2041C53.5986 30.405 47.8883 15.6091 37.516 11.3491C33.4733 9.68868 23.5592 8.99995 18.2634 13.658C5.43545 24.9412 13.4387 39.4462 22.0805 43.237Z" fill="white" stroke="#23414D" stroke-width="1.5" stroke-linecap="round" stroke-linejoin="round"/>
<path d="M39.3237 34.6907C38.5128 35.6997 36.151 37.4832 33.1911 36.5459" stroke="#23414D" stroke-width="1.5" stroke-linecap="round" stroke-linejoin="round"/>
<path d="M14.5195 18.3507C15.1493 22.83 20.2808 34.2416 27.2023 26.4251" stroke="#23414D" stroke-width="1.5" stroke-linejoin="round"/>
<path d="M21.1587 11.6893C21.1587 20.6479 27.9161 32.1962 34.2376 24.2174" stroke="#23414D" stroke-width="1.5" stroke-linejoin="round"/>
<path d="M29.4771 10.0705C29.4771 19.0292 33.575 30.196 40.8473 23.5246" stroke="#23414D" stroke-width="1.5" stroke-linejoin="round"/>
<path d="M37.857 10.7932C37.0622 22.3571 44.7812 28.848 46.4008 19.1621" stroke="#23414D" stroke-width="1.5" stroke-linejoin="round"/>
<path d="M11.79 22.2802C13.1384 22.7859 14.8046 22.9886 16.0016 24.6579C18.233 27.2958 18.5127 32.1565 22.5468 34.7126" stroke="#23414D" stroke-width="1.5" stroke-linejoin="round"/>
<path d="M22.48 34.6816C25.8262 36.5899 26.961 39.9159 21.8521 43.6408" stroke="#23414D" stroke-width="1.5" stroke-linejoin="round"/>
<path d="M22.3154 43.2136L17.5029 56.7456H51.4136L45.62 40.1807C53.8335 30.3815 48.1232 15.5857 37.7509 11.3256C33.7082 9.66525 23.794 8.97651 18.4983 13.6346C5.67031 24.9178 13.6736 39.4227 22.3154 43.2136Z" stroke="#23414D" stroke-width="1.5" stroke-linecap="round" stroke-linejoin="round"/>
<path d="M31.471 31.9641C31.471 32.6277 30.9098 33.1815 30.1977 33.1815C29.4855 33.1815 28.9243 32.6277 28.9243 31.9641C28.9243 31.3005 29.4855 30.7468 30.1977 30.7468C30.9098 30.7468 31.471 31.3005 31.471 31.9641Z" fill="#23414D" stroke="#23414D" stroke-width="0.5"/>
<path d="M36.5598 31.7659C36.6596 31.9996 36.6277 32.2828 36.4538 32.5638C36.28 32.8447 35.9726 33.1058 35.5664 33.2667C35.1602 33.4276 34.7509 33.4503 34.4223 33.3685C34.0935 33.2866 33.864 33.107 33.7642 32.8733C33.6645 32.6395 33.6964 32.3564 33.8703 32.0753C34.044 31.7945 34.3515 31.5334 34.7577 31.3725C35.1639 31.2116 35.5731 31.1888 35.9017 31.2707C36.2305 31.3526 36.46 31.5322 36.5598 31.7659Z" fill="#23414D" stroke="#23414D" stroke-width="0.5"/>
<path d="M40.5975 28.6526C40.5975 29.3162 40.0363 29.87 39.3241 29.87C38.612 29.87 38.0508 29.3162 38.0508 28.6526C38.0508 27.989 38.612 27.4352 39.3241 27.4352C40.0363 27.4352 40.5975 27.989 40.5975 28.6526Z" fill="#23414D" stroke="#23414D" stroke-width="0.5"/>
<path fill-rule="evenodd" clip-rule="evenodd" d="M45.6731 34.2556C42.7863 36.4313 38.6021 36.2589 35.919 33.7164C33.0021 30.9525 32.9636 26.4341 35.833 23.6245C38.7025 20.8148 43.3933 20.7777 46.3102 23.5417C48.4865 25.6039 49.0605 28.6428 48.0198 31.2199C48.0715 31.2448 48.1227 31.2721 48.1731 31.3018L53.7546 34.5889C55.0219 35.3352 55.3901 36.9903 54.562 38.171C53.7273 39.3613 52.0218 39.5794 50.8836 38.6312L45.9099 34.488C45.8236 34.4161 45.7446 34.3383 45.6731 34.2556ZM38.1342 31.5473C36.461 29.9618 36.439 27.37 38.0849 25.7583C39.7309 24.1466 42.4217 24.1253 44.0949 25.7108C45.7681 27.2963 45.7902 29.8881 44.1442 31.4998C42.4982 33.1115 39.8075 33.1328 38.1342 31.5473Z" fill="#7ACAD6"/>
<path d="M45.6731 34.2556L46.2423 33.776C45.9797 33.4723 45.5262 33.421 45.21 33.6593L45.6731 34.2556ZM35.919 33.7164L35.4024 34.2512L35.4024 34.2512L35.919 33.7164ZM35.833 23.6245L36.3678 24.1591L35.833 23.6245ZM46.3102 23.5417L45.7936 24.0764L46.3102 23.5417ZM48.0198 31.2199L47.3191 30.9331C47.1721 31.2972 47.3387 31.7164 47.6995 31.8899L48.0198 31.2199ZM48.1731 31.3018L48.5506 30.6623L48.5506 30.6623L48.1731 31.3018ZM53.7546 34.5889L53.3772 35.2284L53.7546 34.5889ZM54.562 38.171L53.9403 37.7387L54.562 38.171ZM50.8836 38.6312L51.3634 38.0638L51.3634 38.0638L50.8836 38.6312ZM45.9099 34.488L45.4301 35.0555L45.4301 35.0555L45.9099 34.488ZM38.0849 25.7583L38.6197 26.293L38.0849 25.7583ZM38.1342 31.5473L38.6508 31.0126L38.6508 31.0126L38.1342 31.5473ZM44.0949 25.7108L43.5783 26.2455L44.0949 25.7108ZM44.1442 31.4998L44.679 32.0345L44.679 32.0345L44.1442 31.4998ZM45.21 33.6593C42.6039 35.6234 38.8367 35.4569 36.4356 33.1817L35.4024 34.2512C38.3676 37.0609 42.9687 37.2392 46.1362 34.852L45.21 33.6593ZM36.4356 33.1817C33.8365 30.7189 33.789 26.6843 36.3678 24.1591L35.2983 23.0898C32.1382 26.184 32.1676 31.186 35.4024 34.2512L36.4356 33.1817ZM36.3678 24.1591C38.9573 21.6236 43.1822 21.6019 45.7936 24.0764L46.8268 23.0069C43.6044 19.9535 38.4477 20.006 35.2983 23.0898L36.3678 24.1591ZM45.7936 24.0764C47.7355 25.9165 48.2504 28.6267 47.3191 30.9331L48.7205 31.5068C49.8705 28.6589 49.2376 25.2913 46.8268 23.0069L45.7936 24.0764ZM47.6995 31.8899C47.7318 31.9054 47.7639 31.9225 47.7957 31.9413L48.5506 30.6623C48.4815 30.6216 48.4113 30.5842 48.3401 30.55L47.6995 31.8899ZM47.7957 31.9413L53.3772 35.2284L54.1321 33.9494L48.5506 30.6623L47.7957 31.9413ZM53.3772 35.2284C54.2601 35.7483 54.5227 36.9083 53.9403 37.7387L55.1837 38.6033C56.2575 37.0722 55.7836 34.922 54.1321 33.9494L53.3772 35.2284ZM53.9403 37.7387C53.3533 38.5759 52.1564 38.7244 51.3634 38.0638L50.4038 39.1987C51.8872 40.4345 54.1013 40.1468 55.1837 38.6033L53.9403 37.7387ZM51.3634 38.0638L46.3898 33.9206L45.4301 35.0555L50.4038 39.1987L51.3634 38.0638ZM46.3898 33.9206C46.3358 33.8757 46.2867 33.8273 46.2423 33.776L45.1038 34.7353C45.2025 34.8493 45.3114 34.9566 45.4301 35.0555L46.3898 33.9206ZM37.5502 25.2236C35.6136 27.1198 35.6265 30.1953 37.6176 32.082L38.6508 31.0126C37.2955 29.7283 37.2643 27.6201 38.6197 26.293L37.5502 25.2236ZM44.6115 25.1761C42.6328 23.3011 39.4761 23.3378 37.5502 25.2236L38.6197 26.293C39.9858 24.9554 42.2106 24.9495 43.5783 26.2455L44.6115 25.1761ZM44.679 32.0345C46.6155 30.1383 46.6026 27.0628 44.6115 25.1761L43.5783 26.2455C44.9336 27.5298 44.9648 29.638 43.6094 30.9651L44.679 32.0345ZM37.6176 32.082C39.5963 33.957 42.753 33.9203 44.679 32.0345L43.6094 30.9651C42.2434 32.3027 40.0186 32.3086 38.6508 31.0126L37.6176 32.082Z" fill="#23414D"/>
</g>
<path d="M68.3549 31.9457H65.2949V31.5507H68.7799V33.0757H65.7299V33.8257H68.8599V34.2207H67.2549V35.0557H69.0299V35.4507H65.0599V35.0557H66.8299V34.2207H65.3049V32.6807H68.3549V31.9457ZM69.4619 35.0557H73.4319V35.4507H69.4619V35.0557ZM72.4619 34.4107C72.4919 34.2607 72.5219 34.0957 72.5519 33.9157L72.6119 33.3707C72.6269 33.1857 72.6419 33.0007 72.6519 32.8107C72.6569 32.6307 72.6619 32.4557 72.6619 32.2857V31.9657H69.8269V31.5707H73.0869V32.1007C73.0869 32.5057 73.0719 32.9007 73.0419 33.2857C73.0119 33.6757 72.9569 34.0707 72.8769 34.4607L72.4619 34.4107ZM77.5938 31.3807V34.5007H77.1688V31.3807H77.5938ZM77.6938 35.2407V35.6357H74.3388V34.1607H74.7638V35.2407H77.6938ZM73.9488 32.6207C73.9488 32.4457 73.9788 32.2857 74.0438 32.1357C74.1038 31.9907 74.1888 31.8657 74.2988 31.7557C74.4038 31.6557 74.5288 31.5707 74.6788 31.5107C74.8188 31.4557 74.9738 31.4257 75.1388 31.4257C75.2988 31.4257 75.4538 31.4557 75.6038 31.5107C75.7488 31.5707 75.8788 31.6557 75.9888 31.7557C76.0938 31.8657 76.1788 31.9907 76.2438 32.1357C76.3038 32.2857 76.3388 32.4457 76.3388 32.6207C76.3388 32.8007 76.3038 32.9607 76.2438 33.1057C76.1788 33.2557 76.0938 33.3807 75.9888 33.4807C75.8788 33.5907 75.7488 33.6707 75.6038 33.7257C75.4538 33.7857 75.2988 33.8157 75.1388 33.8157C74.9738 33.8157 74.8188 33.7857 74.6788 33.7257C74.5288 33.6707 74.4038 33.5907 74.2988 33.4807C74.1888 33.3807 74.1038 33.2557 74.0438 33.1057C73.9788 32.9607 73.9488 32.8007 73.9488 32.6207ZM74.3638 32.6207C74.3638 32.7507 74.3838 32.8607 74.4288 32.9557C74.4688 33.0557 74.5238 33.1407 74.5938 33.2107C74.6638 33.2807 74.7438 33.3357 74.8388 33.3707C74.9288 33.4107 75.0288 33.4257 75.1388 33.4257C75.2438 33.4257 75.3438 33.4107 75.4438 33.3707C75.5338 33.3357 75.6188 33.2807 75.6938 33.2107C75.7638 33.1407 75.8188 33.0557 75.8638 32.9557C75.9038 32.8607 75.9238 32.7507 75.9238 32.6207C75.9238 32.5007 75.9038 32.3857 75.8638 32.2857C75.8188 32.1857 75.7638 32.1007 75.6938 32.0307C75.6188 31.9607 75.5338 31.9107 75.4438 31.8707C75.3438 31.8357 75.2438 31.8157 75.1388 31.8157C75.0288 31.8157 74.9288 31.8357 74.8388 31.8707C74.7438 31.9107 74.6638 31.9607 74.5938 32.0307C74.5238 32.1007 74.4688 32.1857 74.4288 32.2857C74.3838 32.3857 74.3638 32.5007 74.3638 32.6207ZM82.0224 32.6457C81.9974 32.7857 81.9524 32.9057 81.8874 33.0107C81.8174 33.1207 81.7274 33.2107 81.6274 33.2807C81.5224 33.3607 81.4024 33.4157 81.2724 33.4507C81.1324 33.4907 80.9874 33.5107 80.8324 33.5107C80.6624 33.5107 80.5024 33.4907 80.3624 33.4407C80.2124 33.3957 80.0874 33.3257 79.9824 33.2357C79.8724 33.1457 79.7924 33.0357 79.7324 32.9057C79.6724 32.7807 79.6424 32.6357 79.6424 32.4657C79.6424 32.3057 79.6724 32.1557 79.7324 32.0257C79.7924 31.9007 79.8724 31.7907 79.9824 31.7007C80.0874 31.6107 80.2124 31.5457 80.3624 31.4957C80.5024 31.4507 80.6624 31.4257 80.8324 31.4257C81.1424 31.4257 81.4074 31.5007 81.6224 31.6407C81.8324 31.7907 81.9624 31.9907 82.0174 32.2507H82.8624V31.3807H83.2874V33.5007H82.8624V32.6457H82.0224ZM80.4124 33.7757V34.3157H81.2274V33.7757H81.6474V35.6357H79.9924V33.7757H80.4124ZM80.0574 32.4657C80.0574 32.5857 80.0774 32.6857 80.1274 32.7657C80.1724 32.8507 80.2324 32.9207 80.3074 32.9707C80.3774 33.0257 80.4624 33.0657 80.5574 33.0857C80.6474 33.1107 80.7374 33.1207 80.8324 33.1207C80.9224 33.1207 81.0174 33.1107 81.1174 33.0857C81.2074 33.0657 81.2924 33.0257 81.3724 32.9707C81.4424 32.9207 81.5024 32.8507 81.5524 32.7657C81.5974 32.6857 81.6224 32.5857 81.6224 32.4657C81.6224 32.3507 81.5974 32.2507 81.5524 32.1657C81.5024 32.0857 81.4424 32.0157 81.3724 31.9607C81.2924 31.9107 81.2074 31.8757 81.1174 31.8507C81.0174 31.8307 80.9224 31.8157 80.8324 31.8157C80.7374 31.8157 80.6474 31.8307 80.5574 31.8507C80.4624 31.8757 80.3774 31.9107 80.3074 31.9607C80.2324 32.0157 80.1724 32.0857 80.1274 32.1657C80.0774 32.2507 80.0574 32.3507 80.0574 32.4657ZM83.0174 33.8057C83.0074 34.1557 82.9624 34.4507 82.8774 34.6907C82.9274 34.7607 82.9874 34.8257 83.0574 34.8857C83.1274 34.9507 83.2024 35.0107 83.2824 35.0657C83.3574 35.1207 83.4324 35.1757 83.5124 35.2257C83.5874 35.2707 83.6574 35.3157 83.7274 35.3557L83.5124 35.6807C83.4524 35.6507 83.3874 35.6107 83.3174 35.5707C83.2424 35.5207 83.1724 35.4757 83.1024 35.4257C83.0274 35.3707 82.9574 35.3157 82.8924 35.2557C82.8224 35.1957 82.7574 35.1307 82.6974 35.0657C82.6074 35.2057 82.4974 35.3257 82.3724 35.4257C82.2424 35.5257 82.0974 35.6107 81.9374 35.6807L81.7424 35.3507C81.8724 35.2957 81.9924 35.2257 82.1024 35.1407C82.2024 35.0557 82.2924 34.9507 82.3674 34.8207C82.4374 34.6957 82.4974 34.5457 82.5424 34.3707C82.5824 34.2007 82.6024 34.0007 82.6074 33.7707L83.0174 33.8057ZM81.2274 34.7107H80.4124V35.2507H81.2274V34.7107ZM87.6893 31.3807V35.6007H87.2643V31.3807H87.6893ZM83.9943 33.3257C83.9943 33.0457 84.0193 32.7857 84.0743 32.5557C84.1243 32.3307 84.2043 32.1357 84.3143 31.9757C84.4193 31.8157 84.5493 31.6957 84.7093 31.6057C84.8643 31.5207 85.0493 31.4757 85.2593 31.4757C85.4693 31.4757 85.6493 31.5207 85.8093 31.6057C85.9643 31.6957 86.0943 31.8157 86.2043 31.9757C86.3093 32.1357 86.3893 32.3307 86.4443 32.5557C86.4943 32.7857 86.5243 33.0457 86.5243 33.3257C86.5243 33.6157 86.4943 33.8707 86.4443 34.0957C86.3893 34.3257 86.3093 34.5157 86.2043 34.6757C86.0943 34.8357 85.9643 34.9607 85.8093 35.0407C85.6493 35.1257 85.4693 35.1707 85.2593 35.1707C85.0493 35.1707 84.8643 35.1257 84.7093 35.0407C84.5493 34.9607 84.4193 34.8357 84.3143 34.6757C84.2043 34.5157 84.1243 34.3257 84.0743 34.0957C84.0193 33.8707 83.9943 33.6157 83.9943 33.3257ZM84.4193 33.3257C84.4193 33.7807 84.4893 34.1357 84.6293 34.3857C84.7693 34.6457 84.9793 34.7707 85.2593 34.7707C85.5393 34.7707 85.7493 34.6457 85.8893 34.3857C86.0293 34.1357 86.0993 33.7807 86.0993 33.3257C86.0993 32.8757 86.0293 32.5207 85.8893 32.2607C85.7493 32.0057 85.5393 31.8757 85.2593 31.8757C84.9793 31.8757 84.7693 32.0057 84.6293 32.2607C84.4893 32.5207 84.4193 32.8757 84.4193 33.3257ZM90.1879 31.5757V32.9957H91.7079V31.5757H92.1329V35.1057H89.7629V31.5757H90.1879ZM93.2329 31.3807V33.1257H93.8229V33.5207H93.2329V35.6007H92.8079V31.3807H93.2329ZM91.7079 33.3907H90.1879V34.7107H91.7079V33.3907ZM97.3498 31.9457H94.2898V31.5507H97.7748V33.0757H94.7248V33.8257H97.8548V34.2207H96.2498V35.0557H98.0248V35.4507H94.0548V35.0557H95.8248V34.2207H94.2998V32.6807H97.3498V31.9457ZM101.378 31.8457C101.348 31.9707 101.318 32.0907 101.288 32.2007C101.253 32.3207 101.213 32.4307 101.168 32.5407C101.233 32.6407 101.313 32.7307 101.413 32.8207C101.503 32.9157 101.603 33.0007 101.708 33.0807C101.808 33.1607 101.908 33.2357 102.013 33.3007C102.113 33.3707 102.203 33.4307 102.283 33.4757L102.073 33.8057C101.998 33.7707 101.913 33.7207 101.823 33.6607C101.723 33.6007 101.628 33.5357 101.528 33.4557C101.428 33.3807 101.328 33.2957 101.233 33.2057C101.133 33.1207 101.048 33.0307 100.968 32.9307C100.848 33.1207 100.708 33.2957 100.543 33.4507C100.373 33.6107 100.178 33.7507 99.9484 33.8757L99.7534 33.5607C100.073 33.3707 100.333 33.1357 100.533 32.8457C100.723 32.5657 100.863 32.2307 100.948 31.8457H99.8234V31.4507H102.258V31.8457H101.378ZM100.223 34.5057V34.1107H103.328V35.6357H102.903V34.5057H100.223ZM103.328 31.3807V32.4257H103.918V32.8207H103.328V33.8507H102.903V31.3807H103.328ZM106.26 35.6857C106.035 35.6857 105.825 35.6707 105.635 35.6407C105.435 35.6107 105.265 35.5607 105.125 35.5007C104.975 35.4307 104.86 35.3507 104.78 35.2507C104.69 35.1457 104.65 35.0257 104.65 34.8807C104.65 34.7407 104.69 34.6157 104.78 34.5107C104.86 34.4107 104.975 34.3307 105.125 34.2657C105.265 34.2057 105.435 34.1557 105.635 34.1257C105.825 34.0957 106.035 34.0807 106.26 34.0807C106.48 34.0807 106.69 34.0957 106.89 34.1257C107.08 34.1557 107.25 34.2057 107.4 34.2657C107.54 34.3307 107.655 34.4107 107.745 34.5107C107.825 34.6157 107.87 34.7407 107.87 34.8807C107.87 35.0257 107.825 35.1457 107.745 35.2507C107.655 35.3507 107.54 35.4307 107.4 35.5007C107.25 35.5607 107.08 35.6107 106.89 35.6407C106.69 35.6707 106.48 35.6857 106.26 35.6857ZM104.105 33.5207C104.27 33.4107 104.425 33.2807 104.57 33.1407C104.71 33.0007 104.84 32.8457 104.955 32.6757C105.065 32.5057 105.155 32.3207 105.235 32.1157C105.305 31.9157 105.36 31.7007 105.39 31.4607L105.795 31.5507C105.765 31.7207 105.73 31.8807 105.69 32.0307C105.64 32.1857 105.59 32.3307 105.53 32.4707C105.59 32.5707 105.665 32.6707 105.76 32.7657C105.85 32.8657 105.945 32.9557 106.055 33.0407C106.155 33.1307 106.265 33.2107 106.375 33.2807C106.485 33.3557 106.585 33.4157 106.68 33.4657L106.47 33.7957C106.38 33.7557 106.29 33.7057 106.19 33.6407C106.09 33.5807 105.985 33.5057 105.885 33.4207C105.78 33.3407 105.68 33.2557 105.585 33.1557C105.485 33.0657 105.395 32.9657 105.32 32.8657C105.19 33.0657 105.045 33.2457 104.875 33.4057C104.7 33.5657 104.51 33.7107 104.3 33.8357L104.105 33.5207ZM106.26 34.4607C106.14 34.4607 106.015 34.4657 105.885 34.4757C105.75 34.4857 105.625 34.5057 105.51 34.5357C105.39 34.5657 105.295 34.6107 105.22 34.6607C105.14 34.7207 105.105 34.7907 105.105 34.8807C105.105 34.9707 105.14 35.0457 105.22 35.1007C105.295 35.1507 105.39 35.1957 105.51 35.2257C105.625 35.2557 105.75 35.2757 105.885 35.2857C106.015 35.2957 106.14 35.3007 106.26 35.3007C106.37 35.3007 106.495 35.2957 106.635 35.2857C106.765 35.2757 106.89 35.2557 107.01 35.2257C107.125 35.1957 107.22 35.1507 107.3 35.1007C107.375 35.0457 107.415 34.9707 107.415 34.8807C107.415 34.7907 107.375 34.7207 107.3 34.6607C107.22 34.6107 107.125 34.5657 107.01 34.5357C106.89 34.5057 106.765 34.4857 106.635 34.4757C106.495 34.4657 106.37 34.4607 106.26 34.4607ZM106.34 32.6807V32.2857H107.455V31.3807H107.88V33.8507H107.455V32.6807H106.34ZM112.999 34.2457H110.319V33.8507H113.424V34.9407H110.744V35.2407H113.474V35.6357H110.319V34.5457H112.999V34.2457ZM110.044 32.8957C110.044 32.7757 110.069 32.6657 110.129 32.5657C110.179 32.4757 110.259 32.3957 110.359 32.3257C110.459 32.2657 110.579 32.2157 110.719 32.1807C110.859 32.1507 111.014 32.1357 111.184 32.1357C111.354 32.1357 111.514 32.1507 111.659 32.1807C111.799 32.2157 111.919 32.2657 112.024 32.3257C112.124 32.3957 112.199 32.4757 112.259 32.5657C112.309 32.6657 112.339 32.7757 112.339 32.8957C112.339 33.0257 112.309 33.1357 112.259 33.2257C112.199 33.3257 112.124 33.4057 112.024 33.4657C111.919 33.5357 111.799 33.5807 111.659 33.6107C111.514 33.6457 111.354 33.6607 111.184 33.6607C111.014 33.6607 110.859 33.6457 110.719 33.6107C110.579 33.5807 110.459 33.5357 110.359 33.4657C110.259 33.4057 110.179 33.3257 110.129 33.2257C110.069 33.1357 110.044 33.0257 110.044 32.8957ZM113.424 31.3807V32.2257H114.014V32.6207H113.424V33.6007H112.999V31.3807H113.424ZM109.919 31.6007H110.969V31.2007H111.394V31.6007H112.454V31.9957H109.919V31.6007ZM110.459 32.8957C110.459 32.9657 110.479 33.0257 110.519 33.0757C110.559 33.1257 110.614 33.1657 110.684 33.1957C110.749 33.2257 110.824 33.2507 110.914 33.2607C110.999 33.2807 111.089 33.2857 111.184 33.2857C111.274 33.2857 111.369 33.2807 111.459 33.2607C111.549 33.2507 111.629 33.2257 111.699 33.1957C111.764 33.1657 111.819 33.1257 111.864 33.0757C111.904 33.0257 111.924 32.9657 111.924 32.8957C111.924 32.8257 111.904 32.7657 111.864 32.7157C111.819 32.6707 111.764 32.6307 111.699 32.6007C111.629 32.5707 111.549 32.5507 111.459 32.5307C111.369 32.5207 111.274 32.5107 111.184 32.5107C111.089 32.5107 110.999 32.5207 110.914 32.5307C110.824 32.5507 110.749 32.5707 110.684 32.6007C110.614 32.6307 110.559 32.6707 110.519 32.7157C110.479 32.7657 110.459 32.8257 110.459 32.8957ZM117.307 34.3207H115.537V33.9257H119.507V34.3207H117.732V35.6307H117.307V34.3207ZM117.967 31.5307C117.927 31.6757 117.887 31.8107 117.837 31.9357C117.787 32.0657 117.727 32.1857 117.662 32.2957C117.872 32.5457 118.112 32.7457 118.382 32.8907C118.647 33.0407 118.937 33.1607 119.252 33.2457L119.122 33.6107C118.807 33.5407 118.502 33.4207 118.207 33.2607C117.907 33.1057 117.647 32.9007 117.417 32.6507C117.227 32.8807 117.002 33.0757 116.752 33.2307C116.497 33.3907 116.212 33.5257 115.902 33.6257L115.782 33.2607C116.012 33.1707 116.222 33.0757 116.412 32.9657C116.592 32.8657 116.757 32.7407 116.907 32.5957C117.047 32.4557 117.177 32.2857 117.287 32.0907C117.397 31.9007 117.492 31.6757 117.572 31.4107L117.967 31.5307ZM121.316 32.6207C121.316 32.4457 121.346 32.2857 121.411 32.1357C121.471 31.9907 121.556 31.8657 121.666 31.7557C121.771 31.6557 121.896 31.5707 122.046 31.5107C122.186 31.4557 122.341 31.4257 122.506 31.4257C122.666 31.4257 122.821 31.4557 122.971 31.5107C123.116 31.5707 123.246 31.6557 123.356 31.7557C123.461 31.8657 123.546 31.9907 123.611 32.1357C123.671 32.2857 123.706 32.4457 123.706 32.6207C123.706 32.8007 123.671 32.9607 123.611 33.1057C123.546 33.2557 123.461 33.3807 123.356 33.4807C123.246 33.5907 123.116 33.6707 122.971 33.7257C122.821 33.7857 122.666 33.8157 122.506 33.8157C122.341 33.8157 122.186 33.7857 122.046 33.7257C121.896 33.6707 121.771 33.5907 121.666 33.4807C121.556 33.3807 121.471 33.2557 121.411 33.1057C121.346 32.9607 121.316 32.8007 121.316 32.6207ZM121.731 32.6207C121.731 32.7507 121.751 32.8607 121.796 32.9557C121.836 33.0557 121.891 33.1407 121.961 33.2107C122.031 33.2807 122.111 33.3357 122.206 33.3707C122.296 33.4107 122.396 33.4257 122.506 33.4257C122.611 33.4257 122.711 33.4107 122.811 33.3707C122.901 33.3357 122.986 33.2807 123.061 33.2107C123.131 33.1407 123.186 33.0557 123.231 32.9557C123.271 32.8607 123.291 32.7507 123.291 32.6207C123.291 32.5007 123.271 32.3857 123.231 32.2857C123.186 32.1857 123.131 32.1007 123.061 32.0307C122.986 31.9607 122.901 31.9107 122.811 31.8707C122.711 31.8357 122.611 31.8157 122.506 31.8157C122.396 31.8157 122.296 31.8357 122.206 31.8707C122.111 31.9107 122.031 31.9607 121.961 32.0307C121.891 32.1007 121.836 32.1857 121.796 32.2857C121.751 32.3857 121.731 32.5007 121.731 32.6207ZM122.871 35.4507C123.201 35.3557 123.451 35.1907 123.621 34.9557C123.781 34.7207 123.886 34.4107 123.931 34.0257L124.346 34.1157C124.326 34.2457 124.306 34.3707 124.276 34.4807C124.246 34.5957 124.211 34.7007 124.171 34.8007C124.311 34.9207 124.461 35.0207 124.626 35.1007C124.786 35.1807 124.966 35.2457 125.156 35.3057L125.006 35.6607C124.806 35.6057 124.621 35.5357 124.456 35.4557C124.286 35.3657 124.126 35.2657 123.976 35.1507C123.746 35.4757 123.421 35.6957 122.991 35.8057L122.871 35.4507ZM124.961 31.3807V33.9007H124.536V31.3807H124.961ZM121.496 35.2657C122.141 35.1057 122.481 34.6957 122.511 34.0207L122.906 34.1057C122.896 34.1857 122.891 34.2557 122.881 34.3207C122.871 34.3907 122.856 34.4607 122.841 34.5207C122.881 34.5607 122.926 34.5957 122.976 34.6307C123.026 34.6707 123.076 34.7057 123.131 34.7357C123.181 34.7757 123.236 34.8057 123.286 34.8307C123.336 34.8607 123.376 34.8857 123.416 34.9057L123.201 35.2207C123.131 35.1907 123.051 35.1457 122.961 35.0907C122.866 35.0307 122.776 34.9707 122.691 34.9007C122.581 35.0807 122.441 35.2307 122.266 35.3507C122.086 35.4657 121.866 35.5557 121.616 35.6257L121.496 35.2657ZM125.633 33.5757H129.603V33.9707H125.633V33.5757ZM129.358 35.2407V35.6357H125.923V34.2607H126.348V35.2407H129.358ZM129.283 32.8257V33.2207H125.923V31.5007H126.348V32.8257H129.283Z" fill="white"/>
<defs>
<filter id="filter0_d_2192_514" x="0.166504" y="0.606628" width="164.064" height="61.1774" filterUnits="userSpaceOnUse" color-interpolation-filters="sRGB">
<feFlood flood-opacity="0" result="BackgroundImageFix"/>
<feColorMatrix in="SourceAlpha" type="matrix" values="0 0 0 0 0 0 0 0 0 0 0 0 0 0 0 0 0 0 127 0" result="hardAlpha"/>
<feOffset dy="2"/>
<feGaussianBlur stdDeviation="1"/>
<feComposite in2="hardAlpha" operator="out"/>
<feColorMatrix type="matrix" values="0 0 0 0 0 0 0 0 0 0 0 0 0 0 0 0 0 0 0.25 0"/>
<feBlend mode="normal" in2="BackgroundImageFix" result="effect1_dropShadow_2192_514"/>
<feBlend mode="normal" in="SourceGraphic" in2="effect1_dropShadow_2192_514" result="shape"/>
</filter>
</defs>
</svg>
