<svg width="370" height="134" viewBox="0 0 370 134" fill="none" xmlns="http://www.w3.org/2000/svg">
<g filter="url(#filter0_d_926_8840)">
<path d="M4.61328 19.23C4.61328 8.73657 13.1199 0.22998 23.6133 0.22998H336.523C347.016 0.22998 355.523 8.73657 355.523 19.23V106.58C355.523 117.074 347.016 125.58 336.523 125.58H23.6133C13.1199 125.58 4.61328 117.074 4.61328 106.58V19.23Z" fill="#193946" fill-opacity="0.95"/>
<path d="M146.564 108.736H144.014V86.8665H160.004V89.2065H146.564V96.4365H160.004V98.7765H146.564V108.736ZM163.159 97.8765C163.159 96.1965 163.429 94.6665 163.969 93.2865C164.479 91.9365 165.199 90.7665 166.129 89.7765C167.029 88.8165 168.079 88.0365 169.309 87.4965C170.509 86.9865 171.829 86.7165 173.239 86.7165C174.619 86.7165 175.939 86.9865 177.169 87.4965C178.369 88.0365 179.449 88.8165 180.379 89.7765C181.279 90.7665 182.029 91.9365 182.569 93.2865C183.079 94.6665 183.349 96.1965 183.349 97.8765C183.349 99.5565 183.079 101.086 182.569 102.436C182.029 103.816 181.279 104.986 180.379 105.946C179.449 106.936 178.369 107.686 177.169 108.226C175.939 108.736 174.619 109.006 173.239 109.006C171.829 109.006 170.509 108.736 169.309 108.226C168.079 107.686 167.029 106.936 166.129 105.946C165.199 104.986 164.479 103.816 163.969 102.436C163.429 101.086 163.159 99.5565 163.159 97.8765ZM165.679 97.8765C165.679 99.2265 165.859 100.426 166.249 101.506C166.609 102.586 167.149 103.516 167.839 104.266C168.499 105.046 169.279 105.646 170.239 106.036C171.139 106.456 172.159 106.666 173.239 106.666C174.319 106.666 175.309 106.456 176.269 106.036C177.169 105.646 177.979 105.046 178.669 104.266C179.329 103.516 179.869 102.586 180.259 101.506C180.619 100.426 180.829 99.2265 180.829 97.8765C180.829 96.5565 180.619 95.3265 180.259 94.2165C179.869 93.1365 179.329 92.2365 178.669 91.4565C177.979 90.7065 177.169 90.1065 176.269 89.6865C175.309 89.2665 174.319 89.0565 173.239 89.0565C172.159 89.0565 171.139 89.2665 170.239 89.6865C169.279 90.1065 168.499 90.7065 167.839 91.4565C167.149 92.2365 166.609 93.1365 166.249 94.2165C165.859 95.3265 165.679 96.5565 165.679 97.8765ZM189.455 87.0165V99.4665C189.455 100.846 189.605 102.016 189.965 102.916C190.295 103.876 190.745 104.596 191.315 105.136C191.855 105.706 192.515 106.096 193.265 106.306C193.985 106.546 194.765 106.666 195.575 106.666C196.475 106.666 197.315 106.546 198.095 106.276C198.845 106.036 199.505 105.616 200.045 105.016C200.585 104.476 201.005 103.726 201.305 102.796C201.605 101.896 201.755 100.786 201.755 99.4665V87.0165H204.275V99.7365C204.275 101.626 204.005 103.156 203.465 104.356C202.925 105.556 202.235 106.516 201.395 107.176C200.555 107.896 199.595 108.346 198.575 108.646C197.525 108.886 196.505 109.036 195.545 109.036C194.255 109.036 193.085 108.856 192.035 108.526C190.955 108.166 190.055 107.596 189.335 106.816C188.555 106.066 187.985 105.076 187.565 103.816C187.145 102.616 186.935 101.116 186.935 99.3165V87.0165H189.455ZM211.046 108.766H208.496V87.0165H210.656L222.896 104.236V87.0165H225.446V108.766H223.226L211.046 91.5465V108.766ZM235.11 106.366C237.06 106.366 238.68 106.186 239.97 105.766C241.23 105.376 242.25 104.806 243.03 104.056C243.78 103.336 244.32 102.466 244.62 101.386C244.92 100.336 245.07 99.1365 245.07 97.8165C245.07 96.4965 244.92 95.3265 244.62 94.2465C244.32 93.1965 243.78 92.2965 243.03 91.5465C242.25 90.8265 241.23 90.2565 239.97 89.8365C238.68 89.4465 237.06 89.2365 235.11 89.2365H232.14V106.366H235.11ZM229.59 86.8665H235.29C237.63 86.8665 239.61 87.1365 241.23 87.6765C242.79 88.2465 244.05 89.0265 245.01 89.9865C245.94 90.9765 246.6 92.1165 247.02 93.4365C247.41 94.7865 247.62 96.2565 247.62 97.8165C247.62 99.4065 247.41 100.846 247.02 102.166C246.6 103.516 245.94 104.656 245.01 105.616C244.05 106.606 242.79 107.386 241.23 107.926C239.61 108.466 237.63 108.736 235.29 108.736H229.59V86.8665ZM259.022 96.4665H282.842V98.8365H259.022V96.4665ZM278.522 102.736H260.762V100.366H281.072V107.056H263.372V109.006H281.372V111.376H260.822V104.686H278.522V102.736ZM277.772 94.9665C277.982 94.1265 278.102 93.3165 278.162 92.5065C278.192 91.7265 278.222 90.8565 278.222 89.9565V88.6365H261.212V86.2665H280.772V88.8465C280.772 89.9565 280.742 91.0365 280.712 92.0565C280.652 93.1065 280.472 94.1865 280.232 95.2665L277.772 94.9665ZM295.093 101.146C296.443 100.426 297.523 99.5865 298.363 98.5965C299.173 97.6365 299.803 96.5565 300.283 95.3565C300.733 94.1565 301.063 92.8665 301.273 91.4265C301.453 90.0465 301.633 88.5165 301.753 86.8965L304.183 87.0765C304.123 88.5765 304.003 90.1065 303.823 91.6065C303.583 93.1365 303.223 94.6065 302.683 95.9865C303.583 96.8565 304.573 97.5465 305.683 98.0865C306.763 98.6565 307.903 99.1365 309.103 99.5265L308.203 101.686C306.973 101.326 305.833 100.876 304.783 100.276C303.703 99.7365 302.653 99.0165 301.633 98.1765C301.033 99.2565 300.283 100.216 299.383 101.056C298.483 101.896 297.403 102.616 296.143 103.156L295.093 101.146ZM286.033 107.896H309.853V110.266H286.033V107.896ZM295.543 87.0765C295.483 88.4565 295.393 89.7465 295.273 90.8865C295.123 92.0565 294.913 93.1665 294.613 94.2465C294.853 94.4865 295.123 94.6965 295.453 94.9365C295.753 95.1765 296.083 95.4165 296.443 95.6265C296.773 95.8665 297.103 96.1065 297.463 96.2865C297.763 96.5265 298.063 96.7065 298.333 96.8265L297.043 98.7765C296.593 98.5965 296.053 98.2665 295.453 97.8465C294.793 97.4265 294.223 97.0065 293.713 96.5565C293.113 97.6965 292.363 98.7165 291.433 99.5865C290.473 100.486 289.273 101.296 287.773 101.986L286.633 100.036C287.983 99.3165 289.063 98.5065 289.873 97.6065C290.653 96.7665 291.283 95.8065 291.733 94.7265C292.153 93.6765 292.483 92.5065 292.663 91.1865C292.813 89.9265 292.933 88.4865 293.053 86.8965L295.543 87.0765ZM335.425 85.8465V111.166H332.875V85.8465H335.425ZM327.925 90.4965C327.895 92.5365 327.535 94.5165 326.845 96.4065C326.125 98.3265 325.165 100.066 323.995 101.656C322.795 103.276 321.415 104.686 319.855 105.886C318.265 107.116 316.615 108.046 314.905 108.736L313.765 106.786C315.415 106.066 316.945 105.106 318.385 103.966C319.795 102.826 321.025 101.566 322.075 100.126C323.095 98.7165 323.905 97.1865 324.505 95.5365C325.075 93.9165 325.375 92.2365 325.375 90.4965V89.2365H314.005V86.8665H327.925V90.4965Z" fill="white"/>
<path d="M48.2701 93.6891L37.7196 123.355H112.062L99.3609 87.0401C117.367 65.5573 104.849 33.1202 82.1094 23.7809C73.2466 20.1409 51.5118 18.6309 39.9019 28.8428C11.779 53.5792 29.3246 85.3783 48.2701 93.6891Z" fill="white" stroke="black" stroke-width="3" stroke-linecap="round" stroke-linejoin="round"/>
<path d="M86.0723 74.9532C84.2945 77.1651 79.1166 81.0753 72.6277 79.0203" stroke="black" stroke-width="3" stroke-linecap="round" stroke-linejoin="round"/>
<path d="M31.6953 39.1306C33.0759 48.9507 44.3259 73.9684 59.4999 56.8322" stroke="black" stroke-width="3" stroke-linejoin="round"/>
<path d="M46.25 24.5266C46.25 44.1667 61.0644 69.4841 74.923 51.9921" stroke="black" stroke-width="3" stroke-linejoin="round"/>
<path d="M64.4863 20.9778C64.4863 40.6179 73.4702 65.0991 89.4135 50.4733" stroke="black" stroke-width="3" stroke-linejoin="round"/>
<path d="M82.8579 22.5623C81.1153 47.9137 98.0378 62.1439 101.589 40.9095" stroke="black" stroke-width="3" stroke-linejoin="round"/>
<path d="M25.7109 47.7451C28.667 48.8537 32.3198 49.2981 34.944 52.9576C39.836 58.7407 40.4491 69.397 49.2931 75.0007" stroke="black" stroke-width="3" stroke-linejoin="round"/>
<path d="M49.2931 74.9534C55.5056 79.028 58.0377 86.2753 48.5527 94.2286" stroke="black" stroke-width="3" stroke-linejoin="round"/>
<path d="M48.7858 93.6376L38.2353 123.304H112.578L99.8765 86.9886C117.883 65.5058 105.364 33.0687 82.625 23.7294C73.7622 20.0894 52.0274 18.5794 40.4175 28.7913C12.2946 53.5276 29.8402 85.3268 48.7858 93.6376Z" stroke="black" stroke-width="3" stroke-linecap="round" stroke-linejoin="round"/>
<ellipse cx="66.0662" cy="68.9754" rx="3.33967" ry="3.2169" fill="black"/>
<ellipse cx="3.84412" cy="2.80577" rx="3.84412" ry="2.80577" transform="matrix(0.929721 -0.368264 0.392631 0.919696 72.2734 68.5898)" fill="black"/>
<ellipse cx="86.074" cy="61.7154" rx="3.33967" ry="3.2169" fill="black"/>
<path fill-rule="evenodd" clip-rule="evenodd" d="M99.9916 73.999C93.6629 78.7686 84.49 78.3907 78.6076 72.8168C72.2129 66.7574 72.1285 56.8518 78.4193 50.6921C84.71 44.5324 94.9936 44.4512 101.388 50.5107C106.16 55.0317 107.418 61.6939 105.136 67.3438C105.25 67.3983 105.362 67.4581 105.472 67.5232L118.161 74.9956C120.695 76.4882 121.445 79.7791 119.789 82.1407L119.165 83.0299C117.496 85.4105 114.098 85.8273 111.822 83.9309L100.511 74.5084C100.322 74.3507 100.148 74.1802 99.9916 73.999ZM83.4642 68.0614C79.796 64.5856 79.7476 58.9035 83.3561 55.3701C86.9647 51.8368 92.8636 51.7902 96.5318 55.2661C100.2 58.7419 100.248 64.424 96.6398 67.9573C93.0313 71.4907 87.1324 71.5373 83.4642 68.0614Z" fill="#7ACAD6"/>
<path d="M99.9916 73.999L101.13 73.0397C100.605 72.4322 99.6978 72.3297 99.0654 72.8063L99.9916 73.999ZM78.6076 72.8168L77.5744 73.8863L78.6076 72.8168ZM78.4193 50.6921L77.3497 49.6227L78.4193 50.6921ZM101.388 50.5107L100.355 51.5801L100.355 51.5801L101.388 50.5107ZM105.136 67.3438L103.735 66.7701C103.441 67.4982 103.774 68.3366 104.496 68.6837L105.136 67.3438ZM105.472 67.5232L104.717 68.8022L104.717 68.8022L105.472 67.5232ZM118.161 74.9956L118.916 73.7166L118.161 74.9956ZM119.789 82.1407L121.032 83.0052L121.032 83.0052L119.789 82.1407ZM119.165 83.0299L117.922 82.1654L117.922 82.1654L119.165 83.0299ZM111.822 83.9309L110.862 85.0658L111.822 83.9309ZM100.511 74.5084L101.47 73.3735L101.47 73.3735L100.511 74.5084ZM83.3561 55.3701L82.2866 54.3008L83.3561 55.3701ZM83.4642 68.0614L82.431 69.1309L82.431 69.1309L83.4642 68.0614ZM96.6398 67.9573L97.7094 69.0267L96.6398 67.9573ZM99.0654 72.8063C93.2981 77.1529 84.959 76.7867 79.6408 71.7473L77.5744 73.8863C84.0209 79.9947 94.0277 80.3844 100.918 75.1917L99.0654 72.8063ZM79.6408 71.7473C73.8819 66.2903 73.7793 57.3521 79.4888 51.7615L77.3497 49.6227C70.4778 56.3515 70.5439 67.2244 77.5744 73.8863L79.6408 71.7473ZM79.4888 51.7615C85.2196 46.1501 94.5714 46.0996 100.355 51.5801L102.422 49.4412C95.4158 42.8028 84.2003 42.9148 77.3497 49.6227L79.4888 51.7615ZM100.355 51.5801C104.658 55.6569 105.798 61.6617 103.735 66.7701L106.538 67.9175C109.038 61.7261 107.662 54.4065 102.422 49.4412L100.355 51.5801ZM104.496 68.6837C104.57 68.7196 104.644 68.759 104.717 68.8022L106.227 66.2443C106.079 66.1572 105.929 66.0771 105.777 66.0038L104.496 68.6837ZM104.717 68.8022L117.406 76.2745L118.916 73.7166L106.227 66.2443L104.717 68.8022ZM117.406 76.2745C119.18 77.3193 119.705 79.623 118.545 81.2761L121.032 83.0052C123.185 79.9352 122.21 75.657 118.916 73.7166L117.406 76.2745ZM118.545 81.2761L117.922 82.1654L120.409 83.8945L121.032 83.0052L118.545 81.2761ZM117.922 82.1654C116.753 83.8318 114.375 84.1235 112.781 82.7961L110.862 85.0658C113.822 87.5311 118.238 86.9892 120.409 83.8945L117.922 82.1654ZM112.781 82.7961L101.47 73.3735L99.5512 75.6433L110.862 85.0658L112.781 82.7961ZM101.47 73.3735C101.346 73.2698 101.232 73.158 101.13 73.0397L98.8531 74.9583C99.0642 75.2023 99.2972 75.4317 99.5512 75.6433L101.47 73.3735ZM82.2866 54.3008C78.0969 58.4032 78.127 65.0526 82.431 69.1309L84.4974 66.9919C81.465 64.1185 81.3984 59.4038 84.4257 56.4395L82.2866 54.3008ZM97.565 54.1966C93.2858 50.1418 86.455 50.2192 82.2866 54.3008L84.4257 56.4395C87.4743 53.4544 92.4414 53.4386 95.4986 56.3355L97.565 54.1966ZM97.7094 69.0267C101.899 64.9243 101.869 58.2749 97.565 54.1966L95.4986 56.3355C98.531 59.2089 98.5976 63.9237 95.5703 66.8879L97.7094 69.0267ZM82.431 69.1309C86.7102 73.1857 93.541 73.1083 97.7094 69.0267L95.5703 66.8879C92.5217 69.873 87.5546 69.8888 84.4974 66.9919L82.431 69.1309Z" fill="black"/>
</g>
<defs>
<filter id="filter0_d_926_8840" x="0.613281" y="0.22998" width="358.91" height="133.35" filterUnits="userSpaceOnUse" color-interpolation-filters="sRGB">
<feFlood flood-opacity="0" result="BackgroundImageFix"/>
<feColorMatrix in="SourceAlpha" type="matrix" values="0 0 0 0 0 0 0 0 0 0 0 0 0 0 0 0 0 0 127 0" result="hardAlpha"/>
<feOffset dy="4"/>
<feGaussianBlur stdDeviation="2"/>
<feComposite in2="hardAlpha" operator="out"/>
<feColorMatrix type="matrix" values="0 0 0 0 0 0 0 0 0 0 0 0 0 0 0 0 0 0 0.25 0"/>
<feBlend mode="normal" in2="BackgroundImageFix" result="effect1_dropShadow_926_8840"/>
<feBlend mode="normal" in="SourceGraphic" in2="effect1_dropShadow_926_8840" result="shape"/>
</filter>
</defs>
</svg>
