<svg width="520" height="162" viewBox="0 0 520 162" fill="none" xmlns="http://www.w3.org/2000/svg">
<g filter="url(#filter0_d_1618_3322)">
<path d="M4 19C4 8.50659 12.5066 0 23 0H497C507.493 0 516 8.50659 516 19V134.273C516 144.767 507.493 153.273 497 153.273H23C12.5066 153.273 4 144.767 4 134.273V19Z" fill="#193946" fill-opacity="0.95"/>
<path d="M251.019 132.82H248.044V107.305H266.699V110.035H251.019V118.47H266.699V121.2H251.019V132.82ZM270.379 120.15C270.379 118.19 270.694 116.405 271.324 114.795C271.919 113.22 272.759 111.855 273.844 110.7C274.894 109.58 276.119 108.67 277.554 108.04C278.954 107.445 280.494 107.13 282.139 107.13C283.749 107.13 285.289 107.445 286.724 108.04C288.124 108.67 289.384 109.58 290.469 110.7C291.519 111.855 292.394 113.22 293.024 114.795C293.619 116.405 293.934 118.19 293.934 120.15C293.934 122.11 293.619 123.895 293.024 125.47C292.394 127.08 291.519 128.445 290.469 129.565C289.384 130.72 288.124 131.595 286.724 132.225C285.289 132.82 283.749 133.135 282.139 133.135C280.494 133.135 278.954 132.82 277.554 132.225C276.119 131.595 274.894 130.72 273.844 129.565C272.759 128.445 271.919 127.08 271.324 125.47C270.694 123.895 270.379 122.11 270.379 120.15ZM273.319 120.15C273.319 121.725 273.529 123.125 273.984 124.385C274.404 125.645 275.034 126.73 275.839 127.605C276.609 128.515 277.519 129.215 278.639 129.67C279.689 130.16 280.879 130.405 282.139 130.405C283.399 130.405 284.554 130.16 285.674 129.67C286.724 129.215 287.669 128.515 288.474 127.605C289.244 126.73 289.874 125.645 290.329 124.385C290.749 123.125 290.994 121.725 290.994 120.15C290.994 118.61 290.749 117.175 290.329 115.88C289.874 114.62 289.244 113.57 288.474 112.66C287.669 111.785 286.724 111.085 285.674 110.595C284.554 110.105 283.399 109.86 282.139 109.86C280.879 109.86 279.689 110.105 278.639 110.595C277.519 111.085 276.609 111.785 275.839 112.66C275.034 113.57 274.404 114.62 273.984 115.88C273.529 117.175 273.319 118.61 273.319 120.15ZM301.058 107.48V122.005C301.058 123.615 301.233 124.98 301.653 126.03C302.038 127.15 302.563 127.99 303.228 128.62C303.858 129.285 304.628 129.74 305.503 129.985C306.343 130.265 307.253 130.405 308.198 130.405C309.248 130.405 310.228 130.265 311.138 129.95C312.013 129.67 312.783 129.18 313.413 128.48C314.043 127.85 314.533 126.975 314.883 125.89C315.233 124.84 315.408 123.545 315.408 122.005V107.48H318.348V122.32C318.348 124.525 318.033 126.31 317.403 127.71C316.773 129.11 315.968 130.23 314.988 131C314.008 131.84 312.888 132.365 311.698 132.715C310.473 132.995 309.283 133.17 308.163 133.17C306.658 133.17 305.293 132.96 304.068 132.575C302.808 132.155 301.758 131.49 300.918 130.58C300.008 129.705 299.343 128.55 298.853 127.08C298.363 125.68 298.118 123.93 298.118 121.83V107.48H301.058ZM326.248 132.855H323.273V107.48H325.793L340.073 127.57V107.48H343.048V132.855H340.458L326.248 112.765V132.855ZM354.323 130.055C356.598 130.055 358.488 129.845 359.993 129.355C361.463 128.9 362.653 128.235 363.563 127.36C364.438 126.52 365.068 125.505 365.418 124.245C365.768 123.02 365.943 121.62 365.943 120.08C365.943 118.54 365.768 117.175 365.418 115.915C365.068 114.69 364.438 113.64 363.563 112.765C362.653 111.925 361.463 111.26 359.993 110.77C358.488 110.315 356.598 110.07 354.323 110.07H350.858V130.055H354.323ZM347.883 107.305H354.533C357.263 107.305 359.573 107.62 361.463 108.25C363.283 108.915 364.753 109.825 365.873 110.945C366.958 112.1 367.728 113.43 368.218 114.97C368.673 116.545 368.918 118.26 368.918 120.08C368.918 121.935 368.673 123.615 368.218 125.155C367.728 126.73 366.958 128.06 365.873 129.18C364.753 130.335 363.283 131.245 361.463 131.875C359.573 132.505 357.263 132.82 354.533 132.82H347.883V107.305ZM382.219 118.505H410.009V121.27H382.219V118.505ZM404.969 125.82H384.249V123.055H407.944V130.86H387.294V133.135H408.294V135.9H384.319V128.095H404.969V125.82ZM404.094 116.755C404.339 115.775 404.479 114.83 404.549 113.885C404.584 112.975 404.619 111.96 404.619 110.91V109.37H384.774V106.605H407.594V109.615C407.594 110.91 407.559 112.17 407.524 113.36C407.454 114.585 407.244 115.845 406.964 117.105L404.094 116.755ZM424.303 123.965C425.878 123.125 427.138 122.145 428.118 120.99C429.063 119.87 429.798 118.61 430.358 117.21C430.883 115.81 431.268 114.305 431.513 112.625C431.723 111.015 431.933 109.23 432.073 107.34L434.908 107.55C434.838 109.3 434.698 111.085 434.488 112.835C434.208 114.62 433.788 116.335 433.158 117.945C434.208 118.96 435.363 119.765 436.658 120.395C437.918 121.06 439.248 121.62 440.648 122.075L439.598 124.595C438.163 124.175 436.833 123.65 435.608 122.95C434.348 122.32 433.123 121.48 431.933 120.5C431.233 121.76 430.358 122.88 429.308 123.86C428.258 124.84 426.998 125.68 425.528 126.31L424.303 123.965ZM413.733 131.84H441.523V134.605H413.733V131.84ZM424.828 107.55C424.758 109.16 424.653 110.665 424.513 111.995C424.338 113.36 424.093 114.655 423.743 115.915C424.023 116.195 424.338 116.44 424.723 116.72C425.073 117 425.458 117.28 425.878 117.525C426.263 117.805 426.648 118.085 427.068 118.295C427.418 118.575 427.768 118.785 428.083 118.925L426.578 121.2C426.053 120.99 425.423 120.605 424.723 120.115C423.953 119.625 423.288 119.135 422.693 118.61C421.993 119.94 421.118 121.13 420.033 122.145C418.913 123.195 417.513 124.14 415.763 124.945L414.433 122.67C416.008 121.83 417.268 120.885 418.213 119.835C419.123 118.855 419.858 117.735 420.383 116.475C420.873 115.25 421.258 113.885 421.468 112.345C421.643 110.875 421.783 109.195 421.923 107.34L424.828 107.55ZM471.357 106.115V135.655H468.382V106.115H471.357ZM462.607 111.54C462.572 113.92 462.152 116.23 461.347 118.435C460.507 120.675 459.387 122.705 458.022 124.56C456.622 126.45 455.012 128.095 453.192 129.495C451.337 130.93 449.412 132.015 447.417 132.82L446.087 130.545C448.012 129.705 449.797 128.585 451.477 127.255C453.122 125.925 454.557 124.455 455.782 122.775C456.972 121.13 457.917 119.345 458.617 117.42C459.282 115.53 459.632 113.57 459.632 111.54V110.07H446.367V107.305H462.607V111.54Z" fill="white"/>
<path d="M98.5195 116.066L86.0953 151.484H173.641L158.684 108.127C179.888 82.4794 165.146 43.7533 138.368 32.6032C127.932 28.2574 102.337 26.4548 88.6651 38.6465C55.5479 68.1789 76.2094 106.143 98.5195 116.066Z" fill="white" stroke="black" stroke-width="3.87246" stroke-linecap="round" stroke-linejoin="round"/>
<path d="M143.035 93.6978C140.942 96.3385 134.844 101.007 127.203 98.5534" stroke="black" stroke-width="3.87246" stroke-linecap="round" stroke-linejoin="round"/>
<path d="M78.9998 50.9258C80.6255 62.6498 93.8734 92.518 111.742 72.0594" stroke="black" stroke-width="3.87246" stroke-linejoin="round"/>
<path d="M96.1396 33.4922C96.1396 56.9402 113.585 87.1662 129.905 66.2828" stroke="black" stroke-width="3.87246" stroke-linejoin="round"/>
<path d="M117.615 29.2542C117.615 52.7022 128.194 81.9299 146.969 64.4684" stroke="black" stroke-width="3.87246" stroke-linejoin="round"/>
<path d="M139.249 31.145C137.197 61.4118 157.125 78.4009 161.306 53.0495" stroke="black" stroke-width="3.87246" stroke-linejoin="round"/>
<path d="M71.9532 61.2119C75.4342 62.5355 79.7357 63.066 82.8259 67.4351C88.5867 74.3394 89.3087 87.0618 99.7233 93.752" stroke="black" stroke-width="3.87246" stroke-linejoin="round"/>
<path d="M99.5507 93.6716C108.19 98.6665 111.119 107.372 97.9297 117.121" stroke="black" stroke-width="3.87246" stroke-linejoin="round"/>
<path d="M99.1259 116.002L86.7017 151.42H174.247L159.29 108.063C180.494 82.4155 165.752 43.6893 138.975 32.5393C128.538 28.1935 102.943 26.3908 89.2715 38.5826C56.1542 68.1149 76.8158 106.08 99.1259 116.002Z" stroke="black" stroke-width="3.87246" stroke-linecap="round" stroke-linejoin="round"/>
<ellipse cx="119.475" cy="86.5579" rx="3.93277" ry="3.8406" fill="black"/>
<ellipse cx="4.53535" cy="3.34275" rx="4.53535" ry="3.34275" transform="matrix(0.92797 -0.372656 0.388084 0.921624 126.785 86.0981)" fill="black"/>
<ellipse cx="143.036" cy="77.8902" rx="3.93277" ry="3.8406" fill="black"/>
<path fill-rule="evenodd" clip-rule="evenodd" d="M159.422 92.5657C151.969 98.2548 141.172 97.802 134.247 91.1493C126.716 83.9151 126.617 72.089 134.025 64.735C141.433 57.3811 153.543 57.2841 161.073 64.5184C166.693 69.917 168.174 77.8728 165.485 84.6188C165.636 84.6903 165.784 84.7696 165.93 84.8568L180.404 93.4986C183.627 95.4228 184.57 99.6352 182.461 102.684L182.381 102.801C180.222 105.922 175.802 106.48 172.868 104.002L159.993 93.1282C159.786 92.9533 159.595 92.7651 159.422 92.5657ZM139.966 85.472C135.646 81.3222 135.589 74.5384 139.839 70.32C144.088 66.1016 151.034 66.046 155.354 70.1958C159.674 74.3455 159.731 81.1293 155.481 85.3477C151.232 89.5661 144.285 89.6217 139.966 85.472Z" fill="#7ACAD6"/>
<path d="M159.422 92.5657L160.885 91.3123C160.207 90.5336 159.041 90.4101 158.228 91.0309L159.422 92.5657ZM134.247 91.1493L132.904 92.5297L134.247 91.1493ZM134.025 64.735L135.405 66.1073L134.025 64.735ZM161.073 64.5184L159.73 65.8987L161.073 64.5184ZM165.485 84.6188L163.678 83.892C163.302 84.8365 163.733 85.9168 164.663 86.3583L165.485 84.6188ZM165.93 84.8568L166.918 83.2056L166.918 83.2055L165.93 84.8568ZM180.404 93.4986L179.416 95.1499L179.416 95.1499L180.404 93.4986ZM182.461 102.684L184.066 103.789L184.066 103.789L182.461 102.684ZM182.381 102.801L180.776 101.696L180.776 101.696L182.381 102.801ZM172.868 104.002L171.618 105.466L171.619 105.466L172.868 104.002ZM159.993 93.1282L158.744 94.593L159.993 93.1282ZM139.839 70.32L141.219 71.6924L139.839 70.32ZM139.966 85.472L138.623 86.8523L139.966 85.472ZM155.481 85.3477L156.862 86.72L155.481 85.3477ZM158.228 91.0309C151.511 96.1582 141.796 95.7312 135.589 89.769L132.904 92.5297C140.548 99.8727 152.427 100.352 160.616 94.1006L158.228 91.0309ZM135.589 89.769C128.858 83.3021 128.748 72.7163 135.405 66.1073L132.644 63.3627C124.486 71.4616 124.575 84.528 132.904 92.5297L135.589 89.769ZM135.405 66.1073C142.081 59.4807 152.979 59.413 159.73 65.8987L162.416 63.138C154.106 55.1552 140.785 55.2815 132.644 63.3627L135.405 66.1073ZM159.73 65.8987C164.757 70.7281 166.089 77.8437 163.678 83.892L167.292 85.3457C170.259 77.9018 168.628 69.1059 162.416 63.138L159.73 65.8987ZM164.663 86.3583C164.757 86.403 164.85 86.4529 164.943 86.5081L166.918 83.2055C166.718 83.0862 166.515 82.9775 166.308 82.8793L164.663 86.3583ZM164.943 86.5081L179.416 95.1499L181.392 91.8474L166.918 83.2056L164.943 86.5081ZM179.416 95.1499C181.672 96.4968 182.333 99.4455 180.856 101.58L184.066 103.789C186.808 99.825 185.581 94.3488 181.392 91.8474L179.416 95.1499ZM180.856 101.58L180.776 101.696L183.985 103.905L184.066 103.789L180.856 101.58ZM180.776 101.696C179.264 103.881 176.171 104.272 174.117 102.537L171.619 105.466C175.433 108.688 181.179 107.963 183.985 103.905L180.776 101.696ZM174.117 102.537L161.242 91.6635L158.744 94.593L171.618 105.466L174.117 102.537ZM161.242 91.6635C161.112 91.5539 160.993 91.4363 160.885 91.3123L157.958 93.8192C158.197 94.0939 158.459 94.3528 158.744 94.593L161.242 91.6635ZM138.458 68.9477C133.458 73.9111 133.505 81.9351 138.623 86.8523L141.308 84.0916C137.788 80.7092 137.72 75.1658 141.219 71.6924L138.458 68.9477ZM156.697 68.8154C151.598 63.9171 143.44 64.002 138.458 68.9477L141.219 71.6924C144.736 68.2012 150.471 68.1749 154.011 71.5761L156.697 68.8154ZM156.862 86.72C161.861 81.7567 161.815 73.7326 156.697 68.8154L154.011 71.5761C157.532 74.9585 157.6 80.5019 154.101 83.9754L156.862 86.72ZM138.623 86.8523C143.722 91.7506 151.88 91.6657 156.862 86.72L154.101 83.9754C150.584 87.4665 144.849 87.4928 141.308 84.0916L138.623 86.8523Z" fill="black"/>
</g>
<path d="M260.567 85.4992H250.163V84.1562H262.012V89.3412H251.642V91.8912H262.284V93.2342H256.827V96.0732H262.862V97.4162H249.364V96.0732H255.382V93.2342H250.197V87.9982H260.567V85.4992ZM264.331 96.0732H277.829V97.4162H264.331V96.0732ZM274.531 93.8802C274.633 93.3702 274.735 92.8092 274.837 92.1972L275.041 90.3442C275.092 89.7152 275.143 89.0862 275.177 88.4402C275.194 87.8282 275.211 87.2332 275.211 86.6552V85.5672H265.572V84.2242H276.656V86.0262C276.656 87.4032 276.605 88.7462 276.503 90.0552C276.401 91.3812 276.214 92.7242 275.942 94.0502L274.531 93.8802ZM291.979 83.5782V94.1862H290.534V83.5782H291.979ZM292.319 96.7022V98.0452H280.912V93.0302H282.357V96.7022H292.319ZM279.586 87.7942C279.586 87.1992 279.688 86.6552 279.909 86.1452C280.113 85.6522 280.402 85.2272 280.776 84.8532C281.133 84.5132 281.558 84.2242 282.068 84.0202C282.544 83.8332 283.071 83.7312 283.632 83.7312C284.176 83.7312 284.703 83.8332 285.213 84.0202C285.706 84.2242 286.148 84.5132 286.522 84.8532C286.879 85.2272 287.168 85.6522 287.389 86.1452C287.593 86.6552 287.712 87.1992 287.712 87.7942C287.712 88.4062 287.593 88.9502 287.389 89.4432C287.168 89.9532 286.879 90.3782 286.522 90.7182C286.148 91.0922 285.706 91.3642 285.213 91.5512C284.703 91.7552 284.176 91.8572 283.632 91.8572C283.071 91.8572 282.544 91.7552 282.068 91.5512C281.558 91.3642 281.133 91.0922 280.776 90.7182C280.402 90.3782 280.113 89.9532 279.909 89.4432C279.688 88.9502 279.586 88.4062 279.586 87.7942ZM280.997 87.7942C280.997 88.2362 281.065 88.6102 281.218 88.9332C281.354 89.2732 281.541 89.5622 281.779 89.8002C282.017 90.0382 282.289 90.2252 282.612 90.3442C282.918 90.4802 283.258 90.5312 283.632 90.5312C283.989 90.5312 284.329 90.4802 284.669 90.3442C284.975 90.2252 285.264 90.0382 285.519 89.8002C285.757 89.5622 285.944 89.2732 286.097 88.9332C286.233 88.6102 286.301 88.2362 286.301 87.7942C286.301 87.3862 286.233 86.9952 286.097 86.6552C285.944 86.3152 285.757 86.0262 285.519 85.7882C285.264 85.5502 284.975 85.3802 284.669 85.2442C284.329 85.1252 283.989 85.0572 283.632 85.0572C283.258 85.0572 282.918 85.1252 282.612 85.2442C282.289 85.3802 282.017 85.5502 281.779 85.7882C281.541 86.0262 281.354 86.3152 281.218 86.6552C281.065 86.9952 280.997 87.3862 280.997 87.7942ZM307.036 87.8792C306.951 88.3552 306.798 88.7632 306.577 89.1202C306.339 89.4942 306.033 89.8002 305.693 90.0382C305.336 90.3102 304.928 90.4972 304.486 90.6162C304.01 90.7522 303.517 90.8202 302.99 90.8202C302.412 90.8202 301.868 90.7522 301.392 90.5822C300.882 90.4292 300.457 90.1912 300.1 89.8852C299.726 89.5792 299.454 89.2052 299.25 88.7632C299.046 88.3382 298.944 87.8452 298.944 87.2672C298.944 86.7232 299.046 86.2132 299.25 85.7712C299.454 85.3462 299.726 84.9722 300.1 84.6662C300.457 84.3602 300.882 84.1392 301.392 83.9692C301.868 83.8162 302.412 83.7312 302.99 83.7312C304.044 83.7312 304.945 83.9862 305.676 84.4622C306.39 84.9722 306.832 85.6522 307.019 86.5362H309.892V83.5782H311.337V90.7862H309.892V87.8792H307.036ZM301.562 91.7212V93.5572H304.333V91.7212H305.761V98.0452H300.134V91.7212H301.562ZM300.355 87.2672C300.355 87.6752 300.423 88.0152 300.593 88.2872C300.746 88.5762 300.95 88.8142 301.205 88.9842C301.443 89.1712 301.732 89.3072 302.055 89.3752C302.361 89.4602 302.667 89.4942 302.99 89.4942C303.296 89.4942 303.619 89.4602 303.959 89.3752C304.265 89.3072 304.554 89.1712 304.826 88.9842C305.064 88.8142 305.268 88.5762 305.438 88.2872C305.591 88.0152 305.676 87.6752 305.676 87.2672C305.676 86.8762 305.591 86.5362 305.438 86.2472C305.268 85.9752 305.064 85.7372 304.826 85.5502C304.554 85.3802 304.265 85.2612 303.959 85.1762C303.619 85.1082 303.296 85.0572 302.99 85.0572C302.667 85.0572 302.361 85.1082 302.055 85.1762C301.732 85.2612 301.443 85.3802 301.205 85.5502C300.95 85.7372 300.746 85.9752 300.593 86.2472C300.423 86.5362 300.355 86.8762 300.355 87.2672ZM310.419 91.8232C310.385 93.0132 310.232 94.0162 309.943 94.8322C310.113 95.0702 310.317 95.2912 310.555 95.4952C310.793 95.7162 311.048 95.9202 311.32 96.1072C311.575 96.2942 311.83 96.4812 312.102 96.6512C312.357 96.8042 312.595 96.9572 312.833 97.0932L312.102 98.1982C311.898 98.0962 311.677 97.9602 311.439 97.8242C311.184 97.6542 310.946 97.5012 310.708 97.3312C310.453 97.1442 310.215 96.9572 309.994 96.7532C309.756 96.5492 309.535 96.3282 309.331 96.1072C309.025 96.5832 308.651 96.9912 308.226 97.3312C307.784 97.6712 307.291 97.9602 306.747 98.1982L306.084 97.0762C306.526 96.8892 306.934 96.6512 307.308 96.3622C307.648 96.0732 307.954 95.7162 308.209 95.2742C308.447 94.8492 308.651 94.3392 308.804 93.7442C308.94 93.1662 309.008 92.4862 309.025 91.7042L310.419 91.8232ZM304.333 94.9002H301.562V96.7362H304.333V94.9002ZM326.304 83.5782V97.9262H324.859V83.5782H326.304ZM313.741 90.1912C313.741 89.2392 313.826 88.3552 314.013 87.5732C314.183 86.8082 314.455 86.1452 314.829 85.6012C315.186 85.0572 315.628 84.6492 316.172 84.3432C316.699 84.0542 317.328 83.9012 318.042 83.9012C318.756 83.9012 319.368 84.0542 319.912 84.3432C320.439 84.6492 320.881 85.0572 321.255 85.6012C321.612 86.1452 321.884 86.8082 322.071 87.5732C322.241 88.3552 322.343 89.2392 322.343 90.1912C322.343 91.1772 322.241 92.0442 322.071 92.8092C321.884 93.5912 321.612 94.2372 321.255 94.7812C320.881 95.3252 320.439 95.7502 319.912 96.0222C319.368 96.3112 318.756 96.4642 318.042 96.4642C317.328 96.4642 316.699 96.3112 316.172 96.0222C315.628 95.7502 315.186 95.3252 314.829 94.7812C314.455 94.2372 314.183 93.5912 314.013 92.8092C313.826 92.0442 313.741 91.1772 313.741 90.1912ZM315.186 90.1912C315.186 91.7382 315.424 92.9452 315.9 93.7952C316.376 94.6792 317.09 95.1042 318.042 95.1042C318.994 95.1042 319.708 94.6792 320.184 93.7952C320.66 92.9452 320.898 91.7382 320.898 90.1912C320.898 88.6612 320.66 87.4542 320.184 86.5702C319.708 85.7032 318.994 85.2612 318.042 85.2612C317.09 85.2612 316.376 85.7032 315.9 86.5702C315.424 87.4542 315.186 88.6612 315.186 90.1912ZM334.799 84.2412V89.0692H339.967V84.2412H341.412V96.2432H333.354V84.2412H334.799ZM345.152 83.5782V89.5112H347.158V90.8542H345.152V97.9262H343.707V83.5782H345.152ZM339.967 90.4122H334.799V94.9002H339.967V90.4122ZM359.15 85.4992H348.746V84.1562H360.595V89.3412H350.225V91.8912H360.867V93.2342H355.41V96.0732H361.445V97.4162H347.947V96.0732H353.965V93.2342H348.78V87.9982H359.15V85.4992ZM372.847 85.1592C372.745 85.5842 372.643 85.9922 372.541 86.3662C372.422 86.7742 372.286 87.1482 372.133 87.5222C372.354 87.8622 372.626 88.1682 372.966 88.4742C373.272 88.7972 373.612 89.0862 373.969 89.3582C374.309 89.6302 374.649 89.8852 375.006 90.1062C375.346 90.3442 375.652 90.5482 375.924 90.7012L375.21 91.8232C374.955 91.7042 374.666 91.5342 374.36 91.3302C374.02 91.1262 373.697 90.9052 373.357 90.6332C373.017 90.3782 372.677 90.0892 372.354 89.7832C372.014 89.4942 371.725 89.1882 371.453 88.8482C371.045 89.4942 370.569 90.0892 370.008 90.6162C369.43 91.1602 368.767 91.6362 367.985 92.0612L367.322 90.9902C368.41 90.3442 369.294 89.5452 369.974 88.5592C370.62 87.6072 371.096 86.4682 371.385 85.1592H367.56V83.8162H375.839V85.1592H372.847ZM368.92 94.2032V92.8602H379.477V98.0452H378.032V94.2032H368.92ZM379.477 83.5782V87.1312H381.483V88.4742H379.477V91.9762H378.032V83.5782H379.477ZM389.445 98.2152C388.68 98.2152 387.966 98.1642 387.32 98.0622C386.64 97.9602 386.062 97.7902 385.586 97.5862C385.076 97.3482 384.685 97.0762 384.413 96.7362C384.107 96.3792 383.971 95.9712 383.971 95.4782C383.971 95.0022 384.107 94.5772 384.413 94.2202C384.685 93.8802 385.076 93.6082 385.586 93.3872C386.062 93.1832 386.64 93.0132 387.32 92.9112C387.966 92.8092 388.68 92.7582 389.445 92.7582C390.193 92.7582 390.907 92.8092 391.587 92.9112C392.233 93.0132 392.811 93.1832 393.321 93.3872C393.797 93.6082 394.188 93.8802 394.494 94.2202C394.766 94.5772 394.919 95.0022 394.919 95.4782C394.919 95.9712 394.766 96.3792 394.494 96.7362C394.188 97.0762 393.797 97.3482 393.321 97.5862C392.811 97.7902 392.233 97.9602 391.587 98.0622C390.907 98.1642 390.193 98.2152 389.445 98.2152ZM382.118 90.8542C382.679 90.4802 383.206 90.0382 383.699 89.5622C384.175 89.0862 384.617 88.5592 385.008 87.9812C385.382 87.4032 385.688 86.7742 385.96 86.0772C386.198 85.3972 386.385 84.6662 386.487 83.8502L387.864 84.1562C387.762 84.7342 387.643 85.2782 387.507 85.7882C387.337 86.3152 387.167 86.8082 386.963 87.2842C387.167 87.6242 387.422 87.9642 387.745 88.2872C388.051 88.6272 388.374 88.9332 388.748 89.2222C389.088 89.5282 389.462 89.8002 389.836 90.0382C390.21 90.2932 390.55 90.4972 390.873 90.6672L390.159 91.7892C389.853 91.6532 389.547 91.4832 389.207 91.2622C388.867 91.0582 388.51 90.8032 388.17 90.5142C387.813 90.2422 387.473 89.9532 387.15 89.6132C386.81 89.3072 386.504 88.9672 386.249 88.6272C385.807 89.3072 385.314 89.9192 384.736 90.4632C384.141 91.0072 383.495 91.5002 382.781 91.9252L382.118 90.8542ZM389.445 94.0502C389.037 94.0502 388.612 94.0672 388.17 94.1012C387.711 94.1352 387.286 94.2032 386.895 94.3052C386.487 94.4072 386.164 94.5602 385.909 94.7302C385.637 94.9342 385.518 95.1722 385.518 95.4782C385.518 95.7842 385.637 96.0392 385.909 96.2262C386.164 96.3962 386.487 96.5492 386.895 96.6512C387.286 96.7532 387.711 96.8212 388.17 96.8552C388.612 96.8892 389.037 96.9062 389.445 96.9062C389.819 96.9062 390.244 96.8892 390.72 96.8552C391.162 96.8212 391.587 96.7532 391.995 96.6512C392.386 96.5492 392.709 96.3962 392.981 96.2262C393.236 96.0392 393.372 95.7842 393.372 95.4782C393.372 95.1722 393.236 94.9342 392.981 94.7302C392.709 94.5602 392.386 94.4072 391.995 94.3052C391.587 94.2032 391.162 94.1352 390.72 94.1012C390.244 94.0672 389.819 94.0502 389.445 94.0502ZM389.717 87.9982V86.6552H393.508V83.5782H394.953V91.9762H393.508V87.9982H389.717ZM412.356 93.3192H403.244V91.9762H413.801V95.6822H404.689V96.7022H413.971V98.0452H403.244V94.3392H412.356V93.3192ZM402.309 88.7292C402.309 88.3212 402.394 87.9472 402.598 87.6072C402.768 87.3012 403.04 87.0292 403.38 86.7912C403.72 86.5872 404.128 86.4172 404.604 86.2982C405.08 86.1962 405.607 86.1452 406.185 86.1452C406.763 86.1452 407.307 86.1962 407.8 86.2982C408.276 86.4172 408.684 86.5872 409.041 86.7912C409.381 87.0292 409.636 87.3012 409.84 87.6072C410.01 87.9472 410.112 88.3212 410.112 88.7292C410.112 89.1712 410.01 89.5452 409.84 89.8512C409.636 90.1912 409.381 90.4632 409.041 90.6672C408.684 90.9052 408.276 91.0582 407.8 91.1602C407.307 91.2792 406.763 91.3302 406.185 91.3302C405.607 91.3302 405.08 91.2792 404.604 91.1602C404.128 91.0582 403.72 90.9052 403.38 90.6672C403.04 90.4632 402.768 90.1912 402.598 89.8512C402.394 89.5452 402.309 89.1712 402.309 88.7292ZM413.801 83.5782V86.4512H415.807V87.7942H413.801V91.1262H412.356V83.5782H413.801ZM401.884 84.3262H405.454V82.9662H406.899V84.3262H410.503V85.6692H401.884V84.3262ZM403.72 88.7292C403.72 88.9672 403.788 89.1712 403.924 89.3412C404.06 89.5112 404.247 89.6472 404.485 89.7492C404.706 89.8512 404.961 89.9362 405.267 89.9702C405.556 90.0382 405.862 90.0552 406.185 90.0552C406.491 90.0552 406.814 90.0382 407.12 89.9702C407.426 89.9362 407.698 89.8512 407.936 89.7492C408.157 89.6472 408.344 89.5112 408.497 89.3412C408.633 89.1712 408.701 88.9672 408.701 88.7292C408.701 88.4912 408.633 88.2872 408.497 88.1172C408.344 87.9642 408.157 87.8282 407.936 87.7262C407.698 87.6242 407.426 87.5562 407.12 87.4882C406.814 87.4542 406.491 87.4202 406.185 87.4202C405.862 87.4202 405.556 87.4542 405.267 87.4882C404.961 87.5562 404.706 87.6242 404.485 87.7262C404.247 87.8282 404.06 87.9642 403.924 88.1172C403.788 88.2872 403.72 88.4912 403.72 88.7292ZM427.006 93.5742H420.988V92.2312H434.486V93.5742H428.451V98.0282H427.006V93.5742ZM429.25 84.0882C429.114 84.5812 428.978 85.0402 428.808 85.4652C428.638 85.9072 428.434 86.3152 428.213 86.6892C428.927 87.5392 429.743 88.2192 430.661 88.7122C431.562 89.2222 432.548 89.6302 433.619 89.9192L433.177 91.1602C432.106 90.9222 431.069 90.5142 430.066 89.9702C429.046 89.4432 428.162 88.7462 427.38 87.8962C426.734 88.6782 425.969 89.3412 425.119 89.8682C424.252 90.4122 423.283 90.8712 422.229 91.2112L421.821 89.9702C422.603 89.6642 423.317 89.3412 423.963 88.9672C424.575 88.6272 425.136 88.2022 425.646 87.7092C426.122 87.2332 426.564 86.6552 426.938 85.9922C427.312 85.3462 427.635 84.5812 427.907 83.6802L429.25 84.0882ZM440.635 87.7942C440.635 87.1992 440.737 86.6552 440.958 86.1452C441.162 85.6522 441.451 85.2272 441.825 84.8532C442.182 84.5132 442.607 84.2242 443.117 84.0202C443.593 83.8332 444.12 83.7312 444.681 83.7312C445.225 83.7312 445.752 83.8332 446.262 84.0202C446.755 84.2242 447.197 84.5132 447.571 84.8532C447.928 85.2272 448.217 85.6522 448.438 86.1452C448.642 86.6552 448.761 87.1992 448.761 87.7942C448.761 88.4062 448.642 88.9502 448.438 89.4432C448.217 89.9532 447.928 90.3782 447.571 90.7182C447.197 91.0922 446.755 91.3642 446.262 91.5512C445.752 91.7552 445.225 91.8572 444.681 91.8572C444.12 91.8572 443.593 91.7552 443.117 91.5512C442.607 91.3642 442.182 91.0922 441.825 90.7182C441.451 90.3782 441.162 89.9532 440.958 89.4432C440.737 88.9502 440.635 88.4062 440.635 87.7942ZM442.046 87.7942C442.046 88.2362 442.114 88.6102 442.267 88.9332C442.403 89.2732 442.59 89.5622 442.828 89.8002C443.066 90.0382 443.338 90.2252 443.661 90.3442C443.967 90.4802 444.307 90.5312 444.681 90.5312C445.038 90.5312 445.378 90.4802 445.718 90.3442C446.024 90.2252 446.313 90.0382 446.568 89.8002C446.806 89.5622 446.993 89.2732 447.146 88.9332C447.282 88.6102 447.35 88.2362 447.35 87.7942C447.35 87.3862 447.282 86.9952 447.146 86.6552C446.993 86.3152 446.806 86.0262 446.568 85.7882C446.313 85.5502 446.024 85.3802 445.718 85.2442C445.378 85.1252 445.038 85.0572 444.681 85.0572C444.307 85.0572 443.967 85.1252 443.661 85.2442C443.338 85.3802 443.066 85.5502 442.828 85.7882C442.59 86.0262 442.403 86.3152 442.267 86.6552C442.114 86.9952 442.046 87.3862 442.046 87.7942ZM445.922 97.4162C447.044 97.0932 447.894 96.5322 448.472 95.7332C449.016 94.9342 449.373 93.8802 449.526 92.5712L450.937 92.8772C450.869 93.3192 450.801 93.7442 450.699 94.1182C450.597 94.5092 450.478 94.8662 450.342 95.2062C450.818 95.6142 451.328 95.9542 451.889 96.2262C452.433 96.4982 453.045 96.7192 453.691 96.9232L453.181 98.1302C452.501 97.9432 451.872 97.7052 451.311 97.4332C450.733 97.1272 450.189 96.7872 449.679 96.3962C448.897 97.5012 447.792 98.2492 446.33 98.6232L445.922 97.4162ZM453.028 83.5782V92.1462H451.583V83.5782H453.028ZM441.247 96.7872C443.44 96.2432 444.596 94.8492 444.698 92.5542L446.041 92.8432C446.007 93.1152 445.99 93.3532 445.956 93.5742C445.922 93.8122 445.871 94.0502 445.82 94.2542C445.956 94.3902 446.109 94.5092 446.279 94.6282C446.449 94.7642 446.619 94.8832 446.806 94.9852C446.976 95.1212 447.163 95.2232 447.333 95.3082C447.503 95.4102 447.639 95.4952 447.775 95.5632L447.044 96.6342C446.806 96.5322 446.534 96.3792 446.228 96.1922C445.905 95.9882 445.599 95.7842 445.31 95.5462C444.936 96.1582 444.46 96.6682 443.865 97.0762C443.253 97.4672 442.505 97.7732 441.655 98.0112L441.247 96.7872ZM455.312 91.0412H468.81V92.3842H455.312V91.0412ZM467.977 96.7022V98.0452H456.298V93.3702H457.743V96.7022H467.977ZM467.722 88.4912V89.8342H456.298V83.9862H457.743V88.4912H467.722Z" fill="white"/>
<defs>
<filter id="filter0_d_1618_3322" x="0" y="0" width="520" height="161.42" filterUnits="userSpaceOnUse" color-interpolation-filters="sRGB">
<feFlood flood-opacity="0" result="BackgroundImageFix"/>
<feColorMatrix in="SourceAlpha" type="matrix" values="0 0 0 0 0 0 0 0 0 0 0 0 0 0 0 0 0 0 127 0" result="hardAlpha"/>
<feOffset dy="4"/>
<feGaussianBlur stdDeviation="2"/>
<feComposite in2="hardAlpha" operator="out"/>
<feColorMatrix type="matrix" values="0 0 0 0 0 0 0 0 0 0 0 0 0 0 0 0 0 0 0.25 0"/>
<feBlend mode="normal" in2="BackgroundImageFix" result="effect1_dropShadow_1618_3322"/>
<feBlend mode="normal" in="SourceGraphic" in2="effect1_dropShadow_1618_3322" result="shape"/>
</filter>
</defs>
</svg>
