<svg width="66" height="66" viewBox="0 0 66 66" fill="none" xmlns="http://www.w3.org/2000/svg">
<path d="M0.384766 31.1565C0.384766 14.3187 14.0359 0.668945 30.8753 0.668945H35.2542C52.0937 0.668945 65.7448 14.3187 65.7448 31.1565V34.8514C65.7448 51.6892 52.0937 65.3389 35.2542 65.3389H30.8753C14.0358 65.3389 0.384766 51.6892 0.384766 34.8514V31.1565Z" fill="#143950"/>
<path fill-rule="evenodd" clip-rule="evenodd" d="M33.0536 23.2729C34.1061 23.2729 34.9593 22.4197 34.9593 21.3674C34.9593 20.315 34.1061 19.4619 33.0536 19.4619L26.9935 19.4619C22.9942 19.4619 19.752 22.7037 19.752 26.7027L19.752 29.3235H19.752V39.3224C19.752 43.3214 22.9941 46.5632 26.9935 46.5632H33.2479H37.1218H39.1145C43.1139 46.5632 46.356 43.3214 46.356 39.3224V32.8032C46.356 31.7508 45.5028 30.8977 44.4504 30.8977C43.3979 30.8977 42.5447 31.7508 42.5447 32.8032V39.3224C42.5447 41.2166 41.009 42.7522 39.1145 42.7522H37.1218H33.2479H26.9935C25.099 42.7522 23.5633 41.2166 23.5633 39.3224V30.6722C23.5633 30.6658 23.5634 30.6593 23.5634 30.6529V26.7027C23.5634 24.8085 25.0991 23.2729 26.9936 23.2729L33.0536 23.2729Z" fill="#7ACAD6"/>
<path fill-rule="evenodd" clip-rule="evenodd" d="M33.0542 20.2241L26.9941 20.2241C23.4157 20.2241 20.5149 23.1247 20.5149 26.7027V29.3235C20.5149 29.3275 20.5148 29.3316 20.5148 29.3357V39.3224C20.5148 42.9004 23.4156 45.801 26.994 45.801H39.1151C42.6934 45.801 45.5943 42.9004 45.5943 39.3224V32.8032C45.5943 32.1718 45.0824 31.6599 44.4509 31.6599C43.8194 31.6599 43.3075 32.1718 43.3075 32.8032V39.3224C43.3075 41.6376 41.4305 43.5144 39.1151 43.5144H26.994C24.6786 43.5144 22.8016 41.6376 22.8016 39.3224V30.6646L22.8017 30.6529V26.7027C22.8017 24.3875 24.6787 22.5107 26.9941 22.5107L33.0542 22.5107C33.6856 22.5107 34.1976 21.9988 34.1976 21.3674C34.1976 20.736 33.6856 20.2241 33.0542 20.2241ZM18.9903 29.3113L18.9903 26.7027C18.9903 22.2828 22.5737 18.6997 26.9941 18.6997L33.0542 18.6997C34.5276 18.6997 35.7221 19.8941 35.7221 21.3674C35.7221 22.8407 34.5276 24.035 33.0542 24.035L26.9941 24.035C25.5206 24.035 24.3262 25.2294 24.3262 26.7027V30.6529L24.3261 30.6722V39.3224C24.3261 40.7957 25.5206 41.99 26.994 41.99H39.1151C40.5885 41.99 41.783 40.7957 41.783 39.3224V32.8032C41.783 31.3299 42.9775 30.1355 44.4509 30.1355C45.9244 30.1355 47.1188 31.3299 47.1188 32.8032V39.3224C47.1188 43.7423 43.5354 47.3254 39.1151 47.3254H26.994C22.5736 47.3254 18.9902 43.7423 18.9902 39.3224V29.3235C18.9902 29.3194 18.9903 29.3153 18.9903 29.3113Z" fill="#7ACAD6"/>
<path d="M28.9141 33.0683V37.4628H33.3089L46.2707 24.5022L41.8759 20.1078L28.9141 33.0683ZM49.6694 21.1039C50.1265 20.6468 50.1265 19.9086 49.6694 19.4516L46.927 16.7095C46.47 16.2524 45.7316 16.2524 45.2746 16.7095L43.1299 18.8539L47.5247 23.2483L49.6694 21.1039Z" fill="#7ACAD6"/>
</svg>
