<svg width="517" height="160" viewBox="0 0 517 160" fill="none" xmlns="http://www.w3.org/2000/svg">
<g filter="url(#filter0_d_1990_2149)">
<path d="M4.46289 19.209C4.46289 8.71558 12.9695 0.208984 23.4629 0.208984H494C504.493 0.208984 513 8.71557 513 19.209V132.596C513 143.089 504.493 151.596 494 151.596H23.4629C12.9695 151.596 4.46289 143.089 4.46289 132.596V19.209Z" fill="#193946" fill-opacity="0.95"/>
<path d="M273.425 105.977V128.412H289.105V131.142H270.45V105.977H273.425ZM292.785 118.472C292.785 116.512 293.1 114.727 293.73 113.117C294.325 111.542 295.165 110.177 296.25 109.022C297.3 107.902 298.525 106.992 299.96 106.362C301.36 105.767 302.9 105.452 304.545 105.452C306.155 105.452 307.695 105.767 309.13 106.362C310.53 106.992 311.79 107.902 312.875 109.022C313.925 110.177 314.8 111.542 315.43 113.117C316.025 114.727 316.34 116.512 316.34 118.472C316.34 120.432 316.025 122.217 315.43 123.792C314.8 125.402 313.925 126.767 312.875 127.887C311.79 129.042 310.53 129.917 309.13 130.547C307.695 131.142 306.155 131.457 304.545 131.457C302.9 131.457 301.36 131.142 299.96 130.547C298.525 129.917 297.3 129.042 296.25 127.887C295.165 126.767 294.325 125.402 293.73 123.792C293.1 122.217 292.785 120.432 292.785 118.472ZM295.725 118.472C295.725 120.047 295.935 121.447 296.39 122.707C296.81 123.967 297.44 125.052 298.245 125.927C299.015 126.837 299.925 127.537 301.045 127.992C302.095 128.482 303.285 128.727 304.545 128.727C305.805 128.727 306.96 128.482 308.08 127.992C309.13 127.537 310.075 126.837 310.88 125.927C311.65 125.052 312.28 123.967 312.735 122.707C313.155 121.447 313.4 120.047 313.4 118.472C313.4 116.932 313.155 115.497 312.735 114.202C312.28 112.942 311.65 111.892 310.88 110.982C310.075 110.107 309.13 109.407 308.08 108.917C306.96 108.427 305.805 108.182 304.545 108.182C303.285 108.182 302.095 108.427 301.045 108.917C299.925 109.407 299.015 110.107 298.245 110.982C297.44 111.892 296.81 112.942 296.39 114.202C295.935 115.497 295.725 116.932 295.725 118.472ZM329.904 108.182C329.274 108.182 328.609 108.217 327.874 108.287C327.104 108.357 326.369 108.532 325.739 108.812C325.039 109.092 324.479 109.512 324.059 110.072C323.604 110.667 323.394 111.437 323.429 112.417C323.429 113.327 323.744 114.027 324.339 114.552C324.899 115.112 325.599 115.532 326.404 115.812C327.174 116.162 327.944 116.372 328.749 116.512C329.519 116.687 330.149 116.827 330.639 116.897C333.124 117.352 335.049 117.877 336.449 118.507C337.814 119.172 338.829 119.872 339.494 120.572C340.124 121.307 340.544 122.042 340.684 122.742C340.789 123.477 340.859 124.142 340.859 124.702C340.859 125.892 340.544 126.907 339.984 127.747C339.354 128.622 338.584 129.322 337.639 129.847C336.659 130.407 335.539 130.827 334.314 131.107C333.054 131.352 331.759 131.492 330.464 131.492C328.994 131.492 327.629 131.317 326.334 130.967C325.004 130.582 323.814 130.022 322.834 129.252C321.819 128.517 321.014 127.572 320.419 126.382C319.789 125.227 319.474 123.862 319.474 122.252L322.274 121.762C322.344 123.092 322.659 124.212 323.149 125.087C323.604 125.997 324.234 126.732 325.004 127.257C325.739 127.817 326.614 128.237 327.629 128.447C328.609 128.692 329.659 128.797 330.814 128.797C331.724 128.797 332.599 128.727 333.474 128.552C334.314 128.412 335.049 128.202 335.714 127.852C336.344 127.537 336.869 127.117 337.289 126.557C337.674 126.067 337.884 125.437 337.884 124.667C337.884 123.967 337.709 123.372 337.394 122.812C337.044 122.322 336.554 121.832 335.889 121.412C335.189 121.027 334.314 120.677 333.264 120.327C332.179 120.047 330.919 119.767 329.449 119.487C328.469 119.347 327.489 119.102 326.439 118.752C325.389 118.472 324.409 118.052 323.534 117.492C322.624 116.967 321.889 116.302 321.329 115.462C320.734 114.657 320.419 113.677 320.419 112.487C320.384 111.472 320.524 110.597 320.804 109.827C321.084 109.092 321.469 108.462 321.994 107.902C322.484 107.412 323.044 106.992 323.709 106.642C324.339 106.362 325.004 106.117 325.739 105.907C326.439 105.732 327.139 105.592 327.874 105.522C328.574 105.487 329.274 105.452 329.904 105.452C332.249 105.452 334.279 105.907 336.029 106.747C337.709 107.657 339.214 109.162 340.474 111.262L338.059 112.767C337.079 111.262 335.959 110.107 334.699 109.337C333.404 108.567 331.794 108.182 329.904 108.182ZM344.016 108.357V105.627H364.876V108.357H355.916V131.142H352.941V108.357H344.016ZM377.931 116.827H405.721V119.592H377.931V116.827ZM400.681 124.142H379.961V121.377H403.656V129.182H383.006V131.457H404.006V134.222H380.031V126.417H400.681V124.142ZM399.806 115.077C400.051 114.097 400.191 113.152 400.261 112.207C400.296 111.297 400.331 110.282 400.331 109.232V107.692H380.486V104.927H403.306V107.937C403.306 109.232 403.271 110.492 403.236 111.682C403.166 112.907 402.956 114.167 402.676 115.427L399.806 115.077ZM420.015 122.287C421.59 121.447 422.85 120.467 423.83 119.312C424.775 118.192 425.51 116.932 426.07 115.532C426.595 114.132 426.98 112.627 427.225 110.947C427.435 109.337 427.645 107.552 427.785 105.662L430.62 105.872C430.55 107.622 430.41 109.407 430.2 111.157C429.92 112.942 429.5 114.657 428.87 116.267C429.92 117.282 431.075 118.087 432.37 118.717C433.63 119.382 434.96 119.942 436.36 120.397L435.31 122.917C433.875 122.497 432.545 121.972 431.32 121.272C430.06 120.642 428.835 119.802 427.645 118.822C426.945 120.082 426.07 121.202 425.02 122.182C423.97 123.162 422.71 124.002 421.24 124.632L420.015 122.287ZM409.445 130.162H437.235V132.927H409.445V130.162ZM420.54 105.872C420.47 107.482 420.365 108.987 420.225 110.317C420.05 111.682 419.805 112.977 419.455 114.237C419.735 114.517 420.05 114.762 420.435 115.042C420.785 115.322 421.17 115.602 421.59 115.847C421.975 116.127 422.36 116.407 422.78 116.617C423.13 116.897 423.48 117.107 423.795 117.247L422.29 119.522C421.765 119.312 421.135 118.927 420.435 118.437C419.665 117.947 419 117.457 418.405 116.932C417.705 118.262 416.83 119.452 415.745 120.467C414.625 121.517 413.225 122.462 411.475 123.267L410.145 120.992C411.72 120.152 412.98 119.207 413.925 118.157C414.835 117.177 415.57 116.057 416.095 114.797C416.585 113.572 416.97 112.207 417.18 110.667C417.355 109.197 417.495 107.517 417.635 105.662L420.54 105.872ZM467.069 104.437V133.977H464.094V104.437H467.069ZM458.319 109.862C458.284 112.242 457.864 114.552 457.059 116.757C456.219 118.997 455.099 121.027 453.734 122.882C452.334 124.772 450.724 126.417 448.904 127.817C447.049 129.252 445.124 130.337 443.129 131.142L441.799 128.867C443.724 128.027 445.509 126.907 447.189 125.577C448.834 124.247 450.269 122.777 451.494 121.097C452.684 119.452 453.629 117.667 454.329 115.742C454.994 113.852 455.344 111.892 455.344 109.862V108.392H442.079V105.627H458.319V109.862Z" fill="white"/>
<path d="M98.7922 111.301L86.2933 146.785H174.365L159.318 103.348C180.65 77.6527 165.819 38.8546 138.881 27.6838C128.381 23.3299 102.632 21.5239 88.8785 33.7383C55.5621 63.3256 76.3479 101.361 98.7922 111.301Z" fill="white" stroke="black" stroke-width="2.64503" stroke-linecap="round" stroke-linejoin="round"/>
<path d="M117.354 86.5576C115.274 89.7818 112.226 96.4426 116.67 97.2919C121.114 98.1412 118.978 90.4895 117.354 86.5576Z" fill="black" fill-opacity="0.2" stroke="black" stroke-width="6.61258" stroke-linecap="round" stroke-linejoin="round"/>
<path d="M147.537 80.1714C147.232 83.9659 147.706 91.2421 152.049 89.9903C156.392 88.7385 150.85 82.9228 147.537 80.1714Z" fill="#D9D9D9" stroke="black" stroke-width="6.61258" stroke-linecap="round" stroke-linejoin="round"/>
<path d="M78.7144 46.3574C80.3499 58.1032 93.5122 87.4562 111.488 66.9595" stroke="black" stroke-width="3.96755" stroke-linecap="round" stroke-linejoin="round"/>
<path d="M95.7876 28.3203C95.7876 51.8119 113.338 82.0941 129.756 61.1719" stroke="black" stroke-width="3.96755" stroke-linejoin="round"/>
<path d="M117.391 24.0742C117.391 47.5658 128.034 76.8479 146.922 59.3539" stroke="black" stroke-width="3.96755" stroke-linejoin="round"/>
<path d="M139.22 28.834C137.175 58.4461 157.417 73.6161 161.583 48.8131" stroke="black" stroke-width="3.96755" stroke-linecap="round" stroke-linejoin="round"/>
<path d="M72.3665 56.5527C76.2293 57.6937 79.2851 57.9474 82.3939 62.3245C88.1893 69.2417 88.9156 81.9877 99.3929 88.6903" stroke="black" stroke-width="3.96755" stroke-linejoin="round"/>
<path d="M99.3924 88.6348C106.752 93.5084 109.752 102.177 98.5154 111.69" stroke="black" stroke-width="3.96755" stroke-linejoin="round"/>
<ellipse cx="119.065" cy="78.5704" rx="3.95642" ry="3.84774" fill="black"/>
<ellipse cx="4.56001" cy="3.35106" rx="4.56001" ry="3.35106" transform="matrix(0.928501 -0.371329 0.38945 0.921048 126.619 81.0254)" fill="black"/>
<ellipse cx="141.655" cy="72.6212" rx="3.95642" ry="3.84774" fill="black"/>
<path d="M127.038 97.1739C129.144 94.5282 135.278 89.8513 142.965 92.3092" stroke="black" stroke-width="3.96755" stroke-linecap="round" stroke-linejoin="round"/>
<path d="M99.1047 111.303L86.6058 146.787H174.678L159.63 103.35C180.962 77.6546 166.132 38.8565 139.193 27.6858C128.694 23.3319 102.945 21.5259 89.191 33.7403C55.8746 63.3275 76.6604 101.363 99.1047 111.303Z" stroke="black" stroke-width="3.96755" stroke-linecap="round" stroke-linejoin="round"/>
</g>
<defs>
<filter id="filter0_d_1990_2149" x="0.462891" y="0.208984" width="516.537" height="159.387" filterUnits="userSpaceOnUse" color-interpolation-filters="sRGB">
<feFlood flood-opacity="0" result="BackgroundImageFix"/>
<feColorMatrix in="SourceAlpha" type="matrix" values="0 0 0 0 0 0 0 0 0 0 0 0 0 0 0 0 0 0 127 0" result="hardAlpha"/>
<feOffset dy="4"/>
<feGaussianBlur stdDeviation="2"/>
<feComposite in2="hardAlpha" operator="out"/>
<feColorMatrix type="matrix" values="0 0 0 0 0 0 0 0 0 0 0 0 0 0 0 0 0 0 0.25 0"/>
<feBlend mode="normal" in2="BackgroundImageFix" result="effect1_dropShadow_1990_2149"/>
<feBlend mode="normal" in="SourceGraphic" in2="effect1_dropShadow_1990_2149" result="shape"/>
</filter>
</defs>
</svg>
