<svg width="509" height="153" viewBox="0 0 509 153" fill="none" xmlns="http://www.w3.org/2000/svg">
<path d="M0.462891 19.8867C0.462891 9.39331 8.96948 0.886719 19.4629 0.886719H490C500.493 0.886719 509 9.39331 509 19.8867V133.273C509 143.767 500.493 152.273 490 152.273H19.4629C8.96949 152.273 0.462891 143.767 0.462891 133.273V19.8867Z" fill="#193946" fill-opacity="0.95"/>
<path d="M269.425 106.655V129.09H285.105V131.82H266.45V106.655H269.425ZM288.785 119.15C288.785 117.19 289.1 115.405 289.73 113.795C290.325 112.22 291.165 110.855 292.25 109.7C293.3 108.58 294.525 107.67 295.96 107.04C297.36 106.445 298.9 106.13 300.545 106.13C302.155 106.13 303.695 106.445 305.13 107.04C306.53 107.67 307.79 108.58 308.875 109.7C309.925 110.855 310.8 112.22 311.43 113.795C312.025 115.405 312.34 117.19 312.34 119.15C312.34 121.11 312.025 122.895 311.43 124.47C310.8 126.08 309.925 127.445 308.875 128.565C307.79 129.72 306.53 130.595 305.13 131.225C303.695 131.82 302.155 132.135 300.545 132.135C298.9 132.135 297.36 131.82 295.96 131.225C294.525 130.595 293.3 129.72 292.25 128.565C291.165 127.445 290.325 126.08 289.73 124.47C289.1 122.895 288.785 121.11 288.785 119.15ZM291.725 119.15C291.725 120.725 291.935 122.125 292.39 123.385C292.81 124.645 293.44 125.73 294.245 126.605C295.015 127.515 295.925 128.215 297.045 128.67C298.095 129.16 299.285 129.405 300.545 129.405C301.805 129.405 302.96 129.16 304.08 128.67C305.13 128.215 306.075 127.515 306.88 126.605C307.65 125.73 308.28 124.645 308.735 123.385C309.155 122.125 309.4 120.725 309.4 119.15C309.4 117.61 309.155 116.175 308.735 114.88C308.28 113.62 307.65 112.57 306.88 111.66C306.075 110.785 305.13 110.085 304.08 109.595C302.96 109.105 301.805 108.86 300.545 108.86C299.285 108.86 298.095 109.105 297.045 109.595C295.925 110.085 295.015 110.785 294.245 111.66C293.44 112.57 292.81 113.62 292.39 114.88C291.935 116.175 291.725 117.61 291.725 119.15ZM325.904 108.86C325.274 108.86 324.609 108.895 323.874 108.965C323.104 109.035 322.369 109.21 321.739 109.49C321.039 109.77 320.479 110.19 320.059 110.75C319.604 111.345 319.394 112.115 319.429 113.095C319.429 114.005 319.744 114.705 320.339 115.23C320.899 115.79 321.599 116.21 322.404 116.49C323.174 116.84 323.944 117.05 324.749 117.19C325.519 117.365 326.149 117.505 326.639 117.575C329.124 118.03 331.049 118.555 332.449 119.185C333.814 119.85 334.829 120.55 335.494 121.25C336.124 121.985 336.544 122.72 336.684 123.42C336.789 124.155 336.859 124.82 336.859 125.38C336.859 126.57 336.544 127.585 335.984 128.425C335.354 129.3 334.584 130 333.639 130.525C332.659 131.085 331.539 131.505 330.314 131.785C329.054 132.03 327.759 132.17 326.464 132.17C324.994 132.17 323.629 131.995 322.334 131.645C321.004 131.26 319.814 130.7 318.834 129.93C317.819 129.195 317.014 128.25 316.419 127.06C315.789 125.905 315.474 124.54 315.474 122.93L318.274 122.44C318.344 123.77 318.659 124.89 319.149 125.765C319.604 126.675 320.234 127.41 321.004 127.935C321.739 128.495 322.614 128.915 323.629 129.125C324.609 129.37 325.659 129.475 326.814 129.475C327.724 129.475 328.599 129.405 329.474 129.23C330.314 129.09 331.049 128.88 331.714 128.53C332.344 128.215 332.869 127.795 333.289 127.235C333.674 126.745 333.884 126.115 333.884 125.345C333.884 124.645 333.709 124.05 333.394 123.49C333.044 123 332.554 122.51 331.889 122.09C331.189 121.705 330.314 121.355 329.264 121.005C328.179 120.725 326.919 120.445 325.449 120.165C324.469 120.025 323.489 119.78 322.439 119.43C321.389 119.15 320.409 118.73 319.534 118.17C318.624 117.645 317.889 116.98 317.329 116.14C316.734 115.335 316.419 114.355 316.419 113.165C316.384 112.15 316.524 111.275 316.804 110.505C317.084 109.77 317.469 109.14 317.994 108.58C318.484 108.09 319.044 107.67 319.709 107.32C320.339 107.04 321.004 106.795 321.739 106.585C322.439 106.41 323.139 106.27 323.874 106.2C324.574 106.165 325.274 106.13 325.904 106.13C328.249 106.13 330.279 106.585 332.029 107.425C333.709 108.335 335.214 109.84 336.474 111.94L334.059 113.445C333.079 111.94 331.959 110.785 330.699 110.015C329.404 109.245 327.794 108.86 325.904 108.86ZM340.016 109.035V106.305H360.876V109.035H351.916V131.82H348.941V109.035H340.016ZM373.931 117.505H401.721V120.27H373.931V117.505ZM396.681 124.82H375.961V122.055H399.656V129.86H379.006V132.135H400.006V134.9H376.031V127.095H396.681V124.82ZM395.806 115.755C396.051 114.775 396.191 113.83 396.261 112.885C396.296 111.975 396.331 110.96 396.331 109.91V108.37H376.486V105.605H399.306V108.615C399.306 109.91 399.271 111.17 399.236 112.36C399.166 113.585 398.956 114.845 398.676 116.105L395.806 115.755ZM416.015 122.965C417.59 122.125 418.85 121.145 419.83 119.99C420.775 118.87 421.51 117.61 422.07 116.21C422.595 114.81 422.98 113.305 423.225 111.625C423.435 110.015 423.645 108.23 423.785 106.34L426.62 106.55C426.55 108.3 426.41 110.085 426.2 111.835C425.92 113.62 425.5 115.335 424.87 116.945C425.92 117.96 427.075 118.765 428.37 119.395C429.63 120.06 430.96 120.62 432.36 121.075L431.31 123.595C429.875 123.175 428.545 122.65 427.32 121.95C426.06 121.32 424.835 120.48 423.645 119.5C422.945 120.76 422.07 121.88 421.02 122.86C419.97 123.84 418.71 124.68 417.24 125.31L416.015 122.965ZM405.445 130.84H433.235V133.605H405.445V130.84ZM416.54 106.55C416.47 108.16 416.365 109.665 416.225 110.995C416.05 112.36 415.805 113.655 415.455 114.915C415.735 115.195 416.05 115.44 416.435 115.72C416.785 116 417.17 116.28 417.59 116.525C417.975 116.805 418.36 117.085 418.78 117.295C419.13 117.575 419.48 117.785 419.795 117.925L418.29 120.2C417.765 119.99 417.135 119.605 416.435 119.115C415.665 118.625 415 118.135 414.405 117.61C413.705 118.94 412.83 120.13 411.745 121.145C410.625 122.195 409.225 123.14 407.475 123.945L406.145 121.67C407.72 120.83 408.98 119.885 409.925 118.835C410.835 117.855 411.57 116.735 412.095 115.475C412.585 114.25 412.97 112.885 413.18 111.345C413.355 109.875 413.495 108.195 413.635 106.34L416.54 106.55ZM463.069 105.115V134.655H460.094V105.115H463.069ZM454.319 110.54C454.284 112.92 453.864 115.23 453.059 117.435C452.219 119.675 451.099 121.705 449.734 123.56C448.334 125.45 446.724 127.095 444.904 128.495C443.049 129.93 441.124 131.015 439.129 131.82L437.799 129.545C439.724 128.705 441.509 127.585 443.189 126.255C444.834 124.925 446.269 123.455 447.494 121.775C448.684 120.13 449.629 118.345 450.329 116.42C450.994 114.53 451.344 112.57 451.344 110.54V109.07H438.079V106.305H454.319V110.54Z" fill="white"/>
<path d="M94.7922 111.979L82.2933 147.463H170.365L155.318 104.026C176.65 78.3304 161.819 39.5323 134.881 28.3615C124.381 24.0077 98.6325 22.2016 84.8786 34.4161C51.5622 64.0033 72.348 102.038 94.7922 111.979Z" fill="white" stroke="black" stroke-width="2.64503" stroke-linecap="round" stroke-linejoin="round"/>
<path d="M113.354 87.2353C111.274 90.4595 108.226 97.1203 112.67 97.9696C117.114 98.8189 114.978 91.1673 113.354 87.2353Z" fill="black" fill-opacity="0.2" stroke="black" stroke-width="6.61258" stroke-linecap="round" stroke-linejoin="round"/>
<path d="M143.537 80.8491C143.232 84.6437 143.706 91.9199 148.049 90.6681C152.392 89.4163 146.85 83.6005 143.537 80.8491Z" fill="#D9D9D9" stroke="black" stroke-width="6.61258" stroke-linecap="round" stroke-linejoin="round"/>
<path d="M74.7143 47.0352C76.3498 58.781 89.5122 88.1339 107.488 67.6372" stroke="black" stroke-width="3.96755" stroke-linecap="round" stroke-linejoin="round"/>
<path d="M91.7877 28.998C91.7877 52.4897 109.338 82.7718 125.756 61.8496" stroke="black" stroke-width="3.96755" stroke-linejoin="round"/>
<path d="M113.391 24.752C113.391 48.2436 124.034 77.5256 142.922 60.0316" stroke="black" stroke-width="3.96755" stroke-linejoin="round"/>
<path d="M135.219 29.5117C133.175 59.1238 153.417 74.2939 157.583 49.4908" stroke="black" stroke-width="3.96755" stroke-linecap="round" stroke-linejoin="round"/>
<path d="M68.3664 57.2305C72.2292 58.3714 75.285 58.6251 78.3938 63.0023C84.1892 69.9195 84.9155 82.6654 95.3928 89.3681" stroke="black" stroke-width="3.96755" stroke-linejoin="round"/>
<path d="M95.3923 89.3125C102.752 94.1862 105.752 102.855 94.5153 112.368" stroke="black" stroke-width="3.96755" stroke-linejoin="round"/>
<ellipse cx="115.065" cy="79.2481" rx="3.95642" ry="3.84774" fill="black"/>
<ellipse cx="4.56001" cy="3.35106" rx="4.56001" ry="3.35106" transform="matrix(0.928501 -0.371329 0.38945 0.921048 122.619 81.7031)" fill="black"/>
<ellipse cx="137.655" cy="73.2989" rx="3.95642" ry="3.84774" fill="black"/>
<path d="M123.038 97.8516C125.144 95.2059 131.278 90.529 138.965 92.9869" stroke="black" stroke-width="3.96755" stroke-linecap="round" stroke-linejoin="round"/>
<path d="M95.1046 111.981L82.6057 147.465H170.677L155.63 104.028C176.962 78.3323 162.132 39.5343 135.193 28.3635C124.694 24.0096 98.9449 22.2036 85.191 34.418C51.8746 64.0052 72.6604 102.04 95.1046 111.981Z" stroke="black" stroke-width="3.96755" stroke-linecap="round" stroke-linejoin="round"/>
</svg>
