<svg width="360" height="134" viewBox="0 0 360 134" fill="none" xmlns="http://www.w3.org/2000/svg">
<g filter="url(#filter0_d_926_8841)">
<path d="M4.42578 19.2283C4.42578 8.73486 12.9324 0.228271 23.4258 0.228271H336.335C346.828 0.228271 355.335 8.73486 355.335 19.2283V106.6C355.335 117.094 346.828 125.6 336.335 125.6H23.4258C12.9324 125.6 4.42578 117.094 4.42578 106.6V19.2283Z" fill="#193946" fill-opacity="0.95"/>
<path d="M122.172 89.0797V103.823H132.476V105.617H120.217V89.0797H122.172ZM134.895 97.2907C134.895 96.0027 135.102 94.8297 135.516 93.7717C135.907 92.7367 136.459 91.8397 137.172 91.0807C137.862 90.3447 138.667 89.7467 139.61 89.3327C140.53 88.9417 141.542 88.7347 142.623 88.7347C143.681 88.7347 144.693 88.9417 145.636 89.3327C146.556 89.7467 147.384 90.3447 148.097 91.0807C148.787 91.8397 149.362 92.7367 149.776 93.7717C150.167 94.8297 150.374 96.0027 150.374 97.2907C150.374 98.5787 150.167 99.7517 149.776 100.787C149.362 101.845 148.787 102.742 148.097 103.478C147.384 104.237 146.556 104.812 145.636 105.226C144.693 105.617 143.681 105.824 142.623 105.824C141.542 105.824 140.53 105.617 139.61 105.226C138.667 104.812 137.862 104.237 137.172 103.478C136.459 102.742 135.907 101.845 135.516 100.787C135.102 99.7517 134.895 98.5787 134.895 97.2907ZM136.827 97.2907C136.827 98.3257 136.965 99.2457 137.264 100.074C137.54 100.902 137.954 101.615 138.483 102.19C138.989 102.788 139.587 103.248 140.323 103.547C141.013 103.869 141.795 104.03 142.623 104.03C143.451 104.03 144.21 103.869 144.946 103.547C145.636 103.248 146.257 102.788 146.786 102.19C147.292 101.615 147.706 100.902 148.005 100.074C148.281 99.2457 148.442 98.3257 148.442 97.2907C148.442 96.2787 148.281 95.3357 148.005 94.4847C147.706 93.6567 147.292 92.9667 146.786 92.3687C146.257 91.7937 145.636 91.3337 144.946 91.0117C144.21 90.6897 143.451 90.5287 142.623 90.5287C141.795 90.5287 141.013 90.6897 140.323 91.0117C139.587 91.3337 138.989 91.7937 138.483 92.3687C137.954 92.9667 137.54 93.6567 137.264 94.4847C136.965 95.3357 136.827 96.2787 136.827 97.2907ZM159.287 90.5287C158.873 90.5287 158.436 90.5517 157.953 90.5977C157.447 90.6437 156.964 90.7587 156.55 90.9427C156.09 91.1267 155.722 91.4027 155.446 91.7707C155.147 92.1617 155.009 92.6677 155.032 93.3117C155.032 93.9097 155.239 94.3697 155.63 94.7147C155.998 95.0827 156.458 95.3587 156.987 95.5427C157.493 95.7727 157.999 95.9107 158.528 96.0027C159.034 96.1177 159.448 96.2097 159.77 96.2557C161.403 96.5547 162.668 96.8997 163.588 97.3137C164.485 97.7507 165.152 98.2107 165.589 98.6707C166.003 99.1537 166.279 99.6367 166.371 100.097C166.44 100.58 166.486 101.017 166.486 101.385C166.486 102.167 166.279 102.834 165.911 103.386C165.497 103.961 164.991 104.421 164.37 104.766C163.726 105.134 162.99 105.41 162.185 105.594C161.357 105.755 160.506 105.847 159.655 105.847C158.689 105.847 157.792 105.732 156.941 105.502C156.067 105.249 155.285 104.881 154.641 104.375C153.974 103.892 153.445 103.271 153.054 102.489C152.64 101.73 152.433 100.833 152.433 99.7747L154.273 99.4527C154.319 100.327 154.526 101.063 154.848 101.638C155.147 102.236 155.561 102.719 156.067 103.064C156.55 103.432 157.125 103.708 157.792 103.846C158.436 104.007 159.126 104.076 159.885 104.076C160.483 104.076 161.058 104.03 161.633 103.915C162.185 103.823 162.668 103.685 163.105 103.455C163.519 103.248 163.864 102.972 164.14 102.604C164.393 102.282 164.531 101.868 164.531 101.362C164.531 100.902 164.416 100.511 164.209 100.143C163.979 99.8207 163.657 99.4987 163.22 99.2227C162.76 98.9697 162.185 98.7397 161.495 98.5097C160.782 98.3257 159.954 98.1417 158.988 97.9577C158.344 97.8657 157.7 97.7047 157.01 97.4747C156.32 97.2907 155.676 97.0147 155.101 96.6467C154.503 96.3017 154.02 95.8647 153.652 95.3127C153.261 94.7837 153.054 94.1397 153.054 93.3577C153.031 92.6907 153.123 92.1157 153.307 91.6097C153.491 91.1267 153.744 90.7127 154.089 90.3447C154.411 90.0227 154.779 89.7467 155.216 89.5167C155.63 89.3327 156.067 89.1717 156.55 89.0337C157.01 88.9187 157.47 88.8267 157.953 88.7807C158.413 88.7577 158.873 88.7347 159.287 88.7347C160.828 88.7347 162.162 89.0337 163.312 89.5857C164.416 90.1837 165.405 91.1727 166.233 92.5527L164.646 93.5417C164.002 92.5527 163.266 91.7937 162.438 91.2877C161.587 90.7817 160.529 90.5287 159.287 90.5287ZM168.561 90.6437V88.8497H182.269V90.6437H176.381V105.617H174.426V90.6437H168.561ZM185.137 97.3827C185.137 95.2667 185.551 93.3807 186.379 91.7247C187.207 90.0687 188.334 88.5967 189.806 87.2627L190.979 88.2517C189.668 89.5627 188.702 90.9887 188.104 92.5527C187.46 94.1167 187.161 95.7267 187.161 97.3367C187.161 98.9467 187.46 100.534 188.058 102.052C188.656 103.616 189.622 105.065 190.979 106.468L189.852 107.434C188.357 106.123 187.207 104.651 186.379 102.995C185.551 101.339 185.137 99.4757 185.137 97.3827ZM196.473 88.3897V90.7817H208.134V88.3897H210.089V96.5317H194.518V88.3897H196.473ZM201.326 99.7977H193.184V97.9807H211.446V99.7977H203.281V103.501H201.326V99.7977ZM210.319 105.824V107.641H194.518V101.316H196.473V105.824H210.319ZM208.134 92.5987H196.473V94.7147H208.134V92.5987ZM229.096 100.787H216.078V98.9697H231.051V104.214H218.033V105.824H231.281V107.641H216.078V102.397H229.096V100.787ZM213.686 96.9687C214.445 96.4627 215.158 95.9107 215.825 95.3587C216.469 94.8297 217.067 94.2317 217.596 93.5417C218.102 92.8977 218.516 92.1387 218.884 91.3107C219.206 90.4827 219.459 89.5397 219.597 88.4357L221.46 88.8497C221.23 90.2067 220.862 91.4257 220.379 92.5297C220.678 92.9437 221.023 93.3117 221.437 93.6797C221.828 94.0707 222.242 94.4387 222.679 94.7607C223.093 95.1057 223.53 95.4047 223.99 95.6807C224.404 95.9797 224.818 96.2327 225.209 96.4167L224.243 97.9347C223.875 97.7967 223.507 97.5897 223.093 97.3367C222.679 97.1067 222.242 96.8077 221.828 96.4857C221.391 96.1637 220.977 95.8187 220.563 95.4277C220.149 95.0597 219.758 94.6457 219.413 94.2317C218.815 95.1057 218.125 95.8877 217.32 96.5317C216.492 97.1987 215.595 97.8197 214.583 98.4177L213.686 96.9687ZM231.051 88.0677V97.8197H229.096V88.0677H231.051ZM249.552 101.017H235.936V99.1997H242.744V97.9117H234.602V96.0947H252.864V97.9117H244.699V99.1997H251.507V104.329H237.937V105.824H251.737V107.641H235.982V102.512H249.552V101.017ZM251.507 88.3897V95.1517H235.936V88.3897H251.507ZM237.891 90.2067V93.3347H249.552V90.2067H237.891ZM260.992 97.3827C260.992 99.4757 260.578 101.339 259.75 102.995C258.922 104.651 257.749 106.123 256.277 107.434L255.15 106.468C256.484 105.065 257.473 103.616 258.071 102.052C258.669 100.534 258.968 98.9467 258.968 97.3367C258.968 95.7267 258.646 94.1167 258.048 92.5527C257.404 90.9887 256.438 89.5627 255.15 88.2517L256.323 87.2627C257.772 88.5967 258.922 90.0687 259.75 91.7247C260.578 93.3807 260.992 95.2667 260.992 97.3827ZM270.449 96.2097H288.711V98.0267H270.449V96.2097ZM285.399 101.017H271.783V99.1997H287.354V104.329H273.784V105.824H287.584V107.641H271.829V102.512H285.399V101.017ZM284.824 95.0597C284.985 94.4157 285.077 93.7947 285.123 93.1737C285.146 92.5757 285.169 91.9087 285.169 91.2187V90.2067H272.128V88.3897H287.124V90.3677C287.124 91.2187 287.101 92.0467 287.078 92.8287C287.032 93.6337 286.894 94.4617 286.71 95.2897L284.824 95.0597ZM298.104 99.7977C299.139 99.2457 299.967 98.6017 300.611 97.8427C301.232 97.1067 301.715 96.2787 302.083 95.3587C302.428 94.4387 302.681 93.4497 302.842 92.3457C302.98 91.2877 303.118 90.1147 303.21 88.8727L305.073 89.0107C305.027 90.1607 304.935 91.3337 304.797 92.4837C304.613 93.6567 304.337 94.7837 303.923 95.8417C304.613 96.5087 305.372 97.0377 306.223 97.4517C307.051 97.8887 307.925 98.2567 308.845 98.5557L308.155 100.212C307.212 99.9357 306.338 99.5907 305.533 99.1307C304.705 98.7167 303.9 98.1647 303.118 97.5207C302.658 98.3487 302.083 99.0847 301.393 99.7287C300.703 100.373 299.875 100.925 298.909 101.339L298.104 99.7977ZM291.158 104.973H309.42V106.79H291.158V104.973ZM298.449 89.0107C298.403 90.0687 298.334 91.0577 298.242 91.9317C298.127 92.8287 297.966 93.6797 297.736 94.5077C297.92 94.6917 298.127 94.8527 298.38 95.0367C298.61 95.2207 298.863 95.4047 299.139 95.5657C299.392 95.7497 299.645 95.9337 299.921 96.0717C300.151 96.2557 300.381 96.3937 300.588 96.4857L299.599 97.9807C299.254 97.8427 298.84 97.5897 298.38 97.2677C297.874 96.9457 297.437 96.6237 297.046 96.2787C296.586 97.1527 296.011 97.9347 295.298 98.6017C294.562 99.2917 293.642 99.9127 292.492 100.442L291.618 98.9467C292.653 98.3947 293.481 97.7737 294.102 97.0837C294.7 96.4397 295.183 95.7037 295.528 94.8757C295.85 94.0707 296.103 93.1737 296.241 92.1617C296.356 91.1957 296.448 90.0917 296.54 88.8727L298.449 89.0107ZM329.025 88.0677V107.48H327.07V88.0677H329.025ZM323.275 91.6327C323.252 93.1967 322.976 94.7147 322.447 96.1637C321.895 97.6357 321.159 98.9697 320.262 100.189C319.342 101.431 318.284 102.512 317.088 103.432C315.869 104.375 314.604 105.088 313.293 105.617L312.419 104.122C313.684 103.57 314.857 102.834 315.961 101.96C317.042 101.086 317.985 100.12 318.79 99.0157C319.572 97.9347 320.193 96.7617 320.653 95.4967C321.09 94.2547 321.32 92.9667 321.32 91.6327V90.6667H312.603V88.8497H323.275V91.6327Z" fill="white"/>
<path d="M44.7467 93.5813L34.2694 123.116H108.096L95.4828 86.9617C113.364 65.574 100.933 33.2805 78.3511 23.9826C69.5498 20.3587 47.9658 18.8554 36.4365 29.0221C8.50883 53.6489 25.9327 85.3073 44.7467 93.5813Z" fill="white" stroke="black" stroke-width="2" stroke-linecap="round" stroke-linejoin="round"/>
<path d="M60.3071 72.9842C58.5636 75.6679 56.0081 81.212 59.7336 81.9189C63.4592 82.6258 61.6682 76.257 60.3071 72.9842Z" fill="black" fill-opacity="0.2" stroke="black" stroke-width="5" stroke-linecap="round" stroke-linejoin="round"/>
<path d="M85.6068 67.6698C85.3508 70.8282 85.7489 76.8846 89.3891 75.8426C93.0293 74.8007 88.3843 69.9599 85.6068 67.6698Z" fill="#D9D9D9" stroke="black" stroke-width="5" stroke-linecap="round" stroke-linejoin="round"/>
<path d="M27.916 39.5251C29.287 49.3017 40.3204 73.7335 55.3891 56.6732" stroke="black" stroke-width="3" stroke-linecap="round" stroke-linejoin="round"/>
<path d="M42.2285 24.5107C42.2285 44.0639 56.9401 69.2691 70.7025 51.8546" stroke="black" stroke-width="3" stroke-linejoin="round"/>
<path d="M60.3379 20.9775C60.3379 40.5307 69.2594 64.9035 85.092 50.3424" stroke="black" stroke-width="3" stroke-linejoin="round"/>
<path d="M78.6349 24.9419C76.9211 49.5894 93.8892 62.2161 97.3814 41.5714" stroke="black" stroke-width="3" stroke-linecap="round" stroke-linejoin="round"/>
<path d="M22.5957 48.0117C25.8337 48.9614 28.3953 49.1725 31.0013 52.8158C35.8593 58.5734 36.4681 69.1824 45.2508 74.7613" stroke="black" stroke-width="3" stroke-linejoin="round"/>
<path d="M45.2489 74.7141C51.4183 78.7707 53.9328 85.9859 44.5137 93.904" stroke="black" stroke-width="3" stroke-linejoin="round"/>
<ellipse cx="61.7403" cy="66.3362" rx="3.31649" ry="3.20265" fill="black"/>
<ellipse cx="3.81875" cy="2.79226" rx="3.81875" ry="2.79226" transform="matrix(0.929402 -0.369069 0.391792 0.920054 68.0723 68.3789)" fill="black"/>
<ellipse cx="80.6759" cy="61.3867" rx="3.31649" ry="3.20265" fill="black"/>
<path d="M68.4238 81.8228C70.1893 79.6207 75.3312 75.7279 81.7751 77.7738" stroke="black" stroke-width="3" stroke-linecap="round" stroke-linejoin="round"/>
<path d="M45.0084 93.5815L34.5311 123.116H108.358L95.7446 86.9619C113.626 65.5742 101.194 33.2808 78.6128 23.9828C69.8116 20.3589 48.2276 18.8557 36.6982 29.0223C8.77055 53.6491 26.1944 85.3075 45.0084 93.5815Z" stroke="black" stroke-width="3" stroke-linecap="round" stroke-linejoin="round"/>
</g>
<defs>
<filter id="filter0_d_926_8841" x="0.425781" y="0.228271" width="358.91" height="133.372" filterUnits="userSpaceOnUse" color-interpolation-filters="sRGB">
<feFlood flood-opacity="0" result="BackgroundImageFix"/>
<feColorMatrix in="SourceAlpha" type="matrix" values="0 0 0 0 0 0 0 0 0 0 0 0 0 0 0 0 0 0 127 0" result="hardAlpha"/>
<feOffset dy="4"/>
<feGaussianBlur stdDeviation="2"/>
<feComposite in2="hardAlpha" operator="out"/>
<feColorMatrix type="matrix" values="0 0 0 0 0 0 0 0 0 0 0 0 0 0 0 0 0 0 0.25 0"/>
<feBlend mode="normal" in2="BackgroundImageFix" result="effect1_dropShadow_926_8841"/>
<feBlend mode="normal" in="SourceGraphic" in2="effect1_dropShadow_926_8841" result="shape"/>
</filter>
</defs>
</svg>
