<svg width="52" height="68" viewBox="0 0 52 68" fill="none" xmlns="http://www.w3.org/2000/svg">
<g filter="url(#filter0_d_986_2363)">
<mask id="path-1-outside-1_986_2363" maskUnits="userSpaceOnUse" x="24.2974" y="23.7664" width="23.3422" height="21.9973" fill="black">
<rect fill="white" x="24.2974" y="23.7664" width="23.3422" height="21.9973"/>
<path d="M36.7143 44.0339C38.6943 44.0339 40.3002 43.7819 41.532 43.278C42.7639 42.7741 43.7372 42.1081 44.4521 41.2802C45.1493 40.4343 45.6323 39.4715 45.9011 38.3916C46.1519 37.3117 46.2862 36.1959 46.3041 35.044L46.4545 25.3792L42.7555 25.3792L42.6072 34.909C42.5938 35.7729 42.4913 36.5738 42.2999 37.3117C42.1087 38.0316 41.7929 38.6616 41.3525 39.2015C40.8943 39.7234 40.285 40.1284 39.5246 40.4163C38.7461 40.7043 37.7628 40.8483 36.5748 40.8483L35.6028 40.8483C34.4328 40.8483 33.4721 40.7043 32.7206 40.4163C31.951 40.1284 31.3543 39.7234 30.9305 39.2015C30.4889 38.6616 30.1837 38.0316 30.0149 37.3117C29.8463 36.5738 29.7688 35.7729 29.7822 34.909L29.9305 25.3792L26.2045 25.3792L26.0541 35.044C26.0362 36.1959 26.1449 37.3117 26.3801 38.3916C26.5973 39.4715 27.0503 40.4343 27.7391 41.2802C28.4102 42.1081 29.3629 42.7741 30.597 43.278C31.8132 43.7819 33.4023 44.0339 35.3643 44.0339L36.7143 44.0339Z"/>
</mask>
<path d="M36.7143 44.0339C38.6943 44.0339 40.3002 43.7819 41.532 43.278C42.7639 42.7741 43.7372 42.1081 44.4521 41.2802C45.1493 40.4343 45.6323 39.4715 45.9011 38.3916C46.1519 37.3117 46.2862 36.1959 46.3041 35.044L46.4545 25.3792L42.7555 25.3792L42.6072 34.909C42.5938 35.7729 42.4913 36.5738 42.2999 37.3117C42.1087 38.0316 41.7929 38.6616 41.3525 39.2015C40.8943 39.7234 40.285 40.1284 39.5246 40.4163C38.7461 40.7043 37.7628 40.8483 36.5748 40.8483L35.6028 40.8483C34.4328 40.8483 33.4721 40.7043 32.7206 40.4163C31.951 40.1284 31.3543 39.7234 30.9305 39.2015C30.4889 38.6616 30.1837 38.0316 30.0149 37.3117C29.8463 36.5738 29.7688 35.7729 29.7822 34.909L29.9305 25.3792L26.2045 25.3792L26.0541 35.044C26.0362 36.1959 26.1449 37.3117 26.3801 38.3916C26.5973 39.4715 27.0503 40.4343 27.7391 41.2802C28.4102 42.1081 29.3629 42.7741 30.597 43.278C31.8132 43.7819 33.4023 44.0339 35.3643 44.0339L36.7143 44.0339Z" fill="#7ACAD6"/>
<path d="M41.532 43.278L41.8984 44.2026L41.532 43.278ZM44.4521 41.2802L45.22 41.9089C45.215 41.9149 45.2099 41.9209 45.2048 41.9269L44.4521 41.2802ZM45.9011 38.3916L46.8751 38.6033C46.8739 38.6085 46.8727 38.6136 46.8714 38.6188L45.9011 38.3916ZM46.4545 25.3792L46.47 24.3793C47.0223 24.3793 47.4631 24.8269 47.4545 25.3792L46.4545 25.3792ZM42.7555 25.3792L41.7555 25.3792C41.7641 24.8269 42.2188 24.3793 42.771 24.3793L42.7555 25.3792ZM42.2999 37.3117L43.2677 37.5487L43.2662 37.5542L42.2999 37.3117ZM41.3525 39.2015L42.1236 39.8261C42.1158 39.8357 42.1079 39.8451 42.0997 39.8544L41.3525 39.2015ZM39.5246 40.4163L39.866 41.3508L39.8587 41.3535L39.5246 40.4163ZM32.7206 40.4163L33.0839 39.4792L33.0911 39.482L32.7206 40.4163ZM30.9305 39.2015L31.7086 38.5614L31.7108 38.564L30.9305 39.2015ZM30.0149 37.3117L29.0409 37.5542L29.0397 37.5487L30.0149 37.3117ZM29.9305 25.3792L29.946 24.3793C30.4983 24.3793 30.9391 24.8269 30.9305 25.3792L29.9305 25.3792ZM26.2045 25.3792L25.2045 25.3792C25.2131 24.8269 25.6678 24.3793 26.22 24.3793L26.2045 25.3792ZM26.3801 38.3916L27.3574 38.1644C27.3586 38.1695 27.3596 38.1747 27.3607 38.1799L26.3801 38.3916ZM27.7391 41.2802L28.5186 40.6417L28.52 40.6434L27.7391 41.2802ZM30.597 43.278L30.9875 42.3515L30.9922 42.3534L30.597 43.278ZM36.7298 43.034C38.6379 43.034 40.1001 42.7893 41.1657 42.3534L41.8984 44.2026C40.5003 44.7745 38.7507 45.0338 36.6987 45.0338L36.7298 43.034ZM41.1657 42.3534C42.2811 41.8971 43.1104 41.3158 43.6994 40.6336L45.2048 41.9269C44.3641 42.9005 43.2467 43.651 41.8984 44.2026L41.1657 42.3534ZM43.6843 40.6516C44.2828 39.9253 44.6978 39.1003 44.9308 38.1644L46.8714 38.6188C46.5667 39.8426 46.0157 40.9434 45.22 41.9089L43.6843 40.6516ZM44.927 38.1799C45.161 37.1725 45.2873 36.1277 45.3041 35.044L47.3041 35.044C47.2852 36.264 47.1427 37.451 46.8751 38.6033L44.927 38.1799ZM45.3041 35.044L45.4545 25.3792L47.4545 25.3792L47.3041 35.044L45.3041 35.044ZM46.4389 26.379L42.7399 26.379L42.771 24.3793L46.47 24.3793L46.4389 26.379ZM43.7555 25.3792L43.6072 34.909L41.6072 34.909L41.7555 25.3792L43.7555 25.3792ZM43.6072 34.909C43.5927 35.842 43.4818 36.7234 43.2677 37.5487L41.332 37.0748C41.5009 36.4242 41.5949 35.7038 41.6072 34.909L43.6072 34.909ZM43.2662 37.5542C43.0407 38.4033 42.6622 39.1658 42.1236 39.8261L40.5813 38.5769C40.9235 38.1573 41.1766 37.66 41.3335 37.0692L43.2662 37.5542ZM42.0997 39.8544C41.5135 40.5222 40.7553 41.014 39.866 41.3507L39.1831 39.482C39.8148 39.2428 40.2752 38.9247 40.6052 38.5486L42.0997 39.8544ZM39.8587 41.3535C38.9304 41.6968 37.8186 41.8482 36.5593 41.8482L36.5904 39.8484C37.7071 39.8484 38.5618 39.7118 39.1904 39.4792L39.8587 41.3535ZM36.5593 41.8482L35.5873 41.8482L35.6184 39.8484L36.5904 39.8484L36.5593 41.8482ZM35.5873 41.8482C34.3453 41.8482 33.253 41.6967 32.35 41.3507L33.0911 39.482C33.6912 39.7119 34.5204 39.8484 35.6184 39.8484L35.5873 41.8482ZM32.3573 41.3535C31.4599 41.0177 30.7054 40.5227 30.1502 39.839L31.7108 38.564C32.0032 38.9241 32.4422 39.2391 33.0839 39.4792L32.3573 41.3535ZM30.1523 39.8416C29.6108 39.1796 29.242 38.4118 29.0409 37.5542L30.9888 37.0692C31.1253 37.6514 31.3669 38.1435 31.7086 38.5614L30.1523 39.8416ZM29.0397 37.5487C28.8512 36.7234 28.7677 35.842 28.7822 34.909L30.7822 34.909C30.7699 35.7038 30.8415 36.4242 30.9901 37.0748L29.0397 37.5487ZM28.7822 34.909L28.9305 25.3792L30.9305 25.3792L30.7822 34.909L28.7822 34.909ZM29.9149 26.379L26.1889 26.379L26.22 24.3793L29.946 24.3793L29.9149 26.379ZM27.2045 25.3792L27.0541 35.044L25.0541 35.044L25.2045 25.3792L27.2045 25.3792ZM27.0541 35.044C27.0374 36.1223 27.1391 37.1618 27.3574 38.1644L25.4027 38.6188C25.1506 37.4616 25.0351 36.2694 25.0541 35.044L27.0541 35.044ZM27.3607 38.1799C27.5465 39.1037 27.9309 39.92 28.5186 40.6417L26.9596 41.9187C26.1697 40.9486 25.648 39.8392 25.3994 38.6033L27.3607 38.1799ZM28.52 40.6434C29.0649 41.3156 29.8688 41.8947 30.9875 42.3515L30.2066 44.2045C28.857 43.6534 27.7556 42.9007 26.9583 41.917L28.52 40.6434ZM30.9922 42.3534C32.045 42.7897 33.4912 43.034 35.3798 43.034L35.3487 45.0338C33.3134 45.0338 31.5814 44.7742 30.2019 44.2026L30.9922 42.3534ZM35.3798 43.034L36.7298 43.034L36.6987 45.0338L35.3487 45.0338L35.3798 43.034Z" fill="#7ACAD6" mask="url(#path-1-outside-1_986_2363)"/>
<mask id="path-3-outside-2_986_2363" maskUnits="userSpaceOnUse" x="3.77793" y="7.23993" width="30.7527" height="28.8786" fill="black">
<rect fill="white" x="3.77793" y="7.23993" width="30.7527" height="28.8786"/>
<path d="M6.14508 25.6115L24.1559 16.6975L11.197 12.2897L12.299 9.04997L31.7922 15.6803L31.1199 17.6571L12.9168 26.5057L27.3583 31.4178L25.1856 34.2933L5.47271 27.5883L6.14508 25.6115Z"/>
</mask>
<path d="M6.14508 25.6115L24.1559 16.6975L11.197 12.2897L12.299 9.04997L31.7922 15.6803L31.1199 17.6571L12.9168 26.5057L27.3583 31.4178L25.1856 34.2933L5.47271 27.5883L6.14508 25.6115Z" fill="#E1DF42"/>
<path d="M6.14508 25.6115L5.70151 24.7152C5.46445 24.8326 5.28353 25.039 5.19835 25.2895L6.14508 25.6115ZM24.1559 16.6975L24.5995 17.5937C24.9617 17.4145 25.1804 17.0349 25.1538 16.6317C25.1272 16.2285 24.8605 15.8809 24.4779 15.7507L24.1559 16.6975ZM11.197 12.2897L10.2503 11.9677C10.0725 12.4905 10.3522 13.0586 10.875 13.2364L11.197 12.2897ZM12.299 9.04997L12.621 8.10324C12.0981 7.92539 11.5301 8.20509 11.3523 8.72795L12.299 9.04997ZM31.7922 15.6803L32.739 16.0023C32.9168 15.4795 32.6371 14.9114 32.1142 14.7336L31.7922 15.6803ZM31.1199 17.6571L31.557 18.5565C31.7972 18.4398 31.9806 18.2319 32.0666 17.9791L31.1199 17.6571ZM12.9168 26.5057L12.4796 25.6064C12.115 25.7836 11.8935 26.1634 11.9188 26.568C11.944 26.9726 12.211 27.3219 12.5948 27.4525L12.9168 26.5057ZM27.3583 31.4178L28.1562 32.0206C28.3497 31.7645 28.4085 31.4311 28.3142 31.1243C28.22 30.8174 27.9842 30.5744 27.6803 30.4711L27.3583 31.4178ZM25.1856 34.2933L24.8636 35.2401C25.272 35.379 25.7234 35.2403 25.9834 34.8962L25.1856 34.2933ZM5.47271 27.5883L4.52598 27.2662C4.34813 27.7891 4.62782 28.3571 5.15069 28.535L5.47271 27.5883ZM6.58865 26.5077L24.5995 17.5937L23.7124 15.8012L5.70151 24.7152L6.58865 26.5077ZM24.4779 15.7507L11.5191 11.343L10.875 13.2364L23.8339 17.6442L24.4779 15.7507ZM12.1438 12.6117L13.2457 9.37199L11.3523 8.72795L10.2503 11.9677L12.1438 12.6117ZM11.977 9.9967L31.4702 16.6271L32.1142 14.7336L12.621 8.10324L11.977 9.9967ZM30.8455 15.3583L30.1731 17.3351L32.0666 17.9791L32.739 16.0023L30.8455 15.3583ZM30.6827 16.7577L12.4796 25.6064L13.354 27.4051L31.557 18.5565L30.6827 16.7577ZM12.5948 27.4525L27.0363 32.3645L27.6803 30.4711L13.2388 25.559L12.5948 27.4525ZM26.5604 30.815L24.3877 33.6905L25.9834 34.8962L28.1562 32.0206L26.5604 30.815ZM25.5076 33.3466L5.79473 26.6415L5.15069 28.535L24.8636 35.2401L25.5076 33.3466ZM6.41944 27.9103L7.09182 25.9335L5.19835 25.2895L4.52598 27.2662L6.41944 27.9103Z" fill="#E1DF42" mask="url(#path-3-outside-2_986_2363)"/>
</g>
<defs>
<filter id="filter0_d_986_2363" x="0.472412" y="8.04968" width="50.9822" height="44.9841" filterUnits="userSpaceOnUse" color-interpolation-filters="sRGB">
<feFlood flood-opacity="0" result="BackgroundImageFix"/>
<feColorMatrix in="SourceAlpha" type="matrix" values="0 0 0 0 0 0 0 0 0 0 0 0 0 0 0 0 0 0 127 0" result="hardAlpha"/>
<feOffset dy="4"/>
<feGaussianBlur stdDeviation="2"/>
<feComposite in2="hardAlpha" operator="out"/>
<feColorMatrix type="matrix" values="0 0 0 0 0 0 0 0 0 0 0 0 0 0 0 0 0 0 0.25 0"/>
<feBlend mode="normal" in2="BackgroundImageFix" result="effect1_dropShadow_986_2363"/>
<feBlend mode="normal" in="SourceGraphic" in2="effect1_dropShadow_986_2363" result="shape"/>
</filter>
</defs>
</svg>
