<svg width="124" height="55" viewBox="0 0 124 55" fill="none" xmlns="http://www.w3.org/2000/svg">
<path d="M48.426 28.5889L70.8713 28.5889" stroke="#25434F" stroke-width="5.5" stroke-linecap="round"/>
<mask id="path-2-outside-1_1209_111" maskUnits="userSpaceOnUse" x="29.0595" y="7.88389" width="26.9213" height="26.4337" fill="black">
<rect fill="white" x="29.0595" y="7.88389" width="26.9213" height="26.4337"/>
<path d="M43.9963 31.3026C46.1851 31.0808 47.9321 30.6223 49.2374 29.9271C50.5426 29.232 51.544 28.3868 52.2415 27.3915C52.9174 26.3783 53.3434 25.2598 53.5195 24.0359C53.6757 22.8141 53.6992 21.5655 53.59 20.2902L52.6732 9.58935L48.5841 10.0039L49.4881 20.5552C49.5701 21.5117 49.5465 22.4085 49.4176 23.2457C49.2869 24.063 49.0084 24.7947 48.582 25.4409C48.1341 26.0692 47.5059 26.5851 46.6975 26.9887C45.8692 27.3943 44.7984 27.6636 43.4852 27.7967L42.4107 27.9056C41.1173 28.0368 40.0391 27.9853 39.1761 27.7511C38.2931 27.519 37.5881 27.1382 37.0611 26.6088C36.5124 26.0614 36.1044 25.3992 35.8372 24.6223C35.5682 23.8255 35.3927 22.9488 35.3108 21.9923L34.4068 11.441L30.2879 11.8585L31.2047 22.5593C31.3139 23.8346 31.5591 25.056 31.9401 26.2234C32.3012 27.3928 32.9099 28.4064 33.7662 29.2643C34.6008 30.1043 35.7285 30.7337 37.1493 31.1525C38.5502 31.5733 40.335 31.6738 42.5039 31.4539L43.9963 31.3026Z"/>
</mask>
<path d="M43.9963 31.3026C46.1851 31.0808 47.9321 30.6223 49.2374 29.9271C50.5426 29.232 51.544 28.3868 52.2415 27.3915C52.9174 26.3783 53.3434 25.2598 53.5195 24.0359C53.6757 22.8141 53.6992 21.5655 53.59 20.2902L52.6732 9.58935L48.5841 10.0039L49.4881 20.5552C49.5701 21.5117 49.5465 22.4085 49.4176 23.2457C49.2869 24.063 49.0084 24.7947 48.582 25.4409C48.1341 26.0692 47.5059 26.5851 46.6975 26.9887C45.8692 27.3943 44.7984 27.6636 43.4852 27.7967L42.4107 27.9056C41.1173 28.0368 40.0391 27.9853 39.1761 27.7511C38.2931 27.519 37.5881 27.1382 37.0611 26.6088C36.5124 26.0614 36.1044 25.3992 35.8372 24.6223C35.5682 23.8255 35.3927 22.9488 35.3108 21.9923L34.4068 11.441L30.2879 11.8585L31.2047 22.5593C31.3139 23.8346 31.5591 25.056 31.9401 26.2234C32.3012 27.3928 32.9099 28.4064 33.7662 29.2643C34.6008 30.1043 35.7285 30.7337 37.1493 31.1525C38.5502 31.5733 40.335 31.6738 42.5039 31.4539L43.9963 31.3026Z" fill="#7ACAD6"/>
<path d="M49.2374 29.9271L49.6951 30.8101L49.2374 29.9271ZM52.2415 27.3915L53.0688 27.9395C53.0645 27.946 53.06 27.9525 53.0555 27.9589L52.2415 27.3915ZM53.5195 24.0359L54.5099 24.1483C54.5092 24.1536 54.5085 24.1588 54.5078 24.1641L53.5195 24.0359ZM52.6732 9.58935L52.5878 8.593C53.1373 8.53731 53.6209 8.93823 53.6681 9.4885L52.6732 9.58935ZM48.5841 10.0039L47.5892 10.1047C47.5421 9.55444 47.9493 9.0632 48.4987 9.0075L48.5841 10.0039ZM49.4176 23.2457L50.4044 23.3838L50.4035 23.3895L49.4176 23.2457ZM48.582 25.4409L49.4122 25.9846C49.4055 25.9949 49.3985 26.005 49.3913 26.0151L48.582 25.4409ZM46.6975 26.9887L47.1315 27.8839L47.1245 27.8873L46.6975 26.9887ZM39.1761 27.7511L39.443 26.7821L39.4505 26.7842L39.1761 27.7511ZM37.0611 26.6088L37.7707 25.8934L37.7731 25.8958L37.0611 26.6088ZM35.8372 24.6223L34.8926 24.9618L34.8908 24.9564L35.8372 24.6223ZM34.4068 11.441L34.3214 10.4446C34.8709 10.3889 35.3545 10.7899 35.4017 11.3401L34.4068 11.441ZM30.2879 11.8585L29.293 11.9594C29.2458 11.4091 29.653 10.9179 30.2025 10.8622L30.2879 11.8585ZM31.9401 26.2234L32.8896 25.8988C32.8912 25.9038 32.8928 25.9088 32.8944 25.9138L31.9401 26.2234ZM33.7662 29.2643L34.4773 28.5505L34.4788 28.552L33.7662 29.2643ZM37.1493 31.1525L37.4443 30.1913L37.4492 30.1928L37.1493 31.1525ZM43.9109 30.3063C46.0281 30.0917 47.6329 29.6549 48.7796 29.0442L49.6951 30.8101C48.2313 31.5896 46.342 32.0698 44.0816 32.299L43.9109 30.3063ZM48.7796 29.0442C49.9738 28.4083 50.8404 27.6617 51.4274 26.8241L53.0555 27.9589C52.2476 29.1119 51.1114 30.0558 49.6951 30.8101L48.7796 29.0442ZM51.4141 26.8435C52.004 25.9593 52.3762 24.9847 52.5312 23.9077L54.5078 24.1641C54.3105 25.5348 53.8307 26.7973 53.0688 27.9395L51.4141 26.8435ZM52.5291 23.9235C52.6759 22.7754 52.6985 21.5984 52.5951 20.391L54.5849 20.1893C54.6999 21.5326 54.6756 22.8527 54.5099 24.1483L52.5291 23.9235ZM52.5951 20.391L51.6783 9.69021L53.6681 9.4885L54.5849 20.1893L52.5951 20.391ZM52.7585 10.5857L48.6695 11.0002L48.4987 9.0075L52.5878 8.593L52.7585 10.5857ZM49.579 9.903L50.483 20.4543L48.4932 20.6561L47.5892 10.1047L49.579 9.903ZM50.483 20.4543C50.5709 21.4797 50.5471 22.4575 50.4044 23.3838L48.4308 23.1076C48.546 22.3596 48.5693 21.5437 48.4932 20.6561L50.483 20.4543ZM50.4035 23.3895C50.2517 24.3387 49.9241 25.2087 49.4122 25.9846L47.7518 24.8973C48.0926 24.3807 48.3221 23.7872 48.4317 23.1019L50.4035 23.3895ZM49.3913 26.0151C48.8307 26.8015 48.0631 27.4188 47.1315 27.8839L46.2636 26.0935C46.9487 25.7515 47.4375 25.337 47.7727 24.8667L49.3913 26.0151ZM47.1245 27.8873C46.1527 28.3631 44.9547 28.6528 43.5705 28.7931L43.3998 26.8004C44.6422 26.6744 45.5857 26.4254 46.2706 26.0901L47.1245 27.8873ZM43.5705 28.7931L42.496 28.902L42.3253 26.9093L43.3998 26.8004L43.5705 28.7931ZM42.496 28.902C41.131 29.0404 39.9212 28.9947 38.9017 28.7181L39.4505 26.7842C40.157 26.9758 41.1036 27.0331 42.3253 26.9093L42.496 28.902ZM38.9091 28.7201C37.8942 28.4533 37.0231 27.9989 36.349 27.3217L37.7731 25.8958C38.1531 26.2776 38.6921 26.5848 39.443 26.7822L38.9091 28.7201ZM36.3514 27.3241C35.6911 26.6653 35.2059 25.8725 34.8927 24.9618L36.7817 24.2828C37.0029 24.926 37.3337 25.4575 37.7707 25.8934L36.3514 27.3241ZM34.8908 24.9564C34.5932 24.0747 34.4037 23.1186 34.3159 22.0932L36.3057 21.8915C36.3817 22.7791 36.5432 23.5763 36.7835 24.2883L34.8908 24.9564ZM34.3159 22.0932L33.4119 11.5418L35.4017 11.3401L36.3057 21.8915L34.3159 22.0932ZM34.4921 12.4373L30.3732 12.8549L30.2025 10.8622L34.3214 10.4446L34.4921 12.4373ZM31.2828 11.7577L32.1996 22.4585L30.2098 22.6602L29.293 11.9594L31.2828 11.7577ZM32.1996 22.4585C32.3026 23.6605 32.5331 24.8066 32.8896 25.8988L30.9906 26.548C30.5851 25.3054 30.3253 24.0088 30.2098 22.6602L32.1996 22.4585ZM32.8944 25.9138C33.2085 26.9312 33.7342 27.8059 34.4773 28.5505L33.055 29.9782C32.0856 29.0069 31.3939 27.8544 30.9858 26.5329L32.8944 25.9138ZM34.4788 28.552C35.1722 29.2498 36.1431 29.8078 37.4443 30.1913L36.8543 32.1136C35.3139 31.6596 34.0294 30.9588 33.0535 29.9766L34.4788 28.552ZM37.4492 30.1928C38.6807 30.5627 40.3227 30.67 42.4186 30.4576L42.5893 32.4503C40.3474 32.6775 38.4196 32.5838 36.8494 32.1122L37.4492 30.1928ZM42.4186 30.4576L43.9109 30.3063L44.0816 32.299L42.5893 32.4503L42.4186 30.4576Z" fill="#7ACAD6" mask="url(#path-2-outside-1_1209_111)"/>
<mask id="path-4-outside-2_1209_111" maskUnits="userSpaceOnUse" x="62.2825" y="7.88389" width="26.9213" height="26.4337" fill="black">
<rect fill="white" x="62.2825" y="7.88389" width="26.9213" height="26.4337"/>
<path d="M74.2669 31.3026C72.0781 31.0808 70.3311 30.6223 69.0258 29.9271C67.7206 29.232 66.7192 28.3868 66.0217 27.3915C65.3458 26.3783 64.9198 25.2598 64.7437 24.0359C64.5874 22.8141 64.564 21.5655 64.6732 20.2902L65.59 9.58935L69.6791 10.0039L68.7751 20.5552C68.6931 21.5117 68.7166 22.4085 68.8456 23.2457C68.9763 24.063 69.2548 24.7947 69.6812 25.4409C70.1291 26.0692 70.7573 26.5851 71.5657 26.9887C72.394 27.3943 73.4647 27.6636 74.778 27.7967L75.8525 27.9056C77.1459 28.0368 78.2241 27.9853 79.0871 27.7511C79.9701 27.519 80.675 27.1382 81.2021 26.6088C81.7508 26.0614 82.1588 25.3992 82.426 24.6223C82.695 23.8255 82.8705 22.9488 82.9524 21.9923L83.8564 11.441L87.9753 11.8585L87.0585 22.5593C86.9492 23.8346 86.7041 25.056 86.3231 26.2234C85.962 27.3928 85.3533 28.4064 84.497 29.2643C83.6624 30.1043 82.5347 30.7337 81.1139 31.1525C79.713 31.5733 77.9281 31.6738 75.7593 31.4539L74.2669 31.3026Z"/>
</mask>
<path d="M74.2669 31.3026C72.0781 31.0808 70.3311 30.6223 69.0258 29.9271C67.7206 29.232 66.7192 28.3868 66.0217 27.3915C65.3458 26.3783 64.9198 25.2598 64.7437 24.0359C64.5874 22.8141 64.564 21.5655 64.6732 20.2902L65.59 9.58935L69.6791 10.0039L68.7751 20.5552C68.6931 21.5117 68.7166 22.4085 68.8456 23.2457C68.9763 24.063 69.2548 24.7947 69.6812 25.4409C70.1291 26.0692 70.7573 26.5851 71.5657 26.9887C72.394 27.3943 73.4647 27.6636 74.778 27.7967L75.8525 27.9056C77.1459 28.0368 78.2241 27.9853 79.0871 27.7511C79.9701 27.519 80.675 27.1382 81.2021 26.6088C81.7508 26.0614 82.1588 25.3992 82.426 24.6223C82.695 23.8255 82.8705 22.9488 82.9524 21.9923L83.8564 11.441L87.9753 11.8585L87.0585 22.5593C86.9492 23.8346 86.7041 25.056 86.3231 26.2234C85.962 27.3928 85.3533 28.4064 84.497 29.2643C83.6624 30.1043 82.5347 30.7337 81.1139 31.1525C79.713 31.5733 77.9281 31.6738 75.7593 31.4539L74.2669 31.3026Z" fill="#7ACAD6"/>
<path d="M69.0258 29.9271L68.5681 30.8101L69.0258 29.9271ZM66.0217 27.3915L65.1944 27.9395C65.1987 27.946 65.2031 27.9525 65.2076 27.9589L66.0217 27.3915ZM64.7437 24.0359L63.7533 24.1483C63.7539 24.1536 63.7546 24.1588 63.7554 24.1641L64.7437 24.0359ZM65.59 9.58935L65.6754 8.593C65.1259 8.53731 64.6423 8.93823 64.5951 9.4885L65.59 9.58935ZM69.6791 10.0039L70.674 10.1047C70.7211 9.55444 70.3139 9.0632 69.7644 9.0075L69.6791 10.0039ZM68.8456 23.2457L67.8588 23.3838L67.8597 23.3895L68.8456 23.2457ZM69.6812 25.4409L68.8509 25.9846C68.8577 25.9949 68.8647 26.005 68.8719 26.0151L69.6812 25.4409ZM71.5657 26.9887L71.1317 27.8839L71.1387 27.8873L71.5657 26.9887ZM79.0871 27.7511L78.8202 26.7821L78.8127 26.7842L79.0871 27.7511ZM81.2021 26.6088L80.4925 25.8934L80.4901 25.8958L81.2021 26.6088ZM82.426 24.6223L83.3705 24.9618L83.3724 24.9564L82.426 24.6223ZM83.8564 11.441L83.9418 10.4446C83.3923 10.3889 82.9087 10.7899 82.8615 11.3401L83.8564 11.441ZM87.9753 11.8585L88.9702 11.9594C89.0174 11.4091 88.6101 10.9179 88.0607 10.8622L87.9753 11.8585ZM86.3231 26.2234L85.3736 25.8988C85.372 25.9038 85.3704 25.9088 85.3688 25.9138L86.3231 26.2234ZM84.497 29.2643L83.7859 28.5505L83.7844 28.552L84.497 29.2643ZM81.1139 31.1525L80.8189 30.1913L80.814 30.1928L81.1139 31.1525ZM74.3523 30.3063C72.2351 30.0917 70.6303 29.6549 69.4836 29.0442L68.5681 30.8101C70.0319 31.5896 71.9212 32.0698 74.1815 32.299L74.3523 30.3063ZM69.4836 29.0442C68.2894 28.4083 67.4228 27.6617 66.8358 26.8241L65.2076 27.9589C66.0156 29.1119 67.1518 30.0558 68.5681 30.8101L69.4836 29.0442ZM66.849 26.8435C66.2592 25.9593 65.887 24.9847 65.732 23.9077L63.7554 24.1641C63.9527 25.5348 64.4325 26.7973 65.1944 27.9395L66.849 26.8435ZM65.7341 23.9235C65.5873 22.7754 65.5647 21.5984 65.6681 20.391L63.6783 20.1893C63.5632 21.5326 63.5876 22.8527 63.7533 24.1483L65.7341 23.9235ZM65.6681 20.391L66.5849 9.69021L64.5951 9.4885L63.6783 20.1893L65.6681 20.391ZM65.5047 10.5857L69.5937 11.0002L69.7644 9.0075L65.6754 8.593L65.5047 10.5857ZM68.6842 9.903L67.7802 20.4543L69.77 20.6561L70.674 10.1047L68.6842 9.903ZM67.7802 20.4543C67.6923 21.4797 67.7161 22.4575 67.8588 23.3838L69.8324 23.1076C69.7172 22.3596 69.6939 21.5437 69.77 20.6561L67.7802 20.4543ZM67.8597 23.3895C68.0115 24.3387 68.3391 25.2087 68.8509 25.9846L70.5114 24.8973C70.1706 24.3807 69.9411 23.7872 69.8315 23.1019L67.8597 23.3895ZM68.8719 26.0151C69.4325 26.8015 70.2001 27.4188 71.1317 27.8839L71.9996 26.0935C71.3145 25.7515 70.8257 25.337 70.4904 24.8667L68.8719 26.0151ZM71.1387 27.8873C72.1105 28.3631 73.3085 28.6528 74.6927 28.7931L74.8634 26.8004C73.621 26.6744 72.6774 26.4254 71.9926 26.0901L71.1387 27.8873ZM74.6927 28.7931L75.7671 28.902L75.9379 26.9093L74.8634 26.8004L74.6927 28.7931ZM75.7671 28.902C77.1322 29.0404 78.342 28.9947 79.3615 28.7181L78.8127 26.7842C78.1062 26.9758 77.1596 27.0331 75.9379 26.9093L75.7671 28.902ZM79.3541 28.7201C80.369 28.4533 81.24 27.9989 81.9142 27.3217L80.4901 25.8958C80.1101 26.2776 79.5711 26.5848 78.8202 26.7822L79.3541 28.7201ZM81.9118 27.3241C82.5721 26.6653 83.0572 25.8725 83.3705 24.9618L81.4815 24.2828C81.2603 24.926 80.9295 25.4575 80.4925 25.8934L81.9118 27.3241ZM83.3724 24.9564C83.67 24.0747 83.8595 23.1186 83.9473 22.0932L81.9575 21.8915C81.8815 22.7791 81.72 23.5763 81.4797 24.2883L83.3724 24.9564ZM83.9473 22.0932L84.8513 11.5418L82.8615 11.3401L81.9575 21.8915L83.9473 22.0932ZM83.7711 12.4373L87.89 12.8549L88.0607 10.8622L83.9418 10.4446L83.7711 12.4373ZM86.9804 11.7577L86.0636 22.4585L88.0534 22.6602L88.9702 11.9594L86.9804 11.7577ZM86.0636 22.4585C85.9606 23.6605 85.7301 24.8066 85.3736 25.8988L87.2726 26.548C87.6781 25.3054 87.9379 24.0088 88.0534 22.6602L86.0636 22.4585ZM85.3688 25.9138C85.0547 26.9312 84.529 27.8059 83.7859 28.5505L85.2082 29.9782C86.1776 29.0069 86.8693 27.8544 87.2774 26.5329L85.3688 25.9138ZM83.7844 28.552C83.091 29.2498 82.12 29.8078 80.8189 30.1913L81.4089 32.1136C82.9493 31.6596 84.2337 30.9588 85.2097 29.9766L83.7844 28.552ZM80.814 30.1928C79.5824 30.5627 77.9405 30.67 75.8446 30.4576L75.6739 32.4503C77.9158 32.6775 79.8436 32.5838 81.4138 32.1122L80.814 30.1928ZM75.8446 30.4576L74.3523 30.3063L74.1815 32.299L75.6739 32.4503L75.8446 30.4576Z" fill="#7ACAD6" mask="url(#path-4-outside-2_1209_111)"/>
<mask id="path-6-outside-3_1209_111" maskUnits="userSpaceOnUse" x="0.836182" y="9.03809" width="25" height="22" fill="black">
<rect fill="white" x="0.836182" y="9.03809" width="25" height="22"/>
<path d="M2.28618 27.9501L16.4672 13.7111H2.77918V10.2891H23.3692V12.3771L8.98518 26.6161H24.2392L23.1082 30.0381H2.28618V27.9501Z"/>
</mask>
<path d="M2.28618 27.9501L16.4672 13.7111H2.77918V10.2891H23.3692V12.3771L8.98518 26.6161H24.2392L23.1082 30.0381H2.28618V27.9501Z" fill="#25434F"/>
<path d="M2.28618 27.9501L1.57763 27.2444C1.39098 27.4318 1.28618 27.6856 1.28618 27.9501H2.28618ZM16.4672 13.7111L17.1757 14.4167C17.4609 14.1304 17.5457 13.7006 17.3907 13.3275C17.2357 12.9543 16.8713 12.7111 16.4672 12.7111V13.7111ZM2.77918 13.7111H1.77918C1.77918 14.2634 2.2269 14.7111 2.77918 14.7111V13.7111ZM2.77918 10.2891V9.28908C2.2269 9.28908 1.77918 9.7368 1.77918 10.2891H2.77918ZM23.3692 10.2891H24.3692C24.3692 9.7368 23.9215 9.28908 23.3692 9.28908V10.2891ZM23.3692 12.3771L24.0727 13.0878C24.2624 12.8999 24.3692 12.6441 24.3692 12.3771H23.3692ZM8.98518 26.6161L8.28167 25.9054C7.99357 26.1906 7.90615 26.6215 8.06034 26.9964C8.21452 27.3713 8.5798 27.6161 8.98518 27.6161V26.6161ZM24.2392 26.6161L25.1887 26.9299C25.2894 26.6251 25.2377 26.2905 25.0497 26.0303C24.8617 25.7702 24.5602 25.6161 24.2392 25.6161V26.6161ZM23.1082 30.0381V31.0381C23.5395 31.0381 23.9223 30.7615 24.0577 30.3519L23.1082 30.0381ZM2.28618 30.0381H1.28618C1.28618 30.5904 1.7339 31.0381 2.28618 31.0381V30.0381ZM2.99473 28.6557L17.1757 14.4167L15.7586 13.0054L1.57763 27.2444L2.99473 28.6557ZM16.4672 12.7111H2.77918V14.7111H16.4672V12.7111ZM3.77918 13.7111V10.2891H1.77918V13.7111H3.77918ZM2.77918 11.2891H23.3692V9.28908H2.77918V11.2891ZM22.3692 10.2891V12.3771H24.3692V10.2891H22.3692ZM22.6657 11.6664L8.28167 25.9054L9.6887 27.3268L24.0727 13.0878L22.6657 11.6664ZM8.98518 27.6161H24.2392V25.6161H8.98518V27.6161ZM23.2897 26.3023L22.1587 29.7243L24.0577 30.3519L25.1887 26.9299L23.2897 26.3023ZM23.1082 29.0381H2.28618V31.0381H23.1082V29.0381ZM3.28618 30.0381V27.9501H1.28618V30.0381H3.28618Z" fill="#25434F" mask="url(#path-6-outside-3_1209_111)"/>
<mask id="path-8-outside-4_1209_111" maskUnits="userSpaceOnUse" x="94.1213" y="9.03809" width="28" height="22" fill="black">
<rect fill="white" x="94.1213" y="9.03809" width="28" height="22"/>
<path d="M99.4143 15.0741V30.0381H95.4413V10.2891H100.516L107.998 20.6711L115.48 10.2891H120.555V30.0381H116.582V15.1031L107.998 26.6161L99.4143 15.0741Z"/>
</mask>
<path d="M99.4143 15.0741V30.0381H95.4413V10.2891H100.516L107.998 20.6711L115.48 10.2891H120.555V30.0381H116.582V15.1031L107.998 26.6161L99.4143 15.0741Z" fill="#25434F"/>
<path d="M99.4143 15.0741L100.217 14.4773C99.9594 14.1313 99.5093 13.9892 99.1 14.1248C98.6907 14.2603 98.4143 14.6429 98.4143 15.0741H99.4143ZM99.4143 30.0381V31.0381C99.9666 31.0381 100.414 30.5904 100.414 30.0381H99.4143ZM95.4413 30.0381H94.4413C94.4413 30.5904 94.8891 31.0381 95.4413 31.0381V30.0381ZM95.4413 10.2891V9.28908C94.8891 9.28908 94.4413 9.7368 94.4413 10.2891H95.4413ZM100.516 10.2891L101.328 9.70442C101.14 9.44363 100.838 9.28908 100.516 9.28908V10.2891ZM107.998 20.6711L107.187 21.2557C107.375 21.5165 107.677 21.6711 107.998 21.6711C108.32 21.6711 108.622 21.5165 108.81 21.2557L107.998 20.6711ZM115.48 10.2891V9.28908C115.159 9.28908 114.857 9.44363 114.669 9.70442L115.48 10.2891ZM120.555 10.2891H121.555C121.555 9.7368 121.108 9.28908 120.555 9.28908V10.2891ZM120.555 30.0381V31.0381C121.108 31.0381 121.555 30.5904 121.555 30.0381H120.555ZM116.582 30.0381H115.582C115.582 30.5904 116.03 31.0381 116.582 31.0381V30.0381ZM116.582 15.1031H117.582C117.582 14.6721 117.306 14.2897 116.897 14.154C116.488 14.0183 116.038 14.1599 115.781 14.5053L116.582 15.1031ZM107.998 26.6161L107.196 27.2129C107.384 27.4664 107.682 27.6159 107.998 27.6161C108.314 27.6163 108.611 27.4671 108.8 27.2138L107.998 26.6161ZM98.4143 15.0741V30.0381H100.414V15.0741H98.4143ZM99.4143 29.0381H95.4413V31.0381H99.4143V29.0381ZM96.4413 30.0381V10.2891H94.4413V30.0381H96.4413ZM95.4413 11.2891H100.516V9.28908H95.4413V11.2891ZM99.7051 10.8737L107.187 21.2557L108.81 20.0864L101.328 9.70442L99.7051 10.8737ZM108.81 21.2557L116.292 10.8737L114.669 9.70442L107.187 20.0864L108.81 21.2557ZM115.48 11.2891H120.555V9.28908H115.48V11.2891ZM119.555 10.2891V30.0381H121.555V10.2891H119.555ZM120.555 29.0381H116.582V31.0381H120.555V29.0381ZM117.582 30.0381V15.1031H115.582V30.0381H117.582ZM115.781 14.5053L107.197 26.0184L108.8 27.2138L117.384 15.7008L115.781 14.5053ZM108.801 26.0193L100.217 14.4773L98.6119 15.6709L107.196 27.2129L108.801 26.0193Z" fill="#25434F" mask="url(#path-8-outside-4_1209_111)"/>
</svg>
