<svg width="436" height="155" viewBox="0 0 436 155" fill="none" xmlns="http://www.w3.org/2000/svg">
<path d="M169.919 103.945L249.602 103.945" stroke="#25434F" stroke-width="19.5256" stroke-linecap="round"/>
<mask id="path-2-outside-1_1595_4478" maskUnits="userSpaceOnUse" x="96.2757" y="25.0522" width="100.316" height="97.0014" fill="black">
<rect fill="white" x="96.2757" y="25.0522" width="100.316" height="97.0014"/>
<path d="M154.844 109.683C162.522 108.248 168.566 106.106 172.977 103.259C177.388 100.412 180.679 97.1248 182.851 93.3964C184.941 89.6111 186.115 85.5275 186.375 81.1456C186.564 76.7767 186.276 72.3527 185.51 67.8735L179.087 30.2903L164.744 32.972L171.078 70.0303C171.653 73.3897 171.836 76.5693 171.628 79.5693C171.409 82.4993 170.641 85.1707 169.325 87.5835C167.927 89.9394 165.858 91.9512 163.118 93.6191C160.309 95.3001 156.601 96.5711 151.994 97.4324L148.226 98.1371C143.689 98.9853 139.859 99.1236 136.737 98.5518C133.544 97.9932 130.937 96.8556 128.915 95.1392C126.811 93.3658 125.171 91.1446 123.995 88.4756C122.806 85.7366 121.925 82.6874 121.351 79.3281L115.017 42.2698L100.57 44.971L106.994 82.5542C107.759 87.0334 108.989 91.2813 110.684 95.2978C112.309 99.3274 114.764 102.732 118.048 105.513C121.25 108.236 125.427 110.128 130.578 111.187C135.658 112.259 142.003 112.084 149.61 110.662L154.844 109.683Z"/>
</mask>
<path d="M154.844 109.683C162.522 108.248 168.566 106.106 172.977 103.259C177.388 100.412 180.679 97.1248 182.851 93.3964C184.941 89.6111 186.115 85.5275 186.375 81.1456C186.564 76.7767 186.276 72.3527 185.51 67.8735L179.087 30.2903L164.744 32.972L171.078 70.0303C171.653 73.3897 171.836 76.5693 171.628 79.5693C171.409 82.4993 170.641 85.1707 169.325 87.5835C167.927 89.9394 165.858 91.9512 163.118 93.6191C160.309 95.3001 156.601 96.5711 151.994 97.4324L148.226 98.1371C143.689 98.9853 139.859 99.1236 136.737 98.5518C133.544 97.9932 130.937 96.8556 128.915 95.1392C126.811 93.3658 125.171 91.1446 123.995 88.4756C122.806 85.7366 121.925 82.6874 121.351 79.3281L115.017 42.2698L100.57 44.971L106.994 82.5542C107.759 87.0334 108.989 91.2813 110.684 95.2978C112.309 99.3274 114.764 102.732 118.048 105.513C121.25 108.236 125.427 110.128 130.578 111.187C135.658 112.259 142.003 112.084 149.61 110.662L154.844 109.683Z" fill="#7ACAD6"/>
<path d="M172.977 103.259L174.858 106.247L174.858 106.247L172.977 103.259ZM182.851 93.3964L185.94 95.0892C185.927 95.1135 185.913 95.1377 185.899 95.1617L182.851 93.3964ZM186.375 81.1456L189.912 81.2489C189.911 81.2677 189.91 81.2865 189.909 81.3053L186.375 81.1456ZM179.087 30.2903L178.489 26.791C180.416 26.4306 182.246 27.7052 182.576 29.6378L179.087 30.2903ZM164.744 32.972L161.255 33.6245C160.924 31.6918 162.219 29.833 164.146 29.4726L164.744 32.972ZM171.628 79.5693L175.16 79.7646C175.16 79.7714 175.159 79.7782 175.159 79.785L171.628 79.5693ZM169.325 87.5835L172.424 89.26C172.403 89.2985 172.381 89.3365 172.359 89.3742L169.325 87.5835ZM163.118 93.6191L164.92 96.657C164.912 96.6618 164.904 96.6665 164.896 96.6713L163.118 93.6191ZM136.737 98.5518L137.393 95.0446C137.402 95.0462 137.411 95.0478 137.42 95.0495L136.737 98.5518ZM128.915 95.1392L131.213 92.3977L131.222 92.4054L128.915 95.1392ZM123.995 88.4756L120.754 89.9573C120.752 89.9511 120.749 89.9449 120.746 89.9387L123.995 88.4756ZM115.017 42.2698L114.419 38.7704C116.346 38.4101 118.176 39.6847 118.507 41.6173L115.017 42.2698ZM100.57 44.971L97.0802 45.6235C96.7499 43.6909 98.0445 41.832 99.9717 41.4717L100.57 44.971ZM110.684 95.2978L113.947 93.8672C113.954 93.8845 113.961 93.9018 113.968 93.9191L110.684 95.2978ZM118.048 105.513L120.352 102.776L120.358 102.781L118.048 105.513ZM130.578 111.187L131.336 107.699C131.341 107.7 131.347 107.702 131.353 107.703L130.578 111.187ZM154.246 106.184C161.672 104.795 167.22 102.773 171.095 100.272L174.858 106.247C169.912 109.44 163.371 111.7 155.443 113.183L154.246 106.184ZM171.095 100.272C175.131 97.6673 177.974 94.7688 179.802 91.6311L185.899 95.1617C183.383 99.4807 179.645 103.158 174.858 106.247L171.095 100.272ZM179.761 91.7037C181.585 88.4002 182.612 84.842 182.84 80.9858L189.909 81.3053C189.618 86.213 188.296 90.8221 185.94 95.0892L179.761 91.7037ZM182.837 81.0423C183.015 76.9372 182.746 72.7666 182.021 68.526L189 67.221C189.806 71.9388 190.113 76.6162 189.912 81.2489L182.837 81.0423ZM182.021 68.526L175.597 30.9428L182.576 29.6378L189 67.221L182.021 68.526ZM179.685 33.7897L165.342 36.4714L164.146 29.4726L178.489 26.791L179.685 33.7897ZM168.234 32.3195L174.568 69.3778L167.589 70.6827L161.255 33.6245L168.234 32.3195ZM174.568 69.3778C175.184 72.9791 175.39 76.4452 175.16 79.7646L168.096 79.374C168.282 76.6935 168.122 73.8002 167.589 70.6827L174.568 69.3778ZM175.159 79.785C174.904 83.188 174.004 86.3632 172.424 89.26L166.226 85.907C167.279 83.9782 167.914 81.8106 168.098 79.3536L175.159 79.785ZM172.359 89.3742C170.609 92.3228 168.077 94.7348 164.92 96.657L161.317 90.5813C163.639 89.1677 165.245 87.556 166.291 85.7928L172.359 89.3742ZM164.896 96.6713C161.599 98.6434 157.447 100.024 152.592 100.932L151.396 93.9331C155.754 93.1183 159.018 91.9567 161.341 90.567L164.896 96.6713ZM152.592 100.932L148.824 101.636L147.627 94.6377L151.396 93.9331L152.592 100.932ZM148.824 101.636C144.036 102.532 139.742 102.73 136.053 102.054L137.42 95.0495C139.976 95.5175 143.342 95.4389 147.627 94.6377L148.824 101.636ZM136.08 102.059C132.411 101.417 129.194 100.068 126.608 97.8729L131.222 92.4054C132.68 93.643 134.678 94.5695 137.393 95.0446L136.08 102.059ZM126.617 97.8807C124.085 95.7464 122.133 93.0857 120.754 89.9573L127.235 86.9939C128.209 89.2035 129.537 90.9852 131.213 92.3977L126.617 97.8807ZM120.746 89.9387C119.431 86.9081 118.477 83.5818 117.861 79.9805L124.841 78.6756C125.373 81.7931 126.182 84.5652 127.243 87.0125L120.746 89.9387ZM117.861 79.9805L111.527 42.9223L118.507 41.6173L124.841 78.6756L117.861 79.9805ZM115.615 45.7692L101.168 48.4704L99.9717 41.4717L114.419 38.7704L115.615 45.7692ZM104.059 44.3186L110.483 81.9017L103.504 83.2067L97.0802 45.6235L104.059 44.3186ZM110.483 81.9017C111.205 86.1236 112.361 90.1095 113.947 93.8672L107.422 96.7284C105.618 92.453 104.314 87.9432 103.504 83.2067L110.483 81.9017ZM113.968 93.9191C115.382 97.4248 117.501 100.363 120.352 102.776L115.745 108.25C112.026 105.102 109.237 101.23 107.4 96.6765L113.968 93.9191ZM120.358 102.781C123.018 105.044 126.619 106.729 131.336 107.699L129.82 114.675C124.235 113.527 119.483 111.429 115.739 108.245L120.358 102.781ZM131.353 107.703C135.82 108.646 141.66 108.537 149.012 107.162L150.208 114.161C142.345 115.631 135.497 115.873 129.802 114.671L131.353 107.703ZM149.012 107.162L154.246 106.184L155.443 113.183L150.208 114.161L149.012 107.162Z" fill="#7ACAD6" mask="url(#path-2-outside-1_1595_4478)"/>
<mask id="path-4-outside-2_1595_4478" maskUnits="userSpaceOnUse" x="221.952" y="25.0522" width="100.316" height="97.0014" fill="black">
<rect fill="white" x="221.952" y="25.0522" width="100.316" height="97.0014"/>
<path d="M263.699 109.683C256.022 108.248 249.978 106.106 245.567 103.259C241.156 100.412 237.865 97.1248 235.693 93.3964C233.603 89.6111 232.429 85.5275 232.169 81.1456C231.98 76.7767 232.268 72.3527 233.033 67.8735L239.457 30.2903L253.8 32.972L247.466 70.0303C246.891 73.3897 246.708 76.5693 246.916 79.5693C247.135 82.4993 247.903 85.1707 249.219 87.5835C250.617 89.9394 252.686 91.9512 255.426 93.6191C258.235 95.3001 261.943 96.5711 266.55 97.4324L270.318 98.1371C274.855 98.9853 278.685 99.1236 281.807 98.5518C285 97.9932 287.607 96.8556 289.629 95.1392C291.733 93.3658 293.373 91.1446 294.549 88.4756C295.737 85.7366 296.619 82.6874 297.193 79.3281L303.527 42.2698L317.974 44.971L311.55 82.5542C310.785 87.0334 309.555 91.2813 307.86 95.2978C306.235 99.3274 303.78 102.732 300.496 105.513C297.293 108.236 293.117 110.128 287.966 111.187C282.885 112.259 276.541 112.084 268.934 110.662L263.699 109.683Z"/>
</mask>
<path d="M263.699 109.683C256.022 108.248 249.978 106.106 245.567 103.259C241.156 100.412 237.865 97.1248 235.693 93.3964C233.603 89.6111 232.429 85.5275 232.169 81.1456C231.98 76.7767 232.268 72.3527 233.033 67.8735L239.457 30.2903L253.8 32.972L247.466 70.0303C246.891 73.3897 246.708 76.5693 246.916 79.5693C247.135 82.4993 247.903 85.1707 249.219 87.5835C250.617 89.9394 252.686 91.9512 255.426 93.6191C258.235 95.3001 261.943 96.5711 266.55 97.4324L270.318 98.1371C274.855 98.9853 278.685 99.1236 281.807 98.5518C285 97.9932 287.607 96.8556 289.629 95.1392C291.733 93.3658 293.373 91.1446 294.549 88.4756C295.737 85.7366 296.619 82.6874 297.193 79.3281L303.527 42.2698L317.974 44.971L311.55 82.5542C310.785 87.0334 309.555 91.2813 307.86 95.2978C306.235 99.3274 303.78 102.732 300.496 105.513C297.293 108.236 293.117 110.128 287.966 111.187C282.885 112.259 276.541 112.084 268.934 110.662L263.699 109.683Z" fill="#7ACAD6"/>
<path d="M245.567 103.259L243.685 106.247L243.685 106.247L245.567 103.259ZM235.693 93.3964L232.604 95.0892C232.617 95.1135 232.631 95.1377 232.645 95.1617L235.693 93.3964ZM232.169 81.1456L228.632 81.2489C228.633 81.2677 228.634 81.2865 228.635 81.3053L232.169 81.1456ZM239.457 30.2903L240.055 26.791C238.128 26.4306 236.298 27.7052 235.968 29.6378L239.457 30.2903ZM253.8 32.972L257.289 33.6245C257.62 31.6918 256.325 29.833 254.398 29.4726L253.8 32.972ZM246.916 79.5693L243.384 79.7646C243.384 79.7714 243.384 79.7782 243.385 79.785L246.916 79.5693ZM249.219 87.5835L246.12 89.26C246.141 89.2985 246.163 89.3365 246.185 89.3742L249.219 87.5835ZM255.426 93.6191L253.624 96.657C253.632 96.6618 253.64 96.6665 253.648 96.6713L255.426 93.6191ZM281.807 98.5518L281.151 95.0446C281.142 95.0462 281.133 95.0478 281.124 95.0495L281.807 98.5518ZM289.629 95.1392L287.331 92.3977L287.322 92.4054L289.629 95.1392ZM294.549 88.4756L297.789 89.9573C297.792 89.9511 297.795 89.9449 297.798 89.9387L294.549 88.4756ZM303.527 42.2698L304.125 38.7704C302.198 38.4101 300.368 39.6847 300.037 41.6173L303.527 42.2698ZM317.974 44.971L321.464 45.6235C321.794 43.6909 320.499 41.832 318.572 41.4717L317.974 44.971ZM307.86 95.2978L304.597 93.8672C304.59 93.8845 304.583 93.9018 304.576 93.9191L307.86 95.2978ZM300.496 105.513L298.192 102.776L298.186 102.781L300.496 105.513ZM287.966 111.187L287.208 107.699C287.202 107.7 287.197 107.702 287.191 107.703L287.966 111.187ZM264.298 106.184C256.871 104.795 251.324 102.773 247.449 100.272L243.685 106.247C248.632 109.44 255.173 111.7 263.101 113.183L264.298 106.184ZM247.449 100.272C243.413 97.6673 240.569 94.7688 238.742 91.6311L232.645 95.1617C235.16 99.4807 238.899 103.158 243.685 106.247L247.449 100.272ZM238.783 91.7037C236.959 88.4002 235.932 84.842 235.704 80.9858L228.635 81.3053C228.926 86.213 230.248 90.8221 232.604 95.0892L238.783 91.7037ZM235.707 81.0423C235.528 76.9372 235.798 72.7666 236.523 68.526L229.544 67.221C228.737 71.9388 228.431 76.6162 228.632 81.2489L235.707 81.0423ZM236.523 68.526L242.947 30.9428L235.968 29.6378L229.544 67.221L236.523 68.526ZM238.859 33.7897L253.202 36.4714L254.398 29.4726L240.055 26.791L238.859 33.7897ZM250.31 32.3195L243.976 69.3778L250.955 70.6827L257.289 33.6245L250.31 32.3195ZM243.976 69.3778C243.36 72.9791 243.154 76.4452 243.384 79.7646L250.447 79.374C250.262 76.6935 250.422 73.8002 250.955 70.6827L243.976 69.3778ZM243.385 79.785C243.64 83.188 244.54 86.3632 246.12 89.26L252.317 85.907C251.265 83.9782 250.63 81.8106 250.446 79.3536L243.385 79.785ZM246.185 89.3742C247.935 92.3228 250.467 94.7348 253.624 96.657L257.227 90.5813C254.905 89.1677 253.299 87.556 252.253 85.7928L246.185 89.3742ZM253.648 96.6713C256.944 98.6434 261.096 100.024 265.952 100.932L267.148 93.9331C262.79 93.1183 259.526 91.9567 257.203 90.567L253.648 96.6713ZM265.952 100.932L269.72 101.636L270.917 94.6377L267.148 93.9331L265.952 100.932ZM269.72 101.636C274.508 102.532 278.802 102.73 282.491 102.054L281.124 95.0495C278.567 95.5175 275.202 95.4389 270.917 94.6377L269.72 101.636ZM282.464 102.059C286.133 101.417 289.35 100.068 291.936 97.8729L287.322 92.4054C285.864 93.643 283.866 94.5695 281.151 95.0446L282.464 102.059ZM291.927 97.8807C294.459 95.7464 296.411 93.0857 297.789 89.9573L291.309 86.9939C290.335 89.2035 289.007 90.9852 287.331 92.3977L291.927 97.8807ZM297.798 89.9387C299.113 86.9081 300.067 83.5818 300.683 79.9805L293.703 78.6756C293.17 81.7931 292.362 84.5652 291.301 87.0125L297.798 89.9387ZM300.683 79.9805L307.017 42.9223L300.037 41.6173L293.703 78.6756L300.683 79.9805ZM302.929 45.7692L317.376 48.4704L318.572 41.4717L304.125 38.7704L302.929 45.7692ZM314.484 44.3186L308.061 81.9017L315.04 83.2067L321.464 45.6235L314.484 44.3186ZM308.061 81.9017C307.339 86.1236 306.183 90.1095 304.597 93.8672L311.122 96.7284C312.926 92.453 314.23 87.9432 315.04 83.2067L308.061 81.9017ZM304.576 93.9191C303.162 97.4248 301.043 100.363 298.192 102.776L302.799 108.25C306.518 105.102 309.307 101.23 311.144 96.6765L304.576 93.9191ZM298.186 102.781C295.526 105.044 291.925 106.729 287.208 107.699L288.724 114.675C294.308 113.527 299.061 111.429 302.805 108.245L298.186 102.781ZM287.191 107.703C282.724 108.646 276.883 108.537 269.532 107.162L268.336 114.161C276.199 115.631 283.047 115.873 288.742 114.671L287.191 107.703ZM269.532 107.162L264.298 106.184L263.101 113.183L268.336 114.161L269.532 107.162Z" fill="#7ACAD6" mask="url(#path-4-outside-2_1595_4478)"/>
<mask id="path-6-outside-3_1595_4478" maskUnits="userSpaceOnUse" x="1.9707" y="33.6875" width="86" height="78" fill="black">
<rect fill="white" x="1.9707" y="33.6875" width="86" height="78"/>
<path d="M6.11836 100.275L56.4625 49.7248H7.86857V37.5763H80.9654V44.989L29.9006 95.539H84.054L80.0388 107.688H6.11836V100.275Z"/>
</mask>
<path d="M6.11836 100.275L56.4625 49.7248H7.86857V37.5763H80.9654V44.989L29.9006 95.539H84.054L80.0388 107.688H6.11836V100.275Z" fill="#25434F"/>
<path d="M6.11836 100.275L3.60294 97.7697C2.9403 98.435 2.56825 99.3358 2.56825 100.275H6.11836ZM56.4625 49.7248L58.9779 52.23C59.9902 51.2135 60.2913 49.6877 59.741 48.3629C59.1906 47.0381 57.8971 46.1747 56.4625 46.1747V49.7248ZM7.86857 49.7248H4.31846C4.31846 51.6855 5.9079 53.2749 7.86857 53.2749V49.7248ZM7.86857 37.5763V34.0262C5.9079 34.0262 4.31846 35.6157 4.31846 37.5763H7.86857ZM80.9654 37.5763H84.5155C84.5155 35.6157 82.926 34.0262 80.9654 34.0262V37.5763ZM80.9654 44.989L83.4629 47.512C84.1365 46.8452 84.5155 45.9368 84.5155 44.989H80.9654ZM29.9006 95.539L27.403 93.016C26.3802 94.0285 26.0699 95.5583 26.6173 96.8893C27.1646 98.2203 28.4614 99.0891 29.9006 99.0891V95.539ZM84.054 95.539L87.4247 96.6531C87.7824 95.5711 87.5988 94.3832 86.9313 93.4596C86.2638 92.5359 85.1935 91.9889 84.054 91.9889V95.539ZM80.0388 107.688V111.238C81.5702 111.238 82.929 110.256 83.4096 108.802L80.0388 107.688ZM6.11836 107.688H2.56825C2.56825 109.648 4.15769 111.238 6.11836 111.238V107.688ZM8.63379 102.78L58.9779 52.23L53.9471 47.2196L3.60294 97.7697L8.63379 102.78ZM56.4625 46.1747H7.86857V53.2749H56.4625V46.1747ZM11.4187 49.7248V37.5763H4.31846V49.7248H11.4187ZM7.86857 41.1265H80.9654V34.0262H7.86857V41.1265ZM77.4153 37.5763V44.989H84.5155V37.5763H77.4153ZM78.4678 42.466L27.403 93.016L32.3981 98.062L83.4629 47.512L78.4678 42.466ZM29.9006 99.0891H84.054V91.9889H29.9006V99.0891ZM80.6832 94.4249L76.668 106.573L83.4096 108.802L87.4247 96.6531L80.6832 94.4249ZM80.0388 104.137H6.11836V111.238H80.0388V104.137ZM9.66848 107.688V100.275H2.56825V107.688H9.66848Z" fill="#25434F" mask="url(#path-6-outside-3_1595_4478)"/>
<mask id="path-8-outside-4_1595_4478" maskUnits="userSpaceOnUse" x="332.592" y="33.6875" width="97" height="78" fill="black">
<rect fill="white" x="332.592" y="33.6875" width="97" height="78"/>
<path d="M350.933 54.5636V107.688H336.828V37.5763H354.845L381.407 74.4336L407.969 37.5763H425.986V107.688H411.881V54.6666L381.407 95.539L350.933 54.5636Z"/>
</mask>
<path d="M350.933 54.5636V107.688H336.828V37.5763H354.845L381.407 74.4336L407.969 37.5763H425.986V107.688H411.881V54.6666L381.407 95.539L350.933 54.5636Z" fill="#25434F"/>
<path d="M350.933 54.5636L353.781 52.445C352.868 51.2168 351.27 50.7123 349.817 51.1934C348.364 51.6746 347.383 53.0329 347.383 54.5636H350.933ZM350.933 107.688V111.238C352.893 111.238 354.483 109.648 354.483 107.688H350.933ZM336.828 107.688H333.278C333.278 109.648 334.867 111.238 336.828 111.238V107.688ZM336.828 37.5763V34.0262C334.867 34.0262 333.278 35.6157 333.278 37.5763H336.828ZM354.845 37.5763L357.725 35.5007C357.058 34.5749 355.986 34.0262 354.845 34.0262V37.5763ZM381.407 74.4336L378.527 76.5092C379.194 77.4351 380.266 77.9837 381.407 77.9837C382.548 77.9837 383.62 77.4351 384.287 76.5092L381.407 74.4336ZM407.969 37.5763V34.0262C406.828 34.0262 405.756 34.5749 405.089 35.5007L407.969 37.5763ZM425.986 37.5763H429.536C429.536 35.6157 427.946 34.0262 425.986 34.0262V37.5763ZM425.986 107.688V111.238C427.946 111.238 429.536 109.648 429.536 107.688H425.986ZM411.881 107.688H408.331C408.331 109.648 409.92 111.238 411.881 111.238V107.688ZM411.881 54.6666H415.431C415.431 53.1367 414.451 51.7788 412.999 51.2971C411.547 50.8153 409.949 51.318 409.035 52.5446L411.881 54.6666ZM381.407 95.539L378.558 97.6576C379.228 98.5577 380.283 99.0885 381.405 99.0891C382.526 99.0898 383.582 98.5603 384.253 97.661L381.407 95.539ZM347.383 54.5636V107.688H354.483V54.5636H347.383ZM350.933 104.137H336.828V111.238H350.933V104.137ZM340.378 107.688V37.5763H333.278V107.688H340.378ZM336.828 41.1265H354.845V34.0262H336.828V41.1265ZM351.965 39.652L378.527 76.5092L384.287 72.358L357.725 35.5007L351.965 39.652ZM384.287 76.5092L410.849 39.652L405.089 35.5007L378.527 72.358L384.287 76.5092ZM407.969 41.1265H425.986V34.0262H407.969V41.1265ZM422.435 37.5763V107.688H429.536V37.5763H422.435ZM425.986 104.137H411.881V111.238H425.986V104.137ZM415.431 107.688V54.6666H408.331V107.688H415.431ZM409.035 52.5446L378.561 93.417L384.253 97.661L414.727 56.7886L409.035 52.5446ZM384.255 93.4204L353.781 52.445L348.084 56.6822L378.558 97.6576L384.255 93.4204Z" fill="#25434F" mask="url(#path-8-outside-4_1595_4478)"/>
</svg>
