<svg width="66" height="25" viewBox="0 0 66 25" fill="none" xmlns="http://www.w3.org/2000/svg">
<path d="M25.9292 15.5909L37.8865 15.5909" stroke="#25434F" stroke-width="2.93002" stroke-linecap="round"/>
<mask id="path-2-outside-1_1618_2382" maskUnits="userSpaceOnUse" x="14.5853" y="3.45685" width="15.8413" height="15.5111" fill="black">
<rect fill="white" x="14.5853" y="3.45685" width="15.8413" height="15.5111"/>
<path d="M23.546 16.7733C24.6963 16.5488 25.6029 16.22 26.2658 15.7868C26.9287 15.3536 27.4244 14.8553 27.7531 14.2921C28.0695 13.7203 28.2493 13.1047 28.2924 12.4453C28.3251 11.7879 28.2863 11.1227 28.1761 10.4498L27.2516 4.80343L25.1026 5.22286L26.0142 10.7903C26.0969 11.295 26.1212 11.7731 26.0872 12.2246C26.0515 12.6656 25.934 13.0683 25.7346 13.4328C25.5231 13.7887 25.2116 14.0937 24.7999 14.3476C24.3778 14.6036 23.8216 14.799 23.1314 14.9337L22.5668 15.0439C21.887 15.1766 21.3138 15.2017 20.847 15.1191C20.3698 15.0387 19.9808 14.8705 19.6799 14.6145C19.3668 14.3501 19.1235 14.0178 18.9501 13.6177C18.7749 13.207 18.646 12.7493 18.5634 12.2446L17.6518 6.6771L15.4871 7.09959L16.4117 12.7459C16.5218 13.4189 16.7018 14.0565 16.9515 14.6588C17.1907 15.2631 17.5547 15.7726 18.0435 16.1872C18.52 16.5933 19.1432 16.8731 19.913 17.0267C20.6723 17.1823 21.6218 17.1489 22.7617 16.9264L23.546 16.7733Z"/>
</mask>
<path d="M23.546 16.7733C24.6963 16.5488 25.6029 16.22 26.2658 15.7868C26.9287 15.3536 27.4244 14.8553 27.7531 14.2921C28.0695 13.7203 28.2493 13.1047 28.2924 12.4453C28.3251 11.7879 28.2863 11.1227 28.1761 10.4498L27.2516 4.80343L25.1026 5.22286L26.0142 10.7903C26.0969 11.295 26.1212 11.7731 26.0872 12.2246C26.0515 12.6656 25.934 13.0683 25.7346 13.4328C25.5231 13.7887 25.2116 14.0937 24.7999 14.3476C24.3778 14.6036 23.8216 14.799 23.1314 14.9337L22.5668 15.0439C21.887 15.1766 21.3138 15.2017 20.847 15.1191C20.3698 15.0387 19.9808 14.8705 19.6799 14.6145C19.3668 14.3501 19.1235 14.0178 18.9501 13.6177C18.7749 13.207 18.646 12.7493 18.5634 12.2446L17.6518 6.6771L15.4871 7.09959L16.4117 12.7459C16.5218 13.4189 16.7018 14.0565 16.9515 14.6588C17.1907 15.2631 17.5547 15.7726 18.0435 16.1872C18.52 16.5933 19.1432 16.8731 19.913 17.0267C20.6723 17.1823 21.6218 17.1489 22.7617 16.9264L23.546 16.7733Z" fill="#7ACAD6"/>
<path d="M26.2658 15.7868L26.5444 16.234L26.5444 16.234L26.2658 15.7868ZM27.7531 14.2921L28.2139 14.5433L28.2075 14.5542L27.7531 14.2921ZM28.2924 12.4453L28.8217 12.4569L28.8212 12.4654L28.2924 12.4453ZM27.2516 4.80343L27.1655 4.2777C27.4543 4.22134 27.7269 4.41102 27.7744 4.70138L27.2516 4.80343ZM25.1026 5.22286L24.5797 5.32491C24.5322 5.03456 24.7278 4.75349 25.0165 4.69713L25.1026 5.22286ZM26.0872 12.2246L26.6156 12.2501L26.6153 12.2532L26.0872 12.2246ZM25.7346 13.4328L26.1967 13.6815C26.1935 13.6873 26.1903 13.6931 26.1869 13.6987L25.7346 13.4328ZM24.7999 14.3476L25.0665 14.8026L25.0629 14.8048L24.7999 14.3476ZM20.847 15.1191L20.9487 14.5908L20.9527 14.5915L20.847 15.1191ZM19.6799 14.6145L20.0264 14.1996L20.0278 14.2007L19.6799 14.6145ZM18.9501 13.6177L18.4637 13.8442L18.4625 13.8414L18.9501 13.6177ZM17.6518 6.6771L17.5657 6.15137C17.8545 6.09501 18.1271 6.28469 18.1747 6.57505L17.6518 6.6771ZM15.4871 7.09959L14.9643 7.20164C14.9167 6.91129 15.1123 6.63022 15.401 6.57386L15.4871 7.09959ZM16.9515 14.6588L17.4412 14.4399L17.4443 14.4477L16.9515 14.6588ZM18.0435 16.1872L18.3909 15.7729L18.3918 15.7737L18.0435 16.1872ZM19.913 17.0267L20.0298 16.5012L20.0324 16.5017L19.913 17.0267ZM23.4599 16.2476C24.5726 16.0304 25.4047 15.7201 25.9871 15.3395L26.5444 16.234C25.801 16.7199 24.82 17.0672 23.6321 17.2991L23.4599 16.2476ZM25.9871 15.3395C26.5936 14.9432 27.022 14.504 27.2986 14.0299L28.2075 14.5542C27.8268 15.2067 27.2637 15.764 26.5444 16.234L25.9871 15.3395ZM27.2923 14.0409C27.5685 13.5419 27.7257 13.0055 27.7637 12.4252L28.8212 12.4654C28.7729 13.2039 28.5705 13.8987 28.2138 14.5432L27.2923 14.0409ZM27.7632 12.4337C27.7938 11.816 27.7575 11.1889 27.6532 10.5518L28.699 10.3477C28.815 11.0565 28.8563 11.7598 28.8216 12.4569L27.7632 12.4337ZM27.6532 10.5518L26.7287 4.90548L27.7744 4.70138L28.699 10.3477L27.6532 10.5518ZM27.3377 5.32916L25.1887 5.74859L25.0165 4.69713L27.1655 4.2777L27.3377 5.32916ZM25.6255 5.12081L26.5371 10.6883L25.4913 10.8924L24.5797 5.32491L25.6255 5.12081ZM26.5371 10.6883C26.6257 11.2293 26.6532 11.7505 26.6156 12.2501L25.5588 12.1992C25.5892 11.7958 25.568 11.3607 25.4913 10.8924L26.5371 10.6883ZM26.6153 12.2532C26.5739 12.7653 26.436 13.244 26.1967 13.6815L25.2726 13.184C25.4319 12.8927 25.5291 12.566 25.5591 12.1961L26.6153 12.2532ZM26.1869 13.6987C25.9222 14.1442 25.5409 14.5099 25.0665 14.8026L24.5333 13.8927C24.8822 13.6774 25.1241 13.4332 25.2824 13.1668L26.1869 13.6987ZM25.0629 14.8048C24.5677 15.1051 23.945 15.3174 23.2175 15.4594L23.0454 14.408C23.6983 14.2805 24.1879 14.1021 24.5369 13.8905L25.0629 14.8048ZM23.2175 15.4594L22.6528 15.5696L22.4807 14.5182L23.0454 14.408L23.2175 15.4594ZM22.6528 15.5696C21.9355 15.7097 21.2927 15.7442 20.7413 15.6468L20.9527 14.5915C21.3349 14.6591 21.8386 14.6435 22.4807 14.5182L22.6528 15.5696ZM20.7454 15.6475C20.1968 15.555 19.7168 15.3557 19.3319 15.0283L20.0278 14.2007C20.2448 14.3853 20.5428 14.5224 20.9487 14.5908L20.7454 15.6475ZM19.3333 15.0295C18.9565 14.7113 18.667 14.3132 18.4637 13.8442L19.4365 13.3911C19.5801 13.7224 19.7771 13.989 20.0264 14.1996L19.3333 15.0295ZM18.4625 13.8414C18.2687 13.387 18.1291 12.8877 18.0405 12.3466L19.0863 12.1425C19.1629 12.6109 19.2812 13.027 19.4377 13.3939L18.4625 13.8414ZM18.0405 12.3466L17.1289 6.77915L18.1747 6.57505L19.0863 12.1425L18.0405 12.3466ZM17.7379 7.20283L15.5732 7.62532L15.401 6.57386L17.5657 6.15137L17.7379 7.20283ZM16.01 6.99754L16.9345 12.6439L15.8888 12.848L14.9643 7.20164L16.01 6.99754ZM16.9345 12.6439C17.0384 13.2782 17.2075 13.8764 17.4411 14.4399L16.4619 14.8776C16.1961 14.2365 16.0053 13.5596 15.8888 12.848L16.9345 12.6439ZM17.4443 14.4477C17.6524 14.9735 17.9667 15.4131 18.3909 15.7729L17.6961 16.6014C17.1427 16.1321 16.7291 15.5528 16.4587 14.8698L17.4443 14.4477ZM18.3918 15.7737C18.7877 16.111 19.3248 16.3605 20.0298 16.5012L19.7961 17.5522C18.9616 17.3857 18.2524 17.0755 17.6952 16.6007L18.3918 15.7737ZM20.0324 16.5017C20.7 16.6385 21.5741 16.6157 22.6756 16.4007L22.8478 17.4521C21.6696 17.6821 20.6445 17.7261 19.7935 17.5517L20.0324 16.5017ZM22.6756 16.4007L23.4599 16.2476L23.6321 17.2991L22.8478 17.4521L22.6756 16.4007Z" fill="#7ACAD6" mask="url(#path-2-outside-1_1618_2382)"/>
<mask id="path-4-outside-2_1618_2382" maskUnits="userSpaceOnUse" x="33.2413" y="3.45685" width="15.8413" height="15.5111" fill="black">
<rect fill="white" x="33.2413" y="3.45685" width="15.8413" height="15.5111"/>
<path d="M40.122 16.7733C38.9717 16.5488 38.0651 16.22 37.4022 15.7868C36.7393 15.3536 36.2435 14.8553 35.9149 14.2921C35.5984 13.7203 35.4187 13.1047 35.3756 12.4453C35.3429 11.7879 35.3817 11.1227 35.4919 10.4498L36.4164 4.80343L38.5654 5.22286L37.6538 10.7903C37.5711 11.295 37.5468 11.7731 37.5808 12.2246C37.6165 12.6656 37.734 13.0683 37.9333 13.4328C38.1448 13.7887 38.4564 14.0937 38.8681 14.3476C39.2902 14.6036 39.8463 14.799 40.5365 14.9337L41.1012 15.0439C41.7809 15.1766 42.3542 15.2017 42.8209 15.1191C43.2981 15.0387 43.6872 14.8705 43.9881 14.6145C44.3012 14.3501 44.5444 14.0178 44.7179 13.6177C44.893 13.207 45.0219 12.7493 45.1046 12.2446L46.0162 6.6771L48.1808 7.09959L47.2563 12.7459C47.1461 13.4189 46.9662 14.0565 46.7165 14.6588C46.4772 15.2631 46.1132 15.7726 45.6245 16.1872C45.1479 16.5933 44.5248 16.8731 43.755 17.0267C42.9957 17.1823 42.0461 17.1489 40.9063 16.9264L40.122 16.7733Z"/>
</mask>
<path d="M40.122 16.7733C38.9717 16.5488 38.0651 16.22 37.4022 15.7868C36.7393 15.3536 36.2435 14.8553 35.9149 14.2921C35.5984 13.7203 35.4187 13.1047 35.3756 12.4453C35.3429 11.7879 35.3817 11.1227 35.4919 10.4498L36.4164 4.80343L38.5654 5.22286L37.6538 10.7903C37.5711 11.295 37.5468 11.7731 37.5808 12.2246C37.6165 12.6656 37.734 13.0683 37.9333 13.4328C38.1448 13.7887 38.4564 14.0937 38.8681 14.3476C39.2902 14.6036 39.8463 14.799 40.5365 14.9337L41.1012 15.0439C41.7809 15.1766 42.3542 15.2017 42.8209 15.1191C43.2981 15.0387 43.6872 14.8705 43.9881 14.6145C44.3012 14.3501 44.5444 14.0178 44.7179 13.6177C44.893 13.207 45.0219 12.7493 45.1046 12.2446L46.0162 6.6771L48.1808 7.09959L47.2563 12.7459C47.1461 13.4189 46.9662 14.0565 46.7165 14.6588C46.4772 15.2631 46.1132 15.7726 45.6245 16.1872C45.1479 16.5933 44.5248 16.8731 43.755 17.0267C42.9957 17.1823 42.0461 17.1489 40.9063 16.9264L40.122 16.7733Z" fill="#7ACAD6"/>
<path d="M37.4022 15.7868L37.1235 16.234L37.1235 16.234L37.4022 15.7868ZM35.9149 14.2921L35.4541 14.5433L35.4604 14.5542L35.9149 14.2921ZM35.3756 12.4453L34.8463 12.4569L34.8468 12.4654L35.3756 12.4453ZM36.4164 4.80343L36.5025 4.2777C36.2137 4.22134 35.9411 4.41102 35.8935 4.70138L36.4164 4.80343ZM38.5654 5.22286L39.0882 5.32491C39.1358 5.03456 38.9402 4.75349 38.6514 4.69713L38.5654 5.22286ZM37.5808 12.2246L37.0524 12.2501L37.0526 12.2532L37.5808 12.2246ZM37.9333 13.4328L37.4713 13.6815C37.4744 13.6873 37.4777 13.6931 37.4811 13.6987L37.9333 13.4328ZM38.8681 14.3476L38.6015 14.8026L38.6051 14.8048L38.8681 14.3476ZM42.8209 15.1191L42.7193 14.5908L42.7152 14.5915L42.8209 15.1191ZM43.9881 14.6145L43.6415 14.1996L43.6402 14.2007L43.9881 14.6145ZM44.7179 13.6177L45.2043 13.8442L45.2054 13.8414L44.7179 13.6177ZM46.0162 6.6771L46.1023 6.15137C45.8135 6.09501 45.5409 6.28469 45.4933 6.57505L46.0162 6.6771ZM48.1808 7.09959L48.7037 7.20164C48.7512 6.91129 48.5557 6.63022 48.2669 6.57386L48.1808 7.09959ZM46.7165 14.6588L46.2268 14.4399L46.2237 14.4477L46.7165 14.6588ZM45.6245 16.1872L45.2771 15.7729L45.2762 15.7737L45.6245 16.1872ZM43.755 17.0267L43.6382 16.5012L43.6355 16.5017L43.755 17.0267ZM40.2081 16.2476C39.0954 16.0304 38.2632 15.7201 37.6809 15.3395L37.1235 16.234C37.867 16.7199 38.848 17.0672 40.0359 17.2991L40.2081 16.2476ZM37.6809 15.3395C37.0744 14.9432 36.646 14.504 36.3694 14.0299L35.4604 14.5542C35.8411 15.2067 36.4042 15.764 37.1235 16.234L37.6809 15.3395ZM36.3756 14.0409C36.0994 13.5419 35.9422 13.0055 35.9043 12.4252L34.8468 12.4654C34.8951 13.2039 35.0975 13.8987 35.4542 14.5432L36.3756 14.0409ZM35.9048 12.4337C35.8741 11.816 35.9104 11.1889 36.0147 10.5518L34.969 10.3477C34.853 11.0565 34.8117 11.7598 34.8463 12.4569L35.9048 12.4337ZM36.0147 10.5518L36.9393 4.90548L35.8935 4.70138L34.969 10.3477L36.0147 10.5518ZM36.3303 5.32916L38.4793 5.74859L38.6514 4.69713L36.5025 4.2777L36.3303 5.32916ZM38.0425 5.12081L37.1309 10.6883L38.1766 10.8924L39.0882 5.32491L38.0425 5.12081ZM37.1309 10.6883C37.0423 11.2293 37.0148 11.7505 37.0524 12.2501L38.1091 12.1992C38.0788 11.7958 38.0999 11.3607 38.1766 10.8924L37.1309 10.6883ZM37.0526 12.2532C37.0941 12.7653 37.232 13.244 37.4713 13.6815L38.3954 13.184C38.236 12.8927 38.1389 12.566 38.1089 12.1961L37.0526 12.2532ZM37.4811 13.6987C37.7458 14.1442 38.1271 14.5099 38.6015 14.8026L39.1347 13.8927C38.7858 13.6774 38.5438 13.4332 38.3856 13.1668L37.4811 13.6987ZM38.6051 14.8048C39.1003 15.1051 39.723 15.3174 40.4504 15.4594L40.6226 14.408C39.9697 14.2805 39.4801 14.1021 39.1311 13.8905L38.6051 14.8048ZM40.4504 15.4594L41.0151 15.5696L41.1873 14.5182L40.6226 14.408L40.4504 15.4594ZM41.0151 15.5696C41.7325 15.7097 42.3752 15.7442 42.9266 15.6468L42.7152 14.5915C42.3331 14.6591 41.8294 14.6435 41.1873 14.5182L41.0151 15.5696ZM42.9226 15.6475C43.4711 15.555 43.9512 15.3557 44.336 15.0283L43.6402 14.2007C43.4232 14.3853 43.1251 14.5224 42.7193 14.5908L42.9226 15.6475ZM44.3347 15.0295C44.7115 14.7113 45.001 14.3132 45.2042 13.8442L44.2315 13.3911C44.0879 13.7224 43.8909 13.989 43.6415 14.1996L44.3347 15.0295ZM45.2054 13.8414C45.3993 13.387 45.5388 12.8877 45.6274 12.3466L44.5817 12.1425C44.505 12.6109 44.3868 13.027 44.2303 13.3939L45.2054 13.8414ZM45.6274 12.3466L46.539 6.77915L45.4933 6.57505L44.5817 12.1425L45.6274 12.3466ZM45.9301 7.20283L48.0948 7.62532L48.2669 6.57386L46.1023 6.15137L45.9301 7.20283ZM47.658 6.99754L46.7335 12.6439L47.7792 12.848L48.7037 7.20164L47.658 6.99754ZM46.7335 12.6439C46.6296 13.2782 46.4605 13.8764 46.2269 14.4399L47.2061 14.8776C47.4719 14.2365 47.6627 13.5596 47.7792 12.848L46.7335 12.6439ZM46.2237 14.4477C46.0156 14.9735 45.7013 15.4131 45.2771 15.7729L45.9719 16.6014C46.5252 16.1321 46.9389 15.5528 47.2093 14.8698L46.2237 14.4477ZM45.2762 15.7737C44.8803 16.111 44.3431 16.3605 43.6382 16.5012L43.8718 17.5522C44.7064 17.3857 45.4155 17.0755 45.9728 16.6007L45.2762 15.7737ZM43.6355 16.5017C42.968 16.6385 42.0939 16.6157 40.9924 16.4007L40.8202 17.4521C41.9984 17.6821 43.0234 17.7261 43.8745 17.5517L43.6355 16.5017ZM40.9924 16.4007L40.2081 16.2476L40.0359 17.2991L40.8202 17.4521L40.9924 16.4007Z" fill="#7ACAD6" mask="url(#path-4-outside-2_1618_2382)"/>
<mask id="path-6-outside-3_1618_2382" maskUnits="userSpaceOnUse" x="0.576172" y="4.91028" width="14" height="13" fill="black">
<rect fill="white" x="0.576172" y="4.91028" width="14" height="13"/>
<path d="M1.34863 15.7979L8.90328 8.21239H1.61127V6.38939H12.5802V7.50173L4.91739 15.0873H13.0437L12.4411 16.9103H1.34863V15.7979Z"/>
</mask>
<path d="M1.34863 15.7979L8.90328 8.21239H1.61127V6.38939H12.5802V7.50173L4.91739 15.0873H13.0437L12.4411 16.9103H1.34863V15.7979Z" fill="#25434F"/>
<path d="M1.34863 15.7979L0.971166 15.422C0.871729 15.5219 0.815901 15.657 0.815901 15.7979H1.34863ZM8.90328 8.21239L9.28074 8.58832C9.43265 8.43579 9.47783 8.20682 9.39525 8.00802C9.31266 7.80922 9.11855 7.67966 8.90328 7.67966V8.21239ZM1.61127 8.21239H1.07854C1.07854 8.50661 1.31705 8.74512 1.61127 8.74512V8.21239ZM1.61127 6.38939V5.85666C1.31705 5.85666 1.07854 6.09517 1.07854 6.38939H1.61127ZM12.5802 6.38939H13.1129C13.1129 6.09517 12.8744 5.85666 12.5802 5.85666V6.38939ZM12.5802 7.50173L12.955 7.88033C13.056 7.78027 13.1129 7.64395 13.1129 7.50173H12.5802ZM4.91739 15.0873L4.54261 14.7087C4.38913 14.8606 4.34256 15.0902 4.4247 15.2899C4.50684 15.4896 4.70143 15.62 4.91739 15.62V15.0873ZM13.0437 15.0873L13.5495 15.2545C13.6031 15.0921 13.5756 14.9138 13.4754 14.7752C13.3753 14.6366 13.2147 14.5545 13.0437 14.5545V15.0873ZM12.4411 16.9103V17.443C12.6709 17.443 12.8748 17.2956 12.947 17.0775L12.4411 16.9103ZM1.34863 16.9103H0.815901C0.815901 17.2045 1.05441 17.443 1.34863 17.443V16.9103ZM1.7261 16.1739L9.28074 8.58832L8.52581 7.83646L0.971166 15.422L1.7261 16.1739ZM8.90328 7.67966H1.61127V8.74512H8.90328V7.67966ZM2.144 8.21239V6.38939H1.07854V8.21239H2.144ZM1.61127 6.92212H12.5802V5.85666H1.61127V6.92212ZM12.0475 6.38939V7.50173H13.1129V6.38939H12.0475ZM12.2054 7.12313L4.54261 14.7087L5.29217 15.4659L12.955 7.88033L12.2054 7.12313ZM4.91739 15.62H13.0437V14.5545H4.91739V15.62ZM12.5378 14.9201L11.9353 16.7431L12.947 17.0775L13.5495 15.2545L12.5378 14.9201ZM12.4411 16.3775H1.34863V17.443H12.4411V16.3775ZM1.88136 16.9103V15.7979H0.815901V16.9103H1.88136Z" fill="#25434F" mask="url(#path-6-outside-3_1618_2382)"/>
<mask id="path-8-outside-4_1618_2382" maskUnits="userSpaceOnUse" x="49.7393" y="4.91028" width="16" height="13" fill="black">
<rect fill="white" x="49.7393" y="4.91028" width="16" height="13"/>
<path d="M53.0917 8.9385V16.9103H50.9752V6.38939H53.6788L57.6647 11.9202L61.6506 6.38939H64.3542V16.9103H62.2376V8.95395L57.6647 15.0873L53.0917 8.9385Z"/>
</mask>
<path d="M53.0917 8.9385V16.9103H50.9752V6.38939H53.6788L57.6647 11.9202L61.6506 6.38939H64.3542V16.9103H62.2376V8.95395L57.6647 15.0873L53.0917 8.9385Z" fill="#25434F"/>
<path d="M53.0917 8.9385L53.5192 8.62059C53.3821 8.43627 53.1423 8.36057 52.9243 8.43277C52.7062 8.50497 52.559 8.7088 52.559 8.9385H53.0917ZM53.0917 16.9103V17.443C53.3859 17.443 53.6245 17.2045 53.6245 16.9103H53.0917ZM50.9752 16.9103H50.4425C50.4425 17.2045 50.681 17.443 50.9752 17.443V16.9103ZM50.9752 6.38939V5.85666C50.681 5.85666 50.4425 6.09517 50.4425 6.38939H50.9752ZM53.6788 6.38939L54.111 6.07792C54.0109 5.93899 53.8501 5.85666 53.6788 5.85666V6.38939ZM57.6647 11.9202L57.2325 12.2317C57.3326 12.3706 57.4934 12.4529 57.6647 12.4529C57.8359 12.4529 57.9968 12.3706 58.0969 12.2317L57.6647 11.9202ZM61.6506 6.38939V5.85666C61.4793 5.85666 61.3185 5.93899 61.2184 6.07792L61.6506 6.38939ZM64.3542 6.38939H64.8869C64.8869 6.09517 64.6484 5.85666 64.3542 5.85666V6.38939ZM64.3542 16.9103V17.443C64.6484 17.443 64.8869 17.2045 64.8869 16.9103H64.3542ZM62.2376 16.9103H61.7049C61.7049 17.2045 61.9434 17.443 62.2376 17.443V16.9103ZM62.2376 8.95395H62.7704C62.7704 8.72437 62.6233 8.52061 62.4054 8.44832C62.1875 8.37603 61.9478 8.45147 61.8106 8.63552L62.2376 8.95395ZM57.6647 15.0873L57.2372 15.4052C57.3377 15.5403 57.496 15.6199 57.6644 15.62C57.8327 15.6201 57.9912 15.5407 58.0918 15.4057L57.6647 15.0873ZM52.559 8.9385V16.9103H53.6245V8.9385H52.559ZM53.0917 16.3775H50.9752V17.443H53.0917V16.3775ZM51.5079 16.9103V6.38939H50.4425V16.9103H51.5079ZM50.9752 6.92212H53.6788V5.85666H50.9752V6.92212ZM53.2466 6.70086L57.2325 12.2317L58.0969 11.6087L54.111 6.07792L53.2466 6.70086ZM58.0969 12.2317L62.0828 6.70086L61.2184 6.07792L57.2325 11.6087L58.0969 12.2317ZM61.6506 6.92212H64.3542V5.85666H61.6506V6.92212ZM63.8214 6.38939V16.9103H64.8869V6.38939H63.8214ZM64.3542 16.3775H62.2376V17.443H64.3542V16.3775ZM62.7704 16.9103V8.95395H61.7049V16.9103H62.7704ZM61.8106 8.63552L57.2376 14.7688L58.0918 15.4057L62.6647 9.27238L61.8106 8.63552ZM58.0922 14.7694L53.5192 8.62059L52.6643 9.25642L57.2372 15.4052L58.0922 14.7694Z" fill="#25434F" mask="url(#path-8-outside-4_1618_2382)"/>
</svg>
