<svg width="66" height="33" viewBox="0 0 66 33" fill="none" xmlns="http://www.w3.org/2000/svg">
<path d="M25.9294 16.0282L37.8867 16.0282" stroke="#25434F" stroke-width="2.93002" stroke-linecap="round"/>
<mask id="path-2-outside-1_1588_3417" maskUnits="userSpaceOnUse" x="14.5854" y="3.89417" width="15.8413" height="15.5111" fill="black">
<rect fill="white" x="14.5854" y="3.89417" width="15.8413" height="15.5111"/>
<path d="M23.546 17.2107C24.6963 16.9861 25.6029 16.6573 26.2658 16.2241C26.9287 15.7909 27.4245 15.2927 27.7531 14.7294C28.0696 14.1576 28.2494 13.542 28.2925 12.8826C28.3251 12.2252 28.2863 11.56 28.1762 10.8871L27.2516 5.24074L25.1027 5.66018L26.0143 11.2277C26.0969 11.7324 26.1212 12.2105 26.0873 12.662C26.0515 13.103 25.934 13.5057 25.7347 13.8701C25.5232 14.226 25.2116 14.531 24.8 14.7849C24.3778 15.0409 23.8217 15.2363 23.1315 15.371L22.5668 15.4812C21.8871 15.6139 21.3139 15.639 20.8471 15.5565C20.3699 15.476 19.9808 15.3078 19.6799 15.0518C19.3669 14.7874 19.1236 14.4551 18.9502 14.055C18.775 13.6443 18.6461 13.1866 18.5635 12.6819L17.6518 7.11441L15.4872 7.53691L16.4117 13.1832C16.5219 13.8562 16.7018 14.4938 16.9515 15.0961C17.1908 15.7004 17.5548 16.2099 18.0435 16.6245C18.5201 17.0306 19.1433 17.3104 19.913 17.464C20.6723 17.6196 21.6219 17.5862 22.7617 17.3637L23.546 17.2107Z"/>
</mask>
<path d="M23.546 17.2107C24.6963 16.9861 25.6029 16.6573 26.2658 16.2241C26.9287 15.7909 27.4245 15.2927 27.7531 14.7294C28.0696 14.1576 28.2494 13.542 28.2925 12.8826C28.3251 12.2252 28.2863 11.56 28.1762 10.8871L27.2516 5.24074L25.1027 5.66018L26.0143 11.2277C26.0969 11.7324 26.1212 12.2105 26.0873 12.662C26.0515 13.103 25.934 13.5057 25.7347 13.8701C25.5232 14.226 25.2116 14.531 24.8 14.7849C24.3778 15.0409 23.8217 15.2363 23.1315 15.371L22.5668 15.4812C21.8871 15.6139 21.3139 15.639 20.8471 15.5565C20.3699 15.476 19.9808 15.3078 19.6799 15.0518C19.3669 14.7874 19.1236 14.4551 18.9502 14.055C18.775 13.6443 18.6461 13.1866 18.5635 12.6819L17.6518 7.11441L15.4872 7.53691L16.4117 13.1832C16.5219 13.8562 16.7018 14.4938 16.9515 15.0961C17.1908 15.7004 17.5548 16.2099 18.0435 16.6245C18.5201 17.0306 19.1433 17.3104 19.913 17.464C20.6723 17.6196 21.6219 17.5862 22.7617 17.3637L23.546 17.2107Z" fill="#7ACAD6"/>
<path d="M26.2658 16.2241L26.5445 16.6714L26.5445 16.6714L26.2658 16.2241ZM27.7531 14.7294L28.214 14.9806L28.2076 14.9915L27.7531 14.7294ZM28.2925 12.8826L28.8218 12.8942L28.8212 12.9027L28.2925 12.8826ZM27.2516 5.24074L27.1656 4.71501C27.4543 4.65865 27.727 4.84834 27.7745 5.13869L27.2516 5.24074ZM25.1027 5.66018L24.5798 5.76223C24.5323 5.47188 24.7278 5.19081 25.0166 5.13445L25.1027 5.66018ZM26.0873 12.662L26.6156 12.6874L26.6154 12.6905L26.0873 12.662ZM25.7347 13.8701L26.1968 14.1188C26.1936 14.1246 26.1903 14.1304 26.1869 14.1361L25.7347 13.8701ZM24.8 14.7849L25.0665 15.2399L25.063 15.2421L24.8 14.7849ZM20.8471 15.5565L20.9488 15.0281L20.9528 15.0288L20.8471 15.5565ZM19.6799 15.0518L20.0265 14.6369L20.0279 14.638L19.6799 15.0518ZM18.9502 14.055L18.4638 14.2815L18.4626 14.2787L18.9502 14.055ZM17.6519 7.11441L17.5658 6.58868C17.8545 6.53232 18.1272 6.72201 18.1747 7.01236L17.6519 7.11441ZM15.4872 7.53691L14.9643 7.63896C14.9168 7.34861 15.1123 7.06754 15.4011 7.01118L15.4872 7.53691ZM16.9515 15.0961L17.4412 14.8772L17.4443 14.885L16.9515 15.0961ZM18.0435 16.6245L18.3909 16.2102L18.3918 16.211L18.0435 16.6245ZM19.913 17.464L20.0299 16.9385L20.0325 16.939L19.913 17.464ZM23.46 16.6849C24.5726 16.4678 25.4048 16.1574 25.9871 15.7768L26.5445 16.6714C25.8011 17.1572 24.82 17.5045 23.6321 17.7364L23.46 16.6849ZM25.9871 15.7768C26.5936 15.3805 27.0221 14.9413 27.2986 14.4672L28.2076 14.9915C27.8269 15.644 27.2638 16.2013 26.5445 16.6714L25.9871 15.7768ZM27.2924 14.4782C27.5686 13.9792 27.7258 13.4428 27.7637 12.8625L28.8212 12.9027C28.7729 13.6412 28.5706 14.336 28.2138 14.9806L27.2924 14.4782ZM27.7632 12.871C27.7939 12.2533 27.7576 11.6262 27.6533 10.9891L28.699 10.785C28.8151 11.4938 28.8563 12.1971 28.8217 12.8942L27.7632 12.871ZM27.6533 10.9891L26.7288 5.3428L27.7745 5.13869L28.699 10.785L27.6533 10.9891ZM27.3377 5.76647L25.1887 6.18591L25.0166 5.13445L27.1656 4.71501L27.3377 5.76647ZM25.6255 5.55813L26.5371 11.1256L25.4914 11.3297L24.5798 5.76223L25.6255 5.55813ZM26.5371 11.1256C26.6257 11.6666 26.6532 12.1878 26.6156 12.6874L25.5589 12.6365C25.5892 12.2331 25.5681 11.7981 25.4914 11.3297L26.5371 11.1256ZM26.6154 12.6905C26.5739 13.2026 26.4361 13.6813 26.1968 14.1188L25.2726 13.6214C25.432 13.33 25.5292 13.0033 25.5591 12.6335L26.6154 12.6905ZM26.1869 14.1361C25.9222 14.5816 25.541 14.9472 25.0665 15.2399L24.5334 14.33C24.8823 14.1148 25.1242 13.8705 25.2825 13.6041L26.1869 14.1361ZM25.063 15.2421C24.5677 15.5424 23.945 15.7548 23.2176 15.8967L23.0454 14.8453C23.6983 14.7178 24.1879 14.5395 24.5369 14.3278L25.063 15.2421ZM23.2176 15.8967L22.6529 16.007L22.4807 14.9555L23.0454 14.8453L23.2176 15.8967ZM22.6529 16.007C21.9355 16.147 21.2928 16.1815 20.7414 16.0841L20.9528 15.0288C21.3349 15.0964 21.8387 15.0808 22.4807 14.9555L22.6529 16.007ZM20.7454 16.0848C20.1969 15.9923 19.7169 15.793 19.332 15.4657L20.0279 14.638C20.2448 14.8226 20.5429 14.9597 20.9488 15.0281L20.7454 16.0848ZM19.3334 15.4668C18.9566 15.1486 18.6671 14.7505 18.4638 14.2815L19.4365 13.8285C19.5801 14.1597 19.7771 14.4263 20.0265 14.6369L19.3334 15.4668ZM18.4626 14.2787C18.2688 13.8243 18.1292 13.325 18.0406 12.7839L19.0863 12.5798C19.163 13.0482 19.2812 13.4643 19.4377 13.8313L18.4626 14.2787ZM18.0406 12.7839L17.129 7.21647L18.1747 7.01236L19.0863 12.5798L18.0406 12.7839ZM17.7379 7.64014L15.5733 8.06264L15.4011 7.01118L17.5658 6.58868L17.7379 7.64014ZM16.0101 7.43486L16.9346 13.0812L15.8888 13.2853L14.9643 7.63896L16.0101 7.43486ZM16.9346 13.0812C17.0384 13.7155 17.2076 14.3138 17.4412 14.8773L16.4619 15.3149C16.1961 14.6738 16.0054 13.9969 15.8888 13.2853L16.9346 13.0812ZM17.4443 14.885C17.6525 15.4108 17.9668 15.8504 18.3909 16.2102L17.6961 17.0387C17.1428 16.5694 16.7291 15.9901 16.4588 15.3072L17.4443 14.885ZM18.3918 16.211C18.7877 16.5483 19.3249 16.7978 20.0299 16.9385L19.7962 17.9895C18.9616 17.823 18.2525 17.5128 17.6952 17.038L18.3918 16.211ZM20.0325 16.939C20.7 17.0758 21.5742 17.053 22.6757 16.838L22.8478 17.8895C21.6696 18.1194 20.6446 18.1634 19.7935 17.989L20.0325 16.939ZM22.6757 16.838L23.46 16.6849L23.6321 17.7364L22.8478 17.8895L22.6757 16.838Z" fill="#7ACAD6" mask="url(#path-2-outside-1_1588_3417)"/>
<mask id="path-4-outside-2_1588_3417" maskUnits="userSpaceOnUse" x="33.2417" y="3.89417" width="15.8413" height="15.5111" fill="black">
<rect fill="white" x="33.2417" y="3.89417" width="15.8413" height="15.5111"/>
<path d="M40.1224 17.2107C38.9721 16.9861 38.0655 16.6573 37.4026 16.2241C36.7397 15.7909 36.244 15.2927 35.9153 14.7294C35.5989 14.1576 35.4191 13.542 35.376 12.8826C35.3433 12.2252 35.3821 11.56 35.4923 10.8871L36.4168 5.24074L38.5658 5.66018L37.6542 11.2277C37.5715 11.7324 37.5472 12.2105 37.5812 12.662C37.6169 13.103 37.7344 13.5057 37.9338 13.8701C38.1453 14.226 38.4568 14.531 38.8685 14.7849C39.2906 15.0409 39.8468 15.2363 40.5369 15.371L41.1016 15.4812C41.7814 15.6139 42.3546 15.639 42.8214 15.5565C43.2986 15.476 43.6876 15.3078 43.9885 15.0518C44.3016 14.7874 44.5449 14.4551 44.7183 14.055C44.8935 13.6443 45.0224 13.1866 45.105 12.6819L46.0166 7.11441L48.1813 7.53691L47.2567 13.1832C47.1466 13.8562 46.9666 14.4938 46.7169 15.0961C46.4777 15.7004 46.1137 16.2099 45.6249 16.6245C45.1484 17.0306 44.5252 17.3104 43.7554 17.464C42.9961 17.6196 42.0466 17.5862 40.9067 17.3637L40.1224 17.2107Z"/>
</mask>
<path d="M40.1224 17.2107C38.9721 16.9861 38.0655 16.6573 37.4026 16.2241C36.7397 15.7909 36.244 15.2927 35.9153 14.7294C35.5989 14.1576 35.4191 13.542 35.376 12.8826C35.3433 12.2252 35.3821 11.56 35.4923 10.8871L36.4168 5.24074L38.5658 5.66018L37.6542 11.2277C37.5715 11.7324 37.5472 12.2105 37.5812 12.662C37.6169 13.103 37.7344 13.5057 37.9338 13.8701C38.1453 14.226 38.4568 14.531 38.8685 14.7849C39.2906 15.0409 39.8468 15.2363 40.5369 15.371L41.1016 15.4812C41.7814 15.6139 42.3546 15.639 42.8214 15.5565C43.2986 15.476 43.6876 15.3078 43.9885 15.0518C44.3016 14.7874 44.5449 14.4551 44.7183 14.055C44.8935 13.6443 45.0224 13.1866 45.105 12.6819L46.0166 7.11441L48.1813 7.53691L47.2567 13.1832C47.1466 13.8562 46.9666 14.4938 46.7169 15.0961C46.4777 15.7004 46.1137 16.2099 45.6249 16.6245C45.1484 17.0306 44.5252 17.3104 43.7554 17.464C42.9961 17.6196 42.0466 17.5862 40.9067 17.3637L40.1224 17.2107Z" fill="#7ACAD6"/>
<path d="M37.4026 16.2241L37.124 16.6714L37.124 16.6714L37.4026 16.2241ZM35.9153 14.7294L35.4545 14.9806L35.4609 14.9915L35.9153 14.7294ZM35.376 12.8826L34.8467 12.8942L34.8472 12.9027L35.376 12.8826ZM36.4168 5.24074L36.5029 4.71501C36.2141 4.65865 35.9415 4.84834 35.894 5.13869L36.4168 5.24074ZM38.5658 5.66018L39.0887 5.76223C39.1362 5.47188 38.9406 5.19081 38.6519 5.13445L38.5658 5.66018ZM37.5812 12.662L37.0528 12.6874L37.0531 12.6905L37.5812 12.662ZM37.9338 13.8701L37.4717 14.1188C37.4749 14.1246 37.4781 14.1304 37.4815 14.1361L37.9338 13.8701ZM38.8685 14.7849L38.6019 15.2399L38.6055 15.2421L38.8685 14.7849ZM42.8214 15.5565L42.7197 15.0281L42.7157 15.0288L42.8214 15.5565ZM43.9885 15.0518L43.642 14.6369L43.6406 14.638L43.9885 15.0518ZM44.7183 14.055L45.2047 14.2815L45.2059 14.2787L44.7183 14.055ZM46.0166 7.11441L46.1027 6.58868C45.8139 6.53232 45.5413 6.72201 45.4937 7.01236L46.0166 7.11441ZM48.1813 7.53691L48.7041 7.63896C48.7517 7.34861 48.5561 7.06754 48.2673 7.01118L48.1813 7.53691ZM46.7169 15.0961L46.2272 14.8772L46.2241 14.885L46.7169 15.0961ZM45.6249 16.6245L45.2775 16.2102L45.2766 16.211L45.6249 16.6245ZM43.7554 17.464L43.6386 16.9385L43.6359 16.939L43.7554 17.464ZM40.2085 16.6849C39.0958 16.4678 38.2637 16.1574 37.6813 15.7768L37.124 16.6714C37.8674 17.1572 38.8484 17.5045 40.0363 17.7364L40.2085 16.6849ZM37.6813 15.7768C37.0748 15.3805 36.6464 14.9413 36.3698 14.4672L35.4609 14.9915C35.8416 15.644 36.4047 16.2013 37.124 16.6714L37.6813 15.7768ZM36.3761 14.4782C36.0999 13.9792 35.9427 13.4428 35.9047 12.8625L34.8472 12.9027C34.8955 13.6412 35.0979 14.336 35.4546 14.9806L36.3761 14.4782ZM35.9052 12.871C35.8746 12.2533 35.9108 11.6262 36.0152 10.9891L34.9694 10.785C34.8534 11.4938 34.8121 12.1971 34.8468 12.8942L35.9052 12.871ZM36.0152 10.9891L36.9397 5.3428L35.894 5.13869L34.9694 10.785L36.0152 10.9891ZM36.3307 5.76647L38.4797 6.18591L38.6519 5.13445L36.5029 4.71501L36.3307 5.76647ZM38.0429 5.55813L37.1313 11.1256L38.177 11.3297L39.0887 5.76223L38.0429 5.55813ZM37.1313 11.1256C37.0427 11.6666 37.0152 12.1878 37.0528 12.6874L38.1096 12.6365C38.0792 12.2331 38.1004 11.7981 38.177 11.3297L37.1313 11.1256ZM37.0531 12.6905C37.0945 13.2026 37.2324 13.6813 37.4717 14.1188L38.3958 13.6214C38.2365 13.33 38.1393 13.0033 38.1093 12.6335L37.0531 12.6905ZM37.4815 14.1361C37.7462 14.5816 38.1275 14.9472 38.6019 15.2399L39.1351 14.33C38.7862 14.1148 38.5443 13.8705 38.386 13.6041L37.4815 14.1361ZM38.6055 15.2421C39.1007 15.5424 39.7234 15.7548 40.4509 15.8967L40.623 14.8453C39.9701 14.7178 39.4805 14.5395 39.1315 14.3278L38.6055 15.2421ZM40.4509 15.8967L41.0156 16.007L41.1877 14.9555L40.623 14.8453L40.4509 15.8967ZM41.0156 16.007C41.7329 16.147 42.3757 16.1815 42.927 16.0841L42.7157 15.0288C42.3335 15.0964 41.8298 15.0808 41.1877 14.9555L41.0156 16.007ZM42.923 16.0848C43.4716 15.9923 43.9516 15.793 44.3365 15.4657L43.6406 14.638C43.4236 14.8226 43.1256 14.9597 42.7197 15.0281L42.923 16.0848ZM44.3351 15.4668C44.7119 15.1486 45.0014 14.7505 45.2047 14.2815L44.2319 13.8285C44.0883 14.1597 43.8913 14.4263 43.642 14.6369L44.3351 15.4668ZM45.2059 14.2787C45.3997 13.8243 45.5393 13.325 45.6279 12.7839L44.5821 12.5798C44.5054 13.0482 44.3872 13.4643 44.2307 13.8313L45.2059 14.2787ZM45.6279 12.7839L46.5395 7.21647L45.4937 7.01236L44.5821 12.5798L45.6279 12.7839ZM45.9305 7.64014L48.0952 8.06264L48.2673 7.01118L46.1027 6.58868L45.9305 7.64014ZM47.6584 7.43486L46.7339 13.0812L47.7796 13.2853L48.7041 7.63896L47.6584 7.43486ZM46.7339 13.0812C46.63 13.7155 46.4609 14.3138 46.2273 14.8773L47.2065 15.3149C47.4723 14.6738 47.6631 13.9969 47.7796 13.2853L46.7339 13.0812ZM46.2241 14.885C46.016 15.4108 45.7017 15.8504 45.2775 16.2102L45.9723 17.0387C46.5257 16.5694 46.9393 15.9901 47.2097 15.3072L46.2241 14.885ZM45.2766 16.211C44.8807 16.5483 44.3435 16.7978 43.6386 16.9385L43.8723 17.9895C44.7068 17.823 45.416 17.5128 45.9732 17.038L45.2766 16.211ZM43.6359 16.939C42.9684 17.0758 42.0943 17.053 40.9928 16.838L40.8206 17.8895C41.9988 18.1194 43.0238 18.1634 43.8749 17.989L43.6359 16.939ZM40.9928 16.838L40.2085 16.6849L40.0363 17.7364L40.8206 17.8895L40.9928 16.838Z" fill="#7ACAD6" mask="url(#path-4-outside-2_1588_3417)"/>
<mask id="path-6-outside-3_1588_3417" maskUnits="userSpaceOnUse" x="0.576416" y="5.34766" width="14" height="13" fill="black">
<rect fill="white" x="0.576416" y="5.34766" width="14" height="13"/>
<path d="M1.34887 16.2353L8.90352 8.64977H1.61151V6.82677H12.5804V7.93911L4.91763 15.5247H13.0439L12.4414 17.3477H1.34887V16.2353Z"/>
</mask>
<path d="M1.34887 16.2353L8.90352 8.64977H1.61151V6.82677H12.5804V7.93911L4.91763 15.5247H13.0439L12.4414 17.3477H1.34887V16.2353Z" fill="#25434F"/>
<path d="M1.34887 16.2353L0.97141 15.8594C0.871973 15.9592 0.816145 16.0944 0.816145 16.2353H1.34887ZM8.90352 8.64977L9.28099 9.0257C9.4329 8.87317 9.47808 8.6442 9.39549 8.4454C9.31291 8.2466 9.11879 8.11704 8.90352 8.11704V8.64977ZM1.61151 8.64977H1.07878C1.07878 8.94399 1.31729 9.1825 1.61151 9.1825V8.64977ZM1.61151 6.82677V6.29404C1.31729 6.29404 1.07878 6.53255 1.07878 6.82677H1.61151ZM12.5804 6.82677H13.1132C13.1132 6.53255 12.8746 6.29404 12.5804 6.29404V6.82677ZM12.5804 7.93911L12.9552 8.31771C13.0563 8.21765 13.1132 8.08133 13.1132 7.93911H12.5804ZM4.91763 15.5247L4.54285 15.1461C4.38937 15.298 4.3428 15.5275 4.42494 15.7273C4.50708 15.927 4.70167 16.0574 4.91763 16.0574V15.5247ZM13.0439 15.5247L13.5497 15.6918C13.6034 15.5295 13.5758 15.3512 13.4757 15.2126C13.3755 15.074 13.2149 14.9919 13.0439 14.9919V15.5247ZM12.4414 17.3477V17.8804C12.6712 17.8804 12.8751 17.733 12.9472 17.5148L12.4414 17.3477ZM1.34887 17.3477H0.816145C0.816145 17.6419 1.05466 17.8804 1.34887 17.8804V17.3477ZM1.72634 16.6112L9.28099 9.0257L8.52606 8.27384L0.97141 15.8594L1.72634 16.6112ZM8.90352 8.11704H1.61151V9.1825H8.90352V8.11704ZM2.14424 8.64977V6.82677H1.07878V8.64977H2.14424ZM1.61151 7.3595H12.5804V6.29404H1.61151V7.3595ZM12.0477 6.82677V7.93911H13.1132V6.82677H12.0477ZM12.2056 7.56051L4.54285 15.1461L5.29242 15.9033L12.9552 8.31771L12.2056 7.56051ZM4.91763 16.0574H13.0439V14.9919H4.91763V16.0574ZM12.5381 15.3575L11.9356 17.1805L12.9472 17.5148L13.5497 15.6918L12.5381 15.3575ZM12.4414 16.8149H1.34887V17.8804H12.4414V16.8149ZM1.88161 17.3477V16.2353H0.816145V17.3477H1.88161Z" fill="#25434F" mask="url(#path-6-outside-3_1588_3417)"/>
<mask id="path-8-outside-4_1588_3417" maskUnits="userSpaceOnUse" x="49.7395" y="5.34766" width="16" height="13" fill="black">
<rect fill="white" x="49.7395" y="5.34766" width="16" height="13"/>
<path d="M53.092 9.37588V17.3477H50.9754V6.82677H53.679L57.6649 12.3576L61.6508 6.82677H64.3544V17.3477H62.2379V9.39133L57.6649 15.5247L53.092 9.37588Z"/>
</mask>
<path d="M53.092 9.37588V17.3477H50.9754V6.82677H53.679L57.6649 12.3576L61.6508 6.82677H64.3544V17.3477H62.2379V9.39133L57.6649 15.5247L53.092 9.37588Z" fill="#25434F"/>
<path d="M53.092 9.37588L53.5194 9.05796C53.3824 8.87365 53.1426 8.79795 52.9245 8.87015C52.7065 8.94235 52.5592 9.14618 52.5592 9.37588H53.092ZM53.092 17.3477V17.8804C53.3862 17.8804 53.6247 17.6419 53.6247 17.3477H53.092ZM50.9754 17.3477H50.4427C50.4427 17.6419 50.6812 17.8804 50.9754 17.8804V17.3477ZM50.9754 6.82677V6.29404C50.6812 6.29404 50.4427 6.53255 50.4427 6.82677H50.9754ZM53.679 6.82677L54.1112 6.5153C54.0111 6.37636 53.8503 6.29404 53.679 6.29404V6.82677ZM57.6649 12.3576L57.2327 12.669C57.3329 12.808 57.4937 12.8903 57.6649 12.8903C57.8362 12.8903 57.997 12.808 58.0971 12.669L57.6649 12.3576ZM61.6508 6.82677V6.29404C61.4796 6.29404 61.3188 6.37636 61.2186 6.5153L61.6508 6.82677ZM64.3544 6.82677H64.8872C64.8872 6.53255 64.6486 6.29404 64.3544 6.29404V6.82677ZM64.3544 17.3477V17.8804C64.6486 17.8804 64.8872 17.6419 64.8872 17.3477H64.3544ZM62.2379 17.3477H61.7052C61.7052 17.6419 61.9437 17.8804 62.2379 17.8804V17.3477ZM62.2379 9.39133H62.7706C62.7706 9.16175 62.6235 8.95799 62.4056 8.8857C62.1877 8.81341 61.948 8.88884 61.8108 9.0729L62.2379 9.39133ZM57.6649 15.5247L57.2375 15.8426C57.3379 15.9776 57.4963 16.0573 57.6646 16.0574C57.8329 16.0575 57.9914 15.978 58.092 15.8431L57.6649 15.5247ZM52.5592 9.37588V17.3477H53.6247V9.37588H52.5592ZM53.092 16.8149H50.9754V17.8804H53.092V16.8149ZM51.5082 17.3477V6.82677H50.4427V17.3477H51.5082ZM50.9754 7.3595H53.679V6.29404H50.9754V7.3595ZM53.2469 7.13823L57.2327 12.669L58.0971 12.0461L54.1112 6.5153L53.2469 7.13823ZM58.0971 12.669L62.083 7.13823L61.2186 6.5153L57.2327 12.0461L58.0971 12.669ZM61.6508 7.3595H64.3544V6.29404H61.6508V7.3595ZM63.8217 6.82677V17.3477H64.8872V6.82677H63.8217ZM64.3544 16.8149H62.2379V17.8804H64.3544V16.8149ZM62.7706 17.3477V9.39133H61.7052V17.3477H62.7706ZM61.8108 9.0729L57.2378 15.2062L58.092 15.8431L62.665 9.70976L61.8108 9.0729ZM58.0924 15.2067L53.5194 9.05796L52.6645 9.6938L57.2375 15.8426L58.0924 15.2067Z" fill="#25434F" mask="url(#path-8-outside-4_1588_3417)"/>
</svg>
