<svg width="124" height="45" viewBox="0 0 124 45" fill="none" xmlns="http://www.w3.org/2000/svg">
<path d="M48.5273 29.0566L70.9727 29.0566" stroke="#25434F" stroke-width="5.5" stroke-linecap="round"/>
<mask id="path-2-outside-1_1518_1675" maskUnits="userSpaceOnUse" x="27.7298" y="7.82223" width="28.4151" height="28.4737" fill="black">
<rect fill="white" x="27.7298" y="7.82223" width="28.4151" height="28.4737"/>
<path d="M44.1906 32.1088C46.3498 31.6873 48.0516 31.07 49.2959 30.2569C50.5403 29.4437 51.4709 28.5085 52.0878 27.4511C52.6818 26.3779 53.0193 25.2223 53.1002 23.9845C53.1615 22.7504 53.0887 21.5018 52.8819 20.2386L51.1464 9.63979L47.1125 10.4271L48.8237 20.8779C48.9789 21.8253 49.0245 22.7228 48.9607 23.5703C48.8937 24.3981 48.6731 25.1541 48.299 25.8381C47.9019 26.5063 47.3171 27.0787 46.5443 27.5554C45.752 28.036 44.708 28.4027 43.4124 28.6555L42.3524 28.8624C41.0765 29.1115 40.0005 29.1585 39.1243 29.0036C38.2286 28.8526 37.4982 28.5369 36.9334 28.0564C36.3457 27.5601 35.8891 26.9363 35.5635 26.1852C35.2347 25.4143 34.9928 24.5551 34.8377 23.6077L33.1265 13.1569L29.0631 13.95L30.7986 24.5488C31.0054 25.812 31.3432 27.0089 31.8119 28.1395C32.261 29.2739 32.9442 30.2302 33.8617 31.0085C34.7563 31.7708 35.926 32.2961 37.371 32.5844C38.7963 32.8765 40.5787 32.8137 42.7184 32.3961L44.1906 32.1088Z"/>
</mask>
<path d="M44.1906 32.1088C46.3498 31.6873 48.0516 31.07 49.2959 30.2569C50.5403 29.4437 51.4709 28.5085 52.0878 27.4511C52.6818 26.3779 53.0193 25.2223 53.1002 23.9845C53.1615 22.7504 53.0887 21.5018 52.8819 20.2386L51.1464 9.63979L47.1125 10.4271L48.8237 20.8779C48.9789 21.8253 49.0245 22.7228 48.9607 23.5703C48.8937 24.3981 48.6731 25.1541 48.299 25.8381C47.9019 26.5063 47.3171 27.0787 46.5443 27.5554C45.752 28.036 44.708 28.4027 43.4124 28.6555L42.3524 28.8624C41.0765 29.1115 40.0005 29.1585 39.1243 29.0036C38.2286 28.8526 37.4982 28.5369 36.9334 28.0564C36.3457 27.5601 35.8891 26.9363 35.5635 26.1852C35.2347 25.4143 34.9928 24.5551 34.8377 23.6077L33.1265 13.1569L29.0631 13.95L30.7986 24.5488C31.0054 25.812 31.3432 27.0089 31.8119 28.1395C32.261 29.2739 32.9442 30.2302 33.8617 31.0085C34.7563 31.7708 35.926 32.2961 37.371 32.5844C38.7963 32.8765 40.5787 32.8137 42.7184 32.3961L44.1906 32.1088Z" fill="#7ACAD6"/>
<path d="M49.2959 30.2569L49.8191 31.0965L49.8191 31.0965L49.2959 30.2569ZM52.0878 27.4511L52.9526 27.9226C52.9488 27.9295 52.9449 27.9364 52.9409 27.9432L52.0878 27.4511ZM53.1002 23.9845L54.0936 24.0062C54.0934 24.0115 54.0931 24.0168 54.0927 24.0222L53.1002 23.9845ZM51.1464 9.63979L50.9848 8.65293C51.5269 8.54713 52.0387 8.90319 52.1279 9.44822L51.1464 9.63979ZM47.1125 10.4271L46.1311 10.6187C46.0418 10.0736 46.4089 9.54605 46.951 9.44025L47.1125 10.4271ZM48.9607 23.5703L49.9526 23.6181L49.9521 23.6238L48.9607 23.5703ZM48.299 25.8381L49.1663 26.305C49.1603 26.3159 49.1542 26.3267 49.1478 26.3374L48.299 25.8381ZM46.5443 27.5554L47.0447 28.4095L47.038 28.4135L46.5443 27.5554ZM39.1243 29.0036L39.3152 28.0119L39.3227 28.0132L39.1243 29.0036ZM36.9334 28.0564L37.584 27.2775L37.5865 27.2797L36.9334 28.0564ZM35.5635 26.1852L34.6505 26.6104L34.6483 26.6051L35.5635 26.1852ZM33.1265 13.1569L32.9649 12.17C33.5069 12.0642 34.0187 12.4203 34.1079 12.9653L33.1265 13.1569ZM29.0631 13.95L28.0816 14.1415C27.9924 13.5965 28.3595 13.0689 28.9015 12.9631L29.0631 13.95ZM31.8119 28.1395L32.731 27.7287C32.733 27.7335 32.735 27.7384 32.7369 27.7433L31.8119 28.1395ZM33.8617 31.0085L34.5138 30.2309L34.5155 30.2323L33.8617 31.0085ZM37.371 32.5844L37.5903 31.5979L37.5952 31.5989L37.371 32.5844ZM44.029 31.1219C46.1176 30.7143 47.6797 30.1317 48.7728 29.4173L49.8191 31.0965C48.4236 32.0084 46.582 32.6604 44.3522 33.0956L44.029 31.1219ZM48.7728 29.4173C49.9113 28.6733 50.7155 27.8489 51.2346 26.9591L52.9409 27.9432C52.2263 29.168 51.1693 30.2141 49.8191 31.0965L48.7728 29.4173ZM51.223 26.9796C51.7414 26.043 52.0365 25.0361 52.1077 23.9468L54.0927 24.0222C54.0021 25.4085 53.6222 26.7128 52.9526 27.9226L51.223 26.9796ZM52.1068 23.9627C52.1643 22.8032 52.0962 21.6261 51.9004 20.4302L53.8633 20.0471C54.0812 21.3775 54.1586 22.6977 54.0936 24.0062L52.1068 23.9627ZM51.9004 20.4302L50.1649 9.83135L52.1279 9.44822L53.8633 20.0471L51.9004 20.4302ZM51.308 10.6266L47.2741 11.414L46.951 9.44025L50.9848 8.65293L51.308 10.6266ZM48.094 10.2355L49.8052 20.6864L47.8423 21.0695L46.1311 10.6187L48.094 10.2355ZM49.8052 20.6864C49.9715 21.702 50.0231 22.6803 49.9526 23.6181L47.9689 23.5226C48.0259 22.7653 47.9862 21.9487 47.8423 21.0695L49.8052 20.6864ZM49.9521 23.6238C49.8743 24.5852 49.6155 25.4837 49.1663 26.305L47.4316 25.3712C47.7307 24.8244 47.9132 24.211 47.9694 23.5168L49.9521 23.6238ZM49.1478 26.3374C48.6509 27.1737 47.9353 27.86 47.0447 28.4094L46.0439 26.7014C46.6988 26.2974 47.1529 25.8389 47.4501 25.3389L49.1478 26.3374ZM47.038 28.4135C46.1084 28.9773 44.9395 29.3759 43.574 29.6424L43.2509 27.6687C44.4765 27.4295 45.3955 27.0946 46.0506 26.6973L47.038 28.4135ZM43.574 29.6424L42.514 29.8493L42.1909 27.8756L43.2509 27.6687L43.574 29.6424ZM42.514 29.8493C41.1674 30.1121 39.961 30.177 38.9259 29.9941L39.3227 28.0132C40.04 28.14 40.9856 28.1108 42.1909 27.8756L42.514 29.8493ZM38.9335 29.9954C37.9038 29.8217 37.0027 29.4477 36.2803 28.8332L37.5865 27.2797C37.9938 27.626 38.5533 27.8835 39.3152 28.0119L38.9335 29.9954ZM36.2829 28.8354C35.5756 28.238 35.0322 27.4908 34.6505 26.6104L36.4765 25.76C36.746 26.3818 37.1159 26.8822 37.584 27.2775L36.2829 28.8354ZM34.6483 26.6051C34.2845 25.7521 34.0225 24.8149 33.8562 23.7993L35.8191 23.4162C35.9631 24.2953 36.185 25.0764 36.4788 25.7652L34.6483 26.6051ZM33.8562 23.7993L32.145 13.3485L34.1079 12.9653L35.8191 23.4162L33.8562 23.7993ZM33.288 14.1438L29.2247 14.9368L28.9015 12.9631L32.9649 12.17L33.288 14.1438ZM30.0446 13.7584L31.78 24.3573L29.8171 24.7404L28.0816 14.1415L30.0446 13.7584ZM31.78 24.3573C31.975 25.5479 32.2925 26.671 32.731 27.7287L30.8928 28.5503C30.3939 27.3468 30.0358 26.0761 29.8171 24.7404L31.78 24.3573ZM32.7369 27.7433C33.1276 28.7302 33.7176 29.5555 34.5138 30.2309L33.2096 31.7861C32.1709 30.905 31.3944 29.8176 30.8869 28.5357L32.7369 27.7433ZM34.5155 30.2323C35.2586 30.8655 36.267 31.3339 37.5903 31.5979L37.1516 33.5708C35.5851 33.2583 34.2539 32.676 33.2079 31.7847L34.5155 30.2323ZM37.5952 31.5989C38.8483 31.8557 40.4891 31.8128 42.5568 31.4093L42.8799 33.383C40.6683 33.8146 38.7442 33.8973 37.1467 33.5698L37.5952 31.5989ZM42.5568 31.4093L44.029 31.1219L44.3522 33.0956L42.8799 33.383L42.5568 31.4093Z" fill="#7ACAD6" mask="url(#path-2-outside-1_1518_1675)"/>
<mask id="path-4-outside-2_1518_1675" maskUnits="userSpaceOnUse" x="63.0797" y="7.82223" width="28.4151" height="28.4737" fill="black">
<rect fill="white" x="63.0797" y="7.82223" width="28.4151" height="28.4737"/>
<path d="M75.034 32.1088C72.8748 31.6873 71.173 31.07 69.9287 30.2569C68.6843 29.4437 67.7537 28.5085 67.1368 27.4511C66.5428 26.3779 66.2053 25.2223 66.1244 23.9845C66.0631 22.7504 66.1359 21.5018 66.3427 20.2386L68.0782 9.63979L72.1121 10.4271L70.4009 20.8779C70.2457 21.8253 70.2001 22.7228 70.2639 23.5703C70.3309 24.3981 70.5515 25.1541 70.9256 25.8381C71.3227 26.5063 71.9075 27.0787 72.6803 27.5554C73.4726 28.036 74.5166 28.4027 75.8122 28.6555L76.8722 28.8624C78.1481 29.1115 79.2241 29.1585 80.1003 29.0036C80.9961 28.8526 81.7264 28.5369 82.2912 28.0564C82.8789 27.5601 83.3355 26.9363 83.6611 26.1852C83.9899 25.4143 84.2318 24.5551 84.387 23.6077L86.0982 13.1569L90.1615 13.95L88.426 24.5488C88.2192 25.812 87.8814 27.0089 87.4127 28.1395C86.9636 29.2739 86.2804 30.2302 85.3629 31.0085C84.4683 31.7708 83.2986 32.2961 81.8536 32.5844C80.4283 32.8765 78.6459 32.8137 76.5063 32.3961L75.034 32.1088Z"/>
</mask>
<path d="M75.034 32.1088C72.8748 31.6873 71.173 31.07 69.9287 30.2569C68.6843 29.4437 67.7537 28.5085 67.1368 27.4511C66.5428 26.3779 66.2053 25.2223 66.1244 23.9845C66.0631 22.7504 66.1359 21.5018 66.3427 20.2386L68.0782 9.63979L72.1121 10.4271L70.4009 20.8779C70.2457 21.8253 70.2001 22.7228 70.2639 23.5703C70.3309 24.3981 70.5515 25.1541 70.9256 25.8381C71.3227 26.5063 71.9075 27.0787 72.6803 27.5554C73.4726 28.036 74.5166 28.4027 75.8122 28.6555L76.8722 28.8624C78.1481 29.1115 79.2241 29.1585 80.1003 29.0036C80.9961 28.8526 81.7264 28.5369 82.2912 28.0564C82.8789 27.5601 83.3355 26.9363 83.6611 26.1852C83.9899 25.4143 84.2318 24.5551 84.387 23.6077L86.0982 13.1569L90.1615 13.95L88.426 24.5488C88.2192 25.812 87.8814 27.0089 87.4127 28.1395C86.9636 29.2739 86.2804 30.2302 85.3629 31.0085C84.4683 31.7708 83.2986 32.2961 81.8536 32.5844C80.4283 32.8765 78.6459 32.8137 76.5063 32.3961L75.034 32.1088Z" fill="#7ACAD6"/>
<path d="M69.9287 30.2569L69.4055 31.0965L69.4055 31.0965L69.9287 30.2569ZM67.1368 27.4511L66.272 27.9226C66.2758 27.9295 66.2797 27.9364 66.2837 27.9432L67.1368 27.4511ZM66.1244 23.9845L65.131 24.0062C65.1312 24.0115 65.1315 24.0168 65.1319 24.0222L66.1244 23.9845ZM68.0782 9.63979L68.2398 8.65293C67.6977 8.54713 67.1859 8.90319 67.0967 9.44822L68.0782 9.63979ZM72.1121 10.4271L73.0935 10.6187C73.1828 10.0736 72.8157 9.54605 72.2736 9.44025L72.1121 10.4271ZM70.2639 23.5703L69.272 23.6181L69.2725 23.6238L70.2639 23.5703ZM70.9256 25.8381L70.0583 26.305C70.0643 26.3159 70.0704 26.3267 70.0768 26.3374L70.9256 25.8381ZM72.6803 27.5554L72.1799 28.4095L72.1866 28.4135L72.6803 27.5554ZM80.1003 29.0036L79.9094 28.0119L79.9019 28.0132L80.1003 29.0036ZM82.2912 28.0564L81.6406 27.2775L81.6381 27.2797L82.2912 28.0564ZM83.6611 26.1852L84.5741 26.6104L84.5763 26.6051L83.6611 26.1852ZM86.0982 13.1569L86.2597 12.17C85.7177 12.0642 85.2059 12.4203 85.1167 12.9653L86.0982 13.1569ZM90.1615 13.95L91.143 14.1415C91.2322 13.5965 90.8651 13.0689 90.3231 12.9631L90.1615 13.95ZM87.4127 28.1395L86.4936 27.7287C86.4916 27.7335 86.4897 27.7384 86.4877 27.7433L87.4127 28.1395ZM85.3629 31.0085L84.7108 30.2309L84.7092 30.2323L85.3629 31.0085ZM81.8536 32.5844L81.6343 31.5979L81.6294 31.5989L81.8536 32.5844ZM75.1956 31.1219C73.107 30.7143 71.5449 30.1317 70.4518 29.4173L69.4055 31.0965C70.8011 32.0084 72.6426 32.6604 74.8724 33.0956L75.1956 31.1219ZM70.4518 29.4173C69.3133 28.6733 68.5091 27.8489 67.99 26.9591L66.2837 27.9432C66.9983 29.168 68.0553 30.2141 69.4055 31.0965L70.4518 29.4173ZM68.0017 26.9796C67.4832 26.043 67.1881 25.0361 67.1169 23.9468L65.1319 24.0222C65.2225 25.4085 65.6024 26.7128 66.272 27.9226L68.0017 26.9796ZM67.1179 23.9627C67.0603 22.8032 67.1284 21.6261 67.3242 20.4302L65.3613 20.0471C65.1434 21.3775 65.066 22.6977 65.131 24.0062L67.1179 23.9627ZM67.3242 20.4302L69.0597 9.83135L67.0967 9.44822L65.3613 20.0471L67.3242 20.4302ZM67.9166 10.6266L71.9505 11.414L72.2736 9.44025L68.2398 8.65293L67.9166 10.6266ZM71.1306 10.2355L69.4194 20.6864L71.3823 21.0695L73.0935 10.6187L71.1306 10.2355ZM69.4194 20.6864C69.2531 21.702 69.2015 22.6803 69.2721 23.6181L71.2557 23.5226C71.1987 22.7653 71.2384 21.9487 71.3823 21.0695L69.4194 20.6864ZM69.2725 23.6238C69.3504 24.5852 69.6091 25.4837 70.0583 26.305L71.793 25.3712C71.4939 24.8244 71.3114 24.211 71.2552 23.5168L69.2725 23.6238ZM70.0768 26.3374C70.5737 27.1737 71.2893 27.86 72.1799 28.4094L73.1807 26.7014C72.5258 26.2974 72.0717 25.8389 71.7745 25.3389L70.0768 26.3374ZM72.1866 28.4135C73.1162 28.9773 74.2851 29.3759 75.6506 29.6424L75.9737 27.6687C74.7482 27.4295 73.8291 27.0946 73.174 26.6973L72.1866 28.4135ZM75.6506 29.6424L76.7106 29.8493L77.0337 27.8756L75.9737 27.6687L75.6506 29.6424ZM76.7106 29.8493C78.0572 30.1121 79.2636 30.177 80.2987 29.9941L79.9019 28.0132C79.1846 28.14 78.239 28.1108 77.0337 27.8756L76.7106 29.8493ZM80.2911 29.9954C81.3208 29.8217 82.2219 29.4477 82.9443 28.8332L81.6381 27.2797C81.2308 27.626 80.6713 27.8835 79.9094 28.0119L80.2911 29.9954ZM82.9417 28.8354C83.649 28.238 84.1925 27.4908 84.5741 26.6104L82.7481 25.76C82.4786 26.3818 82.1087 26.8822 81.6406 27.2775L82.9417 28.8354ZM84.5763 26.6051C84.9401 25.7521 85.2021 24.8149 85.3684 23.7993L83.4055 23.4162C83.2615 24.2953 83.0396 25.0764 82.7458 25.7652L84.5763 26.6051ZM85.3684 23.7993L87.0796 13.3485L85.1167 12.9653L83.4055 23.4162L85.3684 23.7993ZM85.9366 14.1438L89.9999 14.9368L90.3231 12.9631L86.2597 12.17L85.9366 14.1438ZM89.18 13.7584L87.4446 24.3573L89.4075 24.7404L91.143 14.1415L89.18 13.7584ZM87.4446 24.3573C87.2496 25.5479 86.9322 26.671 86.4936 27.7287L88.3318 28.5503C88.8307 27.3468 89.1888 26.0761 89.4075 24.7404L87.4446 24.3573ZM86.4877 27.7433C86.097 28.7302 85.507 29.5555 84.7108 30.2309L86.015 31.7861C87.0537 30.905 87.8302 29.8176 88.3377 28.5357L86.4877 27.7433ZM84.7092 30.2323C83.966 30.8655 82.9576 31.3339 81.6343 31.5979L82.073 33.5708C83.6395 33.2583 84.9707 32.676 86.0167 31.7847L84.7092 30.2323ZM81.6294 31.5989C80.3763 31.8557 78.7355 31.8128 76.6678 31.4093L76.3447 33.383C78.5563 33.8146 80.4804 33.8973 82.0779 33.5698L81.6294 31.5989ZM76.6678 31.4093L75.1956 31.1219L74.8724 33.0956L76.3447 33.383L76.6678 31.4093Z" fill="#7ACAD6" mask="url(#path-4-outside-2_1518_1675)"/>
<mask id="path-6-outside-3_1518_1675" maskUnits="userSpaceOnUse" x="0.9375" y="10.377" width="25" height="22" fill="black">
<rect fill="white" x="0.9375" y="10.377" width="25" height="22"/>
<path d="M2.3875 29.289L16.5685 15.05H2.8805V11.628H23.4705V13.716L9.0865 27.955H24.3405L23.2095 31.377H2.3875V29.289Z"/>
</mask>
<path d="M2.3875 29.289L16.5685 15.05H2.8805V11.628H23.4705V13.716L9.0865 27.955H24.3405L23.2095 31.377H2.3875V29.289Z" fill="#25434F"/>
<path d="M2.3875 29.289L1.67895 28.5833C1.4923 28.7707 1.3875 29.0244 1.3875 29.289H2.3875ZM16.5685 15.05L17.2771 15.7556C17.5622 15.4693 17.647 15.0395 17.492 14.6663C17.337 14.2932 16.9726 14.05 16.5685 14.05V15.05ZM2.8805 15.05H1.8805C1.8805 15.6022 2.32822 16.05 2.8805 16.05V15.05ZM2.8805 11.628V10.628C2.32822 10.628 1.8805 11.0757 1.8805 11.628H2.8805ZM23.4705 11.628H24.4705C24.4705 11.0757 24.0228 10.628 23.4705 10.628V11.628ZM23.4705 13.716L24.174 14.4266C24.3637 14.2388 24.4705 13.9829 24.4705 13.716H23.4705ZM9.0865 27.955L8.38298 27.2443C8.09489 27.5295 8.00747 27.9604 8.16165 28.3353C8.31584 28.7102 8.68112 28.955 9.0865 28.955V27.955ZM24.3405 27.955L25.29 28.2688C25.3907 27.964 25.339 27.6294 25.151 27.3692C24.963 27.109 24.6615 26.955 24.3405 26.955V27.955ZM23.2095 31.377V32.377C23.6409 32.377 24.0236 32.1003 24.159 31.6908L23.2095 31.377ZM2.3875 31.377H1.3875C1.3875 31.9292 1.83522 32.377 2.3875 32.377V31.377ZM3.09605 29.9946L17.2771 15.7556L15.86 14.3443L1.67895 28.5833L3.09605 29.9946ZM16.5685 14.05H2.8805V16.05H16.5685V14.05ZM3.8805 15.05V11.628H1.8805V15.05H3.8805ZM2.8805 12.628H23.4705V10.628H2.8805V12.628ZM22.4705 11.628V13.716H24.4705V11.628H22.4705ZM22.767 13.0053L8.38298 27.2443L9.79002 28.6656L24.174 14.4266L22.767 13.0053ZM9.0865 28.955H24.3405V26.955H9.0865V28.955ZM23.391 27.6411L22.26 31.0631L24.159 31.6908L25.29 28.2688L23.391 27.6411ZM23.2095 30.377H2.3875V32.377H23.2095V30.377ZM3.3875 31.377V29.289H1.3875V31.377H3.3875Z" fill="#25434F" mask="url(#path-6-outside-3_1518_1675)"/>
<mask id="path-8-outside-4_1518_1675" maskUnits="userSpaceOnUse" x="94.2227" y="10.377" width="28" height="22" fill="black">
<rect fill="white" x="94.2227" y="10.377" width="28" height="22"/>
<path d="M99.5157 16.413V31.377H95.5427V11.628H100.618L108.1 22.01L115.582 11.628H120.657V31.377H116.684V16.442L108.1 27.955L99.5157 16.413Z"/>
</mask>
<path d="M99.5157 16.413V31.377H95.5427V11.628H100.618L108.1 22.01L115.582 11.628H120.657V31.377H116.684V16.442L108.1 27.955L99.5157 16.413Z" fill="#25434F"/>
<path d="M99.5157 16.413L100.318 15.8162C100.061 15.4702 99.6107 15.3281 99.2013 15.4636C98.792 15.5992 98.5157 15.9818 98.5157 16.413H99.5157ZM99.5157 31.377V32.377C100.068 32.377 100.516 31.9292 100.516 31.377H99.5157ZM95.5427 31.377H94.5427C94.5427 31.9292 94.9904 32.377 95.5427 32.377V31.377ZM95.5427 11.628V10.628C94.9904 10.628 94.5427 11.0757 94.5427 11.628H95.5427ZM100.618 11.628L101.429 11.0433C101.241 10.7825 100.939 10.628 100.618 10.628V11.628ZM108.1 22.01L107.288 22.5946C107.476 22.8554 107.778 23.01 108.1 23.01C108.421 23.01 108.723 22.8554 108.911 22.5946L108.1 22.01ZM115.582 11.628V10.628C115.26 10.628 114.958 10.7825 114.77 11.0433L115.582 11.628ZM120.657 11.628H121.657C121.657 11.0757 121.209 10.628 120.657 10.628V11.628ZM120.657 31.377V32.377C121.209 32.377 121.657 31.9292 121.657 31.377H120.657ZM116.684 31.377H115.684C115.684 31.9292 116.131 32.377 116.684 32.377V31.377ZM116.684 16.442H117.684C117.684 16.011 117.408 15.6285 116.999 15.4928C116.59 15.3571 116.14 15.4987 115.882 15.8442L116.684 16.442ZM108.1 27.955L107.297 28.5517C107.486 28.8053 107.783 28.9548 108.099 28.955C108.415 28.9551 108.712 28.806 108.901 28.5527L108.1 27.955ZM98.5157 16.413V31.377H100.516V16.413H98.5157ZM99.5157 30.377H95.5427V32.377H99.5157V30.377ZM96.5427 31.377V11.628H94.5427V31.377H96.5427ZM95.5427 12.628H100.618V10.628H95.5427V12.628ZM99.8064 12.2126L107.288 22.5946L108.911 21.4253L101.429 11.0433L99.8064 12.2126ZM108.911 22.5946L116.393 12.2126L114.77 11.0433L107.288 21.4253L108.911 22.5946ZM115.582 12.628H120.657V10.628H115.582V12.628ZM119.657 11.628V31.377H121.657V11.628H119.657ZM120.657 30.377H116.684V32.377H120.657V30.377ZM117.684 31.377V16.442H115.684V31.377H117.684ZM115.882 15.8442L107.298 27.3572L108.901 28.5527L117.485 17.0397L115.882 15.8442ZM108.902 27.3582L100.318 15.8162L98.7132 17.0097L107.297 28.5517L108.902 27.3582Z" fill="#25434F" mask="url(#path-8-outside-4_1518_1675)"/>
</svg>
