<svg width="151" height="149" viewBox="0 0 151 149" fill="none" xmlns="http://www.w3.org/2000/svg">
<path d="M144.375 92.4531C134.465 129.941 95.5685 152.394 57.4982 142.611C19.4346 132.828 -3.39533 94.5067 6.51453 57.0258C7.37709 53.7675 8.45529 50.6193 9.74216 47.594C23.1869 15.8699 58.6371 -2.07015 93.3918 6.86127C131.462 16.6444 154.285 54.9657 144.375 92.4531Z" fill="white" stroke="#231815" stroke-width="8" stroke-miterlimit="10"/>
<path d="M9.60487 47.7409C9.60487 47.7409 35.0117 37.9329 35.3988 59.3473C35.7682 79.4693 30.5241 73.5981 37.8607 103.454C37.8607 103.454 43.1399 122.881 28.0845 126.617" stroke="#231815" stroke-width="8" stroke-miterlimit="10"/>
<path d="M44.0984 11.6844C44.0984 11.6844 28.476 62.5911 46.9658 67.4996C54.5269 69.507 59.0263 64.836 60.5922 57.4903C62.7351 47.4318 63.7674 37.0404 67.5845 25.5964C71.3519 14.2961 80.3643 4.93483 80.3643 4.93483" stroke="#231815" stroke-width="8" stroke-miterlimit="10"/>
<path d="M61.8289 50.1876C61.0157 54.3777 64.2076 71.5603 80.3489 62.5015C84.3311 60.2643 86.0579 55.4566 87.3061 51.1625C90.5107 40.0958 96.7207 20.0116 107.953 13.0883" stroke="#231815" stroke-width="8" stroke-miterlimit="10"/>
<path d="M86.6839 53.0855C85.8473 59.1211 95.5289 72.1252 107.266 59.3297C108.17 58.342 111.321 51.9418 112.287 49.6322C114.701 43.8614 119.607 33.3082 127.206 28.2866" stroke="#231815" stroke-width="8" stroke-miterlimit="10"/>
<path d="M110.268 52.7223C110.268 52.7223 111.115 78.9553 130.71 57.9173C133.364 55.0668 135.779 51.1631 139.078 46.4148" stroke="#231815" stroke-width="8" stroke-miterlimit="10"/>
<path d="M68.704 107.618C73.8367 111.059 87.7899 114.604 99.9668 106.157" stroke="black" stroke-width="8" stroke-linecap="round" stroke-linejoin="round"/>
<path d="M103.116 91.1585C105.788 91.1585 107.953 89.001 107.953 86.3395C107.953 83.6781 105.788 81.5205 103.116 81.5205C100.445 81.5205 98.2793 83.6781 98.2793 86.3395C98.2793 89.001 100.445 91.1585 103.116 91.1585Z" fill="#231815" stroke="#231815" stroke-width="5" stroke-miterlimit="10"/>
<path d="M62.1113 92.6063C64.7826 92.6063 66.9482 90.4487 66.9482 87.7873C66.9482 85.1258 64.7826 82.9683 62.1113 82.9683C59.44 82.9683 57.2744 85.1258 57.2744 87.7873C57.2744 90.4487 59.44 92.6063 62.1113 92.6063Z" fill="#231815" stroke="#231815" stroke-width="5" stroke-miterlimit="10"/>
<path d="M88.6777 95.8891C88.4461 97.552 86.1094 98.7873 83.4457 98.6448C80.782 98.5023 78.8132 97.0362 79.038 95.3733C79.2628 93.7104 81.6063 92.4751 84.27 92.6176C86.9337 92.7602 88.9025 94.2262 88.6777 95.8891Z" fill="#231815" stroke="#231815" stroke-width="5" stroke-miterlimit="10"/>
</svg>
